<svg width="64" height="72" viewBox="0 0 64 72" fill="none" xmlns="http://www.w3.org/2000/svg">
<path d="M32 32C37.5228 32 42 27.5228 42 22C42 16.4772 37.5228 12 32 12C26.4772 12 22 16.4772 22 22C22 27.5228 26.4772 32 32 32Z" stroke="black" stroke-width="2" stroke-linecap="round" stroke-linejoin="round"/>
<path d="M32 26V22" stroke="black" stroke-width="2" stroke-linecap="round" stroke-linejoin="round"/>
<path d="M32 18H32.01" stroke="black" stroke-width="2" stroke-linecap="round" stroke-linejoin="round"/>
<path d="M13.22 56C12.8 56 12.4127 55.8973 12.058 55.692C11.7033 55.4867 11.4233 55.2113 11.218 54.866C11.0127 54.5113 10.91 54.124 10.91 53.704V46.592H12.17V53.676C12.17 53.9187 12.2493 54.124 12.408 54.292C12.5667 54.4507 12.7627 54.53 12.996 54.53H13.696C13.752 54.53 13.7987 54.5533 13.836 54.6C13.8733 54.6373 13.892 54.684 13.892 54.74V55.804C13.892 55.9347 13.8267 56 13.696 56H13.22ZM13.6914 56C13.6354 56 13.5887 55.9813 13.5514 55.944C13.5141 55.9067 13.4954 55.86 13.4954 55.804V54.726C13.4954 54.67 13.5141 54.6233 13.5514 54.586C13.5794 54.5487 13.6261 54.53 13.6914 54.53H14.1394C14.3727 54.53 14.5734 54.4647 14.7414 54.334C14.9094 54.2033 15.0167 54.0167 15.0634 53.774L15.3434 52.332C15.4367 51.8653 15.6701 51.478 16.0434 51.17C16.4167 50.862 16.8414 50.708 17.3174 50.708H18.1014C18.4841 50.708 18.8387 50.8013 19.1654 50.988C19.4921 51.1747 19.7487 51.4313 19.9354 51.758C20.1314 52.0847 20.2294 52.4393 20.2294 52.822V54.53C20.2294 54.95 20.0894 55.3 19.8094 55.58C19.5294 55.86 19.1701 56 18.7314 56H17.0794C16.4261 56 15.9361 55.7107 15.6094 55.132C15.2734 55.7107 14.7554 56 14.0554 56H13.6914ZM18.9694 54.53V52.808C18.9694 52.612 18.8994 52.444 18.7594 52.304C18.6287 52.164 18.4607 52.094 18.2554 52.094H17.2334C17.0654 52.094 16.9161 52.15 16.7854 52.262C16.6547 52.374 16.5754 52.514 16.5474 52.682L16.3234 53.802C16.3141 53.83 16.3094 53.8673 16.3094 53.914C16.3094 54.082 16.3701 54.2267 16.4914 54.348C16.6127 54.4693 16.7527 54.53 16.9114 54.53H18.9694ZM26.0612 56.14C25.5945 56.14 25.1745 56.0233 24.8012 55.79C24.4278 55.5567 24.1338 55.2533 23.9192 54.88C23.7138 54.4973 23.6112 54.0913 23.6112 53.662V53.2C23.6112 52.808 23.6952 52.458 23.8632 52.15C24.0405 51.8327 24.2692 51.59 24.5492 51.422C24.6892 51.3193 24.8105 51.24 24.9132 51.184C25.0158 51.1187 25.0952 51.0673 25.1512 51.03L24.2132 50.4L24.8852 49.35L25.6132 49.84C26.8172 50.6613 27.5918 51.1793 27.9372 51.394C28.2358 51.5807 28.4598 51.8373 28.6092 52.164C28.7678 52.4813 28.8472 52.8173 28.8472 53.172V53.662C28.8472 54.0913 28.7398 54.4973 28.5252 54.88C28.3198 55.2627 28.0258 55.5707 27.6432 55.804C27.2698 56.028 26.8405 56.14 26.3552 56.14H26.0612ZM26.5232 54.712C26.8312 54.712 27.0832 54.6047 27.2792 54.39C27.4845 54.166 27.5872 53.928 27.5872 53.676V53.074C27.5872 52.962 27.5592 52.85 27.5032 52.738C27.4472 52.6167 27.3632 52.514 27.2512 52.43L26.1732 51.744L25.1792 52.444C25.0765 52.528 24.9972 52.6167 24.9412 52.71C24.8852 52.794 24.8572 52.906 24.8572 53.046V53.648C24.8572 53.9187 24.9598 54.166 25.1652 54.39C25.3798 54.6047 25.6318 54.712 25.9212 54.712H26.5232ZM27.6646 58.338L29.4706 57.75C29.8813 57.6007 30.1986 57.3767 30.4226 57.078C30.6559 56.7887 30.7726 56.4247 30.7726 55.986V51.352H32.0326V55.86C32.0326 56.588 31.8319 57.218 31.4306 57.75C31.0293 58.2913 30.4926 58.6787 29.8206 58.912L28.0426 59.528L27.6646 58.338ZM36.1477 56C35.7277 56 35.3404 55.8973 34.9857 55.692C34.6311 55.4867 34.3511 55.2113 34.1457 54.866C33.9404 54.5113 33.8377 54.124 33.8377 53.704V46.592H35.0977V53.676C35.0977 53.9187 35.1771 54.124 35.3357 54.292C35.4944 54.4507 35.6904 54.53 35.9237 54.53H36.6237C36.6797 54.53 36.7264 54.5533 36.7637 54.6C36.8011 54.6373 36.8197 54.684 36.8197 54.74V55.804C36.8197 55.9347 36.7544 56 36.6237 56H36.1477ZM36.6191 56C36.5631 56 36.5165 55.9813 36.4791 55.944C36.4418 55.9067 36.4231 55.86 36.4231 55.804V54.74C36.4231 54.684 36.4418 54.6373 36.4791 54.6C36.5165 54.5533 36.5631 54.53 36.6191 54.53H39.6711C39.9045 54.53 40.1051 54.4507 40.2731 54.292C40.4411 54.124 40.5251 53.9233 40.5251 53.69V50.946H41.7571V53.676C41.7571 54.096 41.6545 54.4833 41.4491 54.838C41.2438 55.1927 40.9638 55.4773 40.6091 55.692C40.2545 55.8973 39.8671 56 39.4471 56H36.6191ZM36.8991 57.68H38.2851L38.2991 59.094H36.8991V57.68ZM41.6799 58.296L42.7299 57.75C43.0753 57.5727 43.3366 57.3487 43.5139 57.078C43.6913 56.8073 43.7799 56.4013 43.7799 55.86V51.352H45.0259V55.776C45.0259 56.56 44.8859 57.1807 44.6059 57.638C44.3259 58.1047 43.8966 58.4967 43.3179 58.814L42.2539 59.416L41.6799 58.296ZM48.5337 56C48.067 56 47.6704 55.8367 47.3437 55.51C47.017 55.174 46.8537 54.7727 46.8537 54.306V52.668H47.9177V54.054C47.9177 54.1847 47.9597 54.2967 48.0437 54.39C48.1277 54.4833 48.2397 54.53 48.3797 54.53H50.6197C50.937 54.53 51.1844 54.432 51.3617 54.236C51.5484 54.04 51.6417 53.802 51.6417 53.522C51.6417 53.2887 51.5904 53.088 51.4877 52.92L49.8637 49.994L50.9277 49.336L52.6217 52.332C52.8457 52.724 52.9577 53.1487 52.9577 53.606C52.9577 54.026 52.855 54.4227 52.6497 54.796C52.4444 55.16 52.1597 55.454 51.7957 55.678C51.441 55.8927 51.0397 56 50.5917 56H48.5337Z" fill="black"/>
</svg>
