<svg width="64" height="76" viewBox="0 0 64 76" fill="none" xmlns="http://www.w3.org/2000/svg">
<path d="M43.9466 29.0057C43.9466 30.5574 43.9466 32.354 43.9466 33.789C43.9466 34.9635 43.3322 35.5546 42.1033 35.5623C42.1033 35.5623 41.9983 35.5623 41.9517 35.5623C40.6567 35.5273 40.61 35.7374 39.56 34.4424H32.105C31.9533 34.629 31.7667 34.8623 31.58 35.0957C31.3467 35.399 31.0317 35.5507 30.6467 35.5507C29.9817 35.5507 29.305 35.574 28.64 35.539C28.1267 35.5157 27.905 35.294 27.8583 34.769C27.8117 34.2557 27.8117 33.7423 27.8117 33.229C27.8117 31.9457 27.8117 30.3707 27.8117 29.0524C27.73 29.0524 27.3333 29.0757 27.0183 29.0524C26.75 29.029 26.2483 28.6207 26.4933 27.9207C26.645 27.489 27.17 27.4774 27.3917 27.4657C27.9517 27.4424 28.5233 27.4657 29.13 27.4657C29.795 26.7424 30.4717 25.984 31.09 25.249C31.5217 24.7357 32.035 24.4907 32.7 24.5024C34.8117 24.514 36.9233 24.514 39.035 24.5024C39.6417 24.5024 40.1316 24.6773 40.5283 25.144C40.995 25.6923 41.5433 26.334 41.9867 26.894C42.3716 27.3957 42.7917 27.4307 43.445 27.4074C44.67 27.419 45.16 27.3023 45.2067 28.1657C45.2067 28.6557 45.055 28.959 44.5767 28.994C44.32 29.0174 44.3666 29.0057 43.935 29.0173L43.9466 29.0057ZM30.705 28.0024C31.2183 28.7257 32.3383 29.4373 32.945 29.414C36.375 29.379 34.7883 29.3673 38.8367 29.414C39.6533 29.414 40.3767 28.9357 41.0767 28.1657C40.7617 27.699 40.1667 27.069 39.6183 26.369C39.315 25.984 39.0467 25.7857 38.6383 25.7857C36.9233 25.7624 34.8817 25.7507 33.12 25.774C33.12 25.774 32.735 25.704 32.4317 26.019C31.8833 26.5673 31.1367 27.4657 30.6933 28.0024H30.705ZM42.2667 33.9407C42.2433 32.3657 42.2433 30.534 42.255 29.1574C40.5167 31.129 40.7617 30.8724 38.895 30.9074C36.8417 30.8724 34.7767 30.8607 32.7233 30.9074C30.9967 30.9774 30.355 29.6824 29.445 29.099C29.4217 29.4374 29.4683 30.7207 29.4683 31.0707C29.4683 31.8873 29.4333 32.669 29.4567 33.4857C29.4567 34.0457 29.865 33.9524 30.4017 33.9524C30.6233 33.9524 30.705 33.6257 30.8917 33.3107C31.2417 32.564 31.5567 32.704 32.385 32.704C34.6017 32.7273 37.285 32.7623 39.42 32.704C40.3417 32.704 40.295 33.0307 41.2633 33.964C41.2633 33.964 42.01 33.964 42.2783 33.9524L42.2667 33.9407Z" fill="black"/>
<path d="M40.1667 23.9185C39.5717 23.9185 39.1167 23.9185 38.475 23.9068C38.475 21.7835 38.1833 19.8235 36.9467 18.0385C35.955 18.4235 35.3017 18.8668 34.6483 19.5085C34.1 20.0451 34.0767 20.7101 34.3333 21.3751C34.5317 21.9001 34.8 22.4135 35.045 22.9151C35.1733 23.1835 35.36 23.5101 35.57 23.9185C35.0217 23.9185 34.5317 23.9185 34.065 23.9068C33.5283 23.0668 33.155 22.2851 32.8517 21.4101C32.4433 20.1735 32.7817 19.1818 33.75 18.3768C34.1817 18.0151 34.66 17.7001 35.115 17.3618C35.3483 17.1868 35.7333 16.9885 36.0017 16.7785C34.4617 14.2585 29.6083 13.5701 28.7217 14.0951C28.78 14.3401 28.85 14.5735 28.8967 14.8068C29.165 16.1835 28.8967 16.8251 27.6717 17.4785C27.0883 17.7935 26.4583 18.0618 25.8633 18.3651C25.4083 18.5985 24.9533 18.8435 24.5217 19.1118C23.7167 19.6135 23.4833 20.3601 23.7283 21.2468C23.8683 21.7485 24.0433 22.2268 24.2067 22.7168C24.3583 23.1485 24.5217 23.5918 24.7083 24.0118C25.2333 25.2368 25.14 26.4268 24.4517 27.5585C24.0783 28.1768 23.6583 28.7601 23.2267 29.4251C24.3 30.6035 26.0383 31.3968 27.3683 31.7935C27.38 31.8518 27.38 32.5518 27.38 33.2285C25.4433 32.7501 22.6083 31.3268 20.9867 29.3318C18.8983 26.7418 18.455 24.0585 18.98 20.9201C19.82 15.9501 24.5567 11.5868 31.475 12.5901C36.41 13.2201 40.33 18.0035 40.1667 23.9185ZM22.0367 28.0601C23.3783 26.7301 23.6583 25.8435 23.2267 24.2685C23.0633 23.6735 22.8417 23.1018 22.6317 22.5185C21.675 19.7535 22.0833 18.7268 24.6617 17.4085C24.755 17.3618 24.8483 17.3151 24.9417 17.2685C25.5017 17.0001 26.0617 16.7435 26.5983 16.4518C26.96 16.2535 27.3333 16.0318 27.4033 15.5768C27.4733 15.0868 27.38 14.6551 26.9367 14.3635C21.0917 15.5885 18.3267 23.2068 22.0367 28.0601Z" fill="black"/>
<path d="M13.22 60C12.8 60 12.4127 59.8973 12.058 59.692C11.7033 59.4867 11.4233 59.2113 11.218 58.866C11.0127 58.5113 10.91 58.124 10.91 57.704V50.592H12.17V57.676C12.17 57.9187 12.2493 58.124 12.408 58.292C12.5667 58.4507 12.7627 58.53 12.996 58.53H13.696C13.752 58.53 13.7987 58.5533 13.836 58.6C13.8733 58.6373 13.892 58.684 13.892 58.74V59.804C13.892 59.9347 13.8267 60 13.696 60H13.22ZM19.2214 59.44C18.9974 59.636 18.8014 59.7807 18.6334 59.874C18.4654 59.958 18.2134 60 17.8774 60H13.6914C13.6354 60 13.5887 59.9813 13.5514 59.944C13.5141 59.9067 13.4954 59.8647 13.4954 59.818V58.712C13.4954 58.656 13.5141 58.614 13.5514 58.586C13.5887 58.5487 13.6354 58.53 13.6914 58.53H15.0914C14.9141 58.4087 14.8254 58.1847 14.8254 57.858C14.8254 57.7367 14.8394 57.606 14.8674 57.466L15.0494 56.542C15.1427 56.0753 15.3714 55.6927 15.7354 55.394C16.0994 55.086 16.5147 54.9367 16.9814 54.946L17.5414 54.96C17.9241 54.96 18.2694 55.0533 18.5774 55.24C18.8947 55.4267 19.1421 55.6787 19.3194 55.996C19.5061 56.304 19.5994 56.6447 19.5994 57.018V58.53H21.6994V56.822C21.6994 56.57 21.6294 56.3553 21.4894 56.178C21.3587 55.9913 21.1767 55.8607 20.9434 55.786L16.1554 54.288L16.5334 53.042L21.1674 54.47C21.6901 54.638 22.1147 54.9367 22.4414 55.366C22.7774 55.786 22.9454 56.2807 22.9454 56.85V58.46C22.9454 58.9173 22.8007 59.2907 22.5114 59.58C22.2221 59.86 21.8487 60 21.3914 60H19.2214V59.44ZM18.3954 56.836C18.3954 56.64 18.3301 56.4767 18.1994 56.346C18.0687 56.2153 17.9007 56.15 17.6954 56.15H16.9254C16.5614 56.15 16.3374 56.3413 16.2534 56.724L16.0434 57.9C16.0341 57.9373 16.0294 57.984 16.0294 58.04C16.0294 58.2173 16.0854 58.3573 16.1974 58.46C16.3187 58.5533 16.4681 58.6 16.6454 58.6H18.3954V56.836ZM34.4102 60C34.4382 60.0747 34.4615 60.1587 34.4802 60.252C34.5082 60.3453 34.5222 60.4573 34.5222 60.588V61.05C34.5222 61.4793 34.3962 61.862 34.1442 62.198C33.8922 62.5433 33.5609 62.8093 33.1502 62.996C32.7395 63.192 32.3009 63.29 31.8342 63.29H29.3002C28.7589 63.29 28.2595 63.1547 27.8022 62.884C27.3449 62.6227 26.9809 62.2633 26.7102 61.806C26.4489 61.3487 26.3182 60.8493 26.3182 60.308V56.794H27.5642V60.126C27.5642 60.5927 27.7275 60.9893 28.0542 61.316C28.3809 61.6427 28.7775 61.806 29.2442 61.806H32.1702C32.5062 61.806 32.7722 61.6987 32.9682 61.484C33.1735 61.2693 33.2762 60.994 33.2762 60.658V60H30.4622V58.53H35.7682C35.8242 58.53 35.8709 58.5487 35.9082 58.586C35.9455 58.614 35.9642 58.656 35.9642 58.712V59.79C35.9642 59.846 35.9409 59.8973 35.8942 59.944C35.8569 59.9813 35.8149 60 35.7682 60H34.4102ZM38.3475 62.24C37.8715 62.1093 37.5075 61.848 37.2555 61.456C37.0035 61.0733 36.8728 60.588 36.8635 60H35.7715C35.7155 60 35.6688 59.9813 35.6315 59.944C35.5942 59.8973 35.5755 59.846 35.5755 59.79V58.726C35.5755 58.5953 35.6408 58.53 35.7715 58.53H36.8495V56.962C36.8495 56.5793 36.9428 56.2293 37.1295 55.912C37.3162 55.5853 37.5682 55.3287 37.8855 55.142C38.2122 54.946 38.5668 54.848 38.9495 54.848H39.7755C40.2608 54.848 40.6855 55.002 41.0495 55.31C41.4228 55.618 41.6562 56.01 41.7495 56.486L41.9595 57.578C41.9875 57.6993 42.0015 57.8207 42.0015 57.942C42.0015 58.2967 41.9082 58.6327 41.7215 58.95C41.5442 59.2673 41.2968 59.524 40.9795 59.72C40.6715 59.9067 40.3355 60 39.9715 60H39.0055C38.8002 60 38.4922 59.9813 38.0815 59.944C38.0908 60.3267 38.1515 60.602 38.2635 60.77C38.3848 60.9473 38.6135 61.0827 38.9495 61.176L40.9655 61.736L42.1415 59.72C42.6268 58.9267 43.3828 58.53 44.4095 58.53H44.5495C44.6802 58.53 44.7455 58.5953 44.7455 58.726V59.79C44.7455 59.93 44.6802 60 44.5495 60H44.1715C43.9102 60 43.6862 60.0467 43.4995 60.14C43.3222 60.2333 43.1588 60.4013 43.0095 60.644L42.4355 61.596L41.5395 63.108L38.3475 62.24ZM40.2375 58.53C40.4335 58.53 40.5782 58.46 40.6715 58.32C40.7742 58.1707 40.8068 57.9933 40.7695 57.788L40.5595 56.794C40.4942 56.402 40.2562 56.206 39.8455 56.206H38.7815C38.5948 56.206 38.4315 56.276 38.2915 56.416C38.1608 56.556 38.0955 56.7193 38.0955 56.906V58.53H40.2375ZM47.5168 48.94L47.9088 49.85L45.2348 51.208L44.8288 50.298L47.5168 48.94ZM44.5488 60C44.4928 60 44.4462 59.9813 44.4088 59.944C44.3715 59.9067 44.3528 59.86 44.3528 59.804V58.726C44.3528 58.6607 44.3715 58.614 44.4088 58.586C44.4462 58.5487 44.4928 58.53 44.5488 58.53H46.4668C46.8682 58.53 47.1995 58.3947 47.4608 58.124C47.7315 57.8533 47.8668 57.5267 47.8668 57.144C47.8668 56.808 47.7548 56.486 47.5308 56.178L45.2208 53.014V52.076L48.2868 50.522L48.8468 51.628L46.4948 52.818L48.4688 55.492C48.8795 56.0427 49.0848 56.6353 49.0848 57.27C49.0848 57.746 48.9682 58.194 48.7348 58.614C48.5015 59.034 48.1748 59.37 47.7548 59.622C47.3348 59.874 46.8588 60 46.3268 60H44.5488ZM51.0257 51.698H52.2717V60H51.0257V51.698ZM49.1917 50.788C49.201 50.4427 49.313 50.158 49.5277 49.934C49.7424 49.71 50.0317 49.598 50.3957 49.598H53.5457V50.69H50.4237C50.237 50.69 50.1437 50.7787 50.1437 50.956V51.432H49.1917V50.788Z" fill="black"/>
</svg>
