<svg width="40" height="40" viewBox="0 0 40 40" fill="none" xmlns="http://www.w3.org/2000/svg">
<g clip-path="url(#clip0_1607_11934)">
<path d="M10.5009 0.318278C10.2145 0.39465 9.61308 0.642859 9.16439 0.862428C8.06655 1.39703 6.9687 2.47579 6.46273 3.51635C6.17634 4.08914 5.55582 6.15119 5.12623 7.91729C5.07849 8.09867 5.43171 7.79318 6.42455 6.80989C8.39113 4.84332 10.2622 3.59273 12.6775 2.60944C13.7563 2.1703 15.866 1.57842 16.7825 1.45431C17.0593 1.41612 17.2694 1.36839 17.2407 1.3493C17.2216 1.33021 16.3243 1.07245 15.2551 0.77651C13.5176 0.308732 13.193 0.251452 12.1715 0.213266C11.3505 0.184627 10.8732 0.213266 10.5009 0.318278Z" fill="black"/>
<path d="M12.8282 34.8125C18.1737 37.3526 24.3938 36.8949 29.3194 33.5869L29.3204 33.5859C33.0252 31.1038 35.455 27.4217 36.3722 22.8926V22.8916C36.4799 22.3569 36.544 21.2052 36.544 19.9854C36.544 18.9177 36.4956 17.902 36.4112 17.3066L36.3722 17.0781C35.455 12.5488 33.0254 8.86595 29.3204 6.38379H29.3194C26.0933 4.21785 22.2187 3.24007 18.3819 3.60547H18.3829C16.4889 3.78758 14.6158 4.31603 12.8282 5.15918H12.8292C7.95879 7.47927 4.59516 11.869 3.64266 17.1143L3.55868 17.624C3.38836 18.7732 3.38832 21.1978 3.55868 22.3467C4.38063 27.8163 7.80114 32.4177 12.8282 34.8125ZM20.5352 13.6826C19.4341 17.9107 14.1228 19.349 11.0313 16.2578C8.80615 14.0326 8.82319 10.6076 11.0597 8.37109L11.0616 8.36914C12.4642 6.97747 14.3012 6.40668 16.2081 6.80273L16.2091 6.80176C19.3048 7.44074 21.3225 10.6341 20.5362 13.6807L20.5352 13.6826ZM28.5421 20.1973C27.3543 20.4239 26.2976 20.2901 25.1544 19.7715L24.9112 19.6562C22.7733 18.6085 21.5091 16.2018 21.879 13.8896L21.92 13.666C22.169 12.4544 22.6024 11.6468 23.4766 10.7617V10.7607L23.4796 10.7578C24.6161 9.62132 25.8307 9.10266 27.4278 9.0791V9.07812C27.4294 9.07808 27.4311 9.07914 27.4327 9.0791C27.434 9.07908 27.4353 9.07814 27.4366 9.07812V9.0791C27.877 9.06903 28.4946 9.14196 28.8565 9.23535C31.3893 9.89041 33.1134 12.0505 33.1134 14.6299C33.1133 16.2576 32.6318 17.4835 31.5089 18.6064C30.747 19.3682 29.8146 19.8979 28.8067 20.1416L28.7989 20.1436L28.5421 20.1973ZM22.8028 20.042C22.8028 22.1792 20.7567 23.5305 18.8175 22.7588L18.6388 22.6816C18.3303 22.5405 18.0456 22.3844 17.8028 22.1357C17.5626 21.8896 17.4122 21.6019 17.2745 21.2959C16.1398 18.8016 18.8 16.2948 21.2218 17.5439C22.1734 18.0328 22.8026 18.9723 22.8028 20.042ZM16.5225 29.2109C14.7243 31.0199 12.1863 31.4144 9.89657 30.2588L9.89559 30.2578C6.91824 28.7521 5.9447 24.8658 7.8409 22.1094L7.84383 22.1055C9.11407 20.283 11.3866 19.368 13.6056 19.7725L13.6046 19.7734C14.0019 19.8423 14.6553 20.0967 15.0948 20.3164L15.0938 20.3174C17.2288 21.3662 18.4915 23.7698 18.1222 26.0801L18.0811 26.3037C17.8322 27.5157 17.399 28.3237 16.5245 29.209L16.5225 29.2109ZM27.5323 32.6709C25.2854 33.7554 22.6963 33.364 20.9796 31.6484C18.7501 29.43 18.7354 25.918 20.9503 23.7031L20.9522 23.7012C22.3615 22.3029 24.4562 21.7321 26.3829 22.2275H26.3839C29.2742 22.9748 31.1184 25.8861 30.5098 28.7969V28.7988L30.4356 29.0947C30.2379 29.7849 29.8663 30.4706 29.4171 31.0576C28.969 31.6431 28.4082 32.1778 27.797 32.5312L27.5323 32.6709Z" stroke="black" stroke-width="1.5"/>
<path d="M31.5036 5.11995C31.5036 5.15814 31.6946 5.32997 31.9332 5.50181C33.0215 6.32281 34.6921 8.16528 35.7041 9.68317C37.0883 11.7357 38.1766 14.4755 38.568 16.9576C38.6349 17.3395 38.7017 17.6354 38.7303 17.6163C38.7494 17.5877 39.0454 16.528 39.389 15.2488C39.9236 13.2058 40 12.8144 40 12.0603C40 10.3705 39.3795 8.89082 38.1862 7.70705C37.222 6.76195 36.3628 6.33236 34.3198 5.8073C33.4797 5.58773 32.506 5.32997 32.1528 5.23451C31.79 5.13904 31.5036 5.08176 31.5036 5.11995Z" fill="black"/>
<path d="M1.05011 23.0195C1.05011 23.0576 0.811452 23.9741 0.525057 25.0624C0.076372 26.7712 0 27.1626 0 27.9073C0 29.597 0.620522 31.0767 1.80429 32.2509C2.82576 33.2533 3.51311 33.5874 6.03339 34.2557C7.15033 34.5516 8.08588 34.7807 8.10497 34.7712C8.12407 34.7521 8.01906 34.6375 7.86631 34.523C7.33171 34.1125 5.60379 32.3846 5.031 31.6781C3.28399 29.5302 1.92839 26.6853 1.33651 23.9837C1.16467 23.1722 1.05011 22.7999 1.05011 23.0195Z" fill="black"/>
<path d="M34.6058 31.784C34.3958 32.0608 33.8326 32.6813 33.3553 33.1682C30.7586 35.7744 27.3505 37.6264 23.7706 38.3615C23.2264 38.4665 22.7586 38.5811 22.7396 38.6002C22.7014 38.6384 22.6918 38.6384 24.9162 39.2302C27.8469 40.013 29.0307 39.994 30.8159 39.1157C32.1333 38.4665 33.3075 37.2159 33.7849 35.9176C34.0331 35.278 35.0545 31.488 35.0163 31.3735C34.9973 31.3257 34.8159 31.5167 34.6058 31.784Z" fill="black"/>
</g>
<defs>
<clipPath id="clip0_1607_11934">
<rect y="0.203125" width="40" height="39.5941" fill="white"/>
</clipPath>
</defs>
</svg>
