<svg width="51" height="76" viewBox="0 0 51 76" fill="none" xmlns="http://www.w3.org/2000/svg">
<path d="M25.9317 16.1816C25.3717 16.9983 24.9983 17.5466 24.6017 18.1299C23.61 18.1299 22.665 18.1299 21.7083 18.1299C21.2767 18.1299 20.9267 18.2583 20.6233 18.5966C19.795 19.5533 18.0683 21.3149 17.8583 21.6183C18.6867 22.3533 19.3867 22.9366 20.1683 23.3799C20.46 23.5433 20.6467 23.5316 21.3 23.5316C22.1983 23.5549 23.015 23.5316 23.9367 23.5316C24.2633 24.3133 24.4967 24.7683 24.8233 25.4916C24.0067 25.4683 21.6383 25.4799 20.5533 25.4916C19.9933 25.4916 19.6317 25.3866 19.165 25.0483C18.325 24.4533 17.17 23.3566 16.2717 22.7849C16.2483 22.9599 16.2483 30.0999 16.2717 30.6249C16.89 30.6249 17.24 30.6249 17.8583 30.6133C18.08 30.2866 18.3833 29.8549 18.6283 29.5283C18.99 29.0266 19.3633 28.7349 20.0167 28.7349C22.3267 28.7349 24.6367 28.7349 26.9 28.7349C27.46 29.4466 27.81 30.0066 28.2417 30.6249C24.9283 30.6249 20.6233 30.6249 20.2383 30.6249C20.0867 30.8116 20.04 30.8933 19.9117 31.1499C19.0133 32.6783 19.3633 32.5849 18.0567 32.5849C16.925 32.5849 16.05 32.5849 15.35 32.5849C14.6967 32.5849 14.3933 32.3633 14.37 31.6049C14.3467 30.9283 14.3467 25.8533 14.3467 23.4499C14.3467 23.1816 14.3467 22.7849 14.3467 22.4349C13.915 22.4349 13.6467 22.4349 13.1217 22.4233C12.6083 22.3649 12.2583 22.0616 12.2233 21.6066C12.1883 21.1283 12.5617 20.6499 13.11 20.5799C13.5533 20.5216 14.0083 20.5449 14.4633 20.5449C15 20.5449 15.5483 20.5449 16.225 20.5449C16.7267 19.9966 18.78 17.8266 19.1417 17.3133C20.145 16.2516 20.705 16.1699 21.72 16.1699C23.3183 16.1699 24.3333 16.1816 25.9433 16.1816H25.9317Z" fill="black"/>
<path d="M32.01 19.9738C33.165 19.9388 34.0167 20.7321 34.04 21.8638C34.0633 22.9838 33.2467 23.8588 32.1383 23.8938C31.0183 23.9171 30.1433 23.1004 30.1083 21.9921C30.0733 20.8488 30.8783 20.0088 32.01 19.9854V19.9738Z" fill="black"/>
<path d="M38.7883 21.8991C38.8117 23.4508 38.38 24.8041 37.505 26.0291C36.21 27.8374 34.915 29.6341 33.6083 31.4308C33.34 31.7924 33.0833 32.1658 32.78 32.5041C32.3483 32.9824 31.8 32.9474 31.3567 32.5041C31.135 32.2824 27.8567 28.0008 26.5267 26.0524C25.5 24.5474 25.1033 22.8674 25.3133 21.0241C25.6983 17.7458 28.8367 14.8408 32.64 15.2141C36.6533 15.5991 38.94 19.0291 38.7883 21.9224V21.8991ZM32.1033 30.8008C33.445 28.8991 34.7633 27.0674 36.0933 25.2358C36.56 24.5941 36.8517 23.8824 37.015 23.1358C37.4583 21.1641 36.98 19.4141 35.44 18.0958C33.8767 16.7541 32.0917 16.3924 30.12 17.1974C28.2417 17.9674 26.8183 19.7291 26.9467 22.5408C26.9933 23.5208 27.3317 24.4074 27.8917 25.2008C29.1633 27.0208 31.8933 30.6958 32.115 30.8124L32.1033 30.8008Z" fill="black"/>
<path d="M12.17 57.242C12.17 57.5967 12.2913 57.9 12.534 58.152C12.786 58.404 13.094 58.53 13.458 58.53H19.128C19.3707 58.53 19.5713 58.4507 19.73 58.292C19.8887 58.124 19.968 57.9233 19.968 57.69V55.338H21.228V57.676C21.228 57.9093 21.312 58.11 21.48 58.278C21.648 58.446 21.8533 58.53 22.096 58.53H22.502C22.558 58.53 22.6047 58.5487 22.642 58.586C22.6793 58.614 22.698 58.6607 22.698 58.726V59.804C22.698 59.86 22.6793 59.9067 22.642 59.944C22.6047 59.9813 22.558 60 22.502 60H22.306C21.5967 60 21.032 59.7107 20.612 59.132C20.192 59.7107 19.6273 60 18.918 60H13.584C13.0987 60 12.6507 59.8787 12.24 59.636C11.8293 59.3933 11.5027 59.0713 11.26 58.67C11.0267 58.2593 10.91 57.8113 10.91 57.326V54.932H12.17V57.242ZM15.376 61.68H16.762L16.776 63.094H15.376V61.68ZM22.4961 60C22.4401 60 22.3934 59.9813 22.3561 59.944C22.3188 59.8973 22.3001 59.846 22.3001 59.79V58.74C22.3001 58.684 22.3188 58.6373 22.3561 58.6C22.3934 58.5533 22.4401 58.53 22.4961 58.53H23.9801C24.2788 58.53 24.7174 58.4833 25.2961 58.39L23.7561 57.354V55.492C23.7561 55.0907 23.8728 54.7733 24.1061 54.54C24.3488 54.2973 24.6661 54.176 25.0581 54.176H27.7041C28.0868 54.176 28.4321 54.2647 28.7401 54.442C29.0481 54.6193 29.2861 54.862 29.4541 55.17C29.6221 55.4687 29.7061 55.8 29.7061 56.164V56.542C29.7061 56.7847 29.6501 57.0133 29.5381 57.228C29.4354 57.4333 29.2861 57.606 29.0901 57.746L28.1521 58.376L28.5581 58.432C28.9314 58.4973 29.2441 58.53 29.4961 58.53H30.7561C30.8121 58.53 30.8588 58.5533 30.8961 58.6C30.9334 58.6373 30.9521 58.684 30.9521 58.74V59.79C30.9521 59.846 30.9334 59.8973 30.8961 59.944C30.8588 59.9813 30.8121 60 30.7561 60H29.2581C28.8288 60 28.3948 59.93 27.9561 59.79C27.5174 59.65 27.0974 59.4633 26.6961 59.23C26.3041 59.454 25.8841 59.6407 25.4361 59.79C24.9974 59.93 24.5634 60 24.1341 60H22.4961ZM28.5161 56.696V56.276C28.5161 56.0707 28.4554 55.9073 28.3341 55.786C28.2128 55.6553 28.0448 55.59 27.8301 55.59H24.9181V56.598L26.7381 57.774L28.5161 56.696ZM30.7539 60C30.6979 60 30.6512 59.9813 30.6139 59.944C30.5766 59.9067 30.5579 59.86 30.5579 59.804V58.726C30.5579 58.67 30.5812 58.6233 30.6279 58.586C30.6652 58.5487 30.7072 58.53 30.7539 58.53H31.3559C31.5892 58.53 31.7852 58.446 31.9439 58.278C32.1119 58.1007 32.1959 57.8907 32.1959 57.648V55.352H33.4419V57.662C33.4419 57.8953 33.5259 58.1007 33.6939 58.278C33.8712 58.446 34.0766 58.53 34.3099 58.53H34.5899C34.8512 58.53 35.0566 58.4647 35.2059 58.334C35.3646 58.194 35.4672 58.0073 35.5139 57.774L35.9899 55.38L37.2499 55.618L36.8579 57.592C36.8486 57.6293 36.8439 57.6807 36.8439 57.746C36.8439 57.9607 36.9186 58.1473 37.0679 58.306C37.2266 58.4553 37.4179 58.53 37.6419 58.53H38.8039V54.946H40.0639V58.53C40.0639 58.95 39.9239 59.3 39.6439 59.58C39.3639 59.86 39.0139 60 38.5939 60H37.6419C36.9419 60 36.4426 59.706 36.1439 59.118C35.9572 59.4073 35.7239 59.6267 35.4439 59.776C35.1639 59.9253 34.8606 60 34.5339 60C33.8152 60 33.2506 59.7107 32.8399 59.132C32.4012 59.7107 31.8272 60 31.1179 60H30.7539ZM35.5699 50.62H36.9559V52.006H35.5699V50.62ZM34.5059 52.524H35.8919V53.924H34.5059V52.524ZM36.6339 52.524H38.0199V53.924H36.6339V52.524Z" fill="black"/>
</svg>
