<svg width="117" height="72" viewBox="0 0 117 72" fill="none" xmlns="http://www.w3.org/2000/svg">
<path d="M61.3741 17.8828V19.6867H63.2289V21.5517H61.3741V23.3555H59.4683V21.5517H57.6441V19.6867H59.4683V17.8828H61.3741Z" fill="black"/>
<path d="M55.7179 32.9979C54.9536 32.9571 54.4542 32.3864 54.5255 31.622C54.5867 30.8883 55.1982 30.3685 55.9217 30.4195C56.6453 30.4704 57.1651 31.0819 57.1243 31.8259C57.0835 32.5596 56.5026 33.0386 55.7179 32.9979Z" fill="black"/>
<path d="M63.8709 32.9979C63.1066 32.9571 62.6072 32.3864 62.6786 31.622C62.7397 30.8883 63.3512 30.3685 64.0748 30.4195C64.7984 30.4704 65.3181 31.0819 65.2773 31.8259C65.2366 32.5596 64.6557 33.0386 63.8709 32.9979Z" fill="black"/>
<path d="M54.4338 30.1737C52.9561 24.3443 51.4783 18.6066 49.9904 12.7568C49.0936 12.7364 48.3904 12.7364 47.4222 12.7364C47.4018 12.0332 47.4018 11.544 47.4222 11.0039C48.9611 11.0039 49.9904 11.0039 51.2235 11.0039C51.5802 12.3084 51.9267 13.5823 52.2936 14.9276C54.4338 14.9581 67.5908 14.9377 69.5781 14.9377C69.1806 17.19 67.978 23.3354 67.4583 26.2297C66.9997 26.2297 57.2976 26.2297 55.2083 26.2501C55.3816 27.0348 55.6364 27.8603 55.83 28.5329C57.1651 28.5533 64.3296 28.5024 65.2264 28.5329C65.2468 29.0629 65.2774 29.5725 65.2468 30.1737C64.8697 30.1941 55.0759 30.1941 54.4338 30.1737ZM52.8338 16.7416C53.537 19.4933 54.1485 22.194 54.7497 24.6297C56.0746 24.6297 65.0022 24.6297 66.1028 24.6093C66.3372 23.3048 67.2341 18.4945 67.5398 16.7518C63.127 16.7518 56.095 16.7518 52.8338 16.7518V16.7416Z" fill="black"/>
<path d="M18.69 54.53C18.746 54.53 18.7927 54.5533 18.83 54.6C18.8673 54.6373 18.886 54.684 18.886 54.74V55.804C18.886 55.86 18.8673 55.9067 18.83 55.944C18.802 55.9813 18.7553 56 18.69 56H18.424C18.06 56 17.7193 55.902 17.402 55.706C17.094 55.5007 16.8467 55.2253 16.66 54.88C16.5293 55.2347 16.3053 55.51 15.988 55.706C15.68 55.902 15.344 56 14.98 56H13.09C12.6327 56 12.2407 55.8367 11.914 55.51C11.5873 55.174 11.424 54.7773 11.424 54.32V52.654H12.474V54.026C12.474 54.166 12.516 54.2873 12.6 54.39C12.6933 54.4833 12.81 54.53 12.95 54.53H14.994C15.2833 54.53 15.526 54.432 15.722 54.236C15.9273 54.0307 16.03 53.7927 16.03 53.522C16.03 53.41 16.0207 53.326 16.002 53.27L14.91 49.364L16.114 48.958L17.444 53.69C17.5187 53.9513 17.6307 54.1567 17.78 54.306C17.9293 54.4553 18.116 54.53 18.34 54.53H18.69ZM18.6895 56C18.6335 56 18.5868 55.9813 18.5495 55.944C18.5121 55.9067 18.4935 55.86 18.4935 55.804V54.74C18.4935 54.684 18.5121 54.6373 18.5495 54.6C18.5868 54.5533 18.6335 54.53 18.6895 54.53H22.4275C22.6608 54.53 22.8568 54.4507 23.0155 54.292C23.1835 54.124 23.2675 53.9233 23.2675 53.69V50.946H24.5135V53.676C24.5135 54.096 24.4108 54.4833 24.2055 54.838C24.0001 55.1927 23.7201 55.4773 23.3655 55.692C23.0108 55.8973 22.6235 56 22.2035 56H18.6895ZM21.5875 57.68H22.9735V59.08H21.5875V57.68ZM19.4595 57.68H20.8455V59.08H19.4595V57.68ZM24.4338 58.296L25.4838 57.75C25.8292 57.5727 26.0905 57.3487 26.2678 57.078C26.4452 56.8073 26.5338 56.4013 26.5338 55.86V51.352H27.7798V53.732C27.7798 53.956 27.8638 54.1473 28.0318 54.306C28.2092 54.4553 28.4098 54.53 28.6338 54.53H29.1658C29.2405 54.53 29.2918 54.544 29.3198 54.572C29.3478 54.5907 29.3618 54.6373 29.3618 54.712V55.804C29.3618 55.8787 29.3478 55.93 29.3198 55.958C29.2918 55.986 29.2405 56 29.1658 56H28.8438C28.6385 56 28.4378 55.958 28.2418 55.874C28.0552 55.79 27.9012 55.664 27.7798 55.496V56.028C27.7798 56.7373 27.6352 57.302 27.3458 57.722C27.0658 58.142 26.6412 58.506 26.0718 58.814L25.0078 59.416L24.4338 58.296ZM29.1621 56C29.0314 56 28.9661 55.9347 28.9661 55.804V54.726C28.9661 54.6793 28.9894 54.6373 29.0361 54.6C29.0734 54.5533 29.1154 54.53 29.1621 54.53H31.5701C32.0554 54.53 32.4708 54.474 32.8161 54.362C33.1614 54.25 33.5068 54.0213 33.8521 53.676L34.7341 52.822C34.7714 52.7847 34.8368 52.724 34.9301 52.64C35.0234 52.556 35.0934 52.5 35.1401 52.472L31.9481 51.52C31.9201 51.5107 31.8734 51.506 31.8081 51.506C31.6961 51.506 31.5934 51.5433 31.5001 51.618C31.4068 51.6833 31.3461 51.7673 31.3181 51.87L30.8841 53.102L29.8061 52.808L30.1561 51.618C30.2681 51.2167 30.4874 50.8993 30.8141 50.666C31.1501 50.4233 31.5188 50.302 31.9201 50.302C32.1254 50.302 32.2981 50.3253 32.4381 50.372L37.9261 52.024L37.5761 53.186L36.9461 53.004C36.7594 52.9573 36.6288 52.934 36.5541 52.934C36.4421 52.934 36.3348 52.962 36.2321 53.018C36.1388 53.074 36.0081 53.1813 35.8401 53.34L34.2301 54.908C33.8661 55.272 33.4321 55.5473 32.9281 55.734C32.4241 55.9113 31.8968 56 31.3461 56H29.1621ZM31.0801 47.222H32.4661V48.608H31.0801V47.222ZM48.4693 53.956C48.8053 54.0307 49.0713 54.194 49.2673 54.446C49.4726 54.6887 49.5753 54.978 49.5753 55.314V55.776C49.5753 56.2613 49.454 56.7093 49.2113 57.12C48.9686 57.54 48.642 57.8713 48.2313 58.114C47.8206 58.3567 47.3726 58.478 46.8873 58.478H44.0733C43.5413 58.478 43.0466 58.3427 42.5893 58.072C42.132 57.8013 41.768 57.4373 41.4973 56.98C41.236 56.5227 41.1053 56.028 41.1053 55.496V52.29H42.3513V55.314C42.3513 55.7807 42.5146 56.1773 42.8413 56.504C43.1773 56.8307 43.5786 56.994 44.0453 56.994H47.0553C47.4193 56.994 47.718 56.8633 47.9513 56.602C48.194 56.35 48.3153 56.0373 48.3153 55.664V55.202L44.4513 54.278V52.724C44.4513 52.2667 44.554 51.842 44.7593 51.45C44.9646 51.058 45.2446 50.736 45.5993 50.484C45.9633 50.232 46.3693 50.078 46.8173 50.022L48.6093 49.784L48.7633 51.058L46.7753 51.324C46.4486 51.3707 46.1826 51.52 45.9773 51.772C45.772 52.0147 45.6693 52.2993 45.6693 52.626V53.284L48.4693 53.956ZM53.6692 56C53.2492 56 52.8619 55.8973 52.5072 55.692C52.1526 55.4867 51.8726 55.2113 51.6672 54.866C51.4619 54.5113 51.3592 54.124 51.3592 53.704V46.592H52.6192V53.676C52.6192 53.9187 52.6986 54.124 52.8572 54.292C53.0159 54.4507 53.2119 54.53 53.4452 54.53H54.1452C54.2012 54.53 54.2479 54.5533 54.2852 54.6C54.3226 54.6373 54.3412 54.684 54.3412 54.74V55.804C54.3412 55.9347 54.2759 56 54.1452 56H53.6692ZM59.6706 55.44C59.4466 55.636 59.2506 55.7807 59.0826 55.874C58.9146 55.958 58.6626 56 58.3266 56H54.1406C54.0846 56 54.038 55.9813 54.0006 55.944C53.9633 55.9067 53.9446 55.8647 53.9446 55.818V54.712C53.9446 54.656 53.9633 54.614 54.0006 54.586C54.038 54.5487 54.0846 54.53 54.1406 54.53H55.5406C55.3633 54.4087 55.2746 54.1847 55.2746 53.858C55.2746 53.7367 55.2886 53.606 55.3166 53.466L55.4986 52.542C55.592 52.0753 55.8206 51.6927 56.1846 51.394C56.5486 51.086 56.964 50.9367 57.4306 50.946L57.9906 50.96C58.3733 50.96 58.7186 51.0533 59.0266 51.24C59.344 51.4267 59.5913 51.6787 59.7686 51.996C59.9553 52.304 60.0486 52.6447 60.0486 53.018V54.53H62.1486V52.822C62.1486 52.57 62.0786 52.3553 61.9386 52.178C61.808 51.9913 61.626 51.8607 61.3926 51.786L56.6046 50.288L56.9826 49.042L61.6166 50.47C62.1393 50.638 62.564 50.9367 62.8906 51.366C63.2266 51.786 63.3946 52.2807 63.3946 52.85V54.46C63.3946 54.9173 63.25 55.2907 62.9606 55.58C62.6713 55.86 62.298 56 61.8406 56H59.6706V55.44ZM58.8446 52.836C58.8446 52.64 58.7793 52.4767 58.6486 52.346C58.518 52.2153 58.35 52.15 58.1446 52.15H57.3746C57.0106 52.15 56.7866 52.3413 56.7026 52.724L56.4926 53.9C56.4833 53.9373 56.4786 53.984 56.4786 54.04C56.4786 54.2173 56.5346 54.3573 56.6466 54.46C56.768 54.5533 56.9173 54.6 57.0946 54.6H58.8446V52.836ZM69.7354 58.422C69.2034 58.422 68.7088 58.2867 68.2514 58.016C67.7941 57.7547 67.4301 57.3953 67.1594 56.938C66.8981 56.4807 66.7674 55.986 66.7674 55.454V51.562H68.0274V55.272C68.0274 55.7387 68.1861 56.1353 68.5034 56.462C68.8301 56.7887 69.2268 56.952 69.6934 56.952H72.2414C72.6241 56.952 72.9414 56.812 73.1934 56.532C73.4454 56.2613 73.5714 55.9253 73.5714 55.524V51.352H74.8174V53.704C74.8174 53.928 74.9014 54.124 75.0694 54.292C75.2468 54.4507 75.4521 54.53 75.6854 54.53H75.9514C76.2221 54.53 76.4321 54.4647 76.5814 54.334C76.7401 54.194 76.8428 54.0073 76.8894 53.774L77.3514 51.38L78.6114 51.618L78.2194 53.606C78.2101 53.6433 78.2054 53.6993 78.2054 53.774C78.2054 53.9887 78.2801 54.1707 78.4294 54.32C78.5881 54.46 78.7841 54.53 79.0174 54.53H80.2074V50.918H81.4534V54.53C81.4534 54.9593 81.3134 55.314 81.0334 55.594C80.7534 55.8647 80.4034 56 79.9834 56H79.0594C78.7234 56 78.4201 55.93 78.1494 55.79C77.8788 55.65 77.6641 55.4307 77.5054 55.132C77.3374 55.4213 77.1134 55.6407 76.8334 55.79C76.5628 55.93 76.2594 56 75.9234 56C75.4568 56 75.0881 55.8367 74.8174 55.51V56.042C74.8174 56.4713 74.7008 56.868 74.4674 57.232C74.2341 57.596 73.9168 57.8853 73.5154 58.1C73.1141 58.3147 72.6754 58.422 72.1994 58.422H69.7354ZM76.9034 46.62H78.2894V48.006H76.9034V46.62ZM75.8394 48.524H77.2254V49.924H75.8394V48.524ZM77.9674 48.524H79.3534V49.924H77.9674V48.524ZM80.2681 58.338L82.0741 57.75C82.4848 57.6007 82.8021 57.3767 83.0261 57.078C83.2595 56.7887 83.3761 56.4247 83.3761 55.986V51.352H84.6361V55.86C84.6361 56.588 84.4355 57.218 84.0341 57.75C83.6328 58.2913 83.0961 58.6787 82.4241 58.912L80.6461 59.528L80.2681 58.338ZM88.7513 56C88.3313 56 87.9439 55.8973 87.5892 55.692C87.2346 55.4867 86.9546 55.2113 86.7493 54.866C86.5439 54.5113 86.4413 54.124 86.4413 53.704V46.592H87.7013V53.676C87.7013 53.9187 87.7806 54.124 87.9393 54.292C88.0979 54.4507 88.2939 54.53 88.5273 54.53H89.2272C89.2833 54.53 89.3299 54.5533 89.3673 54.6C89.4046 54.6373 89.4233 54.684 89.4233 54.74V55.804C89.4233 55.9347 89.3579 56 89.2272 56H88.7513ZM89.2227 56C89.1667 56 89.12 55.9813 89.0827 55.944C89.0453 55.8973 89.0267 55.8507 89.0267 55.804V54.74C89.0267 54.684 89.0453 54.6373 89.0827 54.6C89.12 54.5533 89.1667 54.53 89.2227 54.53H90.3987H90.6787C90.2027 54.054 89.9647 53.5407 89.9647 52.99V52.57C89.9647 52.1313 90.0767 51.7207 90.3007 51.338C90.5247 50.9553 90.8233 50.652 91.1967 50.428C91.5793 50.204 91.9807 50.092 92.4007 50.092H92.6107C93.04 50.092 93.4413 50.204 93.8147 50.428C94.188 50.6427 94.482 50.9367 94.6967 51.31C94.9207 51.6833 95.0327 52.0893 95.0327 52.528V52.99C95.0327 53.522 94.7947 54.0353 94.3187 54.53H94.5847H95.7747C95.8213 54.53 95.8633 54.5533 95.9007 54.6C95.9473 54.6373 95.9707 54.684 95.9707 54.74V55.804C95.9707 55.8507 95.9473 55.8973 95.9007 55.944C95.8633 55.9813 95.8213 56 95.7747 56H95.0327C94.5847 56 94.1647 55.9673 93.7727 55.902C93.3807 55.8273 92.9513 55.7013 92.4847 55.524C92.018 55.7013 91.5887 55.8273 91.1967 55.902C90.814 55.9673 90.3987 56 89.9507 56H89.2227ZM92.4847 54.362C93.362 53.9513 93.8007 53.5267 93.8007 53.088V52.682C93.8007 52.3553 93.684 52.08 93.4507 51.856C93.2173 51.6227 92.9327 51.506 92.5967 51.506H92.3727C92.046 51.506 91.766 51.6227 91.5327 51.856C91.3087 52.08 91.1967 52.3553 91.1967 52.682V53.088C91.1967 53.5453 91.626 53.97 92.4847 54.362ZM91.7707 47.208H93.1567V48.594H91.7707V47.208ZM95.7715 56C95.7155 56 95.6688 55.9813 95.6315 55.944C95.5942 55.9067 95.5755 55.86 95.5755 55.804V54.726C95.5755 54.67 95.5988 54.6233 95.6455 54.586C95.6828 54.5487 95.7248 54.53 95.7715 54.53H96.3735C96.6068 54.53 96.8028 54.446 96.9615 54.278C97.1295 54.1007 97.2135 53.8907 97.2135 53.648V51.352H98.4595V53.662C98.4595 53.8953 98.5435 54.1007 98.7115 54.278C98.8888 54.446 99.0942 54.53 99.3275 54.53H99.6075C99.8688 54.53 100.074 54.4647 100.223 54.334C100.382 54.194 100.485 54.0073 100.531 53.774L101.007 51.38L102.267 51.618L101.875 53.592C101.866 53.6293 101.861 53.6807 101.861 53.746C101.861 53.9607 101.936 54.1473 102.085 54.306C102.244 54.4553 102.435 54.53 102.659 54.53H103.821V50.946H105.081V54.53C105.081 54.95 104.941 55.3 104.661 55.58C104.381 55.86 104.031 56 103.611 56H102.659C101.959 56 101.46 55.706 101.161 55.118C100.975 55.4073 100.741 55.6267 100.461 55.776C100.181 55.9253 99.8782 56 99.5515 56C98.8328 56 98.2682 55.7107 97.8575 55.132C97.4188 55.7107 96.8448 56 96.1355 56H95.7715Z" fill="black"/>
</svg>
