<svg width="91" height="72" viewBox="0 0 91 72" fill="none" xmlns="http://www.w3.org/2000/svg">
<path d="M51.2654 23.2765C50.8626 23.2765 50.5289 22.9428 50.5289 22.5401C50.5289 20.6989 50.5289 13.1617 50.4944 12.7705C50.4714 12.2066 50.0341 11.9765 49.4472 11.9305C49.2286 11.919 38.2278 11.919 37.9631 11.942C37.4913 11.9995 37.1691 12.3102 37.1001 12.782C37.0656 13.0352 37.0656 22.8738 37.0771 27.5226C37.0771 28.9265 37.3647 29.1682 38.7571 29.1682C40.6788 29.1682 43.9814 29.2027 45.4428 29.2257C45.8455 29.2257 46.1677 29.5594 46.1677 29.9622V30.0542C46.1677 30.457 45.834 30.7907 45.4313 30.7907C43.8778 30.7907 40.23 30.8022 38.2048 30.7907C36.6053 30.7907 35.6042 29.8126 35.5121 28.2361C35.4891 27.9369 35.4891 12.9661 35.5236 12.5864C35.6502 11.3321 36.5477 10.4345 37.802 10.2965C38.0552 10.2619 49.0445 10.2965 49.1481 10.2734C50.9547 10.2849 52.0594 11.2861 52.0018 13.0697C51.9328 15.3481 51.9673 20.6414 51.9788 22.5861C51.9788 23.0003 51.6451 23.288 51.2424 23.288L51.2654 23.2765Z" fill="black"/>
<path d="M49.4357 30.353C50.1262 30.353 53.4057 30.353 53.7854 30.353C53.7854 30.5716 53.7854 31.4922 53.7854 31.6533C53.7854 31.6533 49.5623 31.6993 48.3426 31.6993C48.3426 31.6072 46.4209 24.3807 46.4209 24.3807H45.1551L45.0285 22.7812H47.3645L47.9513 24.3347H55.5L54.5794 29.8236H49.3207C49.3207 29.8236 49.4357 30.2954 49.4357 30.353ZM54.1537 25.5775H48.1584L48.9409 28.6384H53.6128L54.1537 25.5775Z" fill="black"/>
<path d="M43.7052 21.6895H39.367V23.2429H43.7052V21.6895Z" fill="black"/>
<path d="M48.3311 19.0879H39.367V20.6414H48.3311V19.0879Z" fill="black"/>
<path d="M48.3311 16.4883H39.367V18.0417H48.3311V16.4883Z" fill="black"/>
<path d="M48.3311 13.8887H39.367V15.4421H48.3311V13.8887Z" fill="black"/>
<path d="M50.0916 32.8741C50.0686 33.3574 49.6199 33.7717 49.1596 33.7372C48.6878 33.7026 48.308 33.2423 48.3541 32.7475C48.3886 32.2988 48.7568 31.9766 49.2171 31.9766C49.7349 31.9766 50.1147 32.3678 50.0916 32.8741Z" fill="black"/>
<path d="M53.7739 32.8741C53.7509 33.3574 53.3021 33.7717 52.8418 33.7372C52.3701 33.7026 51.9903 33.2423 52.0363 32.7475C52.0709 32.2988 52.4391 31.9766 52.8994 31.9766C53.4172 31.9766 53.7969 32.3678 53.7739 32.8741Z" fill="black"/>
<path d="M18.69 54.53C18.746 54.53 18.7927 54.5533 18.83 54.6C18.8673 54.6373 18.886 54.684 18.886 54.74V55.804C18.886 55.86 18.8673 55.9067 18.83 55.944C18.802 55.9813 18.7553 56 18.69 56H18.424C18.06 56 17.7193 55.902 17.402 55.706C17.094 55.5007 16.8467 55.2253 16.66 54.88C16.5293 55.2347 16.3053 55.51 15.988 55.706C15.68 55.902 15.344 56 14.98 56H13.09C12.6327 56 12.2407 55.8367 11.914 55.51C11.5873 55.174 11.424 54.7773 11.424 54.32V52.654H12.474V54.026C12.474 54.166 12.516 54.2873 12.6 54.39C12.6933 54.4833 12.81 54.53 12.95 54.53H14.994C15.2833 54.53 15.526 54.432 15.722 54.236C15.9273 54.0307 16.03 53.7927 16.03 53.522C16.03 53.41 16.0207 53.326 16.002 53.27L14.91 49.364L16.114 48.958L17.444 53.69C17.5187 53.9513 17.6307 54.1567 17.78 54.306C17.9293 54.4553 18.116 54.53 18.34 54.53H18.69ZM18.6895 56C18.6335 56 18.5868 55.9813 18.5495 55.944C18.5121 55.9067 18.4935 55.86 18.4935 55.804V54.74C18.4935 54.684 18.5121 54.6373 18.5495 54.6C18.5868 54.5533 18.6335 54.53 18.6895 54.53H22.4275C22.6608 54.53 22.8568 54.4507 23.0155 54.292C23.1835 54.124 23.2675 53.9233 23.2675 53.69V50.946H24.5135V53.676C24.5135 54.096 24.4108 54.4833 24.2055 54.838C24.0001 55.1927 23.7201 55.4773 23.3655 55.692C23.0108 55.8973 22.6235 56 22.2035 56H18.6895ZM21.5875 57.68H22.9735V59.08H21.5875V57.68ZM19.4595 57.68H20.8455V59.08H19.4595V57.68ZM24.4338 58.296L25.4838 57.75C25.8292 57.5727 26.0905 57.3487 26.2678 57.078C26.4452 56.8073 26.5338 56.4013 26.5338 55.86V51.352H27.7798V53.732C27.7798 53.956 27.8638 54.1473 28.0318 54.306C28.2092 54.4553 28.4098 54.53 28.6338 54.53H29.1658C29.2405 54.53 29.2918 54.544 29.3198 54.572C29.3478 54.5907 29.3618 54.6373 29.3618 54.712V55.804C29.3618 55.8787 29.3478 55.93 29.3198 55.958C29.2918 55.986 29.2405 56 29.1658 56H28.8438C28.6385 56 28.4378 55.958 28.2418 55.874C28.0552 55.79 27.9012 55.664 27.7798 55.496V56.028C27.7798 56.7373 27.6352 57.302 27.3458 57.722C27.0658 58.142 26.6412 58.506 26.0718 58.814L25.0078 59.416L24.4338 58.296ZM29.1621 56C29.0314 56 28.9661 55.9347 28.9661 55.804V54.726C28.9661 54.6793 28.9894 54.6373 29.0361 54.6C29.0734 54.5533 29.1154 54.53 29.1621 54.53H31.5701C32.0554 54.53 32.4708 54.474 32.8161 54.362C33.1614 54.25 33.5068 54.0213 33.8521 53.676L34.7341 52.822C34.7714 52.7847 34.8368 52.724 34.9301 52.64C35.0234 52.556 35.0934 52.5 35.1401 52.472L31.9481 51.52C31.9201 51.5107 31.8734 51.506 31.8081 51.506C31.6961 51.506 31.5934 51.5433 31.5001 51.618C31.4068 51.6833 31.3461 51.7673 31.3181 51.87L30.8841 53.102L29.8061 52.808L30.1561 51.618C30.2681 51.2167 30.4874 50.8993 30.8141 50.666C31.1501 50.4233 31.5188 50.302 31.9201 50.302C32.1254 50.302 32.2981 50.3253 32.4381 50.372L37.9261 52.024L37.5761 53.186L36.9461 53.004C36.7594 52.9573 36.6288 52.934 36.5541 52.934C36.4421 52.934 36.3348 52.962 36.2321 53.018C36.1388 53.074 36.0081 53.1813 35.8401 53.34L34.2301 54.908C33.8661 55.272 33.4321 55.5473 32.9281 55.734C32.4241 55.9113 31.8968 56 31.3461 56H29.1621ZM31.0801 47.222H32.4661V48.608H31.0801V47.222ZM44.0733 58.422C43.5413 58.422 43.0466 58.2867 42.5893 58.016C42.132 57.7547 41.768 57.3953 41.4973 56.938C41.236 56.4807 41.1053 55.986 41.1053 55.454V51.562H42.3653V55.272C42.3653 55.7387 42.524 56.1353 42.8413 56.462C43.168 56.7887 43.5646 56.952 44.0313 56.952H46.5793C46.962 56.952 47.2793 56.812 47.5313 56.532C47.7833 56.2613 47.9093 55.9253 47.9093 55.524V51.352H49.1553V53.704C49.1553 53.928 49.2393 54.124 49.4073 54.292C49.5846 54.4507 49.79 54.53 50.0233 54.53H50.2893C50.56 54.53 50.77 54.4647 50.9193 54.334C51.078 54.194 51.1806 54.0073 51.2273 53.774L51.6893 51.38L52.9493 51.618L52.5573 53.606C52.548 53.6433 52.5433 53.6993 52.5433 53.774C52.5433 53.9887 52.618 54.1707 52.7673 54.32C52.926 54.46 53.122 54.53 53.3553 54.53H54.5453V50.918H55.7913V54.53C55.7913 54.9593 55.6513 55.314 55.3713 55.594C55.0913 55.8647 54.7413 56 54.3213 56H53.3973C53.0613 56 52.758 55.93 52.4873 55.79C52.2166 55.65 52.002 55.4307 51.8433 55.132C51.6753 55.4213 51.4513 55.6407 51.1713 55.79C50.9006 55.93 50.5973 56 50.2613 56C49.7946 56 49.426 55.8367 49.1553 55.51V56.042C49.1553 56.4713 49.0386 56.868 48.8053 57.232C48.572 57.596 48.2546 57.8853 47.8533 58.1C47.452 58.3147 47.0133 58.422 46.5373 58.422H44.0733ZM51.2413 46.62H52.6273V48.006H51.2413V46.62ZM50.1773 48.524H51.5633V49.924H50.1773V48.524ZM52.3053 48.524H53.6913V49.924H52.3053V48.524ZM54.606 58.338L56.412 57.75C56.8227 57.6007 57.14 57.3767 57.364 57.078C57.5973 56.7887 57.714 56.4247 57.714 55.986V51.352H58.974V55.86C58.974 56.588 58.7733 57.218 58.372 57.75C57.9707 58.2913 57.434 58.6787 56.762 58.912L54.984 59.528L54.606 58.338ZM63.0891 56C62.6691 56 62.2818 55.8973 61.9271 55.692C61.5725 55.4867 61.2925 55.2113 61.0871 54.866C60.8818 54.5113 60.7791 54.124 60.7791 53.704V46.592H62.0391V53.676C62.0391 53.9187 62.1185 54.124 62.2771 54.292C62.4358 54.4507 62.6318 54.53 62.8651 54.53H63.5651C63.6211 54.53 63.6678 54.5533 63.7051 54.6C63.7425 54.6373 63.7611 54.684 63.7611 54.74V55.804C63.7611 55.9347 63.6958 56 63.5651 56H63.0891ZM63.5605 56C63.5045 56 63.4579 55.9813 63.4205 55.944C63.3832 55.8973 63.3645 55.8507 63.3645 55.804V54.74C63.3645 54.684 63.3832 54.6373 63.4205 54.6C63.4579 54.5533 63.5045 54.53 63.5605 54.53H64.7365H65.0165C64.5405 54.054 64.3025 53.5407 64.3025 52.99V52.57C64.3025 52.1313 64.4145 51.7207 64.6385 51.338C64.8625 50.9553 65.1612 50.652 65.5345 50.428C65.9172 50.204 66.3185 50.092 66.7385 50.092H66.9485C67.3779 50.092 67.7792 50.204 68.1525 50.428C68.5259 50.6427 68.8199 50.9367 69.0345 51.31C69.2585 51.6833 69.3705 52.0893 69.3705 52.528V52.99C69.3705 53.522 69.1325 54.0353 68.6565 54.53H68.9225H70.1125C70.1592 54.53 70.2012 54.5533 70.2385 54.6C70.2852 54.6373 70.3085 54.684 70.3085 54.74V55.804C70.3085 55.8507 70.2852 55.8973 70.2385 55.944C70.2012 55.9813 70.1592 56 70.1125 56H69.3705C68.9225 56 68.5025 55.9673 68.1105 55.902C67.7185 55.8273 67.2892 55.7013 66.8225 55.524C66.3559 55.7013 65.9265 55.8273 65.5345 55.902C65.1519 55.9673 64.7365 56 64.2885 56H63.5605ZM66.8225 54.362C67.6999 53.9513 68.1385 53.5267 68.1385 53.088V52.682C68.1385 52.3553 68.0219 52.08 67.7885 51.856C67.5552 51.6227 67.2705 51.506 66.9345 51.506H66.7105C66.3839 51.506 66.1039 51.6227 65.8705 51.856C65.6465 52.08 65.5345 52.3553 65.5345 52.682V53.088C65.5345 53.5453 65.9639 53.97 66.8225 54.362ZM66.1085 47.208H67.4945V48.594H66.1085V47.208ZM70.1094 56C70.0534 56 70.0067 55.9813 69.9694 55.944C69.932 55.9067 69.9134 55.86 69.9134 55.804V54.726C69.9134 54.67 69.9367 54.6233 69.9834 54.586C70.0207 54.5487 70.0627 54.53 70.1094 54.53H70.7114C70.9447 54.53 71.1407 54.446 71.2994 54.278C71.4674 54.1007 71.5514 53.8907 71.5514 53.648V51.352H72.7974V53.662C72.7974 53.8953 72.8814 54.1007 73.0494 54.278C73.2267 54.446 73.432 54.53 73.6654 54.53H73.9454C74.2067 54.53 74.412 54.4647 74.5614 54.334C74.72 54.194 74.8227 54.0073 74.8694 53.774L75.3454 51.38L76.6054 51.618L76.2134 53.592C76.204 53.6293 76.1994 53.6807 76.1994 53.746C76.1994 53.9607 76.274 54.1473 76.4234 54.306C76.582 54.4553 76.7734 54.53 76.9974 54.53H78.1594V50.946H79.4194V54.53C79.4194 54.95 79.2794 55.3 78.9994 55.58C78.7194 55.86 78.3694 56 77.9494 56H76.9974C76.2974 56 75.798 55.706 75.4994 55.118C75.3127 55.4073 75.0794 55.6267 74.7994 55.776C74.5194 55.9253 74.216 56 73.8894 56C73.1707 56 72.606 55.7107 72.1954 55.132C71.7567 55.7107 71.1827 56 70.4734 56H70.1094Z" fill="black"/>
</svg>
