<svg width="85" height="76" viewBox="0 0 85 76" fill="none" xmlns="http://www.w3.org/2000/svg">
<g clip-path="url(#clip0_6_8111)">
<path d="M31.1017 23.8249C31.1017 22.7283 31.1017 21.6783 31.1017 20.5816C30.6933 20.5466 30.285 20.5349 29.935 20.4766C29.7133 20.4416 29.48 20.3833 29.305 20.2666C28.7917 19.9399 28.7917 19.1933 29.3283 18.9016C29.5967 18.7616 29.9233 18.6916 30.2383 18.6799C31.055 18.6449 31.8833 18.6799 32.8633 18.6799C33.0383 18.4933 33.33 18.2133 33.5983 17.9099C34.4617 16.9649 35.325 16.0199 36.1533 15.0399C36.5383 14.5733 36.9933 14.3633 37.5767 14.3633C37.81 14.3633 38.0317 14.3633 38.265 14.3633C41.1 14.3633 43.935 14.3633 46.7817 14.3633C47.0617 14.3633 47.33 14.3633 47.61 14.3749C48.0883 14.3983 48.4733 14.5849 48.8 14.9699C49.64 15.9383 50.5033 16.8833 51.355 17.8399C51.6233 18.1433 51.915 18.4349 52.1483 18.6916C53 18.6916 53.77 18.6916 54.5517 18.6916C54.82 18.6916 55.1 18.6916 55.3683 18.7499C55.8 18.8433 56.1267 19.2516 56.115 19.6249C56.115 19.9983 55.8117 20.3599 55.3917 20.4299C54.9833 20.4999 54.4117 20.4649 53.9217 20.4883C53.9333 21.9116 53.9333 22.8799 53.9217 24.3383C53.0233 24.8166 51.95 25.3416 50.9933 25.9133C51.4717 27.1149 52.1367 28.4099 52.6967 29.5649C53.105 29.4016 53.6067 29.0866 53.9217 28.9816C53.9333 29.0516 53.9217 30.9766 53.9217 30.9766C53.9217 30.9766 52.475 31.7699 51.845 32.0966C51.2967 31.3383 51.2967 31.1166 50.9583 30.6849C50.76 30.7666 50.5033 30.9183 50.27 31.0349C49.08 31.6183 47.9017 32.2366 46.7 32.7966C46.0817 33.0883 45.4283 33.3216 44.7867 33.5433C44.25 33.7299 43.3517 33.7883 42.64 33.5433C41.9283 33.2983 41.765 32.6216 41.5783 32.7033C41.3217 32.8316 40.505 32.7733 40.225 32.7033C38.6617 32.3183 37.2383 31.5833 35.8033 30.8483C35.08 30.4749 34.345 30.1133 33.5633 29.7166C33.2717 30.2066 33.015 30.6733 32.7467 31.1166C32.1867 30.8483 31.1367 30.4166 31.1367 30.4166V28.0833C31.1367 28.0833 31.6617 28.3866 31.9067 28.5033C32.4317 27.4299 33.0033 26.3449 33.4583 25.1783C32.6067 24.7116 31.9067 24.3033 31.1367 23.8716L31.1017 23.8249ZM34.8117 27.2899C34.8117 27.2899 34.7417 27.3833 34.7067 27.4299C34.7067 27.3599 34.695 27.2783 34.6833 27.2083C34.7417 27.2316 34.8 27.2433 34.8467 27.2666C34.7883 27.2316 34.73 27.1966 34.6717 27.1616C34.73 27.1383 34.7883 27.1266 34.8467 27.1033C34.8467 27.1616 34.8233 27.2316 34.8117 27.2899ZM50.7367 19.7649C49.6867 18.5633 48.7067 17.5949 47.785 16.5333C47.5283 16.2416 47.2017 16.1016 46.8167 16.1016C46.6767 16.1016 46.5483 16.1016 46.4083 16.1016C43.8067 16.1016 41.1933 16.1133 38.5917 16.1016C37.8917 16.1016 37.3783 16.3116 36.935 16.8483C36.2467 17.6999 34.4967 19.6366 34.345 19.8816C35.1617 20.4183 35.955 20.9899 36.7367 21.4449C36.9933 21.5966 37.3433 21.6549 37.6467 21.6549C40.89 21.6666 44.1333 21.6666 47.3767 21.6549C47.68 21.6549 48.03 21.5966 48.2867 21.4449C49.0683 20.9783 49.8617 20.3716 50.7483 19.7766L50.7367 19.7649ZM52.3117 20.9083C51.3783 21.5033 50.1883 22.2966 49.4067 22.8449C48.8583 23.2299 48.275 23.3933 47.61 23.3933C44.2267 23.3933 40.8317 23.3933 37.4483 23.3933C36.7367 23.3933 36.1067 23.2299 35.5233 22.8099C34.8933 22.3549 33.1783 21.1649 32.7933 20.9433V22.6816C33.6683 23.1249 34.6833 23.7199 35.4067 24.0466C36.6433 24.8166 37.95 25.0383 39.35 24.4899C40.0267 24.2216 40.6917 24.3733 41.3217 24.7466C41.905 25.0966 42.5 25.4116 43.0483 25.7266C43.5617 25.5283 44.1217 25.1666 44.7633 25.2133C45.5917 25.2833 46.0817 25.9133 46.7467 25.8316C47.2017 25.7733 47.575 25.6916 47.9017 25.5049C48.9983 24.9333 52.055 23.2999 52.335 23.1016C52.335 22.4716 52.335 21.6899 52.335 20.8966L52.3117 20.9083ZM41.485 26.4966C40.9717 26.1116 40.19 25.5749 39.595 25.7033C38.72 25.8899 37.7867 26.2866 36.97 26.6949C36.62 27.5233 36.2117 28.3049 35.9667 29.0749C37.0867 29.9616 38.965 30.8949 40.085 31.1516C41.2633 31.4199 42.6983 30.8366 43.4333 29.8099C43.9583 29.3199 42.5233 29.2266 42.045 29.0983C41.6483 28.9933 41.24 28.9233 40.8667 28.7716C40.0033 28.4333 39.9567 27.7916 40.6683 27.2083C40.8317 27.0683 41.2517 26.6833 41.5083 26.5083L41.485 26.4966ZM42.9433 31.9099C43.34 32.4349 44.3317 32.1549 44.8217 31.9916C46.1167 31.5366 47.4467 31.0816 48.625 30.1949C48.2167 29.3316 47.5517 28.0366 47.1783 27.2433C46.7 27.3716 45.9883 27.3716 45.1133 26.7183C44.4133 26.1933 42.955 27.0216 42.3017 27.5583C42.5233 27.6633 44.5067 28.0716 44.74 28.2116C45.1133 28.3399 45.5567 29.0633 45.0783 29.8916C44.565 30.7666 43.3633 31.7816 42.9667 31.9216L42.9433 31.9099Z" fill="black"/>
</g>
<path d="M14.718 59.804C14.41 59.9347 14.0647 60 13.682 60H12.842C12.4687 60 12.128 59.9067 11.82 59.72C11.5213 59.5333 11.2833 59.286 11.106 58.978C10.9287 58.67 10.84 58.334 10.84 57.97C10.84 57.8113 10.8493 57.69 10.868 57.606L11.092 56.36C11.176 55.884 11.4047 55.492 11.778 55.184C12.1607 54.8667 12.5947 54.708 13.08 54.708H13.864C14.2467 54.708 14.6013 54.806 14.928 55.002C15.2547 55.1887 15.5113 55.4453 15.698 55.772C15.8847 56.0893 15.978 56.4347 15.978 56.808V59.832C15.978 60.5507 15.7773 61.1853 15.376 61.736C14.984 62.296 14.4567 62.6927 13.794 62.926L12.016 63.514L11.652 62.338L13.472 61.736C13.864 61.596 14.1673 61.372 14.382 61.064C14.606 60.7653 14.718 60.42 14.718 60.028V59.804ZM14.732 56.808C14.732 56.612 14.662 56.4487 14.522 56.318C14.3913 56.178 14.2233 56.108 14.018 56.108H12.94C12.772 56.108 12.632 56.1547 12.52 56.248C12.4173 56.3413 12.3473 56.4813 12.31 56.668L12.1 57.802C12.0907 57.83 12.086 57.872 12.086 57.928C12.086 58.096 12.142 58.2407 12.254 58.362C12.3753 58.474 12.5247 58.53 12.702 58.53H14.732V56.808ZM16.3323 62.296L17.3823 61.75C17.7276 61.5727 17.9889 61.3487 18.1663 61.078C18.3436 60.8073 18.4323 60.4013 18.4323 59.86V55.352H19.6783V59.776C19.6783 60.56 19.5383 61.1807 19.2583 61.638C18.9783 62.1047 18.5489 62.4967 17.9703 62.814L16.9063 63.416L16.3323 62.296ZM23.186 60C22.7194 60 22.3227 59.8367 21.996 59.51C21.6694 59.174 21.506 58.7727 21.506 58.306V56.668H22.57V58.054C22.57 58.1847 22.612 58.2967 22.696 58.39C22.78 58.4833 22.892 58.53 23.032 58.53H25.272C25.5894 58.53 25.8367 58.432 26.014 58.236C26.2007 58.04 26.294 57.802 26.294 57.522C26.294 57.2887 26.2427 57.088 26.14 56.92L24.516 53.994L25.58 53.336L27.274 56.332C27.498 56.724 27.61 57.1487 27.61 57.606C27.61 58.026 27.5074 58.4227 27.302 58.796C27.0967 59.16 26.812 59.454 26.448 59.678C26.0934 59.8927 25.692 60 25.244 60H23.186ZM35.4033 58.53C35.4593 58.53 35.506 58.5487 35.5433 58.586C35.5807 58.6233 35.5993 58.67 35.5993 58.726V59.804C35.5993 59.9347 35.534 60 35.4033 60H34.1293V58.53H35.4033ZM33.0793 59.874C32.8833 59.958 32.538 60 32.0433 60H31.2033C30.83 60 30.4893 59.9067 30.1813 59.72C29.8827 59.5333 29.6447 59.286 29.4673 58.978C29.29 58.67 29.2013 58.334 29.2013 57.97C29.2013 57.8113 29.2107 57.69 29.2293 57.606L29.4533 56.36C29.5373 55.884 29.766 55.492 30.1393 55.184C30.522 54.8667 30.956 54.708 31.4413 54.708H32.2253C32.608 54.708 32.9627 54.806 33.2893 55.002C33.616 55.1887 33.8727 55.4453 34.0593 55.772C34.246 56.0893 34.3393 56.4347 34.3393 56.808V59.832C34.3393 60.5507 34.1387 61.1853 33.7373 61.736C33.3453 62.296 32.818 62.6927 32.1553 62.926L30.3773 63.514L30.0133 62.338L31.8333 61.736C32.2347 61.596 32.5427 61.372 32.7573 61.064C32.972 60.7653 33.0793 60.4433 33.0793 60.098V59.874ZM33.0933 56.808C33.0933 56.612 33.0233 56.4487 32.8833 56.318C32.7527 56.178 32.5847 56.108 32.3793 56.108H31.3013C31.1333 56.108 30.9933 56.1547 30.8813 56.248C30.7787 56.3413 30.7087 56.4813 30.6713 56.668L30.4613 57.802C30.452 57.83 30.4473 57.872 30.4473 57.928C30.4473 58.096 30.5033 58.2407 30.6153 58.362C30.7367 58.474 30.886 58.53 31.0633 58.53H33.0933V56.808ZM35.4023 60C35.2717 60 35.2063 59.9347 35.2063 59.804V58.726C35.2063 58.6793 35.2297 58.6373 35.2763 58.6C35.3137 58.5533 35.3557 58.53 35.4023 58.53H37.8103C38.2957 58.53 38.711 58.474 39.0563 58.362C39.4017 58.25 39.747 58.0213 40.0923 57.676L40.9743 56.822C41.0117 56.7847 41.077 56.724 41.1703 56.64C41.2637 56.556 41.3337 56.5 41.3803 56.472L38.1883 55.52C38.1603 55.5107 38.1137 55.506 38.0483 55.506C37.9363 55.506 37.8337 55.5433 37.7403 55.618C37.647 55.6833 37.5863 55.7673 37.5583 55.87L37.1243 57.102L36.0463 56.808L36.3963 55.618C36.5083 55.2167 36.7277 54.8993 37.0543 54.666C37.3903 54.4233 37.759 54.302 38.1603 54.302C38.3657 54.302 38.5383 54.3253 38.6783 54.372L44.1663 56.024L43.8163 57.186L43.1863 57.004C42.9997 56.9573 42.869 56.934 42.7943 56.934C42.6823 56.934 42.575 56.962 42.4723 57.018C42.379 57.074 42.2483 57.1813 42.0803 57.34L40.4703 58.908C40.1063 59.272 39.6723 59.5473 39.1683 59.734C38.6643 59.9113 38.137 60 37.5863 60H35.4023ZM37.3203 51.222H38.7063V52.608H37.3203V51.222ZM54.6255 58.53C54.6815 58.53 54.7282 58.5533 54.7655 58.6C54.8029 58.6373 54.8215 58.684 54.8215 58.74V59.804C54.8215 59.86 54.8029 59.9067 54.7655 59.944C54.7375 59.9813 54.6909 60 54.6255 60H54.3595C53.9955 60 53.6549 59.902 53.3375 59.706C53.0295 59.5007 52.7822 59.2253 52.5955 58.88C52.4649 59.2347 52.2409 59.51 51.9235 59.706C51.6155 59.902 51.2795 60 50.9155 60H49.0255C48.5682 60 48.1762 59.8367 47.8495 59.51C47.5229 59.174 47.3595 58.7773 47.3595 58.32V56.654H48.4095V58.026C48.4095 58.166 48.4515 58.2873 48.5355 58.39C48.6289 58.4833 48.7455 58.53 48.8855 58.53H50.9295C51.2189 58.53 51.4615 58.432 51.6575 58.236C51.8629 58.0307 51.9655 57.7927 51.9655 57.522C51.9655 57.41 51.9562 57.326 51.9375 57.27L50.8455 53.364L52.0495 52.958L53.3795 57.69C53.4542 57.9513 53.5662 58.1567 53.7155 58.306C53.8649 58.4553 54.0515 58.53 54.2755 58.53H54.6255ZM54.625 60C54.569 60 54.5223 59.9813 54.485 59.944C54.4477 59.9067 54.429 59.86 54.429 59.804V58.74C54.429 58.684 54.4477 58.6373 54.485 58.6C54.5223 58.5533 54.569 58.53 54.625 58.53H58.363C58.5963 58.53 58.7923 58.4507 58.951 58.292C59.119 58.124 59.203 57.9233 59.203 57.69V54.946H60.449V57.676C60.449 58.096 60.3463 58.4833 60.141 58.838C59.9357 59.1927 59.6557 59.4773 59.301 59.692C58.9463 59.8973 58.559 60 58.139 60H54.625ZM57.523 61.68H58.909V63.08H57.523V61.68ZM55.395 61.68H56.781V63.08H55.395V61.68ZM60.3694 62.296L61.4194 61.75C61.7647 61.5727 62.026 61.3487 62.2034 61.078C62.3807 60.8073 62.4694 60.4013 62.4694 59.86V55.352H63.7154V57.732C63.7154 57.956 63.7994 58.1473 63.9674 58.306C64.1447 58.4553 64.3454 58.53 64.5694 58.53H65.1014C65.176 58.53 65.2274 58.544 65.2554 58.572C65.2834 58.5907 65.2974 58.6373 65.2974 58.712V59.804C65.2974 59.8787 65.2834 59.93 65.2554 59.958C65.2274 59.986 65.176 60 65.1014 60H64.7794C64.574 60 64.3734 59.958 64.1774 59.874C63.9907 59.79 63.8367 59.664 63.7154 59.496V60.028C63.7154 60.7373 63.5707 61.302 63.2814 61.722C63.0014 62.142 62.5767 62.506 62.0074 62.814L60.9434 63.416L60.3694 62.296ZM65.0977 60C64.967 60 64.9017 59.9347 64.9017 59.804V58.726C64.9017 58.6793 64.925 58.6373 64.9717 58.6C65.009 58.5533 65.051 58.53 65.0977 58.53H67.5057C67.991 58.53 68.4063 58.474 68.7517 58.362C69.097 58.25 69.4423 58.0213 69.7877 57.676L70.6697 56.822C70.707 56.7847 70.7723 56.724 70.8657 56.64C70.959 56.556 71.029 56.5 71.0757 56.472L67.8837 55.52C67.8557 55.5107 67.809 55.506 67.7437 55.506C67.6317 55.506 67.529 55.5433 67.4357 55.618C67.3423 55.6833 67.2817 55.7673 67.2537 55.87L66.8197 57.102L65.7417 56.808L66.0917 55.618C66.2037 55.2167 66.423 54.8993 66.7497 54.666C67.0857 54.4233 67.4543 54.302 67.8557 54.302C68.061 54.302 68.2337 54.3253 68.3737 54.372L73.8617 56.024L73.5117 57.186L72.8817 57.004C72.695 56.9573 72.5643 56.934 72.4897 56.934C72.3777 56.934 72.2703 56.962 72.1677 57.018C72.0743 57.074 71.9437 57.1813 71.7757 57.34L70.1657 58.908C69.8017 59.272 69.3677 59.5473 68.8637 59.734C68.3597 59.9113 67.8323 60 67.2817 60H65.0977ZM67.0157 51.222H68.4017V52.608H67.0157V51.222Z" fill="black"/>
<defs>
<clipPath id="clip0_6_8111">
<rect width="28" height="28" fill="white" transform="translate(28.5 10)"/>
</clipPath>
</defs>
</svg>
