<svg width="74" height="72" viewBox="0 0 74 72" fill="none" xmlns="http://www.w3.org/2000/svg">
<path d="M27.38 22.769C27.06 22.769 26.33 22.769 26.07 22.769C25.85 22.769 25.56 22.639 25.56 22.209C25.56 21.839 25.85 21.679 26.1 21.679C26.85 21.679 27.85 21.679 28.71 21.659C28.81 21.539 30.62 19.519 31.37 18.669C31.77 18.189 32.23 17.999 32.84 18.019C33.87 18.019 38.99 18.019 41 18.019C41.87 18.029 42.3 18.199 42.79 18.809C43.52 19.679 45.23 21.589 45.32 21.699C46.19 21.689 47.66 21.689 47.95 21.699C48.16 21.699 48.51 21.789 48.51 22.199C48.51 22.709 48.21 22.749 47.94 22.769C47.46 22.759 47.27 22.769 46.76 22.769V30.499C46.76 30.979 46.54 31.139 46.09 31.139C45.42 31.139 44.5 31.139 43.9 31.139C43.41 31.139 43.41 31.039 43.08 30.639C42.94 30.439 42.4 29.739 42.27 29.579C41.38 29.579 33.71 29.549 31.86 29.579C31.61 29.929 31.41 30.219 31.13 30.649C30.87 30.979 30.68 31.139 30.24 31.139C29.54 31.139 29.03 31.139 28.35 31.139C27.66 31.139 27.38 30.869 27.38 30.119C27.38 29.719 27.38 26.459 27.38 25.149C27.38 24.399 27.4 23.569 27.38 22.759V22.769ZM45.58 29.899C45.58 29.039 45.58 24.169 45.58 24.039C45.56 23.789 45.47 23.589 45.14 23.499C44.51 23.899 44.09 24.199 43.18 24.769C42.56 25.159 42.07 25.289 41.42 25.289C38.91 25.269 36.39 25.289 33.88 25.279C33.15 25.279 32.39 25.379 31.71 25.189C31.04 24.989 30.46 24.479 29.84 24.099C29.51 23.899 29.17 23.689 28.88 23.509C28.44 23.689 28.47 24.009 28.47 24.299C28.47 25.989 28.46 29.749 28.46 29.939H30.11C30.25 29.729 30.49 29.389 30.69 29.109C31.29 28.309 31.36 28.409 32.19 28.389C33.71 28.409 40.49 28.379 42.12 28.369C42.94 28.379 42.97 28.479 43.36 29.069C43.55 29.369 43.83 29.729 43.96 29.909H45.58V29.899ZM44.56 22.579C43.7 21.659 42.75 20.639 41.8 19.559C41.56 19.279 41.25 19.239 40.9 19.229C38.32 19.229 35.74 19.229 33.16 19.229C32.69 19.229 32.35 19.399 32.05 19.749C31.36 20.549 29.94 22.229 29.66 22.569C30.22 22.939 30.8 23.259 31.29 23.639C31.82 23.989 32.28 24.099 32.86 24.099C34.59 24.119 40.23 24.099 41.39 24.089C41.65 24.089 41.91 24.119 42.16 23.979C43.05 23.479 44.29 22.749 44.55 22.589L44.56 22.579Z" fill="black"/>
<path d="M37.85 16.3086H38.26C38.4267 16.3086 38.5533 16.3619 38.64 16.4686C38.74 16.5886 38.7 16.5686 38.74 16.5986C38.74 16.5986 41.29 13.4486 42.46 13.7686C43.52 14.0586 44.54 17.8086 44.5 18.5086C44.47 19.0486 43.6 19.5186 43.6 19.5186L44.21 20.2286C44.21 20.2286 45.29 19.6886 45.36 18.6986C45.43 17.7086 44.37 14.4286 43.77 13.6386C43.03 12.6586 42.02 12.6486 41.06 13.2286C39.7 14.0486 37.85 16.3186 37.85 16.3186V16.3086Z" fill="black"/>
<path d="M36.13 16.3095H35.75C35.59 16.3095 35.53 16.3095 35.4 16.4695C35.33 16.5595 35.24 16.6595 35.24 16.6595C35.24 16.6595 32.63 13.4095 31.45 13.7295C30.39 14.0195 29.37 17.7695 29.41 18.4695C29.44 19.0095 30.31 19.4795 30.31 19.4795L29.7 20.1895C29.7 20.1895 28.62 19.6495 28.55 18.6595C28.48 17.6695 29.54 14.3895 30.14 13.5995C30.88 12.6195 31.89 12.6095 32.85 13.1895C34.21 14.0095 36.13 16.3095 36.13 16.3095Z" fill="black"/>
<path d="M38.96 17.9295C37.3 17.9295 36.54 17.9295 35.02 17.9095C35.02 17.9095 35.44 16.4695 35.67 16.4695L38.29 16.4395C38.55 16.4695 38.96 17.9295 38.96 17.9295Z" fill="black"/>
<path d="M9.94 58.324L11.746 57.736C12.166 57.596 12.488 57.3767 12.712 57.078C12.936 56.7793 13.048 56.406 13.048 55.958V51.338H14.308V53.732C14.308 53.956 14.392 54.1473 14.56 54.306C14.7373 54.4553 14.938 54.53 15.162 54.53H15.694C15.7687 54.53 15.82 54.544 15.848 54.572C15.876 54.6 15.89 54.6467 15.89 54.712V55.804C15.89 55.9347 15.8247 56 15.694 56H15.358C15.1527 56 14.952 55.958 14.756 55.874C14.5693 55.79 14.4153 55.664 14.294 55.496V56.056C14.294 56.7373 14.0933 57.3253 13.692 57.82C13.2907 58.3147 12.7633 58.674 12.11 58.898L10.318 59.5L9.94 58.324ZM15.6953 56C15.6393 56 15.5926 55.9813 15.5553 55.944C15.518 55.8973 15.4993 55.8507 15.4993 55.804V54.74C15.4993 54.684 15.518 54.6373 15.5553 54.6C15.5926 54.5533 15.6393 54.53 15.6953 54.53H16.8713H17.1513C16.6753 54.054 16.4373 53.5407 16.4373 52.99V52.57C16.4373 52.1313 16.5493 51.7207 16.7733 51.338C16.9973 50.9553 17.296 50.652 17.6693 50.428C18.052 50.204 18.4533 50.092 18.8733 50.092H19.0833C19.5126 50.092 19.914 50.204 20.2873 50.428C20.6606 50.6427 20.9546 50.9367 21.1693 51.31C21.3933 51.6833 21.5053 52.0893 21.5053 52.528V52.99C21.5053 53.522 21.2673 54.0353 20.7913 54.53H21.0573H22.2473C22.294 54.53 22.336 54.5533 22.3733 54.6C22.42 54.6373 22.4433 54.684 22.4433 54.74V55.804C22.4433 55.8507 22.42 55.8973 22.3733 55.944C22.336 55.9813 22.294 56 22.2473 56H21.5053C21.0573 56 20.6373 55.9673 20.2453 55.902C19.8533 55.8273 19.424 55.7013 18.9573 55.524C18.4906 55.7013 18.0613 55.8273 17.6693 55.902C17.2866 55.9673 16.8713 56 16.4233 56H15.6953ZM18.9573 54.362C19.8346 53.9513 20.2733 53.5267 20.2733 53.088V52.682C20.2733 52.3553 20.1566 52.08 19.9233 51.856C19.69 51.6227 19.4053 51.506 19.0693 51.506H18.8453C18.5186 51.506 18.2386 51.6227 18.0053 51.856C17.7813 52.08 17.6693 52.3553 17.6693 52.682V53.088C17.6693 53.5453 18.0986 53.97 18.9573 54.362ZM18.2433 47.208H19.6293V48.594H18.2433V47.208ZM22.2441 56C22.1135 56 22.0481 55.9347 22.0481 55.804V54.726C22.0481 54.5953 22.1135 54.53 22.2441 54.53H22.7901C23.0235 54.53 23.2195 54.446 23.3781 54.278C23.5368 54.11 23.6161 53.9093 23.6161 53.676V51.436H24.8761V53.06C24.8761 53.2467 24.9041 53.41 24.9601 53.55C25.0255 53.69 25.1001 53.788 25.1841 53.844L27.2141 51.646C27.5035 51.3473 27.8348 51.114 28.2081 50.946C28.5908 50.778 28.9921 50.694 29.4121 50.694H30.2801C30.6628 50.694 31.0175 50.792 31.3441 50.988C31.6708 51.1747 31.9275 51.4313 32.1141 51.758C32.3101 52.0847 32.4081 52.444 32.4081 52.836V53.816C32.4081 54.1987 32.3055 54.558 32.1001 54.894C31.8948 55.23 31.6195 55.5007 31.2741 55.706C30.9288 55.902 30.5555 56 30.1541 56H26.6121C26.2201 56 25.7955 55.9067 25.3381 55.72C24.8808 55.524 24.5448 55.216 24.3301 54.796C24.1995 55.1787 23.9615 55.4773 23.6161 55.692C23.2801 55.8973 22.9255 56 22.5521 56H22.2441ZM30.3781 54.53C30.5928 54.53 30.7748 54.4507 30.9241 54.292C31.0828 54.1333 31.1621 53.942 31.1621 53.718V52.92C31.1621 52.6867 31.0828 52.4953 30.9241 52.346C30.7655 52.1873 30.5695 52.108 30.3361 52.108H29.2161C28.6748 52.108 28.2268 52.304 27.8721 52.696L26.2201 54.488C26.3601 54.516 26.5001 54.53 26.6401 54.53H30.3781ZM43.067 54.53C43.123 54.53 43.1696 54.5533 43.207 54.6C43.2443 54.6373 43.263 54.684 43.263 54.74V55.804C43.263 55.86 43.2443 55.9067 43.207 55.944C43.179 55.9813 43.1323 56 43.067 56H42.801C42.437 56 42.0963 55.902 41.779 55.706C41.471 55.5007 41.2236 55.2253 41.037 54.88C40.9063 55.2347 40.6823 55.51 40.365 55.706C40.057 55.902 39.721 56 39.357 56H37.467C37.0096 56 36.6176 55.8367 36.291 55.51C35.9643 55.174 35.801 54.7773 35.801 54.32V52.654H36.851V54.026C36.851 54.166 36.893 54.2873 36.977 54.39C37.0703 54.4833 37.187 54.53 37.327 54.53H39.371C39.6603 54.53 39.903 54.432 40.099 54.236C40.3043 54.0307 40.407 53.7927 40.407 53.522C40.407 53.41 40.3976 53.326 40.379 53.27L39.287 49.364L40.491 48.958L41.821 53.69C41.8956 53.9513 42.0076 54.1567 42.157 54.306C42.3063 54.4553 42.493 54.53 42.717 54.53H43.067ZM43.0664 56C43.0104 56 42.9637 55.9813 42.9264 55.944C42.8891 55.9067 42.8704 55.86 42.8704 55.804V54.74C42.8704 54.684 42.8891 54.6373 42.9264 54.6C42.9637 54.5533 43.0104 54.53 43.0664 54.53H46.8044C47.0377 54.53 47.2337 54.4507 47.3924 54.292C47.5604 54.124 47.6444 53.9233 47.6444 53.69V50.946H48.8904V53.676C48.8904 54.096 48.7877 54.4833 48.5824 54.838C48.3771 55.1927 48.0971 55.4773 47.7424 55.692C47.3877 55.8973 47.0004 56 46.5804 56H43.0664ZM45.9644 57.68H47.3504V59.08H45.9644V57.68ZM43.8364 57.68H45.2224V59.08H43.8364V57.68ZM48.8108 58.296L49.8608 57.75C50.2061 57.5727 50.4674 57.3487 50.6448 57.078C50.8221 56.8073 50.9108 56.4013 50.9108 55.86V51.352H52.1568V53.732C52.1568 53.956 52.2408 54.1473 52.4088 54.306C52.5861 54.4553 52.7868 54.53 53.0108 54.53H53.5428C53.6174 54.53 53.6688 54.544 53.6968 54.572C53.7248 54.5907 53.7388 54.6373 53.7388 54.712V55.804C53.7388 55.8787 53.7248 55.93 53.6968 55.958C53.6688 55.986 53.6174 56 53.5428 56H53.2208C53.0154 56 52.8148 55.958 52.6188 55.874C52.4321 55.79 52.2781 55.664 52.1568 55.496V56.028C52.1568 56.7373 52.0121 57.302 51.7228 57.722C51.4428 58.142 51.0181 58.506 50.4488 58.814L49.3848 59.416L48.8108 58.296ZM53.5391 56C53.4084 56 53.3431 55.9347 53.3431 55.804V54.726C53.3431 54.6793 53.3664 54.6373 53.4131 54.6C53.4504 54.5533 53.4924 54.53 53.5391 54.53H55.9471C56.4324 54.53 56.8477 54.474 57.1931 54.362C57.5384 54.25 57.8837 54.0213 58.2291 53.676L59.1111 52.822C59.1484 52.7847 59.2137 52.724 59.3071 52.64C59.4004 52.556 59.4704 52.5 59.5171 52.472L56.3251 51.52C56.2971 51.5107 56.2504 51.506 56.1851 51.506C56.0731 51.506 55.9704 51.5433 55.8771 51.618C55.7837 51.6833 55.7231 51.7673 55.6951 51.87L55.2611 53.102L54.1831 52.808L54.5331 51.618C54.6451 51.2167 54.8644 50.8993 55.1911 50.666C55.5271 50.4233 55.8957 50.302 56.2971 50.302C56.5024 50.302 56.6751 50.3253 56.8151 50.372L62.3031 52.024L61.9531 53.186L61.3231 53.004C61.1364 52.9573 61.0057 52.934 60.9311 52.934C60.8191 52.934 60.7117 52.962 60.6091 53.018C60.5157 53.074 60.3851 53.1813 60.2171 53.34L58.6071 54.908C58.2431 55.272 57.8091 55.5473 57.3051 55.734C56.8011 55.9113 56.2737 56 55.7231 56H53.5391ZM55.4571 47.222H56.8431V48.608H55.4571V47.222Z" fill="black"/>
</svg>
