<svg width="87" height="72" viewBox="0 0 87 72" fill="none" xmlns="http://www.w3.org/2000/svg">
<g clip-path="url(#clip0_6_8045)">
<path d="M45.37 20.7501V22.0501C45.37 22.0501 41.22 22.0301 39.52 22.0501C39.02 22.0501 38.59 22.0901 38.19 21.8201C37.57 21.4001 35.67 19.9601 35.39 19.8101C35.34 20.0901 35.39 26.9401 35.41 27.2301C35.95 27.2801 36.56 27.2301 37.14 27.2201C37.34 26.9201 37.49 26.6601 37.68 26.3701C38.01 25.8801 38.45 25.6001 39.06 25.6001C41.04 25.6001 45.37 25.6001 45.37 25.6001V27.0201C45.37 27.0201 39.79 27.0101 39.08 27.0101C38.84 27.3901 38.6 27.7401 38.39 28.1101C38.15 28.5401 37.83 28.8401 37.07 28.8801C36.36 28.8501 35.61 28.8901 34.9 28.8601C34.19 28.8301 33.9 28.5401 33.9 27.8201C33.89 25.1401 33.9 22.3401 33.9 19.5701C33.67 19.5501 32.58 19.5801 32.37 19.5001C32.09 19.3901 31.96 19.1401 31.96 18.8401C31.96 18.5501 32.17 18.2501 32.45 18.1801C32.68 18.1201 32.88 18.1301 33.11 18.1301C33.86 18.1201 34.38 18.1301 35.29 18.1301C36.18 17.2401 37.18 16.3201 38.04 15.3501C39.38 13.9301 38.9 14.0901 40.87 14.0901C43.68 14.0901 46.49 14.1101 49.3 14.0801C50.11 14.0801 50.74 14.2701 51.24 14.9601C51.77 15.6901 53 17.1401 53 17.1401H51.29C51.29 17.1401 50.7 16.5201 50.38 16.2101C49.99 15.8301 49.62 15.5701 49.05 15.5801C46.2 15.6001 43.35 15.5901 40.5 15.5801C40.13 15.5801 39.65 15.5401 39.39 15.8401C38.4 16.8601 37.44 17.8201 36.48 18.8901C37.33 19.5701 38.12 20.2301 38.93 20.7001C39.14 20.8301 39.69 20.8001 39.97 20.8001C41.28 20.8001 45.39 20.7701 45.39 20.7701L45.37 20.7501Z" fill="black"/>
<path d="M51.33 17.801C51.53 17.871 53.78 19.891 54.74 20.871C55.12 21.251 55.12 21.501 54.74 21.891C53.72 22.931 51.78 24.651 51.32 25.101C51.32 23.881 51.25 23.621 51.36 23.501C51.89 22.931 52.16 22.741 52.77 22.051C52.28 22.051 46.45 22.051 46.45 22.051V20.761C46.45 20.761 52.48 20.791 52.81 20.761C51.93 19.921 51.66 19.731 51.32 19.351C51.32 18.891 51.32 18.471 51.32 17.791L51.33 17.801Z" fill="black"/>
<path d="M50.18 29.9406C49.98 29.8706 47.73 27.8506 46.77 26.8706C46.39 26.4906 46.39 26.2406 46.77 25.8506C47.79 24.8106 49.73 23.0906 50.19 22.6406C50.19 23.8606 50.26 24.1206 50.15 24.2406C49.62 24.8106 49.35 25.0006 48.74 25.6906C49.23 25.6906 55.06 25.6906 55.06 25.6906V26.9806C55.06 26.9806 49.03 26.9506 48.7 26.9806C49.58 27.8206 49.85 28.0106 50.19 28.3906C50.19 28.8506 50.19 29.2706 50.19 29.9506L50.18 29.9406Z" fill="black"/>
</g>
<path d="M13.36 56.14C12.8933 56.14 12.4733 56.0233 12.1 55.79C11.7267 55.5567 11.4327 55.2533 11.218 54.88C11.0127 54.4973 10.91 54.0913 10.91 53.662V53.2C10.91 52.808 10.994 52.458 11.162 52.15C11.3393 51.8327 11.568 51.59 11.848 51.422C11.988 51.3193 12.1093 51.24 12.212 51.184C12.3147 51.1187 12.394 51.0673 12.45 51.03L11.512 50.4L12.184 49.35L12.912 49.84C14.116 50.6613 14.8907 51.1793 15.236 51.394C15.5347 51.5807 15.7587 51.8373 15.908 52.164C16.0667 52.4813 16.146 52.8173 16.146 53.172V53.662C16.146 54.0913 16.0387 54.4973 15.824 54.88C15.6187 55.2627 15.3247 55.5707 14.942 55.804C14.5687 56.028 14.1393 56.14 13.654 56.14H13.36ZM13.822 54.712C14.13 54.712 14.382 54.6047 14.578 54.39C14.7833 54.166 14.886 53.928 14.886 53.676V53.074C14.886 52.962 14.858 52.85 14.802 52.738C14.746 52.6167 14.662 52.514 14.55 52.43L13.472 51.744L12.478 52.444C12.3753 52.528 12.296 52.6167 12.24 52.71C12.184 52.794 12.156 52.906 12.156 53.046V53.648C12.156 53.9187 12.2587 54.166 12.464 54.39C12.6787 54.6047 12.9307 54.712 13.22 54.712H13.822ZM19.522 56C19.0553 56 18.6586 55.8367 18.332 55.51C18.0053 55.174 17.842 54.7727 17.842 54.306V52.668H18.906V54.054C18.906 54.1847 18.948 54.2967 19.032 54.39C19.116 54.4833 19.228 54.53 19.368 54.53H21.608C21.9253 54.53 22.1726 54.432 22.35 54.236C22.5366 54.04 22.63 53.802 22.63 53.522C22.63 53.2887 22.5786 53.088 22.476 52.92L20.852 49.994L21.916 49.336L23.61 52.332C23.834 52.724 23.946 53.1487 23.946 53.606C23.946 54.026 23.8433 54.4227 23.638 54.796C23.4326 55.16 23.148 55.454 22.784 55.678C22.4293 55.8927 22.028 56 21.58 56H19.522ZM22.7427 58.324L24.5487 57.736C24.9687 57.596 25.2907 57.3767 25.5147 57.078C25.7387 56.7793 25.8507 56.406 25.8507 55.958V51.338H27.1107V53.732C27.1107 53.956 27.1947 54.1473 27.3627 54.306C27.5401 54.4553 27.7407 54.53 27.9647 54.53H28.4967C28.5714 54.53 28.6227 54.544 28.6507 54.572C28.6787 54.6 28.6927 54.6467 28.6927 54.712V55.804C28.6927 55.9347 28.6274 56 28.4967 56H28.1607C27.9554 56 27.7547 55.958 27.5587 55.874C27.3721 55.79 27.2181 55.664 27.0967 55.496V56.056C27.0967 56.7373 26.8961 57.3253 26.4947 57.82C26.0934 58.3147 25.5661 58.674 24.9127 58.898L23.1207 59.5L22.7427 58.324ZM28.498 56C28.442 56 28.3954 55.9813 28.358 55.944C28.3207 55.9067 28.302 55.86 28.302 55.804V54.726C28.302 54.6607 28.3207 54.614 28.358 54.586C28.3954 54.5487 28.442 54.53 28.498 54.53H30.416C30.8174 54.53 31.1487 54.3947 31.41 54.124C31.6807 53.8533 31.816 53.5267 31.816 53.144C31.816 52.808 31.704 52.486 31.48 52.178L29.17 49.014V48.076L33.692 45.78L34.238 46.886L30.444 48.818L32.418 51.492C32.8287 52.0427 33.034 52.6353 33.034 53.27C33.034 53.746 32.9174 54.194 32.684 54.614C32.4507 55.034 32.124 55.37 31.704 55.622C31.284 55.874 30.808 56 30.276 56H28.498ZM32.108 58.338L33.914 57.75C34.3246 57.6007 34.642 57.3767 34.866 57.078C35.0993 56.7887 35.216 56.4247 35.216 55.986V51.352H36.476V55.86C36.476 56.588 36.2753 57.218 35.874 57.75C35.4726 58.2913 34.936 58.6787 34.264 58.912L32.486 59.528L32.108 58.338ZM40.5911 56C40.1711 56 39.7838 55.8973 39.4291 55.692C39.0744 55.4867 38.7944 55.2113 38.5891 54.866C38.3838 54.5113 38.2811 54.124 38.2811 53.704V46.592H39.5411V53.676C39.5411 53.9187 39.6204 54.124 39.7791 54.292C39.9378 54.4507 40.1338 54.53 40.3671 54.53H41.0671C41.1231 54.53 41.1698 54.5533 41.2071 54.6C41.2444 54.6373 41.2631 54.684 41.2631 54.74V55.804C41.2631 55.9347 41.1978 56 41.0671 56H40.5911ZM41.0625 56C41.0065 56 40.9598 55.9813 40.9225 55.944C40.8852 55.9067 40.8665 55.86 40.8665 55.804V54.726C40.8665 54.6607 40.8852 54.614 40.9225 54.586C40.9598 54.5487 41.0065 54.53 41.0625 54.53H42.9805C43.3818 54.53 43.7132 54.3947 43.9745 54.124C44.2452 53.8533 44.3805 53.5267 44.3805 53.144C44.3805 52.808 44.2685 52.486 44.0445 52.178L41.7345 49.014V48.076L46.2565 45.78L46.8025 46.886L43.0085 48.818L44.9825 51.492C45.3932 52.0427 45.5985 52.6353 45.5985 53.27C45.5985 53.746 45.4818 54.194 45.2485 54.614C45.0152 55.034 44.6885 55.37 44.2685 55.622C43.8485 55.874 43.3725 56 42.8405 56H41.0625ZM56.5123 54.53C56.5683 54.53 56.6149 54.5533 56.6523 54.6C56.6896 54.6373 56.7083 54.684 56.7083 54.74V55.804C56.7083 55.86 56.6896 55.9067 56.6523 55.944C56.6243 55.9813 56.5776 56 56.5123 56H56.2463C55.8823 56 55.5416 55.902 55.2243 55.706C54.9163 55.5007 54.6689 55.2253 54.4823 54.88C54.3516 55.2347 54.1276 55.51 53.8103 55.706C53.5023 55.902 53.1663 56 52.8023 56H50.9123C50.4549 56 50.0629 55.8367 49.7363 55.51C49.4096 55.174 49.2463 54.7773 49.2463 54.32V52.654H50.2963V54.026C50.2963 54.166 50.3383 54.2873 50.4223 54.39C50.5156 54.4833 50.6323 54.53 50.7723 54.53H52.8163C53.1056 54.53 53.3483 54.432 53.5443 54.236C53.7496 54.0307 53.8523 53.7927 53.8523 53.522C53.8523 53.41 53.8429 53.326 53.8243 53.27L52.7323 49.364L53.9363 48.958L55.2663 53.69C55.3409 53.9513 55.4529 54.1567 55.6023 54.306C55.7516 54.4553 55.9383 54.53 56.1623 54.53H56.5123ZM56.5117 56C56.4557 56 56.4091 55.9813 56.3717 55.944C56.3344 55.9067 56.3157 55.86 56.3157 55.804V54.74C56.3157 54.684 56.3344 54.6373 56.3717 54.6C56.4091 54.5533 56.4557 54.53 56.5117 54.53H60.2497C60.4831 54.53 60.6791 54.4507 60.8377 54.292C61.0057 54.124 61.0897 53.9233 61.0897 53.69V50.946H62.3357V53.676C62.3357 54.096 62.2331 54.4833 62.0277 54.838C61.8224 55.1927 61.5424 55.4773 61.1877 55.692C60.8331 55.8973 60.4457 56 60.0257 56H56.5117ZM59.4097 57.68H60.7957V59.08H59.4097V57.68ZM57.2817 57.68H58.6677V59.08H57.2817V57.68ZM62.2561 58.296L63.3061 57.75C63.6514 57.5727 63.9128 57.3487 64.0901 57.078C64.2674 56.8073 64.3561 56.4013 64.3561 55.86V51.352H65.6021V53.732C65.6021 53.956 65.6861 54.1473 65.8541 54.306C66.0314 54.4553 66.2321 54.53 66.4561 54.53H66.9881C67.0628 54.53 67.1141 54.544 67.1421 54.572C67.1701 54.5907 67.1841 54.6373 67.1841 54.712V55.804C67.1841 55.8787 67.1701 55.93 67.1421 55.958C67.1141 55.986 67.0628 56 66.9881 56H66.6661C66.4608 56 66.2601 55.958 66.0641 55.874C65.8774 55.79 65.7234 55.664 65.6021 55.496V56.028C65.6021 56.7373 65.4574 57.302 65.1681 57.722C64.8881 58.142 64.4634 58.506 63.8941 58.814L62.8301 59.416L62.2561 58.296ZM66.9844 56C66.8537 56 66.7884 55.9347 66.7884 55.804V54.726C66.7884 54.6793 66.8117 54.6373 66.8584 54.6C66.8957 54.5533 66.9377 54.53 66.9844 54.53H69.3924C69.8777 54.53 70.293 54.474 70.6384 54.362C70.9837 54.25 71.329 54.0213 71.6744 53.676L72.5564 52.822C72.5937 52.7847 72.659 52.724 72.7524 52.64C72.8457 52.556 72.9157 52.5 72.9624 52.472L69.7704 51.52C69.7424 51.5107 69.6957 51.506 69.6304 51.506C69.5184 51.506 69.4157 51.5433 69.3224 51.618C69.229 51.6833 69.1684 51.7673 69.1404 51.87L68.7064 53.102L67.6284 52.808L67.9784 51.618C68.0904 51.2167 68.3097 50.8993 68.6364 50.666C68.9724 50.4233 69.341 50.302 69.7424 50.302C69.9477 50.302 70.1204 50.3253 70.2604 50.372L75.7484 52.024L75.3984 53.186L74.7684 53.004C74.5817 52.9573 74.451 52.934 74.3764 52.934C74.2644 52.934 74.157 52.962 74.0544 53.018C73.961 53.074 73.8304 53.1813 73.6624 53.34L72.0524 54.908C71.6884 55.272 71.2544 55.5473 70.7504 55.734C70.2464 55.9113 69.719 56 69.1684 56H66.9844ZM68.9024 47.222H70.2884V48.608H68.9024V47.222Z" fill="black"/>
<defs>
<clipPath id="clip0_6_8045">
<rect width="24" height="24" fill="white" transform="translate(31.5 10)"/>
</clipPath>
</defs>
</svg>
