<svg width="24" height="24" viewBox="0 0 24 24" fill="none" xmlns="http://www.w3.org/2000/svg">
<path d="M13.3601 21.2791V22.9491C13.0201 22.9291 7.21008 22.9291 4.56008 22.9491C3.37008 22.8891 1.67008 22.7991 1.63008 20.4591C1.64008 20.1391 1.62008 3.92914 1.63008 3.60914C1.70008 2.23914 2.72008 1.18914 4.10008 1.06914C4.28008 1.04914 12.3701 1.05914 16.2201 1.05914C16.7801 1.05914 17.3301 1.05914 17.8301 1.37914C18.7101 1.93914 19.2201 2.67914 19.2101 3.77914C19.1901 6.74914 19.2201 13.9991 19.2101 14.7591C18.6701 14.7591 18.3201 14.7591 17.5801 14.7591C17.5801 11.9691 17.5801 7.84914 17.5801 5.05914C17.5801 4.73914 17.5901 4.40914 17.5701 4.08914C17.5001 3.16914 17.1701 2.84914 16.2701 2.78914C16.0301 2.78914 4.50008 2.78914 4.15008 2.78914C3.47008 2.78914 3.29008 3.23914 3.29008 3.78914C3.26008 4.06914 3.26008 19.8591 3.28008 20.0891C3.33008 20.7491 3.62008 21.1091 4.28008 21.2291C4.68008 21.2291 12.7101 21.2891 13.3301 21.2891L13.3601 21.2791Z" fill="black"/>
<path d="M10.8601 14.9785H5.34009V16.6285H10.8601V14.9785Z" fill="black"/>
<path d="M15.8001 12.3984H5.34009V14.0484H15.8001V12.3984Z" fill="black"/>
<path d="M15.8001 9.68945H5.34009V11.3395H15.8001V9.68945Z" fill="black"/>
<path d="M15.8001 7.18945H5.34009V8.83945H15.8001V7.18945Z" fill="black"/>
<path d="M15.8001 4.64844H5.34009V6.29844H15.8001V4.64844Z" fill="black"/>
<path d="M22.3403 21.4377L15.9905 15.0879L14.5056 16.5728L20.8554 22.9226L22.3403 21.4377Z" fill="black"/>
<path d="M16.0105 22.8908L22.3604 16.541L20.8754 15.0561L14.5256 21.4059L16.0105 22.8908Z" fill="black"/>
</svg>
