<svg width="112" height="72" viewBox="0 0 112 72" fill="none" xmlns="http://www.w3.org/2000/svg">
<g clip-path="url(#clip0_2857_12906)">
<path d="M46.8103 20.466H45.9754C45.2952 20.466 45.012 20.3023 45.0003 19.9099C44.9886 19.5176 45.2922 19.292 46.0133 19.3075C46.6147 19.3075 47.2161 19.3415 47.8904 19.3631C48.6961 18.4116 49.569 17.4199 50.3981 16.385C50.5397 16.19 50.7232 16.0336 50.9334 15.9288C51.1436 15.824 51.3744 15.7739 51.6066 15.7825C52.0971 15.7825 52.5875 15.7671 53.0663 15.7825C53.2267 15.7974 53.3878 15.7651 53.532 15.6894C53.6762 15.6136 53.7979 15.4973 53.8837 15.3531C54.6799 14.2034 55.8571 13.4145 57.1795 13.1442C59.5675 12.6592 61.5964 13.3883 63.0502 15.4736C64.504 17.5589 64.5741 19.7987 63.4531 22.0972C63.3557 22.2651 63.2495 22.427 63.1349 22.5822L62.767 23.1507C63.6954 23.1507 64.0953 23.8612 64.5536 24.4822C65.2426 25.409 65.9285 26.3358 66.6264 27.2626C66.8902 27.589 67.023 28.0115 66.9967 28.4401C66.9703 28.8687 66.7867 29.2695 66.485 29.5569C66.1834 29.8442 65.7876 29.9955 65.382 29.9784C64.9765 29.9613 64.5933 29.7772 64.3142 29.4653C64.2972 29.4479 64.2825 29.4282 64.2705 29.4066C63.8559 28.5138 63.1349 28.3315 62.2912 28.4798C61.4475 28.6281 60.9045 28.2697 60.6009 27.4418C60.5255 27.2803 60.4366 27.1262 60.3353 26.9815C60.1543 26.9815 59.9704 26.9506 59.7864 26.9506C56.9635 26.9506 54.1377 26.9506 51.3206 26.9506C50.8651 26.9506 50.5586 27.0556 50.3951 27.5221C50.3323 27.6544 50.2631 27.7833 50.1879 27.9083C50.1106 28.1026 49.9757 28.265 49.8034 28.3709C49.6312 28.4768 49.431 28.5205 49.2333 28.4953C48.6056 28.4644 47.9721 28.4953 47.3445 28.4798C46.7957 28.4798 46.6293 28.3099 46.6264 27.7229C46.6127 25.5995 46.6127 23.4771 46.6264 21.3557C46.6599 21.0535 46.7215 20.7555 46.8103 20.466ZM53.7961 19.1499C53.7944 20.1213 54.0647 21.0714 54.5728 21.8803C55.081 22.6892 55.8042 23.3206 56.6512 23.6948C57.4982 24.0691 58.431 24.1693 59.3318 23.983C60.2326 23.7966 61.061 23.332 61.7125 22.6477C62.3639 21.9635 62.8092 21.0903 62.9921 20.1384C63.175 19.1866 63.0873 18.1987 62.74 17.2996C62.3928 16.4004 61.8015 15.6303 61.041 15.0865C60.2805 14.5427 59.3848 14.2495 58.4669 14.244C57.8542 14.235 57.2458 14.3554 56.6775 14.5983C56.1093 14.8412 55.5925 15.2016 55.1575 15.6585C54.7226 16.1153 54.3781 16.6595 54.1443 17.259C53.9105 17.8585 53.7922 18.5014 53.7961 19.1499ZM47.6948 27.3367C48.0977 27.3367 48.4013 27.312 48.6991 27.3367C48.8707 27.3741 49.0494 27.3435 49.2012 27.2507C49.3529 27.1579 49.4672 27.0093 49.5223 26.8332C49.8463 26.0114 50.4564 25.7797 51.2739 25.789C54.0968 25.8229 56.9226 25.8322 59.7397 25.789C60.5951 25.7735 61.1527 26.0979 61.5526 26.861C61.8445 27.4387 61.8825 27.4233 62.5539 27.1977C62.0635 26.3142 61.1556 25.653 61.2753 24.4358C60.932 24.6118 60.5802 24.7685 60.2214 24.9054C57.9327 25.6191 55.9301 25.0815 54.2573 23.2835C54.1341 23.1251 53.9767 23.0004 53.7984 22.9197C53.62 22.8391 53.4261 22.8049 53.2327 22.8201C52.6985 22.8541 52.1584 22.8016 51.6242 22.8356C50.9923 22.8897 50.3637 22.6962 49.858 22.2918C49.2742 21.8408 48.6523 21.4577 48.0685 21.0561C47.6627 21.2353 47.6948 21.5689 47.6948 21.8871C47.6948 23.197 47.6948 24.5038 47.6948 25.8137V27.3367ZM48.7545 20.1385C49.4727 20.6359 50.1499 21.1055 50.833 21.572C50.911 21.6241 51.0007 21.6529 51.0929 21.6554C51.7555 21.6554 52.4211 21.6554 53.1714 21.6554C52.5759 20.157 52.5209 18.4795 53.0167 16.941C52.5408 16.941 52.1409 16.9101 51.7614 16.941C51.5555 16.9634 51.363 17.0593 51.2155 17.2129C50.3951 18.1613 49.6011 19.1283 48.7545 20.1385ZM65.4908 28.8382C65.5973 28.6446 65.6788 28.4368 65.733 28.2203C65.733 28.1029 65.6134 27.9639 65.5287 27.8496C64.7502 26.8054 63.9717 25.7643 63.1932 24.7262C63.1356 24.6488 63.0732 24.5755 63.0064 24.5069C62.8342 24.3432 62.6152 24.2505 62.4634 24.4698C62.4254 24.5498 62.4037 24.6373 62.3997 24.7267C62.3957 24.8161 62.4094 24.9054 62.4401 24.9888C62.5237 25.1626 62.6331 25.3212 62.7641 25.4584C63.4677 26.4037 64.1683 27.3522 64.8835 28.2883C65.0719 28.4882 65.2749 28.6721 65.4908 28.8382Z" fill="black"/>
<path d="M56.6068 16.3795C56.8596 16.5724 57.0419 16.7237 57.2362 16.8571C57.5698 17.0878 57.7744 16.9742 57.8002 16.5526C57.8483 15.8101 57.85 15.8029 58.5774 15.8317C58.7923 15.8407 59.0055 15.8894 59.2549 15.9236C59.2686 16.2155 59.2755 16.4642 59.2927 16.7274C59.3099 16.9905 59.4251 17.0626 59.6366 16.9436C59.8056 16.8483 59.9647 16.7348 60.1112 16.6048C60.1386 16.5722 60.1723 16.5461 60.2101 16.5282C60.2479 16.5103 60.2889 16.5011 60.3304 16.5011C60.3719 16.5011 60.4129 16.5103 60.4507 16.5282C60.4885 16.5461 60.5222 16.5722 60.5496 16.6048C60.7543 16.8175 60.9486 17.0391 61.1463 17.259C61.1761 17.2893 61.1996 17.3259 61.215 17.3663C61.2305 17.4067 61.2376 17.4501 61.236 17.4937C61.2344 17.5372 61.224 17.5799 61.2056 17.6189C61.1872 17.658 61.1611 17.6925 61.1291 17.7203C61.0122 17.8591 60.8781 17.987 60.7714 18.1348C60.6322 18.3258 60.6803 18.4502 60.9073 18.4952C61.0964 18.5331 61.289 18.5511 61.4782 18.5745C61.6346 18.5943 61.7498 18.6754 61.7498 18.8448C61.7498 19.2161 61.7412 19.5891 61.7189 19.9622C61.7069 20.173 61.5727 20.2415 61.375 20.2415C61.1831 20.2393 60.9916 20.2598 60.8041 20.3028C60.5926 20.355 60.5617 20.4559 60.6803 20.6415C60.78 20.7965 60.8953 20.9407 61.007 21.0867C61.0366 21.1171 61.0599 21.1535 61.0756 21.1937C61.0912 21.234 61.0987 21.2772 61.0977 21.3206C61.0968 21.364 61.0873 21.4068 61.0699 21.4462C61.0525 21.4856 61.0276 21.5209 60.9967 21.5498C60.9692 21.5804 60.9434 21.6165 60.9159 21.6471C60.3244 22.2761 60.3519 22.2022 59.738 21.8508C59.5661 21.7516 59.3941 21.5895 59.1362 21.7697C59.1362 21.9499 59.1242 22.1661 59.1104 22.377C59.0915 22.6707 59.0485 22.7212 58.7665 22.7626C58.6713 22.7758 58.5754 22.7836 58.4794 22.7861C57.7452 22.7987 57.7348 22.7861 57.7211 22.0093C57.7211 21.912 57.6987 21.8147 57.685 21.6976C57.2293 21.6489 56.9731 22.058 56.5432 22.1914L55.6835 21.2903L56.3403 20.4559C56.2389 20.3748 56.1684 20.3028 56.079 20.2487C56.0343 20.2216 55.9706 20.2307 55.9191 20.2108C55.668 20.1171 55.2829 20.1712 55.2072 19.8702C55.1449 19.4895 55.1403 19.1009 55.1934 18.7187C55.1934 18.6448 55.3654 18.5511 55.4668 18.5241C55.625 18.4844 55.797 18.5078 55.9586 18.4826C56.2578 18.4376 56.3335 18.2663 56.1684 18.005C56.0781 17.8611 55.9757 17.726 55.8623 17.6014C55.8268 17.5723 55.7983 17.535 55.779 17.4924C55.7596 17.4498 55.75 17.403 55.7508 17.3558C55.7516 17.3087 55.7629 17.2623 55.7838 17.2205C55.8046 17.1787 55.8344 17.1425 55.8709 17.1148C56.1134 16.8823 56.3472 16.6462 56.6068 16.3795ZM56.6928 21.6453C57.5749 21.2254 57.5749 21.2254 58.0684 21.4453C58.0942 21.6832 58.1217 21.9355 58.1492 22.195H58.7132C58.7493 21.912 58.7803 21.6543 58.8112 21.4129C59.0296 21.3462 59.2291 21.2146 59.3924 21.2524C59.6583 21.345 59.9133 21.4689 60.1524 21.6219L60.6012 21.2182L60.1765 20.537C60.2332 19.8432 60.7852 19.9513 61.1824 19.7982V18.9566C60.7543 18.8575 60.2608 18.8538 60.2281 18.2231L60.6975 17.5725L60.2333 17.0878C59.7982 17.2301 59.4509 17.7365 58.9866 17.2103L58.8731 16.4516H58.2042C58.1853 16.603 58.1596 16.7436 58.1527 16.8859C58.1539 16.9917 58.1204 17.0948 58.0578 17.1778C57.9952 17.2608 57.9073 17.3187 57.8088 17.3419C57.5319 17.4554 57.3256 17.4626 57.1055 17.25C56.9946 17.161 56.876 17.0832 56.7513 17.0175L56.2853 17.4572L56.741 18.1781C56.6942 18.2645 56.6545 18.3549 56.6223 18.4484C56.6004 18.5768 56.5329 18.6917 56.4333 18.7699C56.3337 18.8482 56.2096 18.884 56.0859 18.8701C55.9574 18.8849 55.8306 18.9133 55.7076 18.9548V19.7729C55.95 19.8216 56.1993 19.809 56.3696 19.9243C56.5398 20.0396 56.6464 20.2847 56.7857 20.4811L56.3094 21.1876C56.4487 21.3534 56.5725 21.503 56.6928 21.6453Z" fill="black"/>
<path d="M59.9668 19.3578C59.9614 19.5681 59.9166 19.7752 59.8351 19.967C59.7537 20.1589 59.6371 20.3318 59.4921 20.4757C59.3471 20.6196 59.1767 20.7316 58.9905 20.8053C58.8044 20.879 58.6063 20.9129 58.4078 20.905C58.0128 20.8886 57.6392 20.7107 57.3653 20.4089C57.0915 20.1071 56.9387 19.7047 56.939 19.2861C56.9424 19.0726 56.986 18.862 57.0672 18.6666C57.1484 18.4711 57.2655 18.2948 57.4118 18.1478C57.558 18.0008 57.7305 17.8861 57.919 17.8104C58.1076 17.7347 58.3085 17.6996 58.51 17.707C58.7086 17.7121 58.9043 17.7591 59.0856 17.8452C59.2669 17.9313 59.4301 18.0548 59.5657 18.2086C59.7014 18.3622 59.8067 18.543 59.8756 18.7404C59.9445 18.9377 59.9755 19.1476 59.9668 19.3578ZM58.4769 20.4864C58.6242 20.4851 58.7698 20.453 58.9053 20.3919C59.0407 20.3308 59.1635 20.2419 59.2663 20.1303C59.3692 20.0187 59.4502 19.8867 59.5046 19.7418C59.559 19.5969 59.5858 19.442 59.5834 19.2861C59.5811 19.1302 59.5498 18.9762 59.4912 18.8331C59.4327 18.69 59.3481 18.5605 59.2422 18.452C59.1364 18.3435 59.0114 18.2581 58.8745 18.2008C58.7375 18.1434 58.5911 18.1152 58.4439 18.1177C58.2964 18.1178 58.1506 18.1494 58.0149 18.2104C57.8792 18.2715 57.7566 18.3608 57.6541 18.473C57.5517 18.5853 57.4717 18.7183 57.4189 18.864C57.366 19.0097 57.3413 19.1651 57.3464 19.3211C57.3453 19.4772 57.374 19.632 57.4308 19.7761C57.4876 19.9202 57.5713 20.0506 57.6769 20.1596C57.7825 20.2685 57.9078 20.3538 58.0453 20.4102C58.1827 20.4667 58.3296 20.4931 58.4769 20.488V20.4864Z" fill="black"/>
</g>
<path d="M14.718 55.804C14.41 55.9347 14.0647 56 13.682 56H12.842C12.4687 56 12.128 55.9067 11.82 55.72C11.5213 55.5333 11.2833 55.286 11.106 54.978C10.9287 54.67 10.84 54.334 10.84 53.97C10.84 53.8113 10.8493 53.69 10.868 53.606L11.092 52.36C11.176 51.884 11.4047 51.492 11.778 51.184C12.1607 50.8667 12.5947 50.708 13.08 50.708H13.864C14.2467 50.708 14.6013 50.806 14.928 51.002C15.2547 51.1887 15.5113 51.4453 15.698 51.772C15.8847 52.0893 15.978 52.4347 15.978 52.808V55.832C15.978 56.5507 15.7773 57.1853 15.376 57.736C14.984 58.296 14.4567 58.6927 13.794 58.926L12.016 59.514L11.652 58.338L13.472 57.736C13.864 57.596 14.1673 57.372 14.382 57.064C14.606 56.7653 14.718 56.42 14.718 56.028V55.804ZM14.732 52.808C14.732 52.612 14.662 52.4487 14.522 52.318C14.3913 52.178 14.2233 52.108 14.018 52.108H12.94C12.772 52.108 12.632 52.1547 12.52 52.248C12.4173 52.3413 12.3473 52.4813 12.31 52.668L12.1 53.802C12.0907 53.83 12.086 53.872 12.086 53.928C12.086 54.096 12.142 54.2407 12.254 54.362C12.3753 54.474 12.5247 54.53 12.702 54.53H14.732V52.808ZM16.3323 58.296L17.3823 57.75C17.7276 57.5727 17.9889 57.3487 18.1663 57.078C18.3436 56.8073 18.4323 56.4013 18.4323 55.86V51.352H19.6783V55.776C19.6783 56.56 19.5383 57.1807 19.2583 57.638C18.9783 58.1047 18.5489 58.4967 17.9703 58.814L16.9063 59.416L16.3323 58.296ZM23.186 56C22.7194 56 22.3227 55.8367 21.996 55.51C21.6694 55.174 21.506 54.7727 21.506 54.306V52.668H22.57V54.054C22.57 54.1847 22.612 54.2967 22.696 54.39C22.78 54.4833 22.892 54.53 23.032 54.53H25.272C25.5894 54.53 25.8367 54.432 26.014 54.236C26.2007 54.04 26.294 53.802 26.294 53.522C26.294 53.2887 26.2427 53.088 26.14 52.92L24.516 49.994L25.58 49.336L27.274 52.332C27.498 52.724 27.61 53.1487 27.61 53.606C27.61 54.026 27.5074 54.4227 27.302 54.796C27.0967 55.16 26.812 55.454 26.448 55.678C26.0934 55.8927 25.692 56 25.244 56H23.186ZM35.4033 54.53C35.4593 54.53 35.506 54.5487 35.5433 54.586C35.5807 54.6233 35.5993 54.67 35.5993 54.726V55.804C35.5993 55.9347 35.534 56 35.4033 56H34.1293V54.53H35.4033ZM33.0793 55.874C32.8833 55.958 32.538 56 32.0433 56H31.2033C30.83 56 30.4893 55.9067 30.1813 55.72C29.8827 55.5333 29.6447 55.286 29.4673 54.978C29.29 54.67 29.2013 54.334 29.2013 53.97C29.2013 53.8113 29.2107 53.69 29.2293 53.606L29.4533 52.36C29.5373 51.884 29.766 51.492 30.1393 51.184C30.522 50.8667 30.956 50.708 31.4413 50.708H32.2253C32.608 50.708 32.9627 50.806 33.2893 51.002C33.616 51.1887 33.8727 51.4453 34.0593 51.772C34.246 52.0893 34.3393 52.4347 34.3393 52.808V55.832C34.3393 56.5507 34.1387 57.1853 33.7373 57.736C33.3453 58.296 32.818 58.6927 32.1553 58.926L30.3773 59.514L30.0133 58.338L31.8333 57.736C32.2347 57.596 32.5427 57.372 32.7573 57.064C32.972 56.7653 33.0793 56.4433 33.0793 56.098V55.874ZM33.0933 52.808C33.0933 52.612 33.0233 52.4487 32.8833 52.318C32.7527 52.178 32.5847 52.108 32.3793 52.108H31.3013C31.1333 52.108 30.9933 52.1547 30.8813 52.248C30.7787 52.3413 30.7087 52.4813 30.6713 52.668L30.4613 53.802C30.452 53.83 30.4473 53.872 30.4473 53.928C30.4473 54.096 30.5033 54.2407 30.6153 54.362C30.7367 54.474 30.886 54.53 31.0633 54.53H33.0933V52.808ZM35.4023 56C35.2717 56 35.2063 55.9347 35.2063 55.804V54.726C35.2063 54.6793 35.2297 54.6373 35.2763 54.6C35.3137 54.5533 35.3557 54.53 35.4023 54.53H37.8103C38.2957 54.53 38.711 54.474 39.0563 54.362C39.4017 54.25 39.747 54.0213 40.0923 53.676L40.9743 52.822C41.0117 52.7847 41.077 52.724 41.1703 52.64C41.2637 52.556 41.3337 52.5 41.3803 52.472L38.1883 51.52C38.1603 51.5107 38.1137 51.506 38.0483 51.506C37.9363 51.506 37.8337 51.5433 37.7403 51.618C37.647 51.6833 37.5863 51.7673 37.5583 51.87L37.1243 53.102L36.0463 52.808L36.3963 51.618C36.5083 51.2167 36.7277 50.8993 37.0543 50.666C37.3903 50.4233 37.759 50.302 38.1603 50.302C38.3657 50.302 38.5383 50.3253 38.6783 50.372L44.1663 52.024L43.8163 53.186L43.1863 53.004C42.9997 52.9573 42.869 52.934 42.7943 52.934C42.6823 52.934 42.575 52.962 42.4723 53.018C42.379 53.074 42.2483 53.1813 42.0803 53.34L40.4703 54.908C40.1063 55.272 39.6723 55.5473 39.1683 55.734C38.6643 55.9113 38.137 56 37.5863 56H35.4023ZM37.3203 47.222H38.7063V48.608H37.3203V47.222ZM50.0055 56C49.5295 56 49.0862 55.8787 48.6755 55.636C48.2649 55.3933 47.9382 55.0713 47.6955 54.67C47.4622 54.2593 47.3455 53.8113 47.3455 53.326V50.932H48.6055V53.228C48.6055 53.5827 48.7315 53.8907 48.9835 54.152C49.2355 54.404 49.5389 54.53 49.8935 54.53H55.5495C55.7829 54.53 55.9789 54.4507 56.1375 54.292C56.3055 54.124 56.3895 53.9187 56.3895 53.676V50.932H57.6495V53.662C57.6495 54.082 57.5422 54.474 57.3275 54.838C57.1222 55.1927 56.8422 55.4773 56.4875 55.692C56.1329 55.8973 55.7455 56 55.3255 56H50.0055ZM52.8895 49.518H54.2755V50.918H52.8895V49.518ZM50.7615 49.518H52.1475V50.918H50.7615V49.518ZM61.6458 56C61.2258 56 60.8384 55.8973 60.4838 55.692C60.1291 55.4867 59.8491 55.2113 59.6438 54.866C59.4384 54.5113 59.3358 54.124 59.3358 53.704V46.592H60.5958V53.676C60.5958 53.9187 60.6751 54.124 60.8338 54.292C60.9924 54.4507 61.1884 54.53 61.4218 54.53H62.1218C62.1778 54.53 62.2244 54.5533 62.2618 54.6C62.2991 54.6373 62.3178 54.684 62.3178 54.74V55.804C62.3178 55.9347 62.2524 56 62.1218 56H61.6458ZM62.1172 56C61.9865 56 61.9212 55.9347 61.9212 55.804V54.726C61.9212 54.5953 61.9865 54.53 62.1172 54.53H62.6632C62.8965 54.53 63.0925 54.446 63.2512 54.278C63.4099 54.11 63.4892 53.9093 63.4892 53.676V51.436H64.7492V53.06C64.7492 53.2467 64.7772 53.41 64.8332 53.55C64.8985 53.69 64.9732 53.788 65.0572 53.844L67.0872 51.646C67.3765 51.3473 67.7079 51.114 68.0812 50.946C68.4639 50.778 68.8652 50.694 69.2852 50.694H70.1532C70.5359 50.694 70.8905 50.792 71.2172 50.988C71.5439 51.1747 71.8005 51.4313 71.9872 51.758C72.1832 52.0847 72.2812 52.444 72.2812 52.836V53.676C72.2812 53.9093 72.3652 54.11 72.5332 54.278C72.7105 54.446 72.9159 54.53 73.1492 54.53H73.6532C73.7839 54.53 73.8492 54.5953 73.8492 54.726V55.79C73.8492 55.93 73.7839 56 73.6532 56H73.3452C72.7105 56 72.1552 55.7387 71.6792 55.216C71.4832 55.4587 71.2359 55.65 70.9372 55.79C70.6479 55.93 70.3445 56 70.0272 56H66.4852C66.0932 56 65.6685 55.9067 65.2112 55.72C64.7539 55.524 64.4179 55.216 64.2032 54.796C64.0725 55.1787 63.8345 55.4773 63.4892 55.692C63.1532 55.8973 62.7985 56 62.4252 56H62.1172ZM66.0932 54.488C66.2239 54.516 66.3499 54.53 66.4712 54.53H70.2512C70.4659 54.53 70.6479 54.4507 70.7972 54.292C70.9559 54.1333 71.0352 53.942 71.0352 53.718V52.92C71.0352 52.6867 70.9559 52.4953 70.7972 52.346C70.6385 52.1873 70.4425 52.108 70.2092 52.108H69.0892C68.5479 52.108 68.0999 52.304 67.7452 52.696L66.0932 54.488ZM73.6562 56C73.5256 56 73.4602 55.9347 73.4602 55.804V54.726C73.4602 54.6793 73.4836 54.6373 73.5302 54.6C73.5676 54.5533 73.6096 54.53 73.6562 54.53H76.0643C76.5496 54.53 76.9649 54.474 77.3103 54.362C77.6556 54.25 78.0009 54.0213 78.3463 53.676L79.2703 52.766C79.4476 52.6073 79.5689 52.5093 79.6343 52.472L76.4423 51.52C76.3676 51.5013 76.3163 51.492 76.2883 51.492C76.1763 51.492 76.0783 51.5247 75.9943 51.59C75.9103 51.6553 75.8496 51.744 75.8123 51.856L75.3783 53.102L74.3003 52.808L74.6503 51.618C74.7623 51.226 74.9863 50.9087 75.3223 50.666C75.6583 50.4233 76.0269 50.302 76.4283 50.302C76.6243 50.302 76.7923 50.3253 76.9323 50.372L82.4203 52.024L82.0703 53.186L81.3983 52.99C81.2303 52.9433 81.1089 52.92 81.0343 52.92C80.9409 52.92 80.8523 52.9433 80.7683 52.99C80.6936 53.0273 80.5956 53.0927 80.4743 53.186V53.732C80.4743 53.956 80.5489 54.1473 80.6983 54.306C80.8569 54.4553 81.0436 54.53 81.2583 54.53H83.2463C83.3769 54.53 83.4423 54.5953 83.4423 54.726V55.804C83.4423 55.9347 83.3769 56 83.2463 56H81.5943C81.1089 56 80.6843 55.86 80.3203 55.58C79.9563 55.2907 79.7136 54.922 79.5923 54.474L79.5503 54.18L78.7243 54.908C78.3789 55.2813 77.9543 55.5567 77.4503 55.734C76.9463 55.9113 76.4096 56 75.8403 56H73.6562ZM75.6023 47.222H76.9883V48.608H75.6023V47.222ZM83.2402 56C83.1842 56 83.1376 55.986 83.1002 55.958C83.0629 55.9207 83.0442 55.8693 83.0442 55.804V54.726C83.0442 54.67 83.0676 54.6233 83.1142 54.586C83.1516 54.5487 83.1936 54.53 83.2402 54.53H83.7722C84.0056 54.53 84.2016 54.446 84.3602 54.278C84.5282 54.11 84.6122 53.9047 84.6122 53.662V51.352H85.8582V53.662C85.8582 53.9047 85.9422 54.11 86.1102 54.278C86.2876 54.446 86.4882 54.53 86.7122 54.53H87.0202C87.2816 54.53 87.4869 54.46 87.6362 54.32C87.7856 54.18 87.8836 53.9933 87.9302 53.76L88.4062 51.38L89.6522 51.604L89.2602 53.592C89.2509 53.6293 89.2462 53.69 89.2462 53.774C89.2462 53.9887 89.3209 54.1707 89.4702 54.32C89.6196 54.46 89.8109 54.53 90.0442 54.53H90.4222C90.6649 54.53 90.8656 54.4507 91.0242 54.292C91.1922 54.124 91.2762 53.9187 91.2762 53.676V50.946H92.5362V53.648C92.5269 53.9 92.6062 54.11 92.7742 54.278C92.9422 54.446 93.1476 54.53 93.3902 54.53H93.9362C93.9922 54.53 94.0389 54.5487 94.0762 54.586C94.1136 54.614 94.1322 54.6607 94.1322 54.726V55.804C94.1322 55.86 94.1136 55.9067 94.0762 55.944C94.0389 55.9813 93.9922 56 93.9362 56H93.6002C92.8909 56 92.3262 55.706 91.9062 55.118C91.7009 55.4073 91.4489 55.6267 91.1502 55.776C90.8516 55.9253 90.5296 56 90.1842 56C89.8389 56 89.5169 55.93 89.2182 55.79C88.9196 55.6407 88.6956 55.4167 88.5462 55.118C88.3689 55.4073 88.1402 55.6267 87.8602 55.776C87.5802 55.9253 87.2722 56 86.9362 56C86.6002 56 86.2876 55.93 85.9982 55.79C85.7089 55.6407 85.4569 55.4167 85.2422 55.118C84.8222 55.706 84.2622 56 83.5622 56H83.2402ZM87.9722 46.62H89.3582V48.006H87.9722V46.62ZM86.9082 48.524H88.2942V49.924H86.9082V48.524ZM89.0362 48.524H90.4222V49.924H89.0362V48.524ZM93.9316 56C93.8756 56 93.829 55.9813 93.7916 55.944C93.7543 55.9067 93.7356 55.86 93.7356 55.804V54.726C93.7356 54.67 93.7543 54.6233 93.7916 54.586C93.8196 54.5487 93.8663 54.53 93.9316 54.53H94.3796C94.613 54.53 94.8136 54.4647 94.9816 54.334C95.1496 54.2033 95.257 54.0167 95.3036 53.774L95.5836 52.332C95.677 51.8653 95.9103 51.478 96.2836 51.17C96.657 50.862 97.0816 50.708 97.5576 50.708H98.3416C98.7243 50.708 99.079 50.8013 99.4056 50.988C99.7323 51.1747 99.989 51.4313 100.176 51.758C100.372 52.0847 100.47 52.4393 100.47 52.822V54.53C100.47 54.95 100.33 55.3 100.05 55.58C99.7696 55.86 99.4103 56 98.9716 56H97.3196C96.6663 56 96.1763 55.7107 95.8496 55.132C95.5136 55.7107 94.9956 56 94.2956 56H93.9316ZM99.2096 54.53V52.808C99.2096 52.612 99.1396 52.444 98.9996 52.304C98.869 52.164 98.701 52.094 98.4956 52.094H97.4736C97.3056 52.094 97.1563 52.15 97.0256 52.262C96.895 52.374 96.8156 52.514 96.7876 52.682L96.5636 53.802C96.5543 53.83 96.5496 53.8673 96.5496 53.914C96.5496 54.082 96.6103 54.2267 96.7316 54.348C96.853 54.4693 96.993 54.53 97.1516 54.53H99.2096Z" fill="black"/>
<defs>
<clipPath id="clip0_2857_12906">
<rect width="22" height="17" fill="white" transform="translate(45 13)"/>
</clipPath>
</defs>
</svg>
