<svg width="76" height="76" viewBox="0 0 76 76" fill="none" xmlns="http://www.w3.org/2000/svg">
<path d="M35.3333 32.7251C35.3326 32.0194 35.5647 31.3331 35.9936 30.7726C36.4225 30.2122 37.0244 29.8089 37.7058 29.6252C38.3872 29.4415 39.1102 29.4877 39.7627 29.7567C40.4152 30.0256 40.9608 30.5023 41.3148 31.1128C43.7532 30.0371 44.6667 28.349 44.6667 25.1406V21.6406C44.6667 16.9833 42.0405 13.7656 37.9583 13.7656C33.8762 13.7656 31.25 16.9845 31.25 21.6406V25.724C31.2497 25.9559 31.1574 26.1783 30.9934 26.3423C30.8293 26.5064 30.607 26.5986 30.375 26.599H29.2083C28.3579 26.598 27.5426 26.2599 26.9411 25.6586C26.3397 25.0574 26.0012 24.2422 26 23.3918V22.2251C26.0009 21.3744 26.3392 20.5588 26.9407 19.9571C27.5421 19.3554 28.3576 19.0169 29.2083 19.0156H29.766C30.6492 14.8495 33.672 12.0156 37.9583 12.0156C42.2447 12.0156 45.2663 14.8495 46.1495 19.0156H46.7072C47.5577 19.0169 48.373 19.3553 48.9744 19.9567C49.5758 20.5581 49.9143 21.3734 49.9155 22.224V23.3906C49.9146 24.2412 49.5763 25.0568 48.9748 25.6582C48.3733 26.2597 47.5578 26.598 46.7072 26.599H46.3467C46.3016 27.9808 45.838 29.3163 45.0172 30.4288C44.1964 31.5413 43.057 32.3783 41.75 32.829C41.7362 33.6799 41.385 34.4904 40.7736 35.0824C40.1622 35.6743 39.3407 35.9991 38.4897 35.9854C37.6388 35.9716 36.8283 35.6204 36.2363 35.009C35.6444 34.3976 35.3196 33.576 35.3333 32.7251ZM37.0833 32.7251C37.0833 33.0136 37.1689 33.2955 37.3291 33.5353C37.4894 33.7752 37.7171 33.9621 37.9836 34.0724C38.2501 34.1828 38.5433 34.2117 38.8262 34.1554C39.1091 34.0992 39.3689 33.9603 39.5729 33.7563C39.7768 33.5524 39.9157 33.2925 39.972 33.0096C40.0282 32.7267 39.9994 32.4335 39.889 32.167C39.7786 31.9006 39.5917 31.6728 39.3519 31.5126C39.1121 31.3523 38.8301 31.2668 38.5417 31.2668C38.155 31.2671 37.7842 31.4208 37.5108 31.6943C37.2374 31.9677 37.0836 32.3384 37.0833 32.7251ZM46.4167 24.8501H46.7072C47.094 24.8501 47.4651 24.6965 47.7388 24.4231C48.0125 24.1496 48.1664 23.7787 48.1667 23.3918V22.2251C48.1667 21.8382 48.0131 21.4672 47.7396 21.1935C47.4661 20.9198 47.0952 20.7659 46.7083 20.7656H46.4167V24.8501ZM27.75 22.2251V23.3918C27.7506 23.7783 27.9045 24.1487 28.1779 24.4219C28.4513 24.6951 28.8219 24.8486 29.2083 24.849H29.5V20.7656H29.2083C28.8215 20.7659 28.4505 20.9198 28.1771 21.1935C27.9036 21.4672 27.75 21.8382 27.75 22.2251Z" fill="#141124"/>
<path d="M14.392 62.45C13.8507 62.45 13.3513 62.3147 12.894 62.044C12.446 61.7827 12.0867 61.4233 11.816 60.966C11.5453 60.518 11.41 60.0233 11.41 59.482V55.576H12.67V59.3C12.67 59.7667 12.8287 60.1633 13.146 60.49C13.4727 60.8167 13.8693 60.98 14.336 60.98H16.814C17.1967 60.98 17.5233 60.84 17.794 60.56C18.074 60.28 18.214 59.9487 18.214 59.566V55.352H19.474V57.69C19.474 57.914 19.5533 58.11 19.712 58.278C19.8707 58.446 20.062 58.53 20.286 58.53H20.972C21.1027 58.53 21.168 58.5953 21.168 58.726V59.804C21.168 59.9347 21.1027 60 20.972 60H20.566C20.314 60 20.09 59.9533 19.894 59.86C19.7073 59.7667 19.5627 59.6453 19.46 59.496V60.028C19.46 60.4573 19.334 60.8587 19.082 61.232C18.8393 61.6053 18.5127 61.8993 18.102 62.114C17.7007 62.338 17.2667 62.45 16.8 62.45H14.392ZM14.756 53.938H16.142V55.324H14.756V53.938ZM20.9727 60C20.9167 60 20.87 59.9813 20.8327 59.944C20.7953 59.9067 20.7767 59.86 20.7767 59.804V58.74C20.7767 58.684 20.7953 58.6373 20.8327 58.6C20.87 58.5533 20.9167 58.53 20.9727 58.53H22.9747C23.208 58.53 23.4087 58.446 23.5767 58.278C23.7447 58.11 23.8287 57.9093 23.8287 57.676V54.946H25.0747V57.676C25.0747 58.096 24.972 58.4833 24.7667 58.838C24.5613 59.1927 24.2813 59.4773 23.9267 59.692C23.572 59.8973 23.1847 60 22.7647 60H20.9727ZM23.4367 61.68H24.8227V63.08H23.4367V61.68ZM21.3087 61.68H22.6947V63.08H21.3087V61.68ZM32.5878 57.55C32.5878 57.886 32.6765 58.1333 32.8538 58.292C33.0405 58.4507 33.2832 58.53 33.5818 58.53H34.1698C34.3005 58.53 34.3658 58.5953 34.3658 58.726V59.804C34.3658 59.86 34.3472 59.9067 34.3098 59.944C34.2725 59.9813 34.2258 60 34.1698 60H33.6378C33.1338 60 32.6998 59.8227 32.3358 59.468C31.9812 59.1133 31.8038 58.6187 31.8038 57.984L32.5878 57.55ZM26.4698 59.076L27.9958 58.88L27.3098 51.782L28.5698 51.6L29.1158 57.662C29.1252 57.7553 29.1298 57.872 29.1298 58.012C29.1298 58.18 29.0925 58.4227 29.0178 58.74L30.4038 58.558C30.6838 58.5113 30.9078 58.3947 31.0758 58.208C31.2532 58.012 31.3418 57.7693 31.3418 57.48V50.592H32.5878V57.424C32.5878 58.0587 32.3965 58.6 32.0138 59.048C31.6312 59.4867 31.1318 59.7527 30.5158 59.846L26.6378 60.406L26.4698 59.076ZM34.166 60C34.11 60 34.0633 59.9813 34.026 59.944C33.9887 59.9067 33.97 59.86 33.97 59.804V58.74C33.97 58.684 33.9887 58.6373 34.026 58.6C34.0633 58.5533 34.11 58.53 34.166 58.53H35.72C35.9627 58.53 36.1633 58.4507 36.322 58.292C36.4807 58.124 36.56 57.9187 36.56 57.676V54.946H37.82V57.662C37.82 58.082 37.7127 58.474 37.498 58.838C37.2927 59.1927 37.0127 59.4773 36.658 59.692C36.3033 59.8973 35.916 60 35.496 60H34.166ZM36.42 52.188H37.806V53.574H36.42V52.188ZM39.5628 51.698H40.8088V60H39.5628V51.698ZM37.7288 50.788C37.7381 50.4427 37.8501 50.158 38.0648 49.934C38.2795 49.71 38.5688 49.598 38.9328 49.598H42.0828V50.69H38.9608C38.7741 50.69 38.6808 50.7787 38.6808 50.956V51.432H37.7288V50.788ZM45.6739 57.242C45.6739 57.5967 45.7952 57.9 46.0379 58.152C46.2899 58.404 46.5979 58.53 46.9619 58.53H52.6319C52.8746 58.53 53.0752 58.4507 53.2339 58.292C53.3926 58.124 53.4719 57.9233 53.4719 57.69V55.338H54.7319V57.676C54.7319 57.9093 54.8159 58.11 54.9839 58.278C55.1519 58.446 55.3572 58.53 55.5999 58.53H56.0059C56.0619 58.53 56.1086 58.5487 56.1459 58.586C56.1832 58.614 56.2019 58.6607 56.2019 58.726V59.804C56.2019 59.86 56.1832 59.9067 56.1459 59.944C56.1086 59.9813 56.0619 60 56.0059 60H55.8099C55.1006 60 54.5359 59.7107 54.1159 59.132C53.6959 59.7107 53.1312 60 52.4219 60H47.0879C46.6026 60 46.1546 59.8787 45.7439 59.636C45.3332 59.3933 45.0066 59.0713 44.7639 58.67C44.5306 58.2593 44.4139 57.8113 44.4139 57.326V54.932H45.6739V57.242ZM49.9579 53.518H51.3439V54.918H49.9579V53.518ZM47.8299 53.518H49.2159V54.918H47.8299V53.518ZM56 60C55.8693 60 55.804 59.9347 55.804 59.804V58.726C55.804 58.6793 55.8273 58.6373 55.874 58.6C55.9113 58.5533 55.9533 58.53 56 58.53H58.408C58.8933 58.53 59.3087 58.474 59.654 58.362C59.9993 58.25 60.3447 58.0213 60.69 57.676L61.572 56.822C61.6093 56.7847 61.6747 56.724 61.768 56.64C61.8613 56.556 61.9313 56.5 61.978 56.472L58.786 55.52C58.758 55.5107 58.7113 55.506 58.646 55.506C58.534 55.506 58.4313 55.5433 58.338 55.618C58.2447 55.6833 58.184 55.7673 58.156 55.87L57.722 57.102L56.644 56.808L56.994 55.618C57.106 55.2167 57.3253 54.8993 57.652 54.666C57.988 54.4233 58.3567 54.302 58.758 54.302C58.9633 54.302 59.136 54.3253 59.276 54.372L64.764 56.024L64.414 57.186L63.784 57.004C63.5973 56.9573 63.4667 56.934 63.392 56.934C63.28 56.934 63.1727 56.962 63.07 57.018C62.9767 57.074 62.846 57.1813 62.678 57.34L61.068 58.908C60.704 59.272 60.27 59.5473 59.766 59.734C59.262 59.9113 58.7347 60 58.184 60H56ZM60.802 61.68H62.188V63.08H60.802V61.68ZM59.724 63.598H61.11V64.984H59.724V63.598ZM58.674 61.68H60.06V63.08H58.674V61.68Z" fill="black"/>
</svg>
