<svg width="97" height="65" viewBox="0 0 97 65" fill="none" xmlns="http://www.w3.org/2000/svg">
<g clip-path="url(#clip0_4626_13275)">
<path d="M60.5001 15.25C61.0524 15.25 61.5001 14.8023 61.5001 14.25C61.5001 13.6977 61.0524 13.25 60.5001 13.25V14.25V15.25ZM54.7973 19.7921L53.9674 20.35L54.7973 19.7921ZM55.9172 21.4579L56.7471 20.9L55.9172 21.4579ZM54.71 15.8459L55.1542 16.7418L54.71 15.8459ZM54.7981 10.7575L54.0535 11.425L54.7981 10.7575ZM50.2144 10.425V11.425H54.0535V10.425V9.42499H50.2144V10.425ZM54.7981 10.7575L54.0535 11.425L57.184 14.9175L57.9286 14.25L58.6733 13.5825L55.5428 10.0901L54.7981 10.7575ZM57.9286 14.25L57.4844 13.3541L54.2658 14.95L54.71 15.8459L55.1542 16.7418L58.3729 15.1459L57.9286 14.25ZM54.2658 15.95V14.95H50.6429V15.95V16.95H54.2658V15.95ZM50.6429 15.95V14.95H50.2144V15.95V16.95H50.6429V15.95ZM57.9286 14.25V15.25H60.5001V14.25V13.25H57.9286V14.25ZM57.9286 14.25L57.2245 14.96L57.7858 15.5167L58.4899 14.8066L59.1941 14.0965L58.6328 13.5399L57.9286 14.25ZM58.7858 15.5167H57.7858V20.9H58.7858H59.7858V15.5167H58.7858ZM57.7858 21.9V20.9H56.7471V21.9V22.9H57.7858V21.9ZM55.9172 21.4579L56.7471 20.9L55.6272 19.2342L54.7973 19.7921L53.9674 20.35L55.0873 22.0158L55.9172 21.4579ZM53.9674 19.35V18.35H50.2144V19.35V20.35H53.9674V19.35ZM54.7973 19.7921L55.6272 19.2342C55.2556 18.6815 54.6333 18.35 53.9674 18.35V19.35V20.35L53.9674 20.35L54.7973 19.7921ZM56.7471 21.9V20.9H56.7471L55.9172 21.4579L55.0873 22.0158C55.4588 22.5685 56.0811 22.9 56.7471 22.9V21.9ZM58.4899 14.8066L57.7858 15.5167H58.7858H59.7858C59.7858 14.9833 59.5728 14.4721 59.1941 14.0965L58.4899 14.8066ZM58.7858 20.9H57.7858V21.9V22.9C58.8904 22.9 59.7858 22.0046 59.7858 20.9H58.7858ZM54.71 15.8459L54.2658 14.95H54.2658V15.95V16.95C54.574 16.95 54.8781 16.8787 55.1542 16.7418L54.71 15.8459ZM54.0535 10.425V11.425H54.0535L54.7981 10.7575L55.5428 10.0901C55.1634 9.66682 54.6219 9.42499 54.0535 9.42499V10.425Z" fill="black"/>
<path d="M36.5004 19.075C35.9481 19.075 35.5004 18.6273 35.5004 18.075C35.5004 17.5227 35.9481 17.075 36.5004 17.075V18.075V19.075ZM42.2032 23.6171L43.0331 24.175L42.2032 23.6171ZM41.0833 25.2829L40.2534 24.725L41.0833 25.2829ZM42.2905 19.6709L41.8463 20.5668L42.2905 19.6709ZM42.2023 14.5825L42.947 15.25L42.2023 14.5825ZM46.7861 14.25V15.25H42.947V14.25V13.25H46.7861V14.25ZM42.2023 14.5825L42.947 15.25L39.8165 18.7425L39.0718 18.075L38.3272 17.4075L41.4577 13.9151L42.2023 14.5825ZM39.0718 18.075L39.5161 17.1791L42.7347 18.775L42.2905 19.6709L41.8463 20.5668L38.6276 18.9709L39.0718 18.075ZM42.7347 19.775V18.775H46.3576V19.775V20.775H42.7347V19.775ZM46.3576 19.775V18.775H46.7861V19.775V20.775H46.3576V19.775ZM39.0718 18.075V19.075H36.5004V18.075V17.075H39.0718V18.075ZM39.0718 18.075L39.776 18.7851L39.2147 19.3417L38.5106 18.6316L37.8064 17.9215L38.3677 17.3649L39.0718 18.075ZM38.2147 19.3417H39.2147V24.725H38.2147H37.2147V19.3417H38.2147ZM39.2147 25.725V24.725H40.2534V25.725V26.725H39.2147V25.725ZM41.0833 25.2829L40.2534 24.725L41.3733 23.0592L42.2032 23.6171L43.0331 24.175L41.9132 25.8408L41.0833 25.2829ZM43.0331 23.175V22.175H46.7861V23.175V24.175H43.0331V23.175ZM42.2032 23.6171L41.3733 23.0592C41.7449 22.5065 42.3672 22.175 43.0331 22.175V23.175V24.175L43.0331 24.175L42.2032 23.6171ZM40.2534 25.725V24.725H40.2534L41.0833 25.2829L41.9132 25.8408C41.5417 26.3935 40.9194 26.725 40.2534 26.725V25.725ZM38.5106 18.6316L39.2147 19.3417H38.2147H37.2147C37.2147 18.8083 37.4277 18.2971 37.8064 17.9215L38.5106 18.6316ZM38.2147 24.725H39.2147V25.725V26.725C38.1101 26.725 37.2147 25.8296 37.2147 24.725H38.2147ZM42.2905 19.6709L42.7347 18.775H42.7347V19.775V20.775C42.4265 20.775 42.1224 20.7038 41.8463 20.5668L42.2905 19.6709ZM42.947 14.25V15.25H42.947L42.2023 14.5825L41.4577 13.9151C41.8371 13.4918 42.3786 13.25 42.947 13.25V14.25Z" fill="black"/>
<path d="M48.5 10V27" stroke="black" stroke-width="2"/>
</g>
<path d="M14.718 48.804C14.41 48.9347 14.0647 49 13.682 49H12.842C12.4687 49 12.128 48.9067 11.82 48.72C11.5213 48.5333 11.2833 48.286 11.106 47.978C10.9287 47.67 10.84 47.334 10.84 46.97C10.84 46.8113 10.8493 46.69 10.868 46.606L11.092 45.36C11.176 44.884 11.4047 44.492 11.778 44.184C12.1607 43.8667 12.5947 43.708 13.08 43.708H13.864C14.2467 43.708 14.6013 43.806 14.928 44.002C15.2547 44.1887 15.5113 44.4453 15.698 44.772C15.8847 45.0893 15.978 45.4347 15.978 45.808V48.832C15.978 49.5507 15.7773 50.1853 15.376 50.736C14.984 51.296 14.4567 51.6927 13.794 51.926L12.016 52.514L11.652 51.338L13.472 50.736C13.864 50.596 14.1673 50.372 14.382 50.064C14.606 49.7653 14.718 49.42 14.718 49.028V48.804ZM14.732 45.808C14.732 45.612 14.662 45.4487 14.522 45.318C14.3913 45.178 14.2233 45.108 14.018 45.108H12.94C12.772 45.108 12.632 45.1547 12.52 45.248C12.4173 45.3413 12.3473 45.4813 12.31 45.668L12.1 46.802C12.0907 46.83 12.086 46.872 12.086 46.928C12.086 47.096 12.142 47.2407 12.254 47.362C12.3753 47.474 12.5247 47.53 12.702 47.53H14.732V45.808ZM16.3323 51.296L17.3823 50.75C17.7276 50.5727 17.9889 50.3487 18.1663 50.078C18.3436 49.8073 18.4323 49.4013 18.4323 48.86V44.352H19.6783V48.776C19.6783 49.56 19.5383 50.1807 19.2583 50.638C18.9783 51.1047 18.5489 51.4967 17.9703 51.814L16.9063 52.416L16.3323 51.296ZM23.186 49C22.7194 49 22.3227 48.8367 21.996 48.51C21.6694 48.174 21.506 47.7727 21.506 47.306V45.668H22.57V47.054C22.57 47.1847 22.612 47.2967 22.696 47.39C22.78 47.4833 22.892 47.53 23.032 47.53H25.272C25.5894 47.53 25.8367 47.432 26.014 47.236C26.2007 47.04 26.294 46.802 26.294 46.522C26.294 46.2887 26.2427 46.088 26.14 45.92L24.516 42.994L25.58 42.336L27.274 45.332C27.498 45.724 27.61 46.1487 27.61 46.606C27.61 47.026 27.5074 47.4227 27.302 47.796C27.0967 48.16 26.812 48.454 26.448 48.678C26.0934 48.8927 25.692 49 25.244 49H23.186ZM35.4033 47.53C35.4593 47.53 35.506 47.5487 35.5433 47.586C35.5807 47.6233 35.5993 47.67 35.5993 47.726V48.804C35.5993 48.9347 35.534 49 35.4033 49H34.1293V47.53H35.4033ZM33.0793 48.874C32.8833 48.958 32.538 49 32.0433 49H31.2033C30.83 49 30.4893 48.9067 30.1813 48.72C29.8827 48.5333 29.6447 48.286 29.4673 47.978C29.29 47.67 29.2013 47.334 29.2013 46.97C29.2013 46.8113 29.2107 46.69 29.2293 46.606L29.4533 45.36C29.5373 44.884 29.766 44.492 30.1393 44.184C30.522 43.8667 30.956 43.708 31.4413 43.708H32.2253C32.608 43.708 32.9627 43.806 33.2893 44.002C33.616 44.1887 33.8727 44.4453 34.0593 44.772C34.246 45.0893 34.3393 45.4347 34.3393 45.808V48.832C34.3393 49.5507 34.1387 50.1853 33.7373 50.736C33.3453 51.296 32.818 51.6927 32.1553 51.926L30.3773 52.514L30.0133 51.338L31.8333 50.736C32.2347 50.596 32.5427 50.372 32.7573 50.064C32.972 49.7653 33.0793 49.4433 33.0793 49.098V48.874ZM33.0933 45.808C33.0933 45.612 33.0233 45.4487 32.8833 45.318C32.7527 45.178 32.5847 45.108 32.3793 45.108H31.3013C31.1333 45.108 30.9933 45.1547 30.8813 45.248C30.7787 45.3413 30.7087 45.4813 30.6713 45.668L30.4613 46.802C30.452 46.83 30.4473 46.872 30.4473 46.928C30.4473 47.096 30.5033 47.2407 30.6153 47.362C30.7367 47.474 30.886 47.53 31.0633 47.53H33.0933V45.808ZM35.4023 49C35.2717 49 35.2063 48.9347 35.2063 48.804V47.726C35.2063 47.6793 35.2297 47.6373 35.2763 47.6C35.3137 47.5533 35.3557 47.53 35.4023 47.53H37.8103C38.2957 47.53 38.711 47.474 39.0563 47.362C39.4017 47.25 39.747 47.0213 40.0923 46.676L40.9743 45.822C41.0117 45.7847 41.077 45.724 41.1703 45.64C41.2637 45.556 41.3337 45.5 41.3803 45.472L38.1883 44.52C38.1603 44.5107 38.1137 44.506 38.0483 44.506C37.9363 44.506 37.8337 44.5433 37.7403 44.618C37.647 44.6833 37.5863 44.7673 37.5583 44.87L37.1243 46.102L36.0463 45.808L36.3963 44.618C36.5083 44.2167 36.7277 43.8993 37.0543 43.666C37.3903 43.4233 37.759 43.302 38.1603 43.302C38.3657 43.302 38.5383 43.3253 38.6783 43.372L44.1663 45.024L43.8163 46.186L43.1863 46.004C42.9997 45.9573 42.869 45.934 42.7943 45.934C42.6823 45.934 42.575 45.962 42.4723 46.018C42.379 46.074 42.2483 46.1813 42.0803 46.34L40.4703 47.908C40.1063 48.272 39.6723 48.5473 39.1683 48.734C38.6643 48.9113 38.137 49 37.5863 49H35.4023ZM37.3203 40.222H38.7063V41.608H37.3203V40.222ZM53.2815 49C52.8522 49 52.4649 48.8927 52.1195 48.678C51.7835 48.4633 51.5222 48.1553 51.3355 47.754C51.0555 47.8847 50.7335 47.95 50.3695 47.95H48.9135C48.4562 47.95 48.0829 47.81 47.7935 47.53C47.5042 47.2407 47.3595 46.8673 47.3595 46.41V45.5C47.3595 44.9213 47.5229 44.422 47.8495 44.002C48.1855 43.5727 48.6195 43.2927 49.1515 43.162L51.0275 42.714V41.594H52.2735V46.592C52.2735 46.8533 52.3622 47.0773 52.5395 47.264C52.7262 47.4413 52.9735 47.53 53.2815 47.53H53.7015C53.8322 47.53 53.8975 47.5953 53.8975 47.726V48.804C53.8975 48.8693 53.8789 48.9207 53.8415 48.958C53.8042 48.986 53.7575 49 53.7015 49H53.2815ZM51.0415 46.48V44.03L49.4595 44.422C48.8995 44.562 48.6195 44.9447 48.6195 45.57V46.48H51.0415ZM53.6953 49C53.6393 49 53.5926 48.986 53.5553 48.958C53.518 48.9207 53.4993 48.8693 53.4993 48.804V47.726C53.4993 47.67 53.5226 47.6233 53.5693 47.586C53.6066 47.5487 53.6486 47.53 53.6953 47.53H54.2273C54.4606 47.53 54.6566 47.446 54.8153 47.278C54.9833 47.11 55.0673 46.9047 55.0673 46.662V44.352H56.3133V46.662C56.3133 46.9047 56.3973 47.11 56.5653 47.278C56.7426 47.446 56.9433 47.53 57.1673 47.53H57.4753C57.7366 47.53 57.942 47.46 58.0913 47.32C58.2406 47.18 58.3386 46.9933 58.3853 46.76L58.8613 44.38L60.1073 44.604L59.7153 46.592C59.706 46.6293 59.7013 46.69 59.7013 46.774C59.7013 46.9887 59.776 47.1707 59.9253 47.32C60.0746 47.46 60.266 47.53 60.4993 47.53H60.8773C61.12 47.53 61.3206 47.4507 61.4793 47.292C61.6473 47.124 61.7313 46.9187 61.7313 46.676V43.946H62.9913V46.648C62.982 46.9 63.0613 47.11 63.2293 47.278C63.3973 47.446 63.6026 47.53 63.8453 47.53H64.3913C64.4473 47.53 64.494 47.5487 64.5313 47.586C64.5686 47.614 64.5873 47.6607 64.5873 47.726V48.804C64.5873 48.86 64.5686 48.9067 64.5313 48.944C64.494 48.9813 64.4473 49 64.3913 49H64.0553C63.346 49 62.7813 48.706 62.3613 48.118C62.156 48.4073 61.904 48.6267 61.6053 48.776C61.3066 48.9253 60.9846 49 60.6393 49C60.294 49 59.972 48.93 59.6733 48.79C59.3746 48.6407 59.1506 48.4167 59.0013 48.118C58.824 48.4073 58.5953 48.6267 58.3153 48.776C58.0353 48.9253 57.7273 49 57.3913 49C57.0553 49 56.7426 48.93 56.4533 48.79C56.164 48.6407 55.912 48.4167 55.6973 48.118C55.2773 48.706 54.7173 49 54.0173 49H53.6953ZM64.3867 49C64.3307 49 64.2841 48.9813 64.2467 48.944C64.2094 48.9067 64.1907 48.86 64.1907 48.804V47.74C64.1907 47.684 64.2094 47.6373 64.2467 47.6C64.2841 47.5533 64.3307 47.53 64.3867 47.53H66.3887C66.6221 47.53 66.8227 47.446 66.9907 47.278C67.1587 47.11 67.2427 46.9093 67.2427 46.676V43.946H68.4887V46.676C68.4887 47.096 68.3861 47.4833 68.1807 47.838C67.9754 48.1927 67.6954 48.4773 67.3407 48.692C66.9861 48.8973 66.5987 49 66.1787 49H64.3867ZM66.8507 50.68H68.2367V52.08H66.8507V50.68ZM64.7227 50.68H66.1087V52.08H64.7227V50.68ZM72.4739 49C72.0539 49 71.6666 48.8973 71.3119 48.692C70.9572 48.4867 70.6772 48.2113 70.4719 47.866C70.2666 47.5113 70.1639 47.124 70.1639 46.704V39.592H71.4239V46.676C71.4239 46.9187 71.5032 47.124 71.6619 47.292C71.8206 47.4507 72.0166 47.53 72.2499 47.53H72.9499C73.0059 47.53 73.0526 47.5533 73.0899 47.6C73.1272 47.6373 73.1459 47.684 73.1459 47.74V48.804C73.1459 48.9347 73.0806 49 72.9499 49H72.4739ZM72.9453 49C72.8893 49 72.8426 48.9813 72.8053 48.944C72.768 48.8973 72.7493 48.8507 72.7493 48.804V47.74C72.7493 47.684 72.768 47.6373 72.8053 47.6C72.8426 47.5533 72.8893 47.53 72.9453 47.53H74.1213H74.4013C73.9253 47.054 73.6873 46.5407 73.6873 45.99V45.57C73.6873 45.1313 73.7993 44.7207 74.0233 44.338C74.2473 43.9553 74.546 43.652 74.9193 43.428C75.302 43.204 75.7033 43.092 76.1233 43.092H76.3333C76.7626 43.092 77.164 43.204 77.5373 43.428C77.9106 43.6427 78.2046 43.9367 78.4193 44.31C78.6433 44.6833 78.7553 45.0893 78.7553 45.528V45.99C78.7553 46.522 78.5173 47.0353 78.0413 47.53H78.3073H79.4973C79.544 47.53 79.586 47.5533 79.6233 47.6C79.67 47.6373 79.6933 47.684 79.6933 47.74V48.804C79.6933 48.8507 79.67 48.8973 79.6233 48.944C79.586 48.9813 79.544 49 79.4973 49H78.7553C78.3073 49 77.8873 48.9673 77.4953 48.902C77.1033 48.8273 76.674 48.7013 76.2073 48.524C75.7406 48.7013 75.3113 48.8273 74.9193 48.902C74.5366 48.9673 74.1213 49 73.6733 49H72.9453ZM76.2073 47.362C77.0846 46.9513 77.5233 46.5267 77.5233 46.088V45.682C77.5233 45.3553 77.4066 45.08 77.1733 44.856C76.94 44.6227 76.6553 44.506 76.3193 44.506H76.0953C75.7686 44.506 75.4886 44.6227 75.2553 44.856C75.0313 45.08 74.9193 45.3553 74.9193 45.682V46.088C74.9193 46.5453 75.3486 46.97 76.2073 47.362ZM76.5713 40.222H77.9573V41.622H76.5713V40.222ZM74.4433 40.222H75.8293V41.622H74.4433V40.222ZM79.4941 49C79.4381 49 79.3915 48.9813 79.3541 48.944C79.3168 48.9067 79.2981 48.86 79.2981 48.804V47.726C79.2981 47.67 79.3168 47.6233 79.3541 47.586C79.3821 47.5487 79.4288 47.53 79.4941 47.53H79.9421C80.1755 47.53 80.3761 47.4647 80.5441 47.334C80.7121 47.2033 80.8195 47.0167 80.8661 46.774L81.1461 45.332C81.2395 44.8653 81.4728 44.478 81.8461 44.17C82.2195 43.862 82.6441 43.708 83.1201 43.708H83.9041C84.2868 43.708 84.6415 43.8013 84.9681 43.988C85.2948 44.1747 85.5515 44.4313 85.7381 44.758C85.9341 45.0847 86.0321 45.4393 86.0321 45.822V47.53C86.0321 47.95 85.8921 48.3 85.6121 48.58C85.3321 48.86 84.9728 49 84.5341 49H82.8821C82.2288 49 81.7388 48.7107 81.4121 48.132C81.0761 48.7107 80.5581 49 79.8581 49H79.4941ZM84.7721 47.53V45.808C84.7721 45.612 84.7021 45.444 84.5621 45.304C84.4315 45.164 84.2635 45.094 84.0581 45.094H83.0361C82.8681 45.094 82.7188 45.15 82.5881 45.262C82.4575 45.374 82.3781 45.514 82.3501 45.682L82.1261 46.802C82.1168 46.83 82.1121 46.8673 82.1121 46.914C82.1121 47.082 82.1728 47.2267 82.2941 47.348C82.4155 47.4693 82.5555 47.53 82.7141 47.53H84.7721Z" fill="black"/>
<defs>
<clipPath id="clip0_4626_13275">
<rect width="24" height="17" fill="white" transform="translate(36.5 10)"/>
</clipPath>
</defs>
</svg>
