<svg width="33" height="22" viewBox="0 0 33 22" fill="none" xmlns="http://www.w3.org/2000/svg">
<g clip-path="url(#clip0_1217_12203)">
<path d="M2.30384 12.1493H1.19734C0.998129 12.153 0.798925 12.1422 0.601262 12.1171C0.44169 12.104 0.292456 12.0326 0.18191 11.9163C0.0713635 11.8001 0.00720572 11.6471 0.00161231 11.4865C-0.0104318 11.3124 0.0453518 11.1404 0.157216 11.0067C0.269081 10.873 0.428283 10.7882 0.601262 10.77C0.683728 10.747 0.769097 10.7361 0.854683 10.7378C1.59547 10.7221 2.33657 10.746 3.07484 10.8094C3.25225 10.8476 3.43685 10.8342 3.60695 10.7708C3.77702 10.7073 3.92552 10.5964 4.03499 10.4511C5.03083 9.31184 6.0588 8.1976 7.04752 7.04754C7.19531 6.85503 7.38508 6.69908 7.60224 6.59162C7.81942 6.48419 8.05826 6.42813 8.30036 6.42773C9.928 6.42773 11.5556 6.42773 13.1833 6.42773C13.3044 6.44472 13.4238 6.4723 13.5402 6.51015V7.77841C13.2796 7.79992 13.0333 7.83573 12.787 7.83573C11.5306 7.83573 10.2885 7.85366 9.02139 7.83573C8.78118 7.8185 8.54038 7.86003 8.31967 7.95676C8.09896 8.05349 7.90495 8.20252 7.75426 8.39107C6.81551 9.49814 5.8375 10.573 4.82024 11.7266C5.76256 12.35 6.62635 12.9447 7.51868 13.4893C7.75493 13.5854 8.01127 13.6211 8.26468 13.5932C9.72096 13.5932 11.1737 13.5932 12.63 13.5932H13.5295V14.8866C13.3519 14.9347 13.1703 14.9659 12.9869 14.9797C11.3022 14.9797 9.61746 14.9797 7.93628 14.9797C7.44963 14.9845 6.97379 14.8353 6.57636 14.5533C5.70543 13.9622 4.8131 13.4033 3.82081 12.762C3.68519 13.0307 3.49243 13.2385 3.49243 13.4463C3.47103 15.7643 3.49243 18.0788 3.49243 20.5186C4.10638 20.5186 4.66677 20.5544 5.22001 20.5007C5.32642 20.4751 5.42555 20.4252 5.50972 20.355C5.59389 20.2848 5.66085 20.1962 5.70543 20.0958C6.20873 18.8455 7.16888 18.5839 8.40387 18.6628C9.83161 18.7416 11.2594 18.6628 12.6871 18.6842C12.9619 18.6842 13.2404 18.7129 13.5545 18.7308V20.0385H7.38304C7.11177 20.4935 6.87262 20.8804 6.65132 21.2781C6.54853 21.4999 6.38055 21.6847 6.16994 21.8077C5.95936 21.9307 5.71627 21.9859 5.47344 21.966C4.67745 21.9374 3.87437 21.966 3.07841 21.966C2.28243 21.966 2.10395 21.7475 2.10039 20.9808C2.08373 18.4036 2.08373 15.8264 2.10039 13.2492C2.13607 12.8773 2.20415 12.5093 2.30384 12.1493Z" fill="black"/>
<path d="M30.6977 5.73295H31.8035C32.0025 5.73661 32.2015 5.72581 32.399 5.70064C32.5585 5.68754 32.7075 5.61596 32.8181 5.49948C32.9284 5.383 32.9927 5.22975 32.9981 5.06882C33.0102 4.89433 32.9545 4.72194 32.8427 4.58801C32.7309 4.45409 32.5718 4.36905 32.399 4.35086C32.3167 4.32777 32.2312 4.31689 32.1458 4.31855C31.4055 4.30285 30.665 4.32681 29.9272 4.39036C29.7498 4.42867 29.5654 4.41523 29.3955 4.35162C29.2255 4.28805 29.077 4.17694 28.9677 4.03136C27.9725 2.88981 26.9453 1.77338 25.9573 0.621043C25.8098 0.42815 25.6202 0.271876 25.403 0.164219C25.186 0.0565635 24.9474 0.000385798 24.7055 0C23.0789 0 21.4525 0 19.826 0C19.705 0.0170265 19.5856 0.0446573 19.4693 0.08257V1.35336C19.7297 1.3749 19.9758 1.4108 20.222 1.4108C21.4775 1.4108 22.7187 1.42875 23.9849 1.4108C24.225 1.39353 24.4656 1.43515 24.6861 1.53206C24.9067 1.62898 25.1005 1.7783 25.2513 1.96723C26.1893 3.07649 27.1665 4.15343 28.1831 5.30934C27.2414 5.93397 26.3782 6.52987 25.4864 7.07555C25.2505 7.17188 24.9944 7.20765 24.741 7.17964C23.2858 7.17964 21.8342 7.17964 20.3789 7.17964H19.4801V8.47559C19.6574 8.52381 19.839 8.55503 20.0222 8.5689C21.7058 8.5689 23.3893 8.5689 25.0693 8.5689C25.5556 8.57372 26.0309 8.42424 26.4282 8.14171C27.2985 7.54939 28.1902 6.98938 29.1817 6.3468C29.3174 6.61604 29.51 6.82425 29.51 7.03246C29.5314 9.35507 29.51 11.6741 29.51 14.1188C28.8965 14.1188 28.3365 14.1547 27.7836 14.1008C27.6772 14.0752 27.5782 14.0252 27.494 13.9549C27.41 13.8845 27.3431 13.7957 27.2985 13.6952C26.7956 12.4423 25.8361 12.1803 24.602 12.2592C23.1753 12.3382 21.7486 12.2592 20.3218 12.2808C20.0472 12.2808 19.7689 12.3095 19.4551 12.3274V13.6377H25.6221C25.8933 14.0936 26.1322 14.4813 26.3533 14.8798C26.456 15.102 26.624 15.2872 26.8343 15.4104C27.0448 15.5336 27.2877 15.589 27.5302 15.5691C28.3257 15.5403 29.1283 15.5691 29.9237 15.5691C30.7192 15.5691 30.8975 15.3501 30.9009 14.5818C30.9177 11.9996 30.9177 9.41731 30.9009 6.83503C30.8652 6.46239 30.7972 6.09363 30.6977 5.73295Z" fill="black"/>
<path d="M17.2384 22H15.7607V0L17.2384 6.48303e-08V22Z" fill="black"/>
</g>
<defs>
<clipPath id="clip0_1217_12203">
<rect width="33" height="22" fill="white"/>
</clipPath>
</defs>
</svg>
