<svg width="76" height="72" viewBox="0 0 76 72" fill="none" xmlns="http://www.w3.org/2000/svg">
<path d="M35.7101 19.86C34.9601 20.78 34.6501 21.09 33.7701 22.16C34.8801 23.26 37.2201 25.23 38.5501 26.29C38.7801 26.11 40.1601 24.63 40.6801 24.14C41.2101 23.64 41.6101 23.61 42.1901 24.08C43.0101 24.74 45.5601 26.92 45.8801 27.24C46.6001 27.93 46.6601 28.32 46.1101 29.1C44.1701 31.85 41.4601 33.04 38.1101 32.44C34.0501 31.75 30.3401 29.03 28.2201 24.93C27.3601 23.27 27.1201 21.49 27.3101 19.65C27.4201 18.59 27.7901 17.6 28.4501 16.76C28.9201 16.17 29.4701 15.63 30.0301 15.11C30.5001 14.68 30.9401 14.68 31.4701 15C31.6301 15.1 31.7801 15.22 31.9201 15.35C32.8001 16.1 34.6401 17.74 35.6101 18.63C35.9601 18.95 36.0001 19.49 35.7001 19.86H35.7101ZM30.9601 16.94C29.4801 17.87 29.0301 19.16 29.0301 20.67C29.0301 22.29 29.5301 23.77 30.3701 25.12C32.0001 27.74 34.2801 29.35 37.2601 30.41C40.9701 31.65 43.4901 29.52 44.3001 28.29C43.4001 27.48 42.7201 26.88 41.5201 25.99C40.8801 26.6 39.8801 27.62 39.3701 28.12C38.8701 28.6 38.4201 28.61 37.8401 28.23C37.6801 28.12 31.9201 23.21 31.7701 23.03C31.3701 22.57 31.3401 22.11 31.7201 21.61C31.9201 21.35 33.1301 19.87 33.5901 19.26C33.4401 19.1 31.7501 17.63 30.9501 16.95L30.9601 16.94Z" fill="black"/>
<path d="M48.74 21.34C48.74 21.78 48.44 22.08 48.06 22.13C47.64 22.18 47.25 21.88 47.15 21.41C46.99 20.24 47.22 12.35 37 12.98C36.68 12.94 36.4 12.62 36.38 12.29C36.35 11.92 36.65 11.49 37.03 11.45C41.67 11.2 48.36 12.25 48.74 21.34Z" fill="black"/>
<path d="M39.2599 16.1199C41.8499 16.0599 43.5899 17.0699 43.5799 20.1599C43.5799 20.7399 43.3099 21.0199 42.9099 21.0199C42.5399 21.0199 42.3099 20.6899 42.2799 20.2999C42.3599 18.2199 41.2599 17.2499 39.1899 17.4999C38.7799 17.4899 38.4599 17.2099 38.4799 16.8099C38.4599 16.3899 38.8699 16.1099 39.2599 16.1299V16.1199Z" fill="black"/>
<path d="M13.22 56C12.8 56 12.4127 55.8973 12.058 55.692C11.7033 55.4867 11.4233 55.2113 11.218 54.866C11.0127 54.5113 10.91 54.124 10.91 53.704V46.592H12.17V53.676C12.17 53.9187 12.2493 54.124 12.408 54.292C12.5667 54.4507 12.7627 54.53 12.996 54.53H13.696C13.752 54.53 13.7987 54.5533 13.836 54.6C13.8733 54.6373 13.892 54.684 13.892 54.74V55.804C13.892 55.9347 13.8267 56 13.696 56H13.22ZM13.6914 56C13.6354 56 13.5887 55.9813 13.5514 55.944C13.5141 55.9067 13.4954 55.86 13.4954 55.804V54.726C13.4954 54.67 13.5141 54.6233 13.5514 54.586C13.5794 54.5487 13.6261 54.53 13.6914 54.53H14.1394C14.3727 54.53 14.5734 54.4647 14.7414 54.334C14.9094 54.2033 15.0167 54.0167 15.0634 53.774L15.3434 52.332C15.4367 51.8653 15.6701 51.478 16.0434 51.17C16.4167 50.862 16.8414 50.708 17.3174 50.708H18.1014C18.4841 50.708 18.8387 50.8013 19.1654 50.988C19.4921 51.1747 19.7487 51.4313 19.9354 51.758C20.1314 52.0847 20.2294 52.4393 20.2294 52.822V54.53C20.2294 54.95 20.0894 55.3 19.8094 55.58C19.5294 55.86 19.1701 56 18.7314 56H17.0794C16.4261 56 15.9361 55.7107 15.6094 55.132C15.2734 55.7107 14.7554 56 14.0554 56H13.6914ZM18.9694 54.53V52.808C18.9694 52.612 18.8994 52.444 18.7594 52.304C18.6287 52.164 18.4607 52.094 18.2554 52.094H17.2334C17.0654 52.094 16.9161 52.15 16.7854 52.262C16.6547 52.374 16.5754 52.514 16.5474 52.682L16.3234 53.802C16.3141 53.83 16.3094 53.8673 16.3094 53.914C16.3094 54.082 16.3701 54.2267 16.4914 54.348C16.6127 54.4693 16.7527 54.53 16.9114 54.53H18.9694ZM25.9212 56C25.5012 56 25.1138 55.8973 24.7592 55.692C24.4045 55.4867 24.1245 55.2113 23.9192 54.866C23.7138 54.5113 23.6112 54.124 23.6112 53.704V46.592H24.8712V53.676C24.8712 53.9187 24.9505 54.124 25.1092 54.292C25.2678 54.4507 25.4638 54.53 25.6972 54.53H26.3972C26.4532 54.53 26.4998 54.5533 26.5372 54.6C26.5745 54.6373 26.5932 54.684 26.5932 54.74V55.804C26.5932 55.9347 26.5278 56 26.3972 56H25.9212ZM26.3926 56C26.3366 56 26.2899 55.9813 26.2526 55.944C26.2152 55.9067 26.1966 55.86 26.1966 55.804V54.74C26.1966 54.684 26.2152 54.6373 26.2526 54.6C26.2899 54.5533 26.3366 54.53 26.3926 54.53H27.9466C28.1892 54.53 28.3899 54.4507 28.5486 54.292C28.7072 54.124 28.7866 53.9187 28.7866 53.676V50.946H30.0466V53.662C30.0466 54.082 29.9392 54.474 29.7246 54.838C29.5192 55.1927 29.2392 55.4773 28.8846 55.692C28.5299 55.8973 28.1426 56 27.7226 56H26.3926ZM26.6726 57.68H28.0586L28.0726 59.094H26.6726V57.68ZM36.3956 58.422C35.8636 58.422 35.3689 58.2867 34.9116 58.016C34.4542 57.7547 34.0902 57.3953 33.8196 56.938C33.5582 56.4807 33.4276 55.986 33.4276 55.454V51.562H34.6876V55.272C34.6876 55.7387 34.8462 56.1353 35.1636 56.462C35.4902 56.7887 35.8869 56.952 36.3536 56.952H38.9016C39.2842 56.952 39.6016 56.812 39.8536 56.532C40.1056 56.2613 40.2316 55.9253 40.2316 55.524V51.352H41.4776V53.704C41.4776 53.928 41.5616 54.124 41.7296 54.292C41.9069 54.4507 42.1122 54.53 42.3456 54.53H42.6116C42.8822 54.53 43.0922 54.4647 43.2416 54.334C43.4002 54.194 43.5029 54.0073 43.5496 53.774L44.0116 51.38L45.2716 51.618L44.8796 53.606C44.8702 53.6433 44.8656 53.6993 44.8656 53.774C44.8656 53.9887 44.9402 54.1707 45.0896 54.32C45.2482 54.46 45.4442 54.53 45.6776 54.53H46.8676V50.918H48.1136V54.53C48.1136 54.9593 47.9736 55.314 47.6936 55.594C47.4136 55.8647 47.0636 56 46.6436 56H45.7196C45.3836 56 45.0802 55.93 44.8096 55.79C44.5389 55.65 44.3242 55.4307 44.1656 55.132C43.9976 55.4213 43.7736 55.6407 43.4936 55.79C43.2229 55.93 42.9196 56 42.5836 56C42.1169 56 41.7482 55.8367 41.4776 55.51V56.042C41.4776 56.4713 41.3609 56.868 41.1276 57.232C40.8942 57.596 40.5769 57.8853 40.1756 58.1C39.7742 58.3147 39.3356 58.422 38.8596 58.422H36.3956ZM52.1028 56C51.6828 56 51.2955 55.8973 50.9408 55.692C50.5861 55.4867 50.3061 55.2113 50.1008 54.866C49.8955 54.5113 49.7928 54.124 49.7928 53.704V46.592H51.0528V53.676C51.0528 53.9187 51.1321 54.124 51.2908 54.292C51.4495 54.4507 51.6455 54.53 51.8788 54.53H52.5788C52.6348 54.53 52.6815 54.5533 52.7188 54.6C52.7561 54.6373 52.7748 54.684 52.7748 54.74V55.804C52.7748 55.9347 52.7095 56 52.5788 56H52.1028ZM52.5742 56C52.5182 56 52.4716 55.9813 52.4342 55.944C52.3969 55.9067 52.3782 55.86 52.3782 55.804V54.726C52.3782 54.67 52.3969 54.6233 52.4342 54.586C52.4622 54.5487 52.5089 54.53 52.5742 54.53H53.0222C53.2556 54.53 53.4562 54.4647 53.6242 54.334C53.7922 54.2033 53.8996 54.0167 53.9462 53.774L54.2262 52.332C54.3196 51.8653 54.5529 51.478 54.9262 51.17C55.2996 50.862 55.7242 50.708 56.2002 50.708H56.9842C57.3669 50.708 57.7216 50.8013 58.0482 50.988C58.3749 51.1747 58.6316 51.4313 58.8182 51.758C59.0142 52.0847 59.1122 52.4393 59.1122 52.822V53.662C59.1122 53.9047 59.1916 54.11 59.3502 54.278C59.5182 54.446 59.7189 54.53 59.9522 54.53H60.4422C60.4889 54.53 60.5309 54.5487 60.5682 54.586C60.6149 54.6233 60.6382 54.67 60.6382 54.726V55.804C60.6382 55.86 60.6196 55.9067 60.5822 55.944C60.5449 55.9813 60.4982 56 60.4422 56H60.1762C59.5602 56 59.0749 55.7853 58.7202 55.356C58.6176 55.5893 58.4729 55.7573 58.2862 55.86C58.0996 55.9533 57.8756 56 57.6142 56H55.9622C55.3089 56 54.8189 55.7107 54.4922 55.132C54.1562 55.7107 53.6382 56 52.9382 56H52.5742ZM57.8522 52.808C57.8522 52.612 57.7822 52.444 57.6422 52.304C57.5116 52.164 57.3436 52.094 57.1382 52.094H56.1162C55.9482 52.094 55.7989 52.15 55.6682 52.262C55.5376 52.374 55.4582 52.514 55.4302 52.682L55.2062 53.802C55.1969 53.83 55.1922 53.8673 55.1922 53.914C55.1922 54.082 55.2529 54.2267 55.3742 54.348C55.4956 54.4693 55.6356 54.53 55.7942 54.53H57.8522V52.808ZM60.4355 56C60.3795 56 60.3329 55.9813 60.2955 55.944C60.2582 55.9067 60.2395 55.86 60.2395 55.804V54.74C60.2395 54.684 60.2582 54.6373 60.2955 54.6C60.3329 54.5533 60.3795 54.53 60.4355 54.53H62.4375C62.6709 54.53 62.8715 54.446 63.0395 54.278C63.2075 54.11 63.2915 53.9093 63.2915 53.676V50.946H64.5375V53.676C64.5375 54.096 64.4349 54.4833 64.2295 54.838C64.0242 55.1927 63.7442 55.4773 63.3895 55.692C63.0349 55.8973 62.6475 56 62.2275 56H60.4355ZM63.1515 48.076H64.5375V49.476H63.1515V48.076ZM61.0235 48.076H62.4095V49.476H61.0235V48.076Z" fill="black"/>
</svg>
