<svg width="24" height="24" viewBox="0 0 24 24" fill="none" xmlns="http://www.w3.org/2000/svg">
<path d="M13.2418 16.6211H7.72314V18.2411H13.2418V16.6211Z" fill="black"/>
<path d="M14.8718 13.7891H7.71997V15.4091H14.8718V13.7891Z" fill="black"/>
<path d="M17.05 10.9492H7.71997V12.5692H17.05V10.9492Z" fill="black"/>
<path d="M17.05 8.11914H7.71997V9.73914H17.05V8.11914Z" fill="black"/>
<path d="M17.05 5.28906H7.71997V6.90906H17.05V5.28906Z" fill="black"/>
<path d="M17.5605 1.33966C17.8805 1.33966 18.2008 1.32919 18.5107 1.35919C19.9607 1.48919 20.9312 2.47927 20.9512 3.93927C20.9812 6.74916 20.9805 9.55906 20.9805 12.369C20.9805 13.578 20.9695 14.7873 20.9658 15.9988H19.3867C19.3882 15.9439 19.3906 15.8935 19.3906 15.8494V4.84942C19.3906 3.24944 19.1908 3.05939 17.5908 3.05938H7.14062C6.87075 3.05938 6.59094 3.05969 6.33105 3.08966C5.84105 3.14966 5.52094 3.47931 5.46094 3.97931C5.43096 4.24917 5.45115 4.51901 5.45117 4.78888V19.7195C5.45125 20.6493 5.85134 21.0289 6.78125 21.0389C9.40097 21.0489 12.0307 21.0594 14.6504 21.0594C14.7365 21.0594 14.8634 21.0512 15 21.0418V22.7381C12.1646 22.7361 9.32436 22.7462 6.49121 22.7293C4.8613 22.7193 3.83066 21.6394 3.81055 19.9695C3.79055 17.3397 3.81054 14.7195 3.81055 12.0897L3.80078 12.0594V4.1795C3.80078 3.58959 3.83087 3.01952 4.2207 2.50958C4.72068 1.85961 5.33069 1.44898 6.14062 1.36895C6.32049 1.34897 6.50052 1.34216 6.68164 1.33966H17.5605Z" fill="black"/>
<g clip-path="url(#clip0_1403_10357)">
<path d="M19.5916 19.7375C20.0124 19.5708 20.4083 20.0208 20.5416 20.1542C21.0916 20.7208 21.6791 21.325 22.2041 21.85C22.3666 22.0125 22.5124 22.1833 22.5499 22.425C22.6166 22.8542 22.4791 23.2 22.1333 23.4083C21.7666 23.6333 21.3999 23.6208 21.0666 23.3625C20.8124 23.1625 20.5791 22.9333 20.3499 22.7083C19.9541 22.3208 19.5708 21.925 19.1749 21.5417C18.9374 21.3125 18.6708 21 18.6874 20.5958C16.7749 21.7542 14.7749 21.1375 13.9041 19.6958C13.2291 18.5792 13.3166 17.0375 13.8749 16.15C14.4833 15.0333 15.4583 14.4792 16.7541 14.4333C18.2083 14.3833 19.7999 15.4375 20.0958 17.2208C20.2083 17.9083 20.1416 18.8708 19.5916 19.7375ZM19.3374 17.8208C19.3374 16.3875 18.2374 15.25 16.8333 15.2375C15.4249 15.225 14.3124 16.3417 14.2874 17.7792C14.2624 19.2125 15.3041 20.3708 16.7624 20.375C17.9874 20.3792 19.3208 19.4542 19.3374 17.825V17.8208ZM19.7291 21.0208C20.2416 21.5292 21.2208 22.5167 21.3291 22.6292C21.5291 22.8292 21.6583 22.85 21.7499 22.7583C21.8874 22.6208 21.8041 22.4833 21.6958 22.375C21.6041 22.2833 20.5499 21.2083 20.0291 20.7083C19.8958 20.5708 19.7166 20.4333 19.5749 20.5833C19.4874 20.6792 19.5124 20.8125 19.7291 21.025V21.0208Z" fill="black"/>
</g>
<defs>
<clipPath id="clip0_1403_10357">
<rect width="10" height="10" fill="white" transform="translate(13 14)"/>
</clipPath>
</defs>
</svg>
