<svg width="24" height="24" viewBox="0 0 24 24" fill="none" xmlns="http://www.w3.org/2000/svg">
<g clip-path="url(#clip0_832_9817)">
<path d="M23.3 21.4609H12.78V23.5009H23.3V21.4609Z" fill="black"/>
<path d="M12.88 20.4799L12.84 16.8499L19.47 10.1699L23.23 13.7299L16.54 20.4199L12.89 20.4799H12.88ZM19.58 12.7999C18.09 14.2899 15.16 17.2099 14.99 17.4299C14.71 17.7699 14.69 18.2899 14.92 18.4699C15.16 18.6599 15.67 18.6199 15.99 18.3799C16.12 18.2799 20.42 14.1499 20.61 13.8699C20.35 13.5799 19.92 13.1899 19.58 12.8099V12.7999Z" fill="black"/>
<path d="M2.75001 23.4209C1.75001 23.4509 1.38001 23.4509 0.710007 23.4109C0.710007 22.0809 0.710007 19.4509 0.910007 18.5609C1.06001 17.8409 1.39001 17.2109 1.94001 16.7209C2.35001 16.3509 2.77001 15.9809 3.24001 15.7109C6.07001 14.0809 9.16001 13.5409 12.44 13.5509C12.48 14.3209 12.42 14.6909 12.41 15.5409C10.05 15.5409 8.44001 15.7909 6.83001 16.3809C5.79001 16.7609 4.41001 17.4609 3.59001 18.2309C3.05001 18.7409 2.73001 19.3309 2.75001 20.1109C2.78001 21.1509 2.75001 22.2909 2.75001 23.4109V23.4209Z" fill="black"/>
<path d="M12.78 0.5C15.97 0.54 18.51 3.17 18.43 6.34C18.34 9.44 15.75 11.93 12.65 11.9C9.56 11.87 7 9.29 7 6.21C7 3.04 9.61 0.46 12.79 0.51L12.78 0.5ZM12.71 2.55C10.7 2.55 9.06 4.18 9.06 6.19C9.06 8.18 10.73 9.85 12.71 9.85C14.67 9.85 16.38 8.15 16.38 6.19C16.38 4.21 14.71 2.55 12.71 2.55Z" fill="black"/>
</g>
<defs>
<clipPath id="clip0_832_9817">
<rect width="24" height="24" fill="white"/>
</clipPath>
</defs>
</svg>
