<svg width="104" height="72" viewBox="0 0 104 72" fill="none" xmlns="http://www.w3.org/2000/svg">
<g clip-path="url(#clip0_63_8209)">
<path d="M63.3 31.4609H52.78V33.5009H63.3V31.4609Z" fill="black"/>
<path d="M52.88 30.4799L52.84 26.8499L59.47 20.1699L63.23 23.7299L56.54 30.4199L52.89 30.4799H52.88ZM59.58 22.7999C58.09 24.2899 55.16 27.2099 54.99 27.4299C54.71 27.7699 54.69 28.2899 54.92 28.4699C55.16 28.6599 55.67 28.6199 55.99 28.3799C56.12 28.2799 60.42 24.1499 60.61 23.8699C60.35 23.5799 59.92 23.1899 59.58 22.8099V22.7999Z" fill="black"/>
<path d="M42.75 33.4209C41.75 33.4509 41.38 33.4509 40.71 33.4109C40.71 32.0809 40.71 29.4509 40.91 28.5609C41.06 27.8409 41.39 27.2109 41.94 26.7209C42.35 26.3509 42.77 25.9809 43.24 25.7109C46.07 24.0809 49.16 23.5409 52.44 23.5509C52.48 24.3209 52.42 24.6909 52.41 25.5409C50.05 25.5409 48.44 25.7909 46.83 26.3809C45.79 26.7609 44.41 27.4609 43.59 28.2309C43.05 28.7409 42.73 29.3309 42.75 30.1109C42.78 31.1509 42.75 32.2909 42.75 33.4109V33.4209Z" fill="black"/>
<path d="M52.78 10.5C55.97 10.54 58.51 13.17 58.43 16.34C58.34 19.44 55.75 21.93 52.65 21.9C49.56 21.87 47 19.29 47 16.21C47 13.04 49.61 10.46 52.79 10.51L52.78 10.5ZM52.71 12.55C50.7 12.55 49.06 14.18 49.06 16.19C49.06 18.18 50.73 19.85 52.71 19.85C54.67 19.85 56.38 18.15 56.38 16.19C56.38 14.21 54.71 12.55 52.71 12.55Z" fill="black"/>
</g>
<path d="M13.892 58.422C13.36 58.422 12.8653 58.2867 12.408 58.016C11.9507 57.7453 11.5867 57.3813 11.316 56.924C11.0453 56.4667 10.91 55.972 10.91 55.44V51.954L12.17 51.968V55.258C12.17 55.5567 12.2447 55.8367 12.394 56.098C12.5433 56.3593 12.744 56.5647 12.996 56.714C13.2573 56.8727 13.542 56.952 13.85 56.952H16.314C16.6967 56.952 17.0233 56.812 17.294 56.532C17.574 56.2613 17.714 55.9347 17.714 55.552V46.592H18.96V53.69C18.96 53.942 19.0347 54.1473 19.184 54.306C19.3427 54.4553 19.5433 54.53 19.786 54.53H20.626C20.7567 54.53 20.822 54.5953 20.822 54.726V55.79C20.822 55.8553 20.8033 55.9067 20.766 55.944C20.7287 55.9813 20.682 56 20.626 56H20.052C19.828 56 19.604 55.944 19.38 55.832C19.1653 55.7107 19.0207 55.5567 18.946 55.37V55.818C18.946 56.2473 18.834 56.6627 18.61 57.064C18.386 57.4653 18.0733 57.792 17.672 58.044C17.2707 58.296 16.8133 58.422 16.3 58.422H13.892ZM20.623 56C20.567 56 20.5204 55.9813 20.483 55.944C20.4457 55.9067 20.427 55.86 20.427 55.804V54.74C20.427 54.684 20.4457 54.6373 20.483 54.6C20.5204 54.5533 20.567 54.53 20.623 54.53H22.625C22.8584 54.53 23.059 54.446 23.227 54.278C23.395 54.11 23.479 53.9093 23.479 53.676V50.946H24.725V53.676C24.725 54.096 24.6224 54.4833 24.417 54.838C24.2117 55.1927 23.9317 55.4773 23.577 55.692C23.2224 55.8973 22.835 56 22.415 56H20.623ZM23.087 57.68H24.473V59.08H23.087V57.68ZM20.959 57.68H22.345V59.08H20.959V57.68ZM28.7102 56C28.2902 56 27.9029 55.8973 27.5482 55.692C27.1936 55.4867 26.9136 55.2113 26.7082 54.866C26.5029 54.5113 26.4002 54.124 26.4002 53.704V46.592H27.6602V53.676C27.6602 53.9187 27.7396 54.124 27.8982 54.292C28.0569 54.4507 28.2529 54.53 28.4862 54.53H29.1862C29.2422 54.53 29.2889 54.5533 29.3262 54.6C29.3636 54.6373 29.3822 54.684 29.3822 54.74V55.804C29.3822 55.9347 29.3169 56 29.1862 56H28.7102ZM29.1816 56C29.1256 56 29.079 55.9813 29.0416 55.944C29.0043 55.8973 28.9856 55.846 28.9856 55.79V54.726C28.9856 54.6793 29.0043 54.6373 29.0416 54.6C29.079 54.5533 29.1256 54.53 29.1816 54.53H32.7936C33.055 54.53 33.2696 54.4553 33.4376 54.306C33.615 54.1567 33.7036 53.9373 33.7036 53.648V53.382C33.4516 53.466 33.153 53.508 32.8076 53.508H31.8976C31.5243 53.508 31.1836 53.4193 30.8756 53.242C30.5676 53.0553 30.325 52.808 30.1476 52.5C29.9703 52.192 29.8816 51.856 29.8816 51.492C29.8816 51.324 29.891 51.198 29.9096 51.114L30.1196 49.966C30.213 49.49 30.4463 49.098 30.8196 48.79C31.193 48.482 31.6223 48.328 32.1076 48.328H32.8496C33.2323 48.328 33.5823 48.426 33.8996 48.622C34.217 48.8087 34.469 49.0653 34.6556 49.392C34.8423 49.7093 34.9356 50.0593 34.9356 50.442V53.662C34.9356 54.0913 34.8283 54.4833 34.6136 54.838C34.4083 55.1927 34.1283 55.4773 33.7736 55.692C33.419 55.8973 33.0316 56 32.6116 56H29.1816ZM33.7176 52.08V50.428C33.7176 50.232 33.6476 50.064 33.5076 49.924C33.3676 49.784 33.1996 49.714 33.0036 49.714H32.0236C31.8463 49.714 31.6923 49.77 31.5616 49.882C31.431 49.994 31.347 50.1387 31.3096 50.316L31.1276 51.338C31.1183 51.366 31.1136 51.4033 31.1136 51.45C31.1136 51.6273 31.1743 51.7767 31.2956 51.898C31.417 52.0193 31.5616 52.08 31.7296 52.08H33.7176ZM31.8416 45.472H33.2276V46.858H31.8416V45.472ZM40.4075 55.804C40.0995 55.9347 39.7541 56 39.3715 56H38.5315C38.1581 56 37.8175 55.9067 37.5095 55.72C37.2108 55.5333 36.9728 55.286 36.7955 54.978C36.6181 54.67 36.5295 54.334 36.5295 53.97C36.5295 53.8113 36.5388 53.69 36.5575 53.606L36.7815 52.36C36.8655 51.884 37.0941 51.492 37.4675 51.184C37.8501 50.8667 38.2841 50.708 38.7695 50.708H39.5535C39.9361 50.708 40.2908 50.806 40.6175 51.002C40.9441 51.1887 41.2008 51.4453 41.3875 51.772C41.5741 52.0893 41.6675 52.4347 41.6675 52.808V55.832C41.6675 56.5507 41.4668 57.1853 41.0655 57.736C40.6735 58.296 40.1461 58.6927 39.4835 58.926L37.7055 59.514L37.3415 58.338L39.1615 57.736C39.5535 57.596 39.8568 57.372 40.0715 57.064C40.2955 56.7653 40.4075 56.42 40.4075 56.028V55.804ZM40.4215 52.808C40.4215 52.612 40.3515 52.4487 40.2115 52.318C40.0808 52.178 39.9128 52.108 39.7075 52.108H38.6295C38.4615 52.108 38.3215 52.1547 38.2095 52.248C38.1068 52.3413 38.0368 52.4813 37.9995 52.668L37.7895 53.802C37.7801 53.83 37.7755 53.872 37.7755 53.928C37.7755 54.096 37.8315 54.2407 37.9435 54.362C38.0648 54.474 38.2141 54.53 38.3915 54.53H40.4215V52.808ZM42.0217 58.296L43.0717 57.75C43.4171 57.5727 43.6784 57.3487 43.8557 57.078C44.0331 56.8073 44.1217 56.4013 44.1217 55.86V51.352H45.3677V53.732C45.3677 53.956 45.4517 54.1473 45.6197 54.306C45.7971 54.4553 45.9977 54.53 46.2217 54.53H46.7537C46.8284 54.53 46.8797 54.544 46.9077 54.572C46.9357 54.5907 46.9497 54.6373 46.9497 54.712V55.804C46.9497 55.8787 46.9357 55.93 46.9077 55.958C46.8797 55.986 46.8284 56 46.7537 56H46.4317C46.2264 56 46.0257 55.958 45.8297 55.874C45.6431 55.79 45.4891 55.664 45.3677 55.496V56.028C45.3677 56.7373 45.2231 57.302 44.9337 57.722C44.6537 58.142 44.2291 58.506 43.6597 58.814L42.5957 59.416L42.0217 58.296ZM46.75 56C46.694 56 46.6473 55.9813 46.61 55.944C46.5727 55.9067 46.554 55.86 46.554 55.804V54.74C46.554 54.684 46.5727 54.6373 46.61 54.6C46.6473 54.5533 46.694 54.53 46.75 54.53H48.752C48.9853 54.53 49.186 54.446 49.354 54.278C49.522 54.11 49.606 53.9093 49.606 53.676V50.946H50.852V53.676C50.852 54.096 50.7493 54.4833 50.544 54.838C50.3387 55.1927 50.0587 55.4773 49.704 55.692C49.3493 55.8973 48.962 56 48.542 56H46.75ZM49.158 57.68H50.544V59.08H49.158V57.68ZM48.08 59.598H49.466V60.984H48.08V59.598ZM47.03 57.68H48.416V59.08H47.03V57.68ZM57.2045 58.45C56.6632 58.45 56.1638 58.3147 55.7065 58.044C55.2585 57.7827 54.8992 57.4233 54.6285 56.966C54.3672 56.5087 54.2365 56.0093 54.2365 55.468V51.576H55.4965V55.3C55.4965 55.7667 55.6552 56.1587 55.9725 56.476C56.2992 56.8027 56.6958 56.966 57.1625 56.966H59.6405C60.0232 56.966 60.3545 56.826 60.6345 56.546C60.9145 56.2753 61.0545 55.944 61.0545 55.552V51.352H62.3005V53.676C62.3005 53.9093 62.3845 54.11 62.5525 54.278C62.7298 54.4367 62.9305 54.516 63.1545 54.516H63.4345C63.9572 54.516 64.2652 54.2687 64.3585 53.774L64.8345 51.38L66.0805 51.618L65.7025 53.592C65.6838 53.6853 65.6745 53.7553 65.6745 53.802C65.6745 54.0073 65.7492 54.18 65.8985 54.32C66.0572 54.46 66.2532 54.53 66.4865 54.53H66.8505C67.0932 54.53 67.2938 54.4507 67.4525 54.292C67.6205 54.124 67.7045 53.9233 67.7045 53.69V50.946H68.9505V53.662C68.9505 53.914 69.0345 54.124 69.2025 54.292C69.3705 54.4507 69.5758 54.53 69.8185 54.53H70.3925C70.4485 54.53 70.4952 54.5487 70.5325 54.586C70.5698 54.6233 70.5885 54.67 70.5885 54.726V55.804C70.5885 55.86 70.5698 55.9067 70.5325 55.944C70.4952 55.9813 70.4485 56 70.3925 56H70.0285C69.3098 56 68.7405 55.7107 68.3205 55.132C68.1245 55.412 67.8725 55.6313 67.5645 55.79C67.2565 55.9393 66.9298 56.014 66.5845 56.014C66.2298 56.014 65.9078 55.944 65.6185 55.804C65.3385 55.6547 65.1238 55.4307 64.9745 55.132C64.8065 55.4213 64.5872 55.6407 64.3165 55.79C64.0458 55.93 63.7472 56 63.4205 56C62.9445 56 62.5712 55.8367 62.3005 55.51V56C62.3005 56.448 62.1745 56.8587 61.9225 57.232C61.6798 57.6053 61.3532 57.8993 60.9425 58.114C60.5318 58.338 60.0932 58.45 59.6265 58.45H57.2045ZM64.3725 46.62H65.7585V48.006H64.3725V46.62ZM63.3085 48.524H64.6945V49.924H63.3085V48.524ZM65.4365 48.524H66.8225V49.924H65.4365V48.524ZM70.3887 56C70.3327 56 70.286 55.9813 70.2487 55.944C70.2113 55.9067 70.1927 55.86 70.1927 55.804V54.74C70.1927 54.684 70.2113 54.6373 70.2487 54.6C70.286 54.5533 70.3327 54.53 70.3887 54.53H72.3907C72.624 54.53 72.8247 54.446 72.9927 54.278C73.1607 54.11 73.2447 53.9093 73.2447 53.676V50.946H74.4907V53.676C74.4907 54.096 74.388 54.4833 74.1827 54.838C73.9773 55.1927 73.6973 55.4773 73.3427 55.692C72.988 55.8973 72.6007 56 72.1807 56H70.3887ZM72.8527 57.68H74.2387V59.08H72.8527V57.68ZM70.7247 57.68H72.1107V59.08H70.7247V57.68ZM76.1659 46.592H77.4259V56H76.1659V46.592ZM77.4592 58.296L78.5092 57.75C78.8546 57.5727 79.1159 57.3487 79.2932 57.078C79.4706 56.8073 79.5592 56.4013 79.5592 55.86V51.352H80.8052V53.732C80.8052 53.956 80.8892 54.1473 81.0572 54.306C81.2346 54.4553 81.4352 54.53 81.6592 54.53H82.1912C82.2659 54.53 82.3172 54.544 82.3452 54.572C82.3732 54.5907 82.3872 54.6373 82.3872 54.712V55.804C82.3872 55.8787 82.3732 55.93 82.3452 55.958C82.3172 55.986 82.2659 56 82.1912 56H81.8692C81.6639 56 81.4632 55.958 81.2672 55.874C81.0806 55.79 80.9266 55.664 80.8052 55.496V56.028C80.8052 56.7373 80.6606 57.302 80.3712 57.722C80.0912 58.142 79.6666 58.506 79.0972 58.814L78.0332 59.416L77.4592 58.296ZM82.1875 56C82.1315 56 82.0848 55.9813 82.0475 55.944C82.0102 55.9067 81.9915 55.86 81.9915 55.804V54.74C81.9915 54.684 82.0102 54.6373 82.0475 54.6C82.0848 54.5533 82.1315 54.53 82.1875 54.53H84.1895C84.4228 54.53 84.6235 54.446 84.7915 54.278C84.9595 54.11 85.0435 53.9093 85.0435 53.676V50.946H86.2895V53.676C86.2895 54.096 86.1868 54.4833 85.9815 54.838C85.7762 55.1927 85.4962 55.4773 85.1415 55.692C84.7868 55.8973 84.3995 56 83.9795 56H82.1875ZM84.6515 57.68H86.0375V59.08H84.6515V57.68ZM82.5235 57.68H83.9095V59.08H82.5235V57.68ZM91.7727 55.804C91.4647 55.9347 91.1194 56 90.7367 56H89.8967C89.5234 56 89.1827 55.9067 88.8747 55.72C88.576 55.5333 88.338 55.286 88.1607 54.978C87.9834 54.67 87.8947 54.334 87.8947 53.97C87.8947 53.8113 87.904 53.69 87.9227 53.606L88.1467 52.36C88.2307 51.884 88.4594 51.492 88.8327 51.184C89.2154 50.8667 89.6494 50.708 90.1347 50.708H90.9187C91.3014 50.708 91.656 50.806 91.9827 51.002C92.3094 51.1887 92.566 51.4453 92.7527 51.772C92.9394 52.0893 93.0327 52.4347 93.0327 52.808V55.832C93.0327 56.5507 92.832 57.1853 92.4307 57.736C92.0387 58.296 91.5114 58.6927 90.8487 58.926L89.0707 59.514L88.7067 58.338L90.5267 57.736C90.9187 57.596 91.222 57.372 91.4367 57.064C91.6607 56.7653 91.7727 56.42 91.7727 56.028V55.804ZM91.7867 52.808C91.7867 52.612 91.7167 52.4487 91.5767 52.318C91.446 52.178 91.278 52.108 91.0727 52.108H89.9947C89.8267 52.108 89.6867 52.1547 89.5747 52.248C89.472 52.3413 89.402 52.4813 89.3647 52.668L89.1547 53.802C89.1454 53.83 89.1407 53.872 89.1407 53.928C89.1407 54.096 89.1967 54.2407 89.3087 54.362C89.43 54.474 89.5794 54.53 89.7567 54.53H91.7867V52.808Z" fill="black"/>
<defs>
<clipPath id="clip0_63_8209">
<rect width="24" height="24" fill="white" transform="translate(40 10)"/>
</clipPath>
</defs>
</svg>
