<svg width="350" height="236" viewBox="0 0 350 236" fill="none" xmlns="http://www.w3.org/2000/svg">
<path fill-rule="evenodd" clip-rule="evenodd" d="M256.135 56.8622C269.073 60.4272 283.124 62.5332 291.04 74.0067C299.5 86.2708 302.246 102.833 298.295 117.973C294.457 132.686 284.241 146.06 270.9 151.197C259.196 155.703 248.358 146.027 236.938 141.599C227.991 138.129 219.423 135.353 212.409 128.515C201.641 118.017 186.287 108.695 186.792 92.7125C187.33 75.7079 200.413 60.434 214.797 52.9974C228.006 46.1683 242.281 53.0446 256.135 56.8622Z" fill="#606060"/>
<path fill-rule="evenodd" clip-rule="evenodd" d="M180.437 195.391C175.203 195.192 169.433 196.199 166.127 200.273C162.984 204.145 164.034 209.694 164.831 214.622C165.474 218.598 167.569 221.855 170.121 224.966C173.085 228.58 175.869 232.69 180.437 233.645C185.89 234.784 193.198 235.128 196.184 230.413C199.189 225.668 192.961 220.223 192.483 214.622C192.089 210.011 196.155 205.241 193.7 201.322C191.023 197.049 185.465 195.582 180.437 195.391Z" fill="#C4C4C4"/>
<path fill-rule="evenodd" clip-rule="evenodd" d="M232.197 222.811C233.971 222.541 235.412 221.682 236.929 220.737C239.182 219.333 242.891 218.703 242.998 216.081C243.104 213.476 239.28 212.796 237.324 211.037C235.537 209.43 234.617 206.426 232.197 206.368C229.769 206.31 228.146 208.787 226.815 210.786C225.772 212.352 225.902 214.217 225.729 216.081C225.525 218.276 224.194 220.84 225.733 222.442C227.274 224.046 229.98 223.149 232.197 222.811Z" fill="#D6D6D6"/>
<path fill-rule="evenodd" clip-rule="evenodd" d="M284.644 107.472C302.635 101.624 320.707 118.181 331.812 133.384C340.414 145.162 334.357 160.314 333.879 174.879C333.391 189.74 340.183 207.045 329.067 217.014C317.412 227.467 299.716 222.594 284.411 219.244C267.709 215.587 246.12 213.824 240.755 197.681C235.494 181.85 255.966 170.693 263.279 155.662C271.369 139.035 266.992 113.21 284.644 107.472Z" fill="#E8E9F0"/>
<path fill-rule="evenodd" clip-rule="evenodd" d="M55.9662 91.6016C71.548 93.208 84.2513 101.365 95.6268 112.119C110.498 126.177 132.276 140.138 128.586 160.252C124.85 180.611 99.1419 185.522 80.4987 194.569C61.7143 203.685 41.5842 221.497 23.3565 211.317C5.36444 201.269 12.2254 174.755 8.70512 154.472C5.59155 136.533 -6.43653 117.287 4.5094 102.725C15.5936 87.9801 37.6 89.7082 55.9662 91.6016Z" fill="#B4B4B4"/>
<path fill-rule="evenodd" clip-rule="evenodd" d="M129.265 175.502C136.738 174.614 143.952 178.215 149.504 183.101C155.326 188.225 159.705 194.957 159.983 202.536C160.269 210.353 157.023 218.144 150.979 223.388C145.184 228.416 137.036 229.935 129.265 229.187C122.239 228.511 116.786 224.093 111.506 219.59C105.728 214.662 97.5631 209.944 98.0182 202.536C98.4692 195.196 107.796 192.304 113.485 187.382C118.647 182.916 122.37 176.322 129.265 175.502Z" fill="#EDEDED"/>
<path fill-rule="evenodd" clip-rule="evenodd" d="M207.6 133.405C199.8 133.966 196.789 143.411 190.478 147.992C181.682 154.377 165.542 154.264 164.097 164.983C162.682 175.471 177.125 180.296 185.187 187.223C192.29 193.327 198.205 202.267 207.6 202.366C217.043 202.466 225.392 195.586 230.497 187.702C234.792 181.068 232.381 172.848 231.807 164.983C231.299 158.026 231.657 150.886 227.402 145.334C222.542 138.995 215.607 132.828 207.6 133.405Z" fill="#FBFBFB"/>
<path d="M209.559 128.73C181.168 143.043 146.549 131.63 132.237 103.238C117.924 74.8467 129.337 40.2281 157.729 25.9154C186.12 11.6027 220.739 23.0159 235.052 51.4075C249.364 79.799 237.951 114.418 209.559 128.73Z" fill="#D9D9D9" fill-opacity="0.47" stroke="white" stroke-width="9" stroke-linecap="round" stroke-linejoin="round"/>
<path d="M151.779 173.978L165.641 131.934" stroke="white" stroke-width="9" stroke-linecap="round" stroke-linejoin="round"/>
</svg>
