<svg width="50" height="72" viewBox="0 0 50 72" fill="none" xmlns="http://www.w3.org/2000/svg">
<path d="M22 31H18C17.4696 31 16.9609 30.7893 16.5858 30.4142C16.2107 30.0391 16 29.5304 16 29V15C16 14.4696 16.2107 13.9609 16.5858 13.5858C16.9609 13.2107 17.4696 13 18 13H22" stroke="black" stroke-width="2" stroke-linecap="round" stroke-linejoin="round"/>
<path d="M29 27L34 22L29 17" stroke="black" stroke-width="2" stroke-linecap="round" stroke-linejoin="round"/>
<path d="M34 22H22" stroke="black" stroke-width="2" stroke-linecap="round" stroke-linejoin="round"/>
<path d="M11.12 57.05C11.12 55.9393 11.5773 55.048 12.492 54.376C13.6307 53.5453 14.242 53.102 14.326 53.046C14.662 52.8033 14.9373 52.6027 15.152 52.444L15.404 52.262C15.6093 52.1313 15.7493 52.0473 15.824 52.01L13.066 51.184C12.9913 51.1653 12.94 51.156 12.912 51.156C12.8093 51.156 12.7113 51.1933 12.618 51.268C12.534 51.3333 12.4733 51.422 12.436 51.534L12.03 52.766L10.924 52.472L11.274 51.282C11.386 50.89 11.61 50.5727 11.946 50.33C12.282 50.0873 12.6507 49.966 13.052 49.966C13.2573 49.966 13.43 49.9893 13.57 50.036L18.736 51.604L18.386 52.808L17.672 52.598C17.532 52.5607 17.4107 52.542 17.308 52.542C17.196 52.542 17.0887 52.5653 16.986 52.612C16.8927 52.6587 16.7667 52.738 16.608 52.85L13.318 55.244C13.066 55.4307 12.8653 55.6733 12.716 55.972C12.576 56.2613 12.506 56.5693 12.506 56.896C12.506 57.2787 12.604 57.638 12.8 57.974C12.996 58.31 13.2573 58.576 13.584 58.772C13.92 58.968 14.2887 59.066 14.69 59.066H18.134V60.536H14.69C14.0553 60.536 13.4627 60.3773 12.912 60.06C12.3613 59.752 11.9227 59.3273 11.596 58.786C11.2787 58.254 11.12 57.6753 11.12 57.05ZM15.012 55.888H16.398L16.412 57.302H15.012V55.888ZM24.1516 55.804C23.8436 55.9347 23.4983 56 23.1156 56H22.2756C21.9023 56 21.5616 55.9067 21.2536 55.72C20.9549 55.5333 20.7169 55.286 20.5396 54.978C20.3623 54.67 20.2736 54.334 20.2736 53.97C20.2736 53.8113 20.2829 53.69 20.3016 53.606L20.5256 52.36C20.6096 51.884 20.8383 51.492 21.2116 51.184C21.5943 50.8667 22.0283 50.708 22.5136 50.708H23.2976C23.6803 50.708 24.0349 50.806 24.3616 51.002C24.6883 51.1887 24.9449 51.4453 25.1316 51.772C25.3183 52.0893 25.4116 52.4347 25.4116 52.808V55.832C25.4116 56.5507 25.2109 57.1853 24.8096 57.736C24.4176 58.296 23.8903 58.6927 23.2276 58.926L21.4496 59.514L21.0856 58.338L22.9056 57.736C23.2976 57.596 23.6009 57.372 23.8156 57.064C24.0396 56.7653 24.1516 56.42 24.1516 56.028V55.804ZM24.1656 52.808C24.1656 52.612 24.0956 52.4487 23.9556 52.318C23.8249 52.178 23.6569 52.108 23.4516 52.108H22.3736C22.2056 52.108 22.0656 52.1547 21.9536 52.248C21.8509 52.3413 21.7809 52.4813 21.7436 52.668L21.5336 53.802C21.5243 53.83 21.5196 53.872 21.5196 53.928C21.5196 54.096 21.5756 54.2407 21.6876 54.362C21.8089 54.474 21.9583 54.53 22.1356 54.53H24.1656V52.808ZM25.7659 58.296L26.8159 57.75C27.1612 57.5727 27.4225 57.3487 27.5999 57.078C27.7772 56.8073 27.8659 56.4013 27.8659 55.86V51.352H29.1119V53.732C29.1119 53.956 29.1959 54.1473 29.3639 54.306C29.5412 54.4553 29.7419 54.53 29.9659 54.53H30.4979C30.5725 54.53 30.6239 54.544 30.6519 54.572C30.6799 54.5907 30.6939 54.6373 30.6939 54.712V55.804C30.6939 55.8787 30.6799 55.93 30.6519 55.958C30.6239 55.986 30.5725 56 30.4979 56H30.1759C29.9705 56 29.7699 55.958 29.5739 55.874C29.3872 55.79 29.2332 55.664 29.1119 55.496V56.028C29.1119 56.7373 28.9672 57.302 28.6779 57.722C28.3979 58.142 27.9732 58.506 27.4039 58.814L26.3399 59.416L25.7659 58.296ZM30.4941 56C30.3635 56 30.2981 55.9347 30.2981 55.804V54.726C30.2981 54.6793 30.3215 54.6373 30.3681 54.6C30.4055 54.5533 30.4475 54.53 30.4941 54.53H32.9021C33.3875 54.53 33.8028 54.474 34.1481 54.362C34.4935 54.25 34.8388 54.0213 35.1841 53.676L36.0661 52.822C36.1035 52.7847 36.1688 52.724 36.2621 52.64C36.3555 52.556 36.4255 52.5 36.4721 52.472L33.2801 51.52C33.2521 51.5107 33.2055 51.506 33.1401 51.506C33.0281 51.506 32.9255 51.5433 32.8321 51.618C32.7388 51.6833 32.6781 51.7673 32.6501 51.87L32.2161 53.102L31.1381 52.808L31.4881 51.618C31.6001 51.2167 31.8195 50.8993 32.1461 50.666C32.4821 50.4233 32.8508 50.302 33.2521 50.302C33.4575 50.302 33.6301 50.3253 33.7701 50.372L39.2581 52.024L38.9081 53.186L38.2781 53.004C38.0915 52.9573 37.9608 52.934 37.8861 52.934C37.7741 52.934 37.6668 52.962 37.5641 53.018C37.4708 53.074 37.3401 53.1813 37.1721 53.34L35.5621 54.908C35.1981 55.272 34.7641 55.5473 34.2601 55.734C33.7561 55.9113 33.2288 56 32.6781 56H30.4941ZM32.4121 47.222H33.7981V48.608H32.4121V47.222Z" fill="black"/>
</svg>
