<svg width="24" height="24" viewBox="0 0 24 24" fill="none" xmlns="http://www.w3.org/2000/svg">
<path d="M3.7998 12.0595C3.7998 9.42949 3.7998 6.80949 3.7998 4.17949C3.7998 3.58949 3.8298 3.01949 4.2198 2.50949C4.7198 1.85949 5.3298 1.44949 6.1398 1.36949C6.4998 1.32949 6.8598 1.33949 7.2298 1.33949C10.6698 1.33949 14.1198 1.33949 17.5598 1.33949C17.8798 1.33949 18.1998 1.32949 18.5098 1.35949C19.9598 1.48949 20.9298 2.47949 20.9498 3.93949C20.9798 6.74949 20.9798 9.55949 20.9798 12.3695C20.9798 14.2695 20.9498 16.1695 20.9698 18.0795C20.9698 18.7095 20.7998 19.1995 20.3398 19.6395C19.4498 20.4795 18.5898 21.3495 17.7398 22.2295C17.3998 22.5795 17.0398 22.7495 16.5498 22.7395C13.1998 22.7295 9.8398 22.7495 6.4898 22.7295C4.8598 22.7195 3.8298 21.6395 3.8098 19.9695C3.7898 17.3395 3.8098 14.7195 3.8098 12.0895L3.7998 12.0595ZM19.3198 17.1795C19.3198 17.1795 19.3898 16.2495 19.3898 15.8495C19.3898 12.1795 19.3898 8.51949 19.3898 4.84949C19.3898 3.24949 19.1898 3.05949 17.5898 3.05949C14.1098 3.05949 10.6198 3.05949 7.1398 3.05949C6.8698 3.05949 6.5898 3.05949 6.3298 3.08949C5.8398 3.14949 5.5198 3.47949 5.4598 3.97949C5.4298 4.24949 5.4498 4.51949 5.4498 4.78949C5.4498 6.82949 5.4498 8.85949 5.4498 10.8995C5.4498 13.8395 5.4398 16.7795 5.4498 19.7195C5.4498 20.6495 5.8498 21.0295 6.7798 21.0395C9.39981 21.0495 12.0298 21.0595 14.6498 21.0595C14.9498 21.0595 15.7398 20.9795 15.7398 20.9795V17.1895H19.3398L19.3198 17.1795ZM17.1898 20.1495C17.6698 19.9695 18.5098 19.1595 18.6198 18.6495C18.2998 18.6695 17.4498 18.6795 17.1298 18.6995C17.1498 19.0295 17.1698 19.8395 17.1898 20.1495Z" fill="black"/>
<path d="M14.2402 16.6191H7.74023V18.2391H14.2402V16.6191Z" fill="black"/>
<path d="M17.0497 13.7891H7.71973V15.4091H17.0497V13.7891Z" fill="black"/>
<path d="M17.0497 10.9492H7.71973V12.5692H17.0497V10.9492Z" fill="black"/>
<path d="M17.0497 8.11914H7.71973V9.73914H17.0497V8.11914Z" fill="black"/>
<path d="M17.0497 5.28906H7.71973V6.90906H17.0497V5.28906Z" fill="black"/>
</svg>
