<svg width="104" height="44" viewBox="0 0 104 44" fill="none" xmlns="http://www.w3.org/2000/svg">
<path d="M14.14 26.5C13.6 26.5 13.102 26.368 12.646 26.104C12.19 25.84 11.83 25.486 11.566 25.042C11.302 24.586 11.17 24.088 11.17 23.548V14.404H12.79V23.512C12.79 23.824 12.892 24.088 13.096 24.304C13.3 24.508 13.552 24.61 13.852 24.61H14.752C14.824 24.61 14.884 24.64 14.932 24.7C14.98 24.748 15.004 24.808 15.004 24.88V26.248C15.004 26.416 14.92 26.5 14.752 26.5H14.14ZM21.8561 25.78C21.5681 26.032 21.3161 26.218 21.1001 26.338C20.8841 26.446 20.5601 26.5 20.1281 26.5H14.7461C14.6741 26.5 14.6141 26.476 14.5661 26.428C14.5181 26.38 14.4941 26.326 14.4941 26.266V24.844C14.4941 24.772 14.5181 24.718 14.5661 24.682C14.6141 24.634 14.6741 24.61 14.7461 24.61H16.5461C16.3181 24.454 16.2041 24.166 16.2041 23.746C16.2041 23.59 16.2221 23.422 16.2581 23.242L16.4921 22.054C16.6121 21.454 16.9061 20.962 17.3741 20.578C17.8421 20.182 18.3761 19.99 18.9761 20.002L19.6961 20.02C20.1881 20.02 20.6321 20.14 21.0281 20.38C21.4361 20.62 21.7541 20.944 21.9821 21.352C22.2221 21.748 22.3421 22.186 22.3421 22.666V24.61H25.0421V22.414C25.0421 22.09 24.9521 21.814 24.7721 21.586C24.6041 21.346 24.3701 21.178 24.0701 21.082L17.9141 19.156L18.4001 17.554L24.3581 19.39C25.0301 19.606 25.5761 19.99 25.9961 20.542C26.4281 21.082 26.6441 21.718 26.6441 22.45V24.52C26.6441 25.108 26.4581 25.588 26.0861 25.96C25.7141 26.32 25.2341 26.5 24.6461 26.5H21.8561V25.78ZM20.7941 22.432C20.7941 22.18 20.7101 21.97 20.5421 21.802C20.3741 21.634 20.1581 21.55 19.8941 21.55H18.9041C18.4361 21.55 18.1481 21.796 18.0401 22.288L17.7701 23.8C17.7581 23.848 17.7521 23.908 17.7521 23.98C17.7521 24.208 17.8241 24.388 17.9681 24.52C18.1241 24.64 18.3161 24.7 18.5441 24.7H20.7941V22.432ZM25.1179 29.488L27.4399 28.732C27.9799 28.552 28.3939 28.27 28.6819 27.886C28.9699 27.502 29.1139 27.022 29.1139 26.446V20.506H30.7339V23.584C30.7339 23.872 30.8419 24.118 31.0579 24.322C31.2859 24.514 31.5439 24.61 31.8319 24.61H32.5159C32.6119 24.61 32.6779 24.628 32.7139 24.664C32.7499 24.7 32.7679 24.76 32.7679 24.844V26.248C32.7679 26.416 32.6839 26.5 32.5159 26.5H32.0839C31.8199 26.5 31.5619 26.446 31.3099 26.338C31.0699 26.23 30.8719 26.068 30.7159 25.852V26.572C30.7159 27.448 30.4579 28.204 29.9419 28.84C29.4259 29.476 28.7479 29.938 27.9079 30.226L25.6039 31L25.1179 29.488ZM32.5176 26.5C32.4456 26.5 32.3856 26.482 32.3376 26.446C32.2896 26.398 32.2656 26.332 32.2656 26.248V24.88C32.2656 24.808 32.2956 24.748 32.3556 24.7C32.4036 24.64 32.4576 24.61 32.5176 24.61H33.8676C34.5276 24.61 34.9296 24.286 35.0736 23.638L35.7036 20.56L37.2696 20.866L36.7656 23.404C36.7536 23.452 36.7476 23.53 36.7476 23.638C36.7476 23.926 36.8436 24.16 37.0356 24.34C37.2276 24.52 37.4796 24.61 37.7916 24.61H39.0156C39.0876 24.61 39.1476 24.64 39.1956 24.7C39.2436 24.748 39.2676 24.808 39.2676 24.88V26.248C39.2676 26.32 39.2436 26.38 39.1956 26.428C39.1476 26.476 39.0876 26.5 39.0156 26.5H37.7736C37.3416 26.5 36.9516 26.404 36.6036 26.212C36.2676 26.02 36.0156 25.744 35.8476 25.384C35.6556 25.732 35.3676 26.008 34.9836 26.212C34.5996 26.404 34.1976 26.5 33.7776 26.5H32.5176ZM36.3336 16.888H38.1156V18.688H36.3336V16.888ZM33.5976 16.888H35.3796V18.688H33.5976V16.888ZM39.0215 26.5C38.8535 26.5 38.7695 26.416 38.7695 26.248V24.862C38.7695 24.694 38.8535 24.61 39.0215 24.61H40.1915C40.4915 24.61 40.7435 24.502 40.9475 24.286C41.1635 24.07 41.2715 23.818 41.2715 23.53V14.404H42.8915V23.512C42.8915 23.812 42.9995 24.07 43.2155 24.286C43.4315 24.502 43.6895 24.61 43.9895 24.61H45.0695C45.2375 24.61 45.3215 24.694 45.3215 24.862V26.248C45.3215 26.32 45.2975 26.38 45.2495 26.428C45.2015 26.476 45.1415 26.5 45.0695 26.5H44.2595C43.3595 26.5 42.6395 26.128 42.0995 25.384C41.5355 26.128 40.8035 26.5 39.9035 26.5H39.0215ZM45.0684 26.5C44.9964 26.5 44.9364 26.482 44.8884 26.446C44.8404 26.398 44.8164 26.332 44.8164 26.248V24.88C44.8164 24.808 44.8464 24.748 44.9064 24.7C44.9544 24.64 45.0084 24.61 45.0684 24.61H46.4184C47.0784 24.61 47.4804 24.286 47.6244 23.638L48.2544 20.56L49.8204 20.866L49.3164 23.404C49.3044 23.452 49.2984 23.53 49.2984 23.638C49.2984 23.926 49.3944 24.16 49.5864 24.34C49.7784 24.52 50.0304 24.61 50.3424 24.61H51.5664C51.6384 24.61 51.6984 24.64 51.7464 24.7C51.7944 24.748 51.8184 24.808 51.8184 24.88V26.248C51.8184 26.32 51.7944 26.38 51.7464 26.428C51.6984 26.476 51.6384 26.5 51.5664 26.5H50.3244C49.8924 26.5 49.5024 26.404 49.1544 26.212C48.8184 26.02 48.5664 25.744 48.3984 25.384C48.2064 25.732 47.9184 26.008 47.5344 26.212C47.1504 26.404 46.7484 26.5 46.3284 26.5H45.0684ZM48.7944 28.66H50.5764V30.46H48.7944V28.66ZM46.0584 28.66H47.8404V30.46H46.0584V28.66ZM51.5723 26.5C51.5003 26.5 51.4403 26.476 51.3923 26.428C51.3443 26.368 51.3203 26.302 51.3203 26.23V24.862C51.3203 24.802 51.3443 24.748 51.3923 24.7C51.4403 24.64 51.5003 24.61 51.5723 24.61H56.2163C56.5523 24.61 56.8283 24.514 57.0443 24.322C57.2723 24.13 57.3863 23.848 57.3863 23.476V23.134C57.0623 23.242 56.6783 23.296 56.2343 23.296H55.0643C54.5843 23.296 54.1463 23.182 53.7503 22.954C53.3543 22.714 53.0423 22.396 52.8143 22C52.5863 21.604 52.4723 21.172 52.4723 20.704C52.4723 20.488 52.4843 20.326 52.5083 20.218L52.7783 18.742C52.8983 18.13 53.1983 17.626 53.6783 17.23C54.1583 16.834 54.7103 16.636 55.3343 16.636H56.2883C56.7803 16.636 57.2303 16.762 57.6383 17.014C58.0463 17.254 58.3703 17.584 58.6103 18.004C58.8503 18.412 58.9703 18.862 58.9703 19.354V23.494C58.9703 24.046 58.8323 24.55 58.5563 25.006C58.2923 25.462 57.9323 25.828 57.4763 26.104C57.0203 26.368 56.5223 26.5 55.9823 26.5H51.5723ZM57.4043 21.46V19.336C57.4043 19.084 57.3143 18.868 57.1343 18.688C56.9543 18.508 56.7383 18.418 56.4863 18.418H55.2263C54.9983 18.418 54.8003 18.49 54.6323 18.634C54.4643 18.778 54.3563 18.964 54.3083 19.192L54.0743 20.506C54.0623 20.542 54.0563 20.59 54.0563 20.65C54.0563 20.878 54.1343 21.07 54.2903 21.226C54.4463 21.382 54.6323 21.46 54.8483 21.46H57.4043ZM54.9923 12.964H56.7743V14.746H54.9923V12.964Z" fill="white"/>
<path d="M73 16H91" stroke="white" stroke-width="2" stroke-linecap="round" stroke-linejoin="round"/>
<path d="M77 22H87" stroke="white" stroke-width="2" stroke-linecap="round" stroke-linejoin="round"/>
<path d="M80 28H84" stroke="white" stroke-width="2" stroke-linecap="round" stroke-linejoin="round"/>
</svg>
