<svg width="103" height="76" viewBox="0 0 103 76" fill="none" xmlns="http://www.w3.org/2000/svg">
<path d="M61.2851 30.3481C58.0274 32.801 54.5909 32.9671 50.9627 30.9869C47.6795 33.2609 44.7029 33.4653 41.4069 31.1913C40.9342 31.3957 39.4012 32.0983 39.1074 32.175C38.5581 32.3283 38.1237 32.0089 38.0981 31.434C38.0854 31.038 38.5708 27.7548 38.7625 26.4389C38.9158 16.7426 47.028 17.7263 48.791 18.71C52.2147 13.5232 61.8344 13.8298 63.9679 21.495C64.2106 22.3381 64.7472 24.8548 63.6357 27.1288C63.6357 27.0266 64.2362 28.368 64.7983 29.5305C65.156 30.2843 64.7088 31.4596 63.3802 31.038C62.6265 30.757 62.2177 30.6548 61.2851 30.3609V30.3481ZM52.087 29.6966C52.6874 30.2204 53.3645 30.4376 54.0671 30.5909C55.1147 30.8336 56.1878 30.8208 57.2481 30.5909C58.7301 30.2843 59.9054 29.39 61.0168 28.4063C61.5917 28.5979 62.4476 29.109 62.997 29.3006C61.9238 26.8989 61.9622 27.0266 61.9622 27.0266C63.1247 24.9698 62.6137 22.8236 62.3582 21.9421C61.349 18.48 58.1041 16.3082 54.2715 17.0236C52.6618 17.3175 51.2821 18.1223 50.2346 19.5276C53.5178 22.3892 54.2204 25.7363 52.0997 29.6838L52.087 29.6966ZM41.8029 29.3772C43.8087 31.3191 47.2835 31.4851 49.2125 30.1693C51.0266 28.9301 51.8442 26.3112 51.1799 23.9989C50.4645 21.495 48.3949 19.8342 45.5205 19.8725C42.7228 19.8597 40.7043 22.4914 40.4616 25.072C40.3594 26.2218 39.6695 30.3609 39.6695 30.3609C39.6695 30.3609 41.2281 29.5944 41.8029 29.39V29.3772Z" fill="black"/>
<path d="M53.0962 21.9672C52.879 20.958 52.9429 20.2937 53.9521 19.6549C57.708 17.5981 61.0551 21.6223 57.708 23.9857C56.3794 24.9311 56.7627 25.2121 56.7627 25.9914C56.0345 26.0553 55.6001 26.0553 54.8464 26.0297C54.6931 25.2249 54.1438 24.1134 56.3155 22.8104C57.1842 22.2227 57.1459 20.9835 55.9834 20.9835C54.9997 20.9452 54.8208 21.4945 54.8719 21.9672C54.2332 21.9672 54.016 21.9672 53.0962 21.9672Z" fill="black"/>
<path d="M57.0182 27.5882C57.0182 28.2142 56.571 28.6741 55.9451 28.7124C55.3319 28.738 54.8081 28.2781 54.7697 27.6776C54.7314 27.0389 55.2808 26.464 55.9195 26.4768C56.5327 26.4768 57.0054 26.975 57.0182 27.5882Z" fill="black"/>
<path d="M48.4333 26.9258H43.2593C42.9207 26.9258 42.6461 27.2003 42.6461 27.539V27.9095C42.6461 28.2481 42.9207 28.5227 43.2593 28.5227H48.4333C48.7719 28.5227 49.0465 28.2481 49.0465 27.9095V27.539C49.0465 27.2003 48.7719 26.9258 48.4333 26.9258Z" fill="black"/>
<path d="M48.4333 24.8555H43.2593C42.9207 24.8555 42.6461 25.13 42.6461 25.4687V25.8392C42.6461 26.1778 42.9207 26.4524 43.2593 26.4524H48.4333C48.7719 26.4524 49.0465 26.1778 49.0465 25.8392V25.4687C49.0465 25.13 48.7719 24.8555 48.4333 24.8555Z" fill="black"/>
<path d="M48.4333 22.7988H43.2593C42.9207 22.7988 42.6461 23.0734 42.6461 23.412V23.7825C42.6461 24.1212 42.9207 24.3957 43.2593 24.3957H48.4333C48.7719 24.3957 49.0465 24.1212 49.0465 23.7825V23.412C49.0465 23.0734 48.7719 22.7988 48.4333 22.7988Z" fill="black"/>
<path d="M14.392 62.436C13.86 62.436 13.3653 62.3007 12.908 62.03C12.4507 61.7687 12.0867 61.4093 11.816 60.952C11.5453 60.4947 11.41 60 11.41 59.468V55.968H12.67V59.272C12.67 59.7387 12.8333 60.1353 13.16 60.462C13.4867 60.798 13.8833 60.966 14.35 60.966H16.828C17.2107 60.966 17.5373 60.8307 17.808 60.56C18.0787 60.2893 18.214 59.958 18.214 59.566V50.592H19.46V59.79C19.46 60.266 19.3387 60.7047 19.096 61.106C18.8627 61.5167 18.5453 61.8387 18.144 62.072C17.7427 62.3147 17.2993 62.436 16.814 62.436H14.392ZM25.0481 59.804C24.7401 59.9347 24.3947 60 24.0121 60H23.1721C22.7987 60 22.4581 59.9067 22.1501 59.72C21.8514 59.5333 21.6134 59.286 21.4361 58.978C21.2587 58.67 21.1701 58.334 21.1701 57.97C21.1701 57.8113 21.1794 57.69 21.1981 57.606L21.4221 56.36C21.5061 55.884 21.7347 55.492 22.1081 55.184C22.4907 54.8667 22.9247 54.708 23.4101 54.708H24.1941C24.5767 54.708 24.9314 54.806 25.2581 55.002C25.5847 55.1887 25.8414 55.4453 26.0281 55.772C26.2147 56.0893 26.3081 56.4347 26.3081 56.808V59.832C26.3081 60.5507 26.1074 61.1853 25.7061 61.736C25.3141 62.296 24.7867 62.6927 24.1241 62.926L22.3461 63.514L21.9821 62.338L23.8021 61.736C24.1941 61.596 24.4974 61.372 24.7121 61.064C24.9361 60.7653 25.0481 60.42 25.0481 60.028V59.804ZM25.0621 56.808C25.0621 56.612 24.9921 56.4487 24.8521 56.318C24.7214 56.178 24.5534 56.108 24.3481 56.108H23.2701C23.1021 56.108 22.9621 56.1547 22.8501 56.248C22.7474 56.3413 22.6774 56.4813 22.6401 56.668L22.4301 57.802C22.4207 57.83 22.4161 57.872 22.4161 57.928C22.4161 58.096 22.4721 58.2407 22.5841 58.362C22.7054 58.474 22.8547 58.53 23.0321 58.53H25.0621V56.808ZM28.0623 50.592H29.3223V60H28.0623V50.592ZM38.3091 58.53C38.3651 58.53 38.4118 58.5533 38.4491 58.6C38.4865 58.6373 38.5051 58.684 38.5051 58.74V59.804C38.5051 59.86 38.4865 59.9067 38.4491 59.944C38.4211 59.9813 38.3745 60 38.3091 60H38.0431C37.6791 60 37.3385 59.902 37.0211 59.706C36.7131 59.5007 36.4658 59.2253 36.2791 58.88C36.1485 59.2347 35.9245 59.51 35.6071 59.706C35.2991 59.902 34.9631 60 34.5991 60H32.7091C32.2518 60 31.8598 59.8367 31.5331 59.51C31.2065 59.174 31.0431 58.7773 31.0431 58.32V56.654H32.0931V58.026C32.0931 58.166 32.1351 58.2873 32.2191 58.39C32.3125 58.4833 32.4291 58.53 32.5691 58.53H34.6131C34.9025 58.53 35.1451 58.432 35.3411 58.236C35.5465 58.0307 35.6491 57.7927 35.6491 57.522C35.6491 57.41 35.6398 57.326 35.6211 57.27L34.5291 53.364L35.7331 52.958L37.0631 57.69C37.1378 57.9513 37.2498 58.1567 37.3991 58.306C37.5485 58.4553 37.7351 58.53 37.9591 58.53H38.3091ZM38.3086 60C38.2526 60 38.2059 59.986 38.1686 59.958C38.1313 59.9207 38.1126 59.8693 38.1126 59.804V58.74C38.1126 58.684 38.1359 58.6373 38.1826 58.6C38.2199 58.5533 38.2619 58.53 38.3086 58.53H39.3586C39.8719 58.53 40.1846 58.278 40.2966 57.774L40.7866 55.38L42.0046 55.618L41.6126 57.592C41.6033 57.6293 41.5986 57.69 41.5986 57.774C41.5986 57.998 41.6733 58.18 41.8226 58.32C41.9719 58.46 42.1679 58.53 42.4106 58.53H43.3626C43.4186 58.53 43.4653 58.5533 43.5026 58.6C43.5399 58.6373 43.5586 58.684 43.5586 58.74V59.804C43.5586 59.86 43.5399 59.9067 43.5026 59.944C43.4653 59.9813 43.4186 60 43.3626 60H42.3966C42.0606 60 41.7573 59.9253 41.4866 59.776C41.2253 59.6267 41.0293 59.412 40.8986 59.132C40.7493 59.4027 40.5253 59.6173 40.2266 59.776C39.9279 59.9253 39.6153 60 39.2886 60H38.3086ZM41.2766 52.524H42.6626V53.924H41.2766V52.524ZM39.1486 52.524H40.5346V53.924H39.1486V52.524ZM43.3672 60C43.3112 60 43.2645 59.9813 43.2272 59.944C43.1899 59.9067 43.1712 59.86 43.1712 59.804V58.726C43.1712 58.67 43.1899 58.6233 43.2272 58.586C43.2552 58.5487 43.3019 58.53 43.3672 58.53H43.8152C44.0485 58.53 44.2492 58.4647 44.4172 58.334C44.5852 58.2033 44.6925 58.0167 44.7392 57.774L45.0192 56.332C45.1125 55.8653 45.3459 55.478 45.7192 55.17C46.0925 54.862 46.5172 54.708 46.9932 54.708H47.7772C48.1599 54.708 48.5145 54.8013 48.8412 54.988C49.1679 55.1747 49.4245 55.4313 49.6112 55.758C49.8072 56.0847 49.9052 56.4393 49.9052 56.822V58.53C49.9052 58.95 49.7652 59.3 49.4852 59.58C49.2052 59.86 48.8459 60 48.4072 60H46.7552C46.1019 60 45.6119 59.7107 45.2852 59.132C44.9492 59.7107 44.4312 60 43.7312 60H43.3672ZM48.6452 58.53V56.808C48.6452 56.612 48.5752 56.444 48.4352 56.304C48.3045 56.164 48.1365 56.094 47.9312 56.094H46.9092C46.7412 56.094 46.5919 56.15 46.4612 56.262C46.3305 56.374 46.2512 56.514 46.2232 56.682L45.9992 57.802C45.9899 57.83 45.9852 57.8673 45.9852 57.914C45.9852 58.082 46.0459 58.2267 46.1672 58.348C46.2885 58.4693 46.4285 58.53 46.5872 58.53H48.6452ZM55.947 60C55.471 60 55.0276 59.8787 54.617 59.636C54.2063 59.3933 53.8796 59.0713 53.637 58.67C53.4036 58.2593 53.287 57.8113 53.287 57.326V54.932H54.547V57.228C54.547 57.5827 54.673 57.8907 54.925 58.152C55.177 58.404 55.4803 58.53 55.835 58.53H61.491C61.7243 58.53 61.9203 58.4507 62.079 58.292C62.247 58.124 62.331 57.9187 62.331 57.676V54.932H63.591V57.662C63.591 58.082 63.4836 58.474 63.269 58.838C63.0636 59.1927 62.7836 59.4773 62.429 59.692C62.0743 59.8973 61.687 60 61.267 60H55.947ZM58.831 53.518H60.217V54.918H58.831V53.518ZM56.703 53.518H58.089V54.918H56.703V53.518ZM64.9972 59.076L66.5232 58.88L65.8372 51.782L67.0972 51.6L67.6432 57.662C67.6525 57.7553 67.6572 57.872 67.6572 58.012C67.6572 58.18 67.6199 58.4227 67.5452 58.74L68.9312 58.558C69.2112 58.5113 69.4352 58.3947 69.6032 58.208C69.7805 58.012 69.8692 57.7693 69.8692 57.48V50.592H71.1152V57.424C71.1152 58.0587 70.9239 58.6 70.5412 59.048C70.1585 59.4867 69.6592 59.7527 69.0432 59.846L65.1652 60.406L64.9972 59.076ZM72.8241 50.592H74.0841V60H72.8241V50.592ZM81.9229 58.53C81.9789 58.53 82.0255 58.5487 82.0629 58.586C82.1002 58.6233 82.1189 58.67 82.1189 58.726V59.804C82.1189 59.9347 82.0535 60 81.9229 60H80.6489V58.53H81.9229ZM79.5989 59.874C79.4029 59.958 79.0575 60 78.5629 60H77.7229C77.3495 60 77.0089 59.9067 76.7009 59.72C76.4022 59.5333 76.1642 59.286 75.9869 58.978C75.8095 58.67 75.7209 58.334 75.7209 57.97C75.7209 57.8113 75.7302 57.69 75.7489 57.606L75.9729 56.36C76.0569 55.884 76.2855 55.492 76.6589 55.184C77.0415 54.8667 77.4755 54.708 77.9609 54.708H78.7449C79.1275 54.708 79.4822 54.806 79.8089 55.002C80.1355 55.1887 80.3922 55.4453 80.5789 55.772C80.7655 56.0893 80.8589 56.4347 80.8589 56.808V59.832C80.8589 60.5507 80.6582 61.1853 80.2569 61.736C79.8649 62.296 79.3375 62.6927 78.6749 62.926L76.8969 63.514L76.5329 62.338L78.3529 61.736C78.7542 61.596 79.0622 61.372 79.2769 61.064C79.4915 60.7653 79.5989 60.4433 79.5989 60.098V59.874ZM79.6129 56.808C79.6129 56.612 79.5429 56.4487 79.4029 56.318C79.2722 56.178 79.1042 56.108 78.8989 56.108H77.8209C77.6529 56.108 77.5129 56.1547 77.4009 56.248C77.2982 56.3413 77.2282 56.4813 77.1909 56.668L76.9809 57.802C76.9715 57.83 76.9669 57.872 76.9669 57.928C76.9669 58.096 77.0229 58.2407 77.1349 58.362C77.2562 58.474 77.4055 58.53 77.5829 58.53H79.6129V56.808ZM81.9219 60C81.8659 60 81.8192 59.9813 81.7819 59.944C81.7445 59.9067 81.7259 59.86 81.7259 59.804V58.726C81.7259 58.67 81.7492 58.6233 81.7959 58.586C81.8332 58.5487 81.8752 58.53 81.9219 58.53H82.5239C82.7572 58.53 82.9532 58.446 83.1119 58.278C83.2799 58.1007 83.3639 57.8907 83.3639 57.648V55.352H84.6099V57.662C84.6099 57.8953 84.6939 58.1007 84.8619 58.278C85.0392 58.446 85.2445 58.53 85.4779 58.53H85.7579C86.0192 58.53 86.2245 58.4647 86.3739 58.334C86.5325 58.194 86.6352 58.0073 86.6819 57.774L87.1579 55.38L88.4179 55.618L88.0259 57.592C88.0165 57.6293 88.0119 57.6807 88.0119 57.746C88.0119 57.9607 88.0865 58.1473 88.2359 58.306C88.3945 58.4553 88.5859 58.53 88.8099 58.53H89.9719V54.946H91.2319V58.53C91.2319 58.95 91.0919 59.3 90.8119 59.58C90.5319 59.86 90.1819 60 89.7619 60H88.8099C88.1099 60 87.6105 59.706 87.3119 59.118C87.1252 59.4073 86.8919 59.6267 86.6119 59.776C86.3319 59.9253 86.0285 60 85.7019 60C84.9832 60 84.4185 59.7107 84.0079 59.132C83.5692 59.7107 82.9952 60 82.2859 60H81.9219Z" fill="black"/>
</svg>
