<svg width="104" height="72" viewBox="0 0 104 72" fill="none" xmlns="http://www.w3.org/2000/svg">
<path d="M43.8 22.0595C43.8 19.4295 43.8 16.8095 43.8 14.1795C43.8 13.5895 43.83 13.0195 44.22 12.5095C44.72 11.8595 45.33 11.4495 46.14 11.3695C46.5 11.3295 46.86 11.3395 47.23 11.3395C50.67 11.3395 54.12 11.3395 57.56 11.3395C57.88 11.3395 58.2 11.3295 58.51 11.3595C59.96 11.4895 60.93 12.4795 60.95 13.9395C60.98 16.7495 60.98 19.5595 60.98 22.3695C60.98 24.2695 60.95 26.1695 60.97 28.0795C60.97 28.7095 60.8 29.1995 60.34 29.6395C59.45 30.4795 58.59 31.3495 57.74 32.2295C57.4 32.5795 57.04 32.7495 56.55 32.7395C53.2 32.7295 49.84 32.7495 46.49 32.7295C44.86 32.7195 43.83 31.6395 43.81 29.9695C43.79 27.3395 43.81 24.7195 43.81 22.0895L43.8 22.0595ZM59.32 27.1795C59.32 27.1795 59.39 26.2495 59.39 25.8495C59.39 22.1795 59.39 18.5195 59.39 14.8495C59.39 13.2495 59.19 13.0595 57.59 13.0595C54.11 13.0595 50.62 13.0595 47.14 13.0595C46.87 13.0595 46.59 13.0595 46.33 13.0895C45.84 13.1495 45.52 13.4795 45.46 13.9795C45.43 14.2495 45.45 14.5195 45.45 14.7895C45.45 16.8295 45.45 18.8595 45.45 20.8995C45.45 23.8395 45.44 26.7795 45.45 29.7195C45.45 30.6495 45.85 31.0295 46.78 31.0395C49.4 31.0495 52.03 31.0595 54.65 31.0595C54.95 31.0595 55.74 30.9795 55.74 30.9795V27.1895H59.34L59.32 27.1795ZM57.19 30.1495C57.67 29.9695 58.51 29.1595 58.62 28.6495C58.3 28.6695 57.45 28.6795 57.13 28.6995C57.15 29.0295 57.17 29.8395 57.19 30.1495Z" fill="black"/>
<path d="M54.24 26.6191H47.74V28.2391H54.24V26.6191Z" fill="black"/>
<path d="M57.05 23.7891H47.72V25.4091H57.05V23.7891Z" fill="black"/>
<path d="M57.05 20.9492H47.72V22.5692H57.05V20.9492Z" fill="black"/>
<path d="M57.05 18.1191H47.72V19.7391H57.05V18.1191Z" fill="black"/>
<path d="M57.05 15.2891H47.72V16.9091H57.05V15.2891Z" fill="black"/>
<path d="M13.57 56C13.094 56 12.6507 55.8787 12.24 55.636C11.8293 55.3933 11.5027 55.0713 11.26 54.67C11.0267 54.2593 10.91 53.8113 10.91 53.326V50.932H12.17V53.228C12.17 53.5827 12.296 53.8907 12.548 54.152C12.8 54.404 13.1033 54.53 13.458 54.53H19.114C19.3473 54.53 19.5433 54.4507 19.702 54.292C19.87 54.124 19.954 53.9187 19.954 53.676V50.932H21.214V53.662C21.214 54.082 21.1067 54.474 20.892 54.838C20.6867 55.1927 20.4067 55.4773 20.052 55.692C19.6973 55.8973 19.31 56 18.89 56H13.57ZM16.454 49.518H17.84V50.918H16.454V49.518ZM14.326 49.518H15.712V50.918H14.326V49.518ZM22.9002 46.592H24.1602V56H22.9002V46.592ZM24.1936 58.296L25.2436 57.75C25.5889 57.5727 25.8503 57.3487 26.0276 57.078C26.2049 56.8073 26.2936 56.4013 26.2936 55.86V51.352H27.5396V55.776C27.5396 56.56 27.3996 57.1807 27.1196 57.638C26.8396 58.1047 26.4103 58.4967 25.8316 58.814L24.7676 59.416L24.1936 58.296ZM27.9534 58.296L29.0034 57.75C29.3487 57.5727 29.61 57.3487 29.7874 57.078C29.9647 56.8073 30.0534 56.4013 30.0534 55.86V51.352H31.2994V53.732C31.2994 53.956 31.3834 54.1473 31.5514 54.306C31.7287 54.4553 31.9294 54.53 32.1534 54.53H32.6854C32.76 54.53 32.8114 54.544 32.8394 54.572C32.8674 54.5907 32.8814 54.6373 32.8814 54.712V55.804C32.8814 55.8787 32.8674 55.93 32.8394 55.958C32.8114 55.986 32.76 56 32.6854 56H32.3634C32.158 56 31.9574 55.958 31.7614 55.874C31.5747 55.79 31.4207 55.664 31.2994 55.496V56.028C31.2994 56.7373 31.1547 57.302 30.8654 57.722C30.5854 58.142 30.1607 58.506 29.5914 58.814L28.5274 59.416L27.9534 58.296ZM32.6816 56C32.6256 56 32.579 55.9813 32.5416 55.944C32.5043 55.8973 32.4856 55.8507 32.4856 55.804V54.74C32.4856 54.684 32.5043 54.6373 32.5416 54.6C32.579 54.5533 32.6256 54.53 32.6816 54.53H33.8576H34.1376C33.6616 54.054 33.4236 53.5407 33.4236 52.99V52.57C33.4236 52.1313 33.5356 51.7207 33.7596 51.338C33.9836 50.9553 34.2823 50.652 34.6556 50.428C35.0383 50.204 35.4396 50.092 35.8596 50.092H36.0696C36.499 50.092 36.9003 50.204 37.2736 50.428C37.647 50.6427 37.941 50.9367 38.1556 51.31C38.3796 51.6833 38.4916 52.0893 38.4916 52.528V52.99C38.4916 53.522 38.2536 54.0353 37.7776 54.53H38.0436H39.2336C39.2803 54.53 39.3223 54.5533 39.3596 54.6C39.4063 54.6373 39.4296 54.684 39.4296 54.74V55.804C39.4296 55.8507 39.4063 55.8973 39.3596 55.944C39.3223 55.9813 39.2803 56 39.2336 56H38.4916C38.0436 56 37.6236 55.9673 37.2316 55.902C36.8396 55.8273 36.4103 55.7013 35.9436 55.524C35.477 55.7013 35.0476 55.8273 34.6556 55.902C34.273 55.9673 33.8576 56 33.4096 56H32.6816ZM35.9436 54.362C36.821 53.9513 37.2596 53.5267 37.2596 53.088V52.682C37.2596 52.3553 37.143 52.08 36.9096 51.856C36.6763 51.6227 36.3916 51.506 36.0556 51.506H35.8316C35.505 51.506 35.225 51.6227 34.9916 51.856C34.7676 52.08 34.6556 52.3553 34.6556 52.682V53.088C34.6556 53.5453 35.085 53.97 35.9436 54.362ZM36.3076 47.222H37.6936V48.622H36.3076V47.222ZM34.1796 47.222H35.5656V48.622H34.1796V47.222ZM39.2305 56C39.1745 56 39.1278 55.9813 39.0905 55.944C39.0531 55.9067 39.0345 55.86 39.0345 55.804V54.726C39.0345 54.67 39.0531 54.6233 39.0905 54.586C39.1185 54.5487 39.1651 54.53 39.2305 54.53H39.6785C39.9118 54.53 40.1125 54.4647 40.2805 54.334C40.4485 54.2033 40.5558 54.0167 40.6025 53.774L40.8825 52.332C40.9758 51.8653 41.2091 51.478 41.5825 51.17C41.9558 50.862 42.3805 50.708 42.8565 50.708H43.6405C44.0231 50.708 44.3778 50.8013 44.7045 50.988C45.0311 51.1747 45.2878 51.4313 45.4745 51.758C45.6705 52.0847 45.7685 52.4393 45.7685 52.822V54.53C45.7685 54.95 45.6285 55.3 45.3485 55.58C45.0685 55.86 44.7091 56 44.2705 56H42.6185C41.9651 56 41.4751 55.7107 41.1485 55.132C40.8125 55.7107 40.2945 56 39.5945 56H39.2305ZM44.5085 54.53V52.808C44.5085 52.612 44.4385 52.444 44.2985 52.304C44.1678 52.164 43.9998 52.094 43.7945 52.094H42.7725C42.6045 52.094 42.4551 52.15 42.3245 52.262C42.1938 52.374 42.1145 52.514 42.0865 52.682L41.8625 53.802C41.8531 53.83 41.8485 53.8673 41.8485 53.914C41.8485 54.082 41.9091 54.2267 42.0305 54.348C42.1518 54.4693 42.2918 54.53 42.4505 54.53H44.5085ZM52.9582 55.804C52.6502 55.9347 52.3049 56 51.9222 56H51.0822C50.7089 56 50.3682 55.9067 50.0602 55.72C49.7616 55.5333 49.5236 55.286 49.3462 54.978C49.1689 54.67 49.0802 54.334 49.0802 53.97C49.0802 53.8113 49.0896 53.69 49.1082 53.606L49.3322 52.36C49.4162 51.884 49.6449 51.492 50.0182 51.184C50.4009 50.8667 50.8349 50.708 51.3202 50.708H52.1042C52.4869 50.708 52.8416 50.806 53.1682 51.002C53.4949 51.1887 53.7516 51.4453 53.9382 51.772C54.1249 52.0893 54.2182 52.4347 54.2182 52.808V55.832C54.2182 56.5507 54.0176 57.1853 53.6162 57.736C53.2242 58.296 52.6969 58.6927 52.0342 58.926L50.2562 59.514L49.8922 58.338L51.7122 57.736C52.1042 57.596 52.4076 57.372 52.6222 57.064C52.8462 56.7653 52.9582 56.42 52.9582 56.028V55.804ZM52.9722 52.808C52.9722 52.612 52.9022 52.4487 52.7622 52.318C52.6316 52.178 52.4636 52.108 52.2582 52.108H51.1802C51.0122 52.108 50.8722 52.1547 50.7602 52.248C50.6576 52.3413 50.5876 52.4813 50.5502 52.668L50.3402 53.802C50.3309 53.83 50.3262 53.872 50.3262 53.928C50.3262 54.096 50.3822 54.2407 50.4942 54.362C50.6156 54.474 50.7649 54.53 50.9422 54.53H52.9722V52.808ZM60.6498 58.45C60.1085 58.45 59.6091 58.3147 59.1518 58.044C58.7038 57.7827 58.3445 57.4233 58.0738 56.966C57.8031 56.518 57.6678 56.0233 57.6678 55.482V51.576H58.9278V55.3C58.9278 55.7667 59.0865 56.1633 59.4038 56.49C59.7305 56.8167 60.1271 56.98 60.5938 56.98H63.0718C63.4545 56.98 63.7811 56.84 64.0518 56.56C64.3318 56.28 64.4718 55.9487 64.4718 55.566V51.352H65.7318V53.69C65.7318 53.914 65.8111 54.11 65.9698 54.278C66.1285 54.446 66.3198 54.53 66.5438 54.53H67.2298C67.3605 54.53 67.4258 54.5953 67.4258 54.726V55.804C67.4258 55.9347 67.3605 56 67.2298 56H66.8238C66.5718 56 66.3478 55.9533 66.1518 55.86C65.9651 55.7667 65.8205 55.6453 65.7178 55.496V56.028C65.7178 56.4573 65.5918 56.8587 65.3398 57.232C65.0971 57.6053 64.7705 57.8993 64.3598 58.114C63.9585 58.338 63.5245 58.45 63.0578 58.45H60.6498ZM61.0138 49.938H62.3998V51.324H61.0138V49.938ZM67.2305 56C67.1745 56 67.1278 55.986 67.0905 55.958C67.0531 55.9207 67.0345 55.8693 67.0345 55.804V54.74C67.0345 54.684 67.0578 54.6373 67.1045 54.6C67.1418 54.5533 67.1838 54.53 67.2305 54.53H68.2805C68.7938 54.53 69.1065 54.278 69.2185 53.774L69.7085 51.38L70.9265 51.618L70.5345 53.592C70.5251 53.6293 70.5205 53.69 70.5205 53.774C70.5205 53.998 70.5951 54.18 70.7445 54.32C70.8938 54.46 71.0898 54.53 71.3325 54.53H72.2845C72.3405 54.53 72.3871 54.5533 72.4245 54.6C72.4618 54.6373 72.4805 54.684 72.4805 54.74V55.804C72.4805 55.86 72.4618 55.9067 72.4245 55.944C72.3871 55.9813 72.3405 56 72.2845 56H71.3185C70.9825 56 70.6791 55.9253 70.4085 55.776C70.1471 55.6267 69.9511 55.412 69.8205 55.132C69.6711 55.4027 69.4471 55.6173 69.1485 55.776C68.8498 55.9253 68.5371 56 68.2105 56H67.2305ZM70.1285 57.68H71.5145V59.08H70.1285V57.68ZM68.0005 57.68H69.3865V59.08H68.0005V57.68ZM72.2891 56C72.2331 56 72.1864 55.9813 72.1491 55.944C72.1117 55.9067 72.0931 55.86 72.0931 55.804V54.74C72.0931 54.684 72.1117 54.6373 72.1491 54.6C72.1864 54.5533 72.2331 54.53 72.2891 54.53H73.8431C74.0857 54.53 74.2864 54.4507 74.4451 54.292C74.6037 54.124 74.6831 53.9187 74.6831 53.676V50.946H75.9431V53.662C75.9431 54.082 75.8357 54.474 75.6211 54.838C75.4157 55.1927 75.1357 55.4773 74.7811 55.692C74.4264 55.8973 74.0391 56 73.6191 56H72.2891ZM74.5431 48.188H75.9291V49.574H74.5431V48.188ZM77.6288 46.592H78.8888V56H77.6288V46.592ZM86.7275 54.53C86.7835 54.53 86.8302 54.5487 86.8675 54.586C86.9049 54.6233 86.9235 54.67 86.9235 54.726V55.804C86.9235 55.9347 86.8582 56 86.7275 56H85.4535V54.53H86.7275ZM84.4035 55.874C84.2075 55.958 83.8622 56 83.3675 56H82.5275C82.1542 56 81.8135 55.9067 81.5055 55.72C81.2069 55.5333 80.9689 55.286 80.7915 54.978C80.6142 54.67 80.5255 54.334 80.5255 53.97C80.5255 53.8113 80.5349 53.69 80.5535 53.606L80.7775 52.36C80.8615 51.884 81.0902 51.492 81.4635 51.184C81.8462 50.8667 82.2802 50.708 82.7655 50.708H83.5495C83.9322 50.708 84.2869 50.806 84.6135 51.002C84.9402 51.1887 85.1969 51.4453 85.3835 51.772C85.5702 52.0893 85.6635 52.4347 85.6635 52.808V55.832C85.6635 56.5507 85.4629 57.1853 85.0615 57.736C84.6695 58.296 84.1422 58.6927 83.4795 58.926L81.7015 59.514L81.3375 58.338L83.1575 57.736C83.5589 57.596 83.8669 57.372 84.0815 57.064C84.2962 56.7653 84.4035 56.4433 84.4035 56.098V55.874ZM84.4175 52.808C84.4175 52.612 84.3475 52.4487 84.2075 52.318C84.0769 52.178 83.9089 52.108 83.7035 52.108H82.6255C82.4575 52.108 82.3175 52.1547 82.2055 52.248C82.1029 52.3413 82.0329 52.4813 81.9955 52.668L81.7855 53.802C81.7762 53.83 81.7715 53.872 81.7715 53.928C81.7715 54.096 81.8275 54.2407 81.9395 54.362C82.0609 54.474 82.2102 54.53 82.3875 54.53H84.4175V52.808ZM86.7266 56C86.6706 56 86.6239 55.9813 86.5866 55.944C86.5492 55.8973 86.5306 55.846 86.5306 55.79V54.726C86.5306 54.6793 86.5492 54.6373 86.5866 54.6C86.6239 54.5533 86.6706 54.53 86.7266 54.53H90.3386C90.5999 54.53 90.8146 54.4553 90.9826 54.306C91.1599 54.1567 91.2486 53.9373 91.2486 53.648V53.382C90.9966 53.466 90.6979 53.508 90.3526 53.508H89.4426C89.0692 53.508 88.7286 53.4193 88.4206 53.242C88.1126 53.0553 87.8699 52.808 87.6926 52.5C87.5152 52.192 87.4266 51.856 87.4266 51.492C87.4266 51.324 87.4359 51.198 87.4546 51.114L87.6646 49.966C87.7579 49.49 87.9912 49.098 88.3646 48.79C88.7379 48.482 89.1672 48.328 89.6526 48.328H90.3946C90.7772 48.328 91.1272 48.426 91.4446 48.622C91.7619 48.8087 92.0139 49.0653 92.2006 49.392C92.3872 49.7093 92.4806 50.0593 92.4806 50.442V53.662C92.4806 54.0913 92.3732 54.4833 92.1586 54.838C91.9532 55.1927 91.6732 55.4773 91.3186 55.692C90.9639 55.8973 90.5766 56 90.1566 56H86.7266ZM91.2626 52.08V50.428C91.2626 50.232 91.1926 50.064 91.0526 49.924C90.9126 49.784 90.7446 49.714 90.5486 49.714H89.5686C89.3912 49.714 89.2372 49.77 89.1066 49.882C88.9759 49.994 88.8919 50.1387 88.8546 50.316L88.6726 51.338C88.6632 51.366 88.6586 51.4033 88.6586 51.45C88.6586 51.6273 88.7192 51.7767 88.8406 51.898C88.9619 52.0193 89.1066 52.08 89.2746 52.08H91.2626ZM90.3386 45.472H91.7246V46.872H90.3386V45.472ZM88.2106 45.472H89.5966V46.872H88.2106V45.472Z" fill="black"/>
</svg>
