<svg width="89" height="72" viewBox="0 0 89 72" fill="none" xmlns="http://www.w3.org/2000/svg">
<path d="M42.5 25H38.5C37.4391 25 36.4217 25.4214 35.6716 26.1716C34.9214 26.9217 34.5 27.9391 34.5 29V31" stroke="black" stroke-width="2" stroke-linecap="round" stroke-linejoin="round"/>
<path d="M46.8049 26.5299L47.7279 26.1479" stroke="black" stroke-width="2" stroke-linecap="round" stroke-linejoin="round"/>
<path d="M47.7279 23.852L46.8049 23.469" stroke="black" stroke-width="2" stroke-linecap="round" stroke-linejoin="round"/>
<path d="M49.352 22.2279L48.969 21.3049" stroke="black" stroke-width="2" stroke-linecap="round" stroke-linejoin="round"/>
<path d="M49.352 27.772L48.969 28.696" stroke="black" stroke-width="2" stroke-linecap="round" stroke-linejoin="round"/>
<path d="M51.6479 22.2279L52.0309 21.3049" stroke="black" stroke-width="2" stroke-linecap="round" stroke-linejoin="round"/>
<path d="M52.0299 28.696L51.6479 27.772" stroke="black" stroke-width="2" stroke-linecap="round" stroke-linejoin="round"/>
<path d="M53.272 23.852L54.196 23.469" stroke="black" stroke-width="2" stroke-linecap="round" stroke-linejoin="round"/>
<path d="M53.272 26.1479L54.196 26.5309" stroke="black" stroke-width="2" stroke-linecap="round" stroke-linejoin="round"/>
<path d="M50.5 28C52.1569 28 53.5 26.6569 53.5 25C53.5 23.3431 52.1569 22 50.5 22C48.8431 22 47.5 23.3431 47.5 25C47.5 26.6569 48.8431 28 50.5 28Z" stroke="black" stroke-width="2" stroke-linecap="round" stroke-linejoin="round"/>
<path d="M41.5 21C43.7091 21 45.5 19.2091 45.5 17C45.5 14.7909 43.7091 13 41.5 13C39.2909 13 37.5 14.7909 37.5 17C37.5 19.2091 39.2909 21 41.5 21Z" stroke="black" stroke-width="2" stroke-linecap="round" stroke-linejoin="round"/>
<path d="M9.44 58.324L11.246 57.736C11.666 57.596 11.988 57.3767 12.212 57.078C12.436 56.7793 12.548 56.406 12.548 55.958V51.338H13.808V53.732C13.808 53.956 13.892 54.1473 14.06 54.306C14.2373 54.4553 14.438 54.53 14.662 54.53H15.194C15.2687 54.53 15.32 54.544 15.348 54.572C15.376 54.6 15.39 54.6467 15.39 54.712V55.804C15.39 55.9347 15.3247 56 15.194 56H14.858C14.6527 56 14.452 55.958 14.256 55.874C14.0693 55.79 13.9153 55.664 13.794 55.496V56.056C13.794 56.7373 13.5933 57.3253 13.192 57.82C12.7907 58.3147 12.2633 58.674 11.61 58.898L9.818 59.5L9.44 58.324ZM15.1953 56C15.1393 56 15.0926 55.9813 15.0553 55.944C15.018 55.9067 14.9993 55.86 14.9993 55.804V54.74C14.9993 54.684 15.018 54.6373 15.0553 54.6C15.0926 54.5533 15.1393 54.53 15.1953 54.53H18.2473C18.4806 54.53 18.6813 54.4507 18.8493 54.292C19.0173 54.124 19.1013 53.9233 19.1013 53.69V50.946H20.3333V53.676C20.3333 54.096 20.2306 54.4833 20.0253 54.838C19.82 55.1927 19.54 55.4773 19.1853 55.692C18.8306 55.8973 18.4433 56 18.0233 56H15.1953ZM15.4753 57.68H16.8613L16.8753 59.094H15.4753V57.68ZM20.2561 58.296L21.3061 57.75C21.6514 57.5727 21.9128 57.3487 22.0901 57.078C22.2674 56.8073 22.3561 56.4013 22.3561 55.86V51.352H23.6021V55.776C23.6021 56.56 23.4621 57.1807 23.1821 57.638C22.9021 58.1047 22.4728 58.4967 21.8941 58.814L20.8301 59.416L20.2561 58.296ZM27.7259 56C27.3059 56 26.9185 55.8973 26.5639 55.692C26.2092 55.4867 25.9292 55.2113 25.7239 54.866C25.5185 54.5113 25.4159 54.124 25.4159 53.704V46.592H26.6759V53.676C26.6759 53.9187 26.7552 54.124 26.9139 54.292C27.0725 54.4507 27.2685 54.53 27.5019 54.53H28.2019C28.2579 54.53 28.3045 54.5533 28.3419 54.6C28.3792 54.6373 28.3979 54.684 28.3979 54.74V55.804C28.3979 55.9347 28.3325 56 28.2019 56H27.7259ZM28.1973 56C28.1413 56 28.0946 55.9813 28.0573 55.944C28.0199 55.9067 28.0013 55.86 28.0013 55.804V54.726C28.0013 54.6607 28.0199 54.614 28.0573 54.586C28.0946 54.5487 28.1413 54.53 28.1973 54.53H30.1153C30.5166 54.53 30.8479 54.3947 31.1093 54.124C31.3799 53.8533 31.5153 53.5267 31.5153 53.144C31.5153 52.808 31.4033 52.486 31.1793 52.178L28.8693 49.014V48.076L33.3913 45.78L33.9373 46.886L30.1433 48.818L32.1173 51.492C32.5279 52.0427 32.7333 52.6353 32.7333 53.27C32.7333 53.746 32.6166 54.194 32.3833 54.614C32.1499 55.034 31.8233 55.37 31.4033 55.622C30.9833 55.874 30.5073 56 29.9753 56H28.1973ZM43.731 53.956C44.067 54.0307 44.333 54.194 44.529 54.446C44.7344 54.6887 44.837 54.978 44.837 55.314V55.776C44.837 56.2613 44.7157 56.7093 44.473 57.12C44.2304 57.54 43.9037 57.8713 43.493 58.114C43.0824 58.3567 42.6344 58.478 42.149 58.478H39.335C38.803 58.478 38.3084 58.3427 37.851 58.072C37.3937 57.8013 37.0297 57.4373 36.759 56.98C36.4977 56.5227 36.367 56.028 36.367 55.496V52.29H37.613V55.314C37.613 55.7807 37.7764 56.1773 38.103 56.504C38.439 56.8307 38.8404 56.994 39.307 56.994H42.317C42.681 56.994 42.9797 56.8633 43.213 56.602C43.4557 56.35 43.577 56.0373 43.577 55.664V55.202L39.713 54.278V52.724C39.713 52.2667 39.8157 51.842 40.021 51.45C40.2264 51.058 40.5064 50.736 40.861 50.484C41.225 50.232 41.631 50.078 42.079 50.022L43.871 49.784L44.025 51.058L42.037 51.324C41.7104 51.3707 41.4444 51.52 41.239 51.772C41.0337 52.0147 40.931 52.2993 40.931 52.626V53.284L43.731 53.956ZM48.9309 56C48.5109 56 48.1236 55.8973 47.7689 55.692C47.4143 55.4867 47.1343 55.2113 46.9289 54.866C46.7236 54.5113 46.6209 54.124 46.6209 53.704V46.592H47.8809V53.676C47.8809 53.9187 47.9603 54.124 48.1189 54.292C48.2776 54.4507 48.4736 54.53 48.7069 54.53H49.4069C49.4629 54.53 49.5096 54.5533 49.5469 54.6C49.5843 54.6373 49.6029 54.684 49.6029 54.74V55.804C49.6029 55.9347 49.5376 56 49.4069 56H48.9309ZM49.4023 56C49.3463 56 49.2997 55.9813 49.2623 55.944C49.225 55.9067 49.2063 55.86 49.2063 55.804V54.726C49.2063 54.67 49.225 54.6233 49.2623 54.586C49.2903 54.5487 49.337 54.53 49.4023 54.53H49.8503C50.0837 54.53 50.2843 54.4647 50.4523 54.334C50.6203 54.2033 50.7277 54.0167 50.7743 53.774L51.0543 52.332C51.1477 51.8653 51.381 51.478 51.7543 51.17C52.1277 50.862 52.5523 50.708 53.0283 50.708H53.8123C54.195 50.708 54.5497 50.8013 54.8763 50.988C55.203 51.1747 55.4597 51.4313 55.6463 51.758C55.8423 52.0847 55.9403 52.4393 55.9403 52.822V53.662C55.9403 53.9047 56.0197 54.11 56.1783 54.278C56.3463 54.446 56.547 54.53 56.7803 54.53H57.2703C57.317 54.53 57.359 54.5487 57.3963 54.586C57.443 54.6233 57.4663 54.67 57.4663 54.726V55.804C57.4663 55.86 57.4477 55.9067 57.4103 55.944C57.373 55.9813 57.3263 56 57.2703 56H57.0043C56.3883 56 55.903 55.7853 55.5483 55.356C55.4457 55.5893 55.301 55.7573 55.1143 55.86C54.9277 55.9533 54.7037 56 54.4423 56H52.7903C52.137 56 51.647 55.7107 51.3203 55.132C50.9843 55.7107 50.4663 56 49.7663 56H49.4023ZM54.6803 52.808C54.6803 52.612 54.6103 52.444 54.4703 52.304C54.3397 52.164 54.1717 52.094 53.9663 52.094H52.9443C52.7763 52.094 52.627 52.15 52.4963 52.262C52.3657 52.374 52.2863 52.514 52.2583 52.682L52.0343 53.802C52.025 53.83 52.0203 53.8673 52.0203 53.914C52.0203 54.082 52.081 54.2267 52.2023 54.348C52.3237 54.4693 52.4637 54.53 52.6223 54.53H54.6803V52.808ZM57.2637 56C57.2077 56 57.161 55.986 57.1237 55.958C57.0863 55.9207 57.0677 55.8693 57.0677 55.804V54.74C57.0677 54.684 57.091 54.6373 57.1377 54.6C57.175 54.5533 57.217 54.53 57.2637 54.53H58.3137C58.827 54.53 59.1397 54.278 59.2517 53.774L59.7417 51.38L60.9597 51.618L60.5677 53.592C60.5583 53.6293 60.5537 53.69 60.5537 53.774C60.5537 53.998 60.6283 54.18 60.7777 54.32C60.927 54.46 61.123 54.53 61.3657 54.53H62.3177C62.3737 54.53 62.4203 54.5533 62.4577 54.6C62.495 54.6373 62.5137 54.684 62.5137 54.74V55.804C62.5137 55.86 62.495 55.9067 62.4577 55.944C62.4203 55.9813 62.3737 56 62.3177 56H61.3517C61.0157 56 60.7123 55.9253 60.4417 55.776C60.1803 55.6267 59.9843 55.412 59.8537 55.132C59.7043 55.4027 59.4803 55.6173 59.1817 55.776C58.883 55.9253 58.5703 56 58.2437 56H57.2637ZM59.2937 48.538H60.6797V49.924H59.2937V48.538ZM67.8523 55.44C67.6283 55.636 67.4323 55.7807 67.2643 55.874C67.0963 55.958 66.8443 56 66.5083 56H62.3223C62.2663 56 62.2196 55.9813 62.1823 55.944C62.1449 55.9067 62.1263 55.8647 62.1263 55.818V54.712C62.1263 54.656 62.1449 54.614 62.1823 54.586C62.2196 54.5487 62.2663 54.53 62.3223 54.53H63.7223C63.5449 54.4087 63.4563 54.1847 63.4563 53.858C63.4563 53.7367 63.4703 53.606 63.4983 53.466L63.6803 52.542C63.7736 52.0753 64.0023 51.6927 64.3663 51.394C64.7303 51.086 65.1456 50.9367 65.6123 50.946L66.1723 50.96C66.5549 50.96 66.9003 51.0533 67.2083 51.24C67.5256 51.4267 67.7729 51.6787 67.9503 51.996C68.1369 52.304 68.2303 52.6447 68.2303 53.018V54.53H70.3303V52.822C70.3303 52.57 70.2603 52.3553 70.1203 52.178C69.9896 51.9913 69.8076 51.8607 69.5743 51.786L64.7863 50.288L65.1643 49.042L69.7983 50.47C70.3209 50.638 70.7456 50.9367 71.0723 51.366C71.4083 51.786 71.5763 52.2807 71.5763 52.85V54.46C71.5763 54.9173 71.4316 55.2907 71.1423 55.58C70.8529 55.86 70.4796 56 70.0223 56H67.8523V55.44ZM67.0263 52.836C67.0263 52.64 66.9609 52.4767 66.8303 52.346C66.6996 52.2153 66.5316 52.15 66.3263 52.15H65.5563C65.1923 52.15 64.9683 52.3413 64.8843 52.724L64.6743 53.9C64.6649 53.9373 64.6603 53.984 64.6603 54.04C64.6603 54.2173 64.7163 54.3573 64.8283 54.46C64.9496 54.5533 65.0989 54.6 65.2763 54.6H67.0263V52.836ZM73.2538 46.592H74.5138V56H73.2538V46.592ZM74.5471 58.296L75.5971 57.75C75.9424 57.5727 76.2038 57.3487 76.3811 57.078C76.5584 56.8073 76.6471 56.4013 76.6471 55.86V51.352H77.8931V55.776C77.8931 56.56 77.7531 57.1807 77.4731 57.638C77.1931 58.1047 76.7638 58.4967 76.1851 58.814L75.1211 59.416L74.5471 58.296Z" fill="black"/>
</svg>
