<svg width="44" height="44" viewBox="0 0 44 44" fill="none" xmlns="http://www.w3.org/2000/svg">
<path d="M10.6332 20.7168L3.6665 40.3335L23.2832 33.3851" stroke="white" stroke-width="2" stroke-linecap="round" stroke-linejoin="round"/>
<path d="M7.3335 5.5H7.35266" stroke="white" stroke-width="2" stroke-linecap="round" stroke-linejoin="round"/>
<path d="M40.3335 14.666H40.3527" stroke="white" stroke-width="2" stroke-linecap="round" stroke-linejoin="round"/>
<path d="M27.5 3.66602H27.5192" stroke="white" stroke-width="2" stroke-linecap="round" stroke-linejoin="round"/>
<path d="M40.3335 36.666H40.3527" stroke="white" stroke-width="2" stroke-linecap="round" stroke-linejoin="round"/>
<path d="M40.3332 3.66602L36.2265 5.04102C35.0575 5.43039 34.0601 6.21369 33.4047 7.25701C32.7493 8.30033 32.4766 9.5389 32.6332 10.761C32.8165 12.3377 31.5882 13.7493 29.9748 13.7493H29.2782C27.7015 13.7493 26.3448 14.8493 26.0515 16.3893L25.6665 18.3327" stroke="white" stroke-width="2" stroke-linecap="round" stroke-linejoin="round"/>
<path d="M40.3332 23.834L38.8298 23.229C37.2532 22.6057 35.4932 23.5957 35.1998 25.264C34.9982 26.5474 33.8798 27.5007 32.5782 27.5007H31.1665" stroke="white" stroke-width="2" stroke-linecap="round" stroke-linejoin="round"/>
<path d="M20.1667 3.66602L20.7717 5.16935C21.395 6.74602 20.405 8.50602 18.7367 8.79935C17.4533 8.98268 16.5 10.1193 16.5 11.421V12.8327" stroke="white" stroke-width="2" stroke-linecap="round" stroke-linejoin="round"/>
<path d="M20.1665 23.833C23.7048 27.3713 25.3548 31.478 23.8331 32.9996C22.3115 34.5213 18.2048 32.8713 14.6665 29.333C11.1281 25.7946 9.47812 21.688 10.9998 20.1663C12.5215 18.6446 16.6281 20.2946 20.1665 23.833Z" stroke="white" stroke-width="2" stroke-linecap="round" stroke-linejoin="round"/>
</svg>
