<svg width="40" height="40" viewBox="0 0 40 40" fill="none" xmlns="http://www.w3.org/2000/svg">
<path d="M19.9833 37.467C15.85 37.467 11.7333 37.4836 7.6 37.467C4.33333 37.4503 2.21667 35.417 2.2 32.1503C2.15 24.067 2.26666 15.967 2.13333 7.88363C2.08333 5.26696 4.95 2.46696 7.41667 2.50029C15.75 2.63363 24.1 2.53363 32.4333 2.56696C35.6333 2.56696 37.85 4.78363 37.85 7.96696C37.8833 16.0503 37.85 24.1336 37.8833 32.2336C37.8833 33.1836 37.7167 34.0836 37.2 34.8836C36.1167 36.517 34.75 37.5503 32.6333 37.5003C28.4167 37.417 24.2167 37.4836 20 37.4836L19.9833 37.467ZM19.9 34.2503C23.85 34.2503 27.8 34.267 31.7667 34.2503C33.5833 34.2503 34.35 33.467 34.4667 31.6836C34.4833 31.3503 34.4667 31.017 34.4667 30.667C34.4667 23.6003 34.4667 16.5336 34.4667 9.46696C34.4667 8.88363 34.4667 8.28363 34.4 7.70029C34.25 6.65029 33.65 6.05029 32.5833 5.91696C31.9167 5.83363 31.2333 5.85029 30.5667 5.83363C23.4167 5.83363 16.2667 5.83363 9.11666 5.83363C8.61666 5.83363 8.1 5.81696 7.6 5.85029C6.16667 5.96696 5.71666 6.43363 5.61666 7.91696C5.58333 8.41696 5.61666 8.93363 5.61666 9.43363C5.61666 14.4003 5.61666 19.3503 5.6 24.317C5.6 26.7503 5.58333 29.2003 5.61666 31.6336C5.65 33.3336 6.4 34.1003 8.03333 34.2336C8.45 34.267 8.86667 34.2336 9.3 34.2336C12.8333 34.2336 16.3667 34.2336 19.9 34.2336V34.2503Z" fill="black"/>
<path d="M20.0167 29.3334C15 29.2834 10.8333 25.1667 10.9 20.1501C10.9833 14.3667 15.6833 10.8334 20.25 10.9501C25.3 11.0667 29.3667 15.0834 29.3667 20.1334C29.3667 25.2501 25.1833 29.3834 20.0167 29.3334ZM20.1167 14.0001C16.9667 13.8667 14.0333 16.3667 13.9167 19.9667C13.8 23.3834 16.7 26.2667 20.1333 26.2167C23.4667 26.1834 26.2667 23.3834 26.2167 20.0667C26.15 16.4001 23.2 13.8834 20.1167 13.9834V14.0001Z" fill="black"/>
<path d="M31.7167 10.3677C31.6667 11.4677 30.6667 12.4177 29.5833 12.401C28.5167 12.401 27.5 11.3843 27.4667 10.3177C27.45 9.151 28.5833 8.06767 29.7333 8.151C30.8167 8.23433 31.75 9.26767 31.7167 10.351V10.3677Z" fill="black"/>
</svg>
