<svg width="116" height="78" viewBox="0 0 116 78" fill="none" xmlns="http://www.w3.org/2000/svg">
<g clip-path="url(#clip0_872_10557)">
<path d="M67.1843 34.2068C67.8923 34.121 68.3235 34.4299 68.7229 34.8295C69.6662 35.7711 70.6267 36.6955 71.5602 37.6442C71.6917 37.7637 71.7983 37.908 71.8736 38.0688C71.9491 38.2298 71.9915 38.4042 71.999 38.5816C72.0062 38.7593 71.9782 38.9365 71.9163 39.1029C71.8543 39.2696 71.7601 39.4221 71.6386 39.5519C71.3884 39.8198 71.0439 39.9796 70.6778 39.9973C70.312 40.0152 69.9534 39.8898 69.6785 39.6475C69.3624 39.3875 69.0709 39.0934 68.7793 38.8042C68.1496 38.1862 67.5395 37.5511 66.9025 36.9432C66.4541 36.5165 66.0572 36.0775 66.0989 35.3224C64.6288 36.2785 63.1171 36.5632 61.5 36.0752C60.3608 35.7362 59.3804 35.0003 58.7363 34.0008C58.0744 32.9926 57.7782 31.7876 57.8973 30.5872C58.0164 29.3868 58.5434 28.2636 59.3905 27.4052C60.2283 26.5642 61.3317 26.04 62.5125 25.9219C63.6934 25.8039 64.8786 26.0993 65.8661 26.7579C66.4541 27.136 66.956 27.6337 67.3389 28.2188C67.7218 28.804 67.9772 29.4633 68.0883 30.1538C68.2163 30.8555 68.2022 31.5758 68.0469 32.272C67.8916 32.9682 67.5983 33.6261 67.1843 34.2068ZM67.0985 31.1468C67.1175 30.6064 67.0281 30.0677 66.8357 29.5625C66.6432 29.0573 66.3516 28.5958 65.9779 28.2052C65.6043 27.8146 65.1563 27.5029 64.6603 27.2884C64.1643 27.074 63.6304 26.9611 63.0901 26.9565C62.5497 26.952 62.0138 27.0551 61.5135 27.2597C61.0133 27.4645 60.5587 27.7667 60.1763 28.149C59.7939 28.5312 59.4913 28.9857 59.2862 29.486C59.081 29.9864 58.9774 30.5226 58.9813 31.0634C58.9642 33.405 60.7821 35.2831 63.0656 35.2513C63.6014 35.2527 64.1321 35.147 64.6265 34.9403C65.121 34.7337 65.5692 34.4303 65.9448 34.048C66.3205 33.6657 66.6161 33.2121 66.8142 32.7139C67.0123 32.2157 67.1089 31.6829 67.0985 31.1468ZM70.9501 38.5024C70.8754 38.3926 70.7937 38.2878 70.7051 38.1885C69.8181 37.3075 68.9287 36.4306 68.0369 35.5577C67.7135 35.2439 67.466 35.1998 67.2749 35.3886C67.0838 35.5774 67.1304 35.8006 67.4611 36.1242C68.3334 36.9921 69.2072 37.8575 70.0826 38.7206C70.1461 38.795 70.2185 38.8609 70.2984 38.9167C70.3685 38.9526 70.4469 38.9696 70.5258 38.9655C70.6044 38.9614 70.6807 38.9365 70.7469 38.8934C70.813 38.8503 70.8666 38.7906 70.9021 38.7203C70.9378 38.6501 70.9545 38.5714 70.9501 38.4926V38.5024Z" fill="black"/>
<path d="M57.4879 33.5144V34.8998C57.1687 34.9321 56.8865 34.9875 56.6043 34.9875H47.3885C46.8889 35.0223 46.388 34.9421 45.9244 34.7532C45.4608 34.5642 45.0469 34.2716 44.7144 33.8977C44.2428 33.3681 43.9884 32.6805 44.002 31.972C44.002 25.664 44.002 19.3513 44.002 13.0386C43.9872 12.6392 44.0549 12.241 44.2008 11.8688C44.3467 11.4966 44.5678 11.1584 44.8503 10.8751C45.1328 10.5919 45.4706 10.3697 45.8428 10.2223C46.215 10.0749 46.6136 10.0055 47.0138 10.0185C51.708 9.99384 56.4053 9.99384 61.1057 10.0185C61.4783 9.99856 61.851 10.0538 62.2017 10.1809C62.5524 10.308 62.8738 10.5044 63.1467 10.7583C63.4196 11.0122 63.6385 11.3184 63.7902 11.6586C63.9419 11.9988 64.0233 12.3661 64.0296 12.7384C64.0574 16.7237 64.0296 20.7089 64.0296 24.6942C64.0152 24.7935 63.9904 24.891 63.9556 24.9851H62.4937V23.4289C62.4937 20.1071 62.4937 16.7868 62.4937 13.4681C62.4937 12.0042 62.031 11.5839 60.5645 11.5886C56.1972 11.5886 51.8314 11.5886 47.4671 11.5886C46.0792 11.5886 45.5565 12.1058 45.5611 13.5281C45.5611 19.5037 45.5611 25.4823 45.5611 31.464C45.5611 32.9418 46.0654 33.4036 47.5735 33.3944C50.6409 33.3713 53.7128 33.3944 56.7801 33.3944C57.0186 33.4174 57.2552 33.4576 57.4879 33.5144Z" fill="black"/>
<path d="M52.306 15.7539H59.1112C59.1315 16.0933 59.1477 16.3964 59.1719 16.8086C56.9009 16.954 54.6945 16.8369 52.3708 16.8813C52.3506 16.4934 52.3303 16.1701 52.306 15.7539Z" fill="black"/>
<path d="M52.3428 21.0802V20.0174C54.5977 19.9366 56.8324 19.9932 59.1196 19.977V21.0802H52.3428Z" fill="black"/>
<path d="M56.4893 28.7695V29.8121H52.3955C52.3567 29.6798 52.3283 29.5447 52.3104 29.408C52.3104 29.2181 52.3104 29.0322 52.3469 28.7776L56.4893 28.7695Z" fill="black"/>
<path d="M52.3428 25.4312V24.3887H59.1156C59.1156 24.716 59.148 25.0433 59.1642 25.4353L52.3428 25.4312Z" fill="black"/>
<path d="M50.4604 22.8496L51.1607 23.6012L48.7723 25.957L47.5578 24.4134L48.1447 23.7669L48.9058 24.3003L50.4604 22.8496Z" fill="black"/>
<path d="M49.1362 15.8104L50.4155 14.1133L51.0875 14.8972L48.7274 17.2086L47.5493 15.8064L48.1565 15.1477L49.1362 15.8104Z" fill="black"/>
<path d="M47.5493 20.0531L48.1444 19.4308L48.9298 19.9198L50.4317 18.5176L51.1118 19.3257L48.7678 21.5725L47.5493 20.0531Z" fill="black"/>
<path d="M47.3716 28.8747L48.1205 28.1191L48.9302 28.6605C49.4322 28.1878 49.9139 27.7271 50.4321 27.2422C50.7033 27.4927 50.93 27.7109 51.262 28.0221L48.8937 30.39C48.3756 29.8728 47.9059 29.4041 47.3716 28.8747Z" fill="black"/>
</g>
<path d="M19.502 62C19.53 62.0747 19.5533 62.1587 19.572 62.252C19.6 62.3453 19.614 62.4573 19.614 62.588V63.05C19.614 63.4793 19.488 63.862 19.236 64.198C18.984 64.5433 18.6527 64.8093 18.242 64.996C17.8313 65.192 17.3927 65.29 16.926 65.29H14.392C13.8507 65.29 13.3513 65.1547 12.894 64.884C12.4367 64.6227 12.0727 64.2633 11.802 63.806C11.5407 63.3487 11.41 62.8493 11.41 62.308V58.794H12.656V62.126C12.656 62.5927 12.8193 62.9893 13.146 63.316C13.4727 63.6427 13.8693 63.806 14.336 63.806H17.262C17.598 63.806 17.864 63.6987 18.06 63.484C18.2653 63.2693 18.368 62.994 18.368 62.658V62H15.554V60.53H20.86C20.916 60.53 20.9627 60.5487 21 60.586C21.0373 60.614 21.056 60.656 21.056 60.712V61.79C21.056 61.846 21.0327 61.8973 20.986 61.944C20.9487 61.9813 20.9067 62 20.86 62H19.502ZM20.8633 62C20.7326 62 20.6673 61.9347 20.6673 61.804V60.726C20.6673 60.5953 20.7326 60.53 20.8633 60.53H21.7733C22.0066 60.53 22.2026 60.446 22.3613 60.278C22.5293 60.11 22.6133 59.914 22.6133 59.69V52.592H23.8733V59.676C23.8733 59.9093 23.9573 60.11 24.1253 60.278C24.2933 60.446 24.4939 60.53 24.7273 60.53H25.5673C25.6979 60.53 25.7633 60.5953 25.7633 60.726V61.804C25.7633 61.86 25.7446 61.9067 25.7073 61.944C25.6699 61.9813 25.6233 62 25.5673 62H24.9373C24.2373 62 23.6773 61.7107 23.2573 61.132C22.8186 61.7107 22.2493 62 21.5493 62H20.8633ZM25.5664 62C25.5104 62 25.4637 61.9813 25.4264 61.944C25.3891 61.8973 25.3704 61.846 25.3704 61.79V60.74C25.3704 60.684 25.3891 60.6373 25.4264 60.6C25.4637 60.5533 25.5104 60.53 25.5664 60.53H27.0504C27.3491 60.53 27.7877 60.4833 28.3664 60.39L26.8264 59.354V57.492C26.8264 57.0907 26.9431 56.7733 27.1764 56.54C27.4191 56.2973 27.7364 56.176 28.1284 56.176H30.7744C31.1571 56.176 31.5024 56.2647 31.8104 56.442C32.1184 56.6193 32.3564 56.862 32.5244 57.17C32.6924 57.4687 32.7764 57.8 32.7764 58.164V58.542C32.7764 58.7847 32.7204 59.0133 32.6084 59.228C32.5057 59.4333 32.3564 59.606 32.1604 59.746L31.2224 60.376L31.6284 60.432C32.0017 60.4973 32.3144 60.53 32.5664 60.53H33.8264C33.8824 60.53 33.9291 60.5533 33.9664 60.6C34.0037 60.6373 34.0224 60.684 34.0224 60.74V61.79C34.0224 61.846 34.0037 61.8973 33.9664 61.944C33.9291 61.9813 33.8824 62 33.8264 62H32.3284C31.8991 62 31.4651 61.93 31.0264 61.79C30.5877 61.65 30.1677 61.4633 29.7664 61.23C29.3744 61.454 28.9544 61.6407 28.5064 61.79C28.0677 61.93 27.6337 62 27.2044 62H25.5664ZM31.5864 58.696V58.276C31.5864 58.0707 31.5257 57.9073 31.4044 57.786C31.2831 57.6553 31.1151 57.59 30.9004 57.59H27.9884V58.598L29.8084 59.774L31.5864 58.696ZM28.9264 53.46H30.3124V54.846H28.9264V53.46ZM33.8242 62C33.7682 62 33.7216 61.9813 33.6842 61.944C33.6469 61.9067 33.6282 61.86 33.6282 61.804V60.726C33.6282 60.67 33.6516 60.6233 33.6982 60.586C33.7356 60.5487 33.7776 60.53 33.8242 60.53H34.4262C34.6596 60.53 34.8556 60.446 35.0142 60.278C35.1822 60.1007 35.2662 59.8907 35.2662 59.648V57.352H36.5122V59.662C36.5122 59.8953 36.5962 60.1007 36.7642 60.278C36.9416 60.446 37.1469 60.53 37.3802 60.53H37.6602C37.9216 60.53 38.1269 60.4647 38.2762 60.334C38.4349 60.194 38.5376 60.0073 38.5842 59.774L39.0602 57.38L40.3202 57.618L39.9282 59.592C39.9189 59.6293 39.9142 59.6807 39.9142 59.746C39.9142 59.9607 39.9889 60.1473 40.1382 60.306C40.2969 60.4553 40.4882 60.53 40.7122 60.53H41.8742V56.946H43.1342V60.53C43.1342 60.95 42.9942 61.3 42.7142 61.58C42.4342 61.86 42.0842 62 41.6642 62H40.7122C40.0122 62 39.5129 61.706 39.2142 61.118C39.0276 61.4073 38.7942 61.6267 38.5142 61.776C38.2342 61.9253 37.9309 62 37.6042 62C36.8856 62 36.3209 61.7107 35.9102 61.132C35.4716 61.7107 34.8976 62 34.1882 62H33.8242ZM38.6402 52.62H40.0262V54.006H38.6402V52.62ZM37.5762 54.524H38.9622V55.924H37.5762V54.524ZM39.7042 54.524H41.0902V55.924H39.7042V54.524ZM53.8697 59.956C54.2057 60.0307 54.4717 60.194 54.6677 60.446C54.873 60.6887 54.9757 60.978 54.9757 61.314V61.776C54.9757 62.2613 54.8544 62.7093 54.6117 63.12C54.369 63.54 54.0424 63.8713 53.6317 64.114C53.221 64.3567 52.773 64.478 52.2877 64.478H49.4737C48.9417 64.478 48.447 64.3427 47.9897 64.072C47.5324 63.8013 47.1684 63.4373 46.8977 62.98C46.6364 62.5227 46.5057 62.028 46.5057 61.496V58.29H47.7517V61.314C47.7517 61.7807 47.915 62.1773 48.2417 62.504C48.5777 62.8307 48.979 62.994 49.4457 62.994H52.4557C52.8197 62.994 53.1184 62.8633 53.3517 62.602C53.5944 62.35 53.7157 62.0373 53.7157 61.664V61.202L49.8517 60.278V58.724C49.8517 58.2667 49.9544 57.842 50.1597 57.45C50.365 57.058 50.645 56.736 50.9997 56.484C51.3637 56.232 51.7697 56.078 52.2177 56.022L54.0097 55.784L54.1637 57.058L52.1757 57.324C51.849 57.3707 51.583 57.52 51.3777 57.772C51.1724 58.0147 51.0697 58.2993 51.0697 58.626V59.284L53.8697 59.956ZM59.0696 62C58.6496 62 58.2623 61.8973 57.9076 61.692C57.5529 61.4867 57.2729 61.2113 57.0676 60.866C56.8623 60.5113 56.7596 60.124 56.7596 59.704V52.592H58.0196V59.676C58.0196 59.9187 58.0989 60.124 58.2576 60.292C58.4163 60.4507 58.6123 60.53 58.8456 60.53H59.5456C59.6016 60.53 59.6483 60.5533 59.6856 60.6C59.7229 60.6373 59.7416 60.684 59.7416 60.74V61.804C59.7416 61.9347 59.6763 62 59.5456 62H59.0696ZM65.071 61.44C64.847 61.636 64.651 61.7807 64.483 61.874C64.315 61.958 64.063 62 63.727 62H59.541C59.485 62 59.4383 61.9813 59.401 61.944C59.3637 61.9067 59.345 61.8647 59.345 61.818V60.712C59.345 60.656 59.3637 60.614 59.401 60.586C59.4383 60.5487 59.485 60.53 59.541 60.53H60.941C60.7637 60.4087 60.675 60.1847 60.675 59.858C60.675 59.7367 60.689 59.606 60.717 59.466L60.899 58.542C60.9923 58.0753 61.221 57.6927 61.585 57.394C61.949 57.086 62.3643 56.9367 62.831 56.946L63.391 56.96C63.7737 56.96 64.119 57.0533 64.427 57.24C64.7443 57.4267 64.9917 57.6787 65.169 57.996C65.3557 58.304 65.449 58.6447 65.449 59.018V60.53H67.549V58.822C67.549 58.57 67.479 58.3553 67.339 58.178C67.2083 57.9913 67.0263 57.8607 66.793 57.786L62.005 56.288L62.383 55.042L67.017 56.47C67.5397 56.638 67.9643 56.9367 68.291 57.366C68.627 57.786 68.795 58.2807 68.795 58.85V60.46C68.795 60.9173 68.6503 61.2907 68.361 61.58C68.0717 61.86 67.6983 62 67.241 62H65.071V61.44ZM64.245 58.836C64.245 58.64 64.1797 58.4767 64.049 58.346C63.9183 58.2153 63.7503 58.15 63.545 58.15H62.775C62.411 58.15 62.187 58.3413 62.103 58.724L61.893 59.9C61.8837 59.9373 61.879 59.984 61.879 60.04C61.879 60.2173 61.935 60.3573 62.047 60.46C62.1683 60.5533 62.3177 60.6 62.495 60.6H64.245V58.836ZM73.4278 59.242C73.4278 59.5967 73.5491 59.9 73.7918 60.152C74.0438 60.404 74.3518 60.53 74.7158 60.53H80.3858C80.6285 60.53 80.8291 60.4507 80.9878 60.292C81.1465 60.124 81.2258 59.9233 81.2258 59.69V57.338H82.4858V59.676C82.4858 59.9093 82.5698 60.11 82.7378 60.278C82.9058 60.446 83.1111 60.53 83.3538 60.53H83.7598C83.8158 60.53 83.8625 60.5487 83.8998 60.586C83.9371 60.614 83.9558 60.6607 83.9558 60.726V61.804C83.9558 61.86 83.9371 61.9067 83.8998 61.944C83.8625 61.9813 83.8158 62 83.7598 62H83.5638C82.8545 62 82.2898 61.7107 81.8698 61.132C81.4498 61.7107 80.8851 62 80.1758 62H74.8418C74.3565 62 73.9085 61.8787 73.4978 61.636C73.0871 61.3933 72.7605 61.0713 72.5178 60.67C72.2845 60.2593 72.1678 59.8113 72.1678 59.326V56.932H73.4278V59.242ZM77.7118 55.518H79.0978V56.918H77.7118V55.518ZM75.5838 55.518H76.9698V56.918H75.5838V55.518ZM83.7539 62C83.6232 62 83.5579 61.9347 83.5579 61.804V60.726C83.5579 60.5953 83.6232 60.53 83.7539 60.53H84.2999C84.5332 60.53 84.7292 60.446 84.8879 60.278C85.0466 60.11 85.1259 59.9093 85.1259 59.676V57.436H86.3859V59.06C86.3859 59.2467 86.4139 59.41 86.4699 59.55C86.5352 59.69 86.6099 59.788 86.6939 59.844L88.7239 57.646C89.0132 57.3473 89.3446 57.114 89.7179 56.946C90.1006 56.778 90.5019 56.694 90.9219 56.694H91.7899C92.1726 56.694 92.5272 56.792 92.8539 56.988C93.1806 57.1747 93.4372 57.4313 93.6239 57.758C93.8199 58.0847 93.9179 58.444 93.9179 58.836V59.816C93.9179 60.1987 93.8152 60.558 93.6099 60.894C93.4046 61.23 93.1292 61.5007 92.7839 61.706C92.4386 61.902 92.0652 62 91.6639 62H88.1219C87.7299 62 87.3052 61.9067 86.8479 61.72C86.3906 61.524 86.0546 61.216 85.8399 60.796C85.7092 61.1787 85.4712 61.4773 85.1259 61.692C84.7899 61.8973 84.4352 62 84.0619 62H83.7539ZM91.8879 60.53C92.1026 60.53 92.2846 60.4507 92.4339 60.292C92.5926 60.1333 92.6719 59.942 92.6719 59.718V58.92C92.6719 58.6867 92.5926 58.4953 92.4339 58.346C92.2752 58.1873 92.0792 58.108 91.8459 58.108H90.7259C90.1846 58.108 89.7366 58.304 89.3819 58.696L87.7299 60.488C87.8699 60.516 88.0099 60.53 88.1499 60.53H91.8879ZM92.7369 64.324L94.5429 63.736C94.9629 63.596 95.2849 63.3767 95.5089 63.078C95.7329 62.7793 95.8449 62.406 95.8449 61.958V57.338H97.1049V59.732C97.1049 59.956 97.1889 60.1473 97.3569 60.306C97.5342 60.4553 97.7349 60.53 97.9589 60.53H98.4909C98.5655 60.53 98.6169 60.544 98.6449 60.572C98.6729 60.6 98.6869 60.6467 98.6869 60.712V61.804C98.6869 61.9347 98.6215 62 98.4909 62H98.1549C97.9495 62 97.7489 61.958 97.5529 61.874C97.3662 61.79 97.2122 61.664 97.0909 61.496V62.056C97.0909 62.7373 96.8902 63.3253 96.4889 63.82C96.0875 64.3147 95.5602 64.674 94.9069 64.898L93.1149 65.5L92.7369 64.324ZM98.4922 62C98.4362 62 98.3895 61.9813 98.3522 61.944C98.3149 61.8973 98.2962 61.846 98.2962 61.79V60.726C98.2962 60.6793 98.3149 60.6373 98.3522 60.6C98.3895 60.5533 98.4362 60.53 98.4922 60.53H102.104C102.366 60.53 102.58 60.4553 102.748 60.306C102.926 60.1567 103.014 59.9373 103.014 59.648V59.382C102.762 59.466 102.464 59.508 102.118 59.508H101.208C100.835 59.508 100.494 59.4193 100.186 59.242C99.8782 59.0553 99.6355 58.808 99.4582 58.5C99.2809 58.192 99.1922 57.856 99.1922 57.492C99.1922 57.324 99.2015 57.198 99.2202 57.114L99.4302 55.966C99.5235 55.49 99.7569 55.098 100.13 54.79C100.504 54.482 100.933 54.328 101.418 54.328H102.16C102.543 54.328 102.893 54.426 103.21 54.622C103.528 54.8087 103.78 55.0653 103.966 55.392C104.153 55.7093 104.246 56.0593 104.246 56.442V59.662C104.246 60.0913 104.139 60.4833 103.924 60.838C103.719 61.1927 103.439 61.4773 103.084 61.692C102.73 61.8973 102.342 62 101.922 62H98.4922ZM103.028 58.08V56.428C103.028 56.232 102.958 56.064 102.818 55.924C102.678 55.784 102.51 55.714 102.314 55.714H101.334C101.157 55.714 101.003 55.77 100.872 55.882C100.742 55.994 100.658 56.1387 100.62 56.316L100.438 57.338C100.429 57.366 100.424 57.4033 100.424 57.45C100.424 57.6273 100.485 57.7767 100.606 57.898C100.728 58.0193 100.872 58.08 101.04 58.08H103.028ZM101.152 51.472H102.538V52.858H101.152V51.472Z" fill="black"/>
<defs>
<clipPath id="clip0_872_10557">
<rect width="28" height="30" fill="white" transform="translate(44 10)"/>
</clipPath>
</defs>
</svg>
