<svg width="40" height="40" viewBox="0 0 40 40" fill="none" xmlns="http://www.w3.org/2000/svg">
<path d="M26.6675 13.332C29.3196 13.332 31.8632 14.3856 33.7385 16.261C35.6139 18.1363 36.6675 20.6799 36.6675 23.332V34.9987H30.0008V23.332C30.0008 22.448 29.6496 21.6001 29.0245 20.975C28.3994 20.3499 27.5515 19.9987 26.6675 19.9987C25.7834 19.9987 24.9356 20.3499 24.3105 20.975C23.6853 21.6001 23.3341 22.448 23.3341 23.332V34.9987H16.6675V23.332C16.6675 20.6799 17.721 18.1363 19.5964 16.261C21.4718 14.3856 24.0153 13.332 26.6675 13.332Z" stroke="black" stroke-width="2" stroke-linecap="round" stroke-linejoin="round"/>
<path d="M10.0004 15H3.33374V35H10.0004V15Z" stroke="black" stroke-width="2" stroke-linecap="round" stroke-linejoin="round"/>
<path d="M6.66585 9.9987C8.5068 9.9987 9.99919 8.50631 9.99919 6.66536C9.99919 4.82442 8.5068 3.33203 6.66585 3.33203C4.8249 3.33203 3.33252 4.82442 3.33252 6.66536C3.33252 8.50631 4.8249 9.9987 6.66585 9.9987Z" fill="black" stroke="black" stroke-width="2" stroke-linecap="round" stroke-linejoin="round"/>
</svg>
