<svg width="71" height="72" viewBox="0 0 71 72" fill="none" xmlns="http://www.w3.org/2000/svg">
<path d="M29.6047 26.2374C29.5841 25.8773 29.615 25.1365 29.6047 24.6838C31.7241 24.3443 32.969 24.6633 34.3167 25.8978C37.1357 25.2291 38.4526 26.3299 38.8847 27.6468C42.0637 24.262 44.9959 26.8135 45.5 27.9246C41.6934 31.2477 40.2736 32.1839 38.9464 32.7395C37.9176 33.2333 36.8682 33.2745 35.7468 33.0379C33.9566 32.6675 29.6047 31.9679 29.6047 31.9679V30.2395C29.6047 30.2395 33.72 31.0728 35.2427 31.3815C37.5781 31.8136 38.3394 31.114 39.5946 30.4144C41.0864 29.3135 41.6213 28.83 43.3292 27.7806C42.2901 26.9267 40.0781 27.9143 38.7509 29.8897L34.1212 29.8691V28.4082L37.4958 28.3773C37.4958 28.3773 37.6604 26.7723 33.8743 27.3896C33.1439 26.9061 32.65 25.939 29.6047 26.2476V26.2374Z" fill="black"/>
<path d="M40.0884 12.5443C40.109 12.7501 40.3147 12.9455 40.5205 12.8941C40.9012 12.8015 41.3127 12.5546 41.6008 12.4105C42.2798 12.0299 42.465 11.8858 42.9794 12.3385C43.535 12.8324 43.895 13.3056 44.2346 13.9538C44.2757 14.0258 44.3786 14.1801 44.2037 14.3962C43.8127 14.8797 43.5864 15.0546 43.2983 15.497C43.1954 15.6513 43.2366 15.8674 43.3909 15.9703C43.6687 16.1555 44.0185 16.2172 44.3169 16.2686C45.0782 16.4024 45.3148 16.4435 45.3765 17.1431C45.3971 17.9662 45.3971 18.2337 45.356 19.2008C45.356 19.3242 45.356 19.4683 44.5638 19.6843C44.0391 19.8283 43.8642 19.8592 43.1954 20.0341C42.9794 20.0958 42.8456 20.3016 42.9794 20.4765C43.1131 20.6514 43.4012 21.2584 43.5555 21.4847C43.9979 22.1432 43.8848 22.349 43.3806 22.9354C43.2057 23.1411 42.8148 23.4395 42.6296 23.635C42.0843 24.2214 41.8477 24.0259 41.1481 23.6041C40.8806 23.4395 40.7263 23.2646 40.4279 23.0691C40.2942 22.9765 39.8106 23.2029 39.7695 23.4601C39.7077 23.7996 39.6974 24.098 39.6563 24.3963C39.574 24.9827 39.3682 25.1885 38.7612 25.2297C38.2159 25.2605 37.6604 25.2605 37.1151 25.2297C36.4464 25.1782 36.4155 25.0342 36.3332 24.314C36.3126 24.17 36.2818 23.6761 36.2612 23.3675C36.2612 23.2337 36.1583 23.1103 36.0348 23.0588C35.9217 23.0177 35.7982 23.0383 35.7056 23.1C35.397 23.3263 35.078 23.5115 34.7077 23.7276C34.3167 23.9539 33.8229 23.9333 33.4525 23.6658C33.0821 23.3984 33.0204 23.316 32.3002 22.6267C32.0739 22.4107 32.0842 22.102 32.3928 21.7008C32.6192 21.4127 32.8249 21.0732 33.0821 20.7028C33.1439 20.6205 33.1644 20.5074 33.1336 20.4045C33.1233 20.353 33.1027 20.2913 33.0924 20.2399C33.0616 20.1061 32.9587 20.0135 32.8249 19.9827C32.5574 19.9312 32.2591 19.8798 31.7549 19.8078H31.7344C30.9422 19.6432 30.6953 19.674 30.685 18.6761C30.685 18.1719 30.6747 17.318 30.7158 16.8242C30.757 16.3612 30.9525 16.1966 31.4154 16.1246C31.7138 16.0731 32.2899 16.0937 32.6706 16.0629C32.8043 16.0526 32.9175 15.9703 32.969 15.8571C32.9792 15.8262 32.9895 15.7954 33.0101 15.7748C33.0616 15.641 33.041 15.497 32.9381 15.3941C32.6294 15.0649 32.506 14.8797 32.2796 14.5711C31.899 14.0464 31.8784 13.82 32.2591 13.3571C32.6912 12.8735 32.9792 12.5752 33.3188 12.2871C33.6788 11.9682 34.3167 11.9064 34.7385 12.1636C35.1089 12.39 35.4176 12.6163 35.7159 12.8221C35.8085 12.8838 35.932 12.9044 36.0451 12.8632C36.1789 12.8118 36.3332 12.7603 36.3744 12.678C36.4567 12.4723 36.5698 12.0607 36.5904 11.8447C36.6213 11.6184 36.6933 11.392 36.755 11.1657C36.7962 11.0113 36.9196 10.9085 37.074 10.8982C37.9587 10.8467 38.6172 10.8262 39.5534 10.8982C39.7283 10.9085 39.8929 11.0937 39.9238 11.2583C40.0164 11.7521 40.0781 12.1431 40.1193 12.5649L40.0884 12.5443ZM32.8661 17.3077C32.7015 17.318 32.5369 17.3283 32.3825 17.3489C32.2076 17.3695 32.0739 17.5238 32.0739 17.6987V18.2645C32.0739 18.4291 32.1871 18.5732 32.3517 18.604C32.6294 18.6658 32.9278 18.7275 33.1953 18.7789C33.5451 18.851 33.8332 19.1082 33.936 19.458C34.0184 19.7255 34.0904 19.993 34.183 20.2707C34.2858 20.6205 34.2447 20.9909 34.0492 21.2996C33.936 21.4847 33.8126 21.6596 33.7097 21.8345C33.6274 21.9683 33.648 22.1432 33.7611 22.2564C33.864 22.3592 33.9566 22.4518 34.0595 22.5444C34.327 22.8016 34.2447 22.7605 34.7694 22.4004C34.9031 22.3078 35.0163 22.2152 35.1089 22.1432C35.4176 21.9169 35.8188 21.8551 36.1789 21.9889C36.5081 22.1123 36.7859 22.2152 37.1254 22.3387C37.362 22.4107 37.362 22.5856 37.4135 23.1103C37.4443 23.4086 37.4546 23.5938 37.4752 23.7996C37.4855 23.9848 37.6398 24.1185 37.825 24.1185H38.0513C38.2159 24.1185 38.3703 23.9951 38.4011 23.8305C38.4423 23.6041 38.4937 23.3058 38.5349 23.0383C38.5966 22.6885 38.5555 22.5547 38.8641 22.4004C39.2036 22.2358 39.6974 22.0094 40.1296 21.7522C40.2942 21.6494 40.3559 21.4333 41.1584 22.1226C42.0329 22.7605 41.8991 22.8016 42.4341 22.2769C42.7016 22.0094 42.5267 22.0094 41.7242 20.7337C41.6625 20.6411 41.6728 20.5177 41.7242 20.4251C41.93 19.993 42.1666 19.6329 42.3518 19.2419C42.393 19.1493 42.5679 19.0362 42.6605 19.0156C42.9691 18.9333 43.9979 18.6658 44.1008 18.6246C44.4506 18.4909 44.3683 17.4826 44.142 17.39C44.0699 17.3592 42.8045 17.1534 42.4856 17.0505C42.393 17.0197 42.3107 16.9476 42.2695 16.8551C42.0946 16.4641 41.93 16.0834 41.7654 15.7131C41.7139 15.5999 41.7242 15.4661 41.7962 15.3633C41.9917 15.0855 42.2386 14.8797 42.4547 14.6637C42.6707 14.4476 42.9279 14.211 42.9382 14.139C42.9794 13.9229 42.6296 13.4805 42.3621 13.4394C42.2181 13.4188 41.7448 13.6863 41.6111 13.748C41.2818 13.9023 40.8394 14.0875 40.4999 14.2521C40.4073 14.2933 40.3045 14.3036 40.2016 14.2521C39.9341 14.139 39.5328 14.0361 39.2756 13.9229C38.9979 13.7995 38.9567 13.5422 38.895 13.2439C38.8435 13.0278 38.8024 12.7809 38.7509 12.5752C38.7201 12.4105 38.5246 12.3385 38.36 12.3385H37.9999C37.8456 12.3385 37.7015 12.4414 37.6604 12.5957C37.6089 12.7706 37.5061 13.7583 37.1563 13.8818C36.9402 13.9641 36.3023 14.2007 36.0966 14.2727C35.7776 14.3859 35.4793 14.1801 35.1809 14.0155C34.9752 13.9023 34.7797 13.7995 34.5739 13.6863C34.4607 13.6246 34.327 13.6246 34.2241 13.6863C34.1212 13.748 34.0286 13.8097 33.9463 13.8818C33.8949 13.9229 33.864 13.9846 33.8229 14.0567C33.7611 14.1698 33.7714 14.2933 33.8229 14.4065C33.9258 14.5814 34.0286 14.746 34.1315 14.9209C34.3167 15.2295 34.3373 15.6205 34.1727 15.9394C34.0595 16.176 33.936 16.4127 33.8229 16.639C33.6377 17.0197 33.257 17.2666 32.8455 17.2974L32.8661 17.3077Z" fill="black"/>
<path d="M25.51 32.8821V31.2257H27.187L27.1973 25.5261H25.6129L25.5717 23.8594H28.9257L29.0286 32.8821H25.51Z" fill="black"/>
<path d="M34.7385 18.0779C34.7282 16.2363 36.1686 14.7754 38.0102 14.7754C39.8312 14.7754 41.3333 16.2775 41.3024 18.0779C41.2818 19.8166 39.8209 21.2878 38.0719 21.329C36.2612 21.3701 34.7488 19.8989 34.7282 18.0779H34.7385ZM39.8209 17.975C39.8003 17.0182 39.0184 16.2363 38.0719 16.2157C37.0842 16.1952 36.2303 17.0594 36.2509 18.047C36.2715 19.0553 37.1151 19.8269 38.1439 19.7755C39.111 19.7343 39.8415 18.9421 39.8209 17.975Z" fill="black"/>
<path d="M14.07 56C13.594 56 13.1507 55.8787 12.74 55.636C12.3293 55.3933 12.0027 55.0713 11.76 54.67C11.5267 54.2593 11.41 53.8113 11.41 53.326V50.932H12.67V53.228C12.67 53.5827 12.796 53.8907 13.048 54.152C13.3 54.404 13.6033 54.53 13.958 54.53H19.614C19.8473 54.53 20.0433 54.4507 20.202 54.292C20.37 54.124 20.454 53.9187 20.454 53.676V50.932H21.714V53.662C21.714 54.082 21.6067 54.474 21.392 54.838C21.1867 55.1927 20.9067 55.4773 20.552 55.692C20.1973 55.8973 19.81 56 19.39 56H14.07ZM16.954 49.518H18.34V50.918H16.954V49.518ZM14.826 49.518H16.212V50.918H14.826V49.518ZM29.2382 53.55C29.2382 53.886 29.3269 54.1333 29.5042 54.292C29.6909 54.4507 29.9336 54.53 30.2322 54.53H30.8202C30.9509 54.53 31.0162 54.5953 31.0162 54.726V55.804C31.0162 55.86 30.9976 55.9067 30.9602 55.944C30.9229 55.9813 30.8762 56 30.8202 56H30.2882C29.7842 56 29.3502 55.8227 28.9862 55.468C28.6316 55.1133 28.4542 54.6187 28.4542 53.984L29.2382 53.55ZM23.1202 55.076L24.6462 54.88L23.9602 47.782L25.2202 47.6L25.7662 53.662C25.7756 53.7553 25.7802 53.872 25.7802 54.012C25.7802 54.18 25.7429 54.4227 25.6682 54.74L27.0542 54.558C27.3342 54.5113 27.5582 54.3947 27.7262 54.208C27.9036 54.012 27.9922 53.7693 27.9922 53.48V46.592H29.2382V53.424C29.2382 54.0587 29.0469 54.6 28.6642 55.048C28.2816 55.4867 27.7822 55.7527 27.1662 55.846L23.2882 56.406L23.1202 55.076ZM30.8164 56C30.7604 56 30.7137 55.986 30.6764 55.958C30.6391 55.9207 30.6204 55.8693 30.6204 55.804V54.74C30.6204 54.684 30.6437 54.6373 30.6904 54.6C30.7277 54.5533 30.7697 54.53 30.8164 54.53H31.8664C32.3797 54.53 32.6924 54.278 32.8044 53.774L33.2944 51.38L34.5124 51.618L34.1204 53.592C34.1111 53.6293 34.1064 53.69 34.1064 53.774C34.1064 53.998 34.1811 54.18 34.3304 54.32C34.4797 54.46 34.6757 54.53 34.9184 54.53H35.8704C35.9264 54.53 35.9731 54.5533 36.0104 54.6C36.0477 54.6373 36.0664 54.684 36.0664 54.74V55.804C36.0664 55.86 36.0477 55.9067 36.0104 55.944C35.9731 55.9813 35.9264 56 35.8704 56H34.9044C34.5684 56 34.2651 55.9253 33.9944 55.776C33.7331 55.6267 33.5371 55.412 33.4064 55.132C33.2571 55.4027 33.0331 55.6173 32.7344 55.776C32.4357 55.9253 32.1231 56 31.7964 56H30.8164ZM33.7144 57.68H35.1004V59.08H33.7144V57.68ZM31.5864 57.68H32.9724V59.08H31.5864V57.68ZM38.451 58.24C37.975 58.1093 37.611 57.848 37.359 57.456C37.107 57.0733 36.9763 56.588 36.967 56H35.875C35.819 56 35.7723 55.9813 35.735 55.944C35.6977 55.8973 35.679 55.846 35.679 55.79V54.726C35.679 54.5953 35.7443 54.53 35.875 54.53H36.953V52.962C36.953 52.5793 37.0463 52.2293 37.233 51.912C37.4197 51.5853 37.6717 51.3287 37.989 51.142C38.3157 50.946 38.6703 50.848 39.053 50.848H39.879C40.3643 50.848 40.789 51.002 41.153 51.31C41.5263 51.618 41.7597 52.01 41.853 52.486L42.063 53.578C42.091 53.6993 42.105 53.8207 42.105 53.942C42.105 54.2967 42.0117 54.6327 41.825 54.95C41.6477 55.2673 41.4003 55.524 41.083 55.72C40.775 55.9067 40.439 56 40.075 56H39.109C38.9037 56 38.5957 55.9813 38.185 55.944C38.1943 56.3267 38.255 56.602 38.367 56.77C38.4883 56.9473 38.717 57.0827 39.053 57.176L41.069 57.736L42.245 55.72C42.7303 54.9267 43.4863 54.53 44.513 54.53H44.653C44.7837 54.53 44.849 54.5953 44.849 54.726V55.79C44.849 55.93 44.7837 56 44.653 56H44.275C44.0137 56 43.7897 56.0467 43.603 56.14C43.4257 56.2333 43.2623 56.4013 43.113 56.644L42.539 57.596L41.643 59.108L38.451 58.24ZM40.341 54.53C40.537 54.53 40.6817 54.46 40.775 54.32C40.8777 54.1707 40.9103 53.9933 40.873 53.788L40.663 52.794C40.5977 52.402 40.3597 52.206 39.949 52.206H38.885C38.6983 52.206 38.535 52.276 38.395 52.416C38.2643 52.556 38.199 52.7193 38.199 52.906V54.53H40.341ZM44.6523 56C44.5963 56 44.5497 55.986 44.5123 55.958C44.475 55.9207 44.4563 55.8693 44.4563 55.804V54.726C44.4563 54.67 44.4797 54.6233 44.5263 54.586C44.5637 54.5487 44.6057 54.53 44.6523 54.53H45.1843C45.4177 54.53 45.6137 54.446 45.7723 54.278C45.9403 54.11 46.0243 53.9047 46.0243 53.662V51.352H47.2703V53.662C47.2703 53.9047 47.3543 54.11 47.5223 54.278C47.6997 54.446 47.9003 54.53 48.1243 54.53H48.4323C48.6937 54.53 48.899 54.46 49.0483 54.32C49.1977 54.18 49.2957 53.9933 49.3423 53.76L49.8183 51.38L51.0643 51.604L50.6723 53.592C50.663 53.6293 50.6583 53.69 50.6583 53.774C50.6583 53.9887 50.733 54.1707 50.8823 54.32C51.0317 54.46 51.223 54.53 51.4563 54.53H51.8343C52.077 54.53 52.2777 54.4507 52.4363 54.292C52.6043 54.124 52.6883 53.9187 52.6883 53.676V50.946H53.9483V53.648C53.939 53.9 54.0183 54.11 54.1863 54.278C54.3543 54.446 54.5597 54.53 54.8023 54.53H55.3483C55.4043 54.53 55.451 54.5487 55.4883 54.586C55.5257 54.614 55.5443 54.6607 55.5443 54.726V55.804C55.5443 55.86 55.5257 55.9067 55.4883 55.944C55.451 55.9813 55.4043 56 55.3483 56H55.0123C54.303 56 53.7383 55.706 53.3183 55.118C53.113 55.4073 52.861 55.6267 52.5623 55.776C52.2637 55.9253 51.9417 56 51.5963 56C51.251 56 50.929 55.93 50.6303 55.79C50.3317 55.6407 50.1077 55.4167 49.9583 55.118C49.781 55.4073 49.5523 55.6267 49.2723 55.776C48.9923 55.9253 48.6843 56 48.3483 56C48.0123 56 47.6997 55.93 47.4103 55.79C47.121 55.6407 46.869 55.4167 46.6543 55.118C46.2343 55.706 45.6743 56 44.9743 56H44.6523ZM55.3438 56C55.2877 56 55.2411 55.9813 55.2037 55.944C55.1664 55.9067 55.1477 55.86 55.1477 55.804V54.74C55.1477 54.684 55.1664 54.6373 55.2037 54.6C55.2411 54.5533 55.2877 54.53 55.3438 54.53H57.3458C57.5791 54.53 57.7798 54.446 57.9478 54.278C58.1158 54.11 58.1998 53.9093 58.1998 53.676V50.946H59.4458V53.676C59.4458 54.096 59.3431 54.4833 59.1378 54.838C58.9324 55.1927 58.6524 55.4773 58.2978 55.692C57.9431 55.8973 57.5558 56 57.1358 56H55.3438ZM58.0598 48.076H59.4458V49.476H58.0598V48.076ZM55.9318 48.076H57.3178V49.476H55.9318V48.076Z" fill="black"/>
</svg>
