<svg width="99" height="72" viewBox="0 0 99 72" fill="none" xmlns="http://www.w3.org/2000/svg">
<g clip-path="url(#clip0_63_8223)">
<path d="M49.34 27.3996C47.63 28.6496 43.68 31.4796 43.4 31.6096C42.86 31.8696 42.23 31.5096 42.15 30.9096C42.11 30.6396 42.12 30.3696 42.12 30.0996C42.12 28.8996 42.12 25.8896 42.09 25.5696C41.88 25.5396 40.84 25.5396 40.57 25.5196C39.87 25.4696 39.64 25.1896 39.6 24.4496C39.59 24.1796 39.6 23.9096 39.6 23.6396C39.6 21.8196 39.6 19.9996 39.6 18.1796C39.6 17.9496 39.58 17.6896 39.57 17.4196C39.19 17.3696 38.85 17.3796 38.51 17.3196C38.11 17.2496 37.91 16.9796 37.93 16.5796C37.95 16.1796 38.16 15.8796 38.56 15.8396C38.94 15.7996 40.57 15.8396 41.09 15.8396C41.72 15.1396 42.4 14.3996 43.07 13.6496C43.33 13.3596 43.59 13.0696 43.84 12.7796C44.11 12.4696 44.44 12.3096 44.86 12.3096C45.13 12.3096 45.4 12.3096 45.67 12.3096C48.11 12.3096 50.55 12.3096 52.99 12.3096C53.18 12.3096 53.38 12.3196 53.57 12.3096C54.11 12.2796 54.53 12.4796 54.89 12.8996C55.51 13.6396 56.17 14.3496 56.82 15.0696C57.05 15.3296 57.3 15.5696 57.55 15.8396C58.21 15.8396 59.82 15.8196 60.21 15.8296C61.3 15.8396 61.34 17.2596 60.41 17.2996C60.03 17.3196 59.21 17.3196 59.02 17.3396C59.02 17.5996 59 17.9296 59 18.1496C59 20.0096 59 21.8696 59 23.7296C59 23.9996 59.01 24.2696 59 24.5396C58.95 25.2096 58.74 25.5396 58.07 25.5196C57.62 25.5396 57.08 25.5196 56.56 25.5296C56.52 25.8096 56.53 28.8796 56.52 30.1996C56.52 30.4696 56.52 30.7496 56.47 31.0096C56.37 31.5196 55.91 31.8096 55.42 31.6296C55.1 31.5096 54.8 31.3196 54.52 31.1196C52.86 29.9196 49.51 27.4696 49.34 27.3896V27.3996ZM57.5 17.8196C57.23 17.9496 55.71 19.0096 55.2 19.3596C54.77 19.6596 54.3 19.7796 53.78 19.7796C50.8 19.7696 47.82 19.7696 44.83 19.7796C44.31 19.7796 43.77 19.5796 43.34 19.2796C42.74 18.9396 41.41 18.0596 41.25 17.9996C41.25 19.4596 41.28 23.0796 41.28 23.9196H42.44C42.64 23.6096 42.83 23.3196 43.03 23.0396C43.29 22.6696 43.64 22.4596 44.11 22.4696C44.38 22.4696 44.65 22.4696 44.92 22.4696C47.51 22.4696 50.11 22.4696 52.7 22.4696C53.28 22.4696 53.86 22.4696 54.44 22.4696C54.95 22.4696 55.33 22.6796 55.61 23.0896C55.81 23.3696 56.03 23.6596 56.25 23.9796C56.64 23.9596 57.05 23.9796 57.41 23.9696C57.41 22.8596 57.47 19.0496 57.49 17.8296L57.5 17.8196ZM56.26 16.8196C55.4 15.8596 54.66 15.0196 53.92 14.1896C53.67 13.9096 53.35 13.8096 52.98 13.8096C50.54 13.8096 48.1 13.8096 45.66 13.8096C45.19 13.8096 44.85 13.9996 44.56 14.3396C43.93 14.9196 42.49 16.6096 42.31 16.8596C42.96 17.2796 43.64 17.6796 44.24 18.0196C44.46 18.1496 44.75 18.1996 45.01 18.1996C47.88 18.2096 50.74 18.2096 53.61 18.1996C53.87 18.1996 54.16 18.1496 54.38 18.0296C54.98 17.6896 55.55 17.2896 56.27 16.8196H56.26ZM44.31 24.0396C43.9 24.4196 43.7 24.8996 43.71 25.4696C43.71 26.5496 43.66 29.0596 43.72 29.2496C43.93 29.1296 46.86 27.1096 48.1 26.1896C49.03 25.4996 49.31 25.2196 50.55 26.1496C51.85 27.1296 54.82 29.3596 54.99 29.3996C55 29.1396 55 26.5296 54.94 25.5796C54.96 24.9196 54.74 24.4796 54.29 24.0396C53.28 23.9096 45.32 23.9096 44.31 24.0396Z" fill="black"/>
</g>
<path d="M13.892 58.45C13.3507 58.45 12.8513 58.3147 12.394 58.044C11.946 57.7827 11.5867 57.4233 11.316 56.966C11.0453 56.518 10.91 56.0233 10.91 55.482V51.576H12.17V55.3C12.17 55.7667 12.3287 56.1633 12.646 56.49C12.9727 56.8167 13.3693 56.98 13.836 56.98H16.314C16.6967 56.98 17.0233 56.84 17.294 56.56C17.574 56.28 17.714 55.9487 17.714 55.566V51.352H18.974V53.69C18.974 53.914 19.0533 54.11 19.212 54.278C19.3707 54.446 19.562 54.53 19.786 54.53H20.472C20.6027 54.53 20.668 54.5953 20.668 54.726V55.804C20.668 55.9347 20.6027 56 20.472 56H20.066C19.814 56 19.59 55.9533 19.394 55.86C19.2073 55.7667 19.0627 55.6453 18.96 55.496V56.028C18.96 56.4573 18.834 56.8587 18.582 57.232C18.3393 57.6053 18.0127 57.8993 17.602 58.114C17.2007 58.338 16.7667 58.45 16.3 58.45H13.892ZM14.256 49.938H15.642V51.324H14.256V49.938ZM20.4727 56C20.4167 56 20.37 55.9813 20.3327 55.944C20.2953 55.9067 20.2767 55.86 20.2767 55.804V54.726C20.2767 54.67 20.2953 54.6233 20.3327 54.586C20.3607 54.5487 20.4073 54.53 20.4727 54.53H20.9207C21.154 54.53 21.3547 54.4647 21.5227 54.334C21.6907 54.2033 21.798 54.0167 21.8447 53.774L22.1247 52.332C22.218 51.8653 22.4513 51.478 22.8247 51.17C23.198 50.862 23.6227 50.708 24.0987 50.708H24.8827C25.2653 50.708 25.62 50.8013 25.9467 50.988C26.2733 51.1747 26.53 51.4313 26.7167 51.758C26.9127 52.0847 27.0107 52.4393 27.0107 52.822V54.53C27.0107 54.95 26.8707 55.3 26.5907 55.58C26.3107 55.86 25.9513 56 25.5127 56H23.8607C23.2073 56 22.7173 55.7107 22.3907 55.132C22.0547 55.7107 21.5367 56 20.8367 56H20.4727ZM25.7507 54.53V52.808C25.7507 52.612 25.6807 52.444 25.5407 52.304C25.41 52.164 25.242 52.094 25.0367 52.094H24.0147C23.8467 52.094 23.6973 52.15 23.5667 52.262C23.436 52.374 23.3567 52.514 23.3287 52.682L23.1047 53.802C23.0953 53.83 23.0907 53.8673 23.0907 53.914C23.0907 54.082 23.1513 54.2267 23.2727 54.348C23.394 54.4693 23.534 54.53 23.6927 54.53H25.7507ZM37.7564 53.956C38.0924 54.0307 38.3584 54.194 38.5544 54.446C38.7598 54.6887 38.8624 54.978 38.8624 55.314V55.776C38.8624 56.2613 38.7411 56.7093 38.4984 57.12C38.2558 57.54 37.9291 57.8713 37.5184 58.114C37.1078 58.3567 36.6598 58.478 36.1744 58.478H33.3604C32.8284 58.478 32.3338 58.3427 31.8764 58.072C31.4191 57.8013 31.0551 57.4373 30.7844 56.98C30.5231 56.5227 30.3924 56.028 30.3924 55.496V52.29H31.6384V55.314C31.6384 55.7807 31.8018 56.1773 32.1284 56.504C32.4644 56.8307 32.8658 56.994 33.3324 56.994H36.3424C36.7064 56.994 37.0051 56.8633 37.2384 56.602C37.4811 56.35 37.6024 56.0373 37.6024 55.664V55.202L33.7384 54.278V52.724C33.7384 52.2667 33.8411 51.842 34.0464 51.45C34.2518 51.058 34.5318 50.736 34.8864 50.484C35.2504 50.232 35.6564 50.078 36.1044 50.022L37.8964 49.784L38.0504 51.058L36.0624 51.324C35.7358 51.3707 35.4698 51.52 35.2644 51.772C35.0591 52.0147 34.9564 52.2993 34.9564 52.626V53.284L37.7564 53.956ZM42.9563 56C42.5363 56 42.149 55.8973 41.7943 55.692C41.4397 55.4867 41.1597 55.2113 40.9543 54.866C40.749 54.5113 40.6463 54.124 40.6463 53.704V46.592H41.9063V53.676C41.9063 53.9187 41.9857 54.124 42.1443 54.292C42.303 54.4507 42.499 54.53 42.7323 54.53H43.4323C43.4883 54.53 43.535 54.5533 43.5723 54.6C43.6097 54.6373 43.6283 54.684 43.6283 54.74V55.804C43.6283 55.9347 43.563 56 43.4323 56H42.9563ZM48.9577 55.44C48.7337 55.636 48.5377 55.7807 48.3697 55.874C48.2017 55.958 47.9497 56 47.6137 56H43.4277C43.3717 56 43.3251 55.9813 43.2877 55.944C43.2504 55.9067 43.2317 55.8647 43.2317 55.818V54.712C43.2317 54.656 43.2504 54.614 43.2877 54.586C43.3251 54.5487 43.3717 54.53 43.4277 54.53H44.8277C44.6504 54.4087 44.5617 54.1847 44.5617 53.858C44.5617 53.7367 44.5757 53.606 44.6037 53.466L44.7857 52.542C44.8791 52.0753 45.1077 51.6927 45.4717 51.394C45.8357 51.086 46.2511 50.9367 46.7177 50.946L47.2777 50.96C47.6604 50.96 48.0057 51.0533 48.3137 51.24C48.6311 51.4267 48.8784 51.6787 49.0557 51.996C49.2424 52.304 49.3357 52.6447 49.3357 53.018V54.53H51.4357V52.822C51.4357 52.57 51.3657 52.3553 51.2257 52.178C51.0951 51.9913 50.9131 51.8607 50.6797 51.786L45.8917 50.288L46.2697 49.042L50.9037 50.47C51.4264 50.638 51.8511 50.9367 52.1777 51.366C52.5137 51.786 52.6817 52.2807 52.6817 52.85V54.46C52.6817 54.9173 52.5371 55.2907 52.2477 55.58C51.9584 55.86 51.5851 56 51.1277 56H48.9577V55.44ZM48.1317 52.836C48.1317 52.64 48.0664 52.4767 47.9357 52.346C47.8051 52.2153 47.6371 52.15 47.4317 52.15H46.6617C46.2977 52.15 46.0737 52.3413 45.9897 52.724L45.7797 53.9C45.7704 53.9373 45.7657 53.984 45.7657 54.04C45.7657 54.2173 45.8217 54.3573 45.9337 54.46C46.0551 54.5533 46.2044 54.6 46.3817 54.6H48.1317V52.836ZM58.1672 55.804C57.8592 55.9347 57.5139 56 57.1312 56H56.2912C55.9179 56 55.5772 55.9067 55.2692 55.72C54.9706 55.5333 54.7326 55.286 54.5552 54.978C54.3779 54.67 54.2892 54.334 54.2892 53.97C54.2892 53.8113 54.2986 53.69 54.3172 53.606L54.5412 52.36C54.6252 51.884 54.8539 51.492 55.2272 51.184C55.6099 50.8667 56.0439 50.708 56.5292 50.708H57.3132C57.6959 50.708 58.0506 50.806 58.3772 51.002C58.7039 51.1887 58.9606 51.4453 59.1472 51.772C59.3339 52.0893 59.4272 52.4347 59.4272 52.808V55.832C59.4272 56.5507 59.2266 57.1853 58.8252 57.736C58.4332 58.296 57.9059 58.6927 57.2432 58.926L55.4652 59.514L55.1012 58.338L56.9212 57.736C57.3132 57.596 57.6166 57.372 57.8312 57.064C58.0552 56.7653 58.1672 56.42 58.1672 56.028V55.804ZM58.1812 52.808C58.1812 52.612 58.1112 52.4487 57.9712 52.318C57.8406 52.178 57.6726 52.108 57.4672 52.108H56.3892C56.2212 52.108 56.0812 52.1547 55.9692 52.248C55.8666 52.3413 55.7966 52.4813 55.7592 52.668L55.5492 53.802C55.5399 53.83 55.5352 53.872 55.5352 53.928C55.5352 54.096 55.5912 54.2407 55.7032 54.362C55.8246 54.474 55.9739 54.53 56.1512 54.53H58.1812V52.808ZM59.7815 58.296L60.8315 57.75C61.1768 57.5727 61.4382 57.3487 61.6155 57.078C61.7928 56.8073 61.8815 56.4013 61.8815 55.86V51.352H63.1275V55.776C63.1275 56.56 62.9875 57.1807 62.7075 57.638C62.4275 58.1047 61.9982 58.4967 61.4195 58.814L60.3555 59.416L59.7815 58.296ZM66.6353 56C66.1686 56 65.7719 55.8367 65.4453 55.51C65.1186 55.174 64.9552 54.7727 64.9552 54.306V52.668H66.0193V54.054C66.0193 54.1847 66.0613 54.2967 66.1453 54.39C66.2293 54.4833 66.3413 54.53 66.4813 54.53H68.7213C69.0386 54.53 69.2859 54.432 69.4633 54.236C69.6499 54.04 69.7433 53.802 69.7433 53.522C69.7433 53.2887 69.6919 53.088 69.5893 52.92L67.9653 49.994L69.0293 49.336L70.7233 52.332C70.9473 52.724 71.0593 53.1487 71.0593 53.606C71.0593 54.026 70.9566 54.4227 70.7513 54.796C70.5459 55.16 70.2613 55.454 69.8973 55.678C69.5426 55.8927 69.1413 56 68.6933 56H66.6353ZM78.8525 54.53C78.9085 54.53 78.9552 54.5487 78.9925 54.586C79.0299 54.6233 79.0485 54.67 79.0485 54.726V55.804C79.0485 55.9347 78.9832 56 78.8525 56H77.5785V54.53H78.8525ZM76.5285 55.874C76.3325 55.958 75.9872 56 75.4925 56H74.6525C74.2792 56 73.9385 55.9067 73.6305 55.72C73.3319 55.5333 73.0939 55.286 72.9165 54.978C72.7392 54.67 72.6505 54.334 72.6505 53.97C72.6505 53.8113 72.6599 53.69 72.6785 53.606L72.9025 52.36C72.9865 51.884 73.2152 51.492 73.5885 51.184C73.9712 50.8667 74.4052 50.708 74.8905 50.708H75.6745C76.0572 50.708 76.4119 50.806 76.7385 51.002C77.0652 51.1887 77.3219 51.4453 77.5085 51.772C77.6952 52.0893 77.7885 52.4347 77.7885 52.808V55.832C77.7885 56.5507 77.5879 57.1853 77.1865 57.736C76.7945 58.296 76.2672 58.6927 75.6045 58.926L73.8265 59.514L73.4625 58.338L75.2825 57.736C75.6839 57.596 75.9919 57.372 76.2065 57.064C76.4212 56.7653 76.5285 56.4433 76.5285 56.098V55.874ZM76.5425 52.808C76.5425 52.612 76.4725 52.4487 76.3325 52.318C76.2019 52.178 76.0339 52.108 75.8285 52.108H74.7505C74.5825 52.108 74.4425 52.1547 74.3305 52.248C74.2279 52.3413 74.1579 52.4813 74.1205 52.668L73.9105 53.802C73.9012 53.83 73.8965 53.872 73.8965 53.928C73.8965 54.096 73.9525 54.2407 74.0645 54.362C74.1859 54.474 74.3352 54.53 74.5125 54.53H76.5425V52.808ZM78.8516 56C78.7209 56 78.6556 55.9347 78.6556 55.804V54.726C78.6556 54.6793 78.6789 54.6373 78.7256 54.6C78.7629 54.5533 78.8049 54.53 78.8516 54.53H81.2596C81.7449 54.53 82.1602 54.474 82.5056 54.362C82.8509 54.25 83.1962 54.0213 83.5416 53.676L84.4236 52.822C84.4609 52.7847 84.5262 52.724 84.6196 52.64C84.7129 52.556 84.7829 52.5 84.8296 52.472L81.6376 51.52C81.6096 51.5107 81.5629 51.506 81.4976 51.506C81.3856 51.506 81.2829 51.5433 81.1896 51.618C81.0962 51.6833 81.0356 51.7673 81.0076 51.87L80.5736 53.102L79.4956 52.808L79.8456 51.618C79.9576 51.2167 80.1769 50.8993 80.5036 50.666C80.8396 50.4233 81.2082 50.302 81.6096 50.302C81.8149 50.302 81.9876 50.3253 82.1276 50.372L87.6156 52.024L87.2656 53.186L86.6356 53.004C86.4489 52.9573 86.3182 52.934 86.2436 52.934C86.1316 52.934 86.0242 52.962 85.9216 53.018C85.8282 53.074 85.6976 53.1813 85.5296 53.34L83.9196 54.908C83.5556 55.272 83.1216 55.5473 82.6176 55.734C82.1136 55.9113 81.5862 56 81.0356 56H78.8516ZM80.7696 47.222H82.1556V48.608H80.7696V47.222Z" fill="black"/>
<defs>
<clipPath id="clip0_63_8223">
<rect width="24" height="24" fill="white" transform="translate(37.5 10)"/>
</clipPath>
</defs>
</svg>
