<svg width="99" height="72" viewBox="0 0 99 72" fill="none" xmlns="http://www.w3.org/2000/svg">
<path d="M41.5 32H57.5C58.0304 32 58.5391 31.7893 58.9142 31.4142C59.2893 31.0391 59.5 30.5304 59.5 30V14C59.5 13.4696 59.2893 12.9609 58.9142 12.5858C58.5391 12.2107 58.0304 12 57.5 12H45.5C44.9696 12 44.4609 12.2107 44.0858 12.5858C43.7107 12.9609 43.5 13.4696 43.5 14V30C43.5 30.5304 43.2893 31.0391 42.9142 31.4142C42.5391 31.7893 42.0304 32 41.5 32ZM41.5 32C40.9696 32 40.4609 31.7893 40.0858 31.4142C39.7107 31.0391 39.5 30.5304 39.5 30V21C39.5 19.9 40.4 19 41.5 19H43.5" stroke="black" stroke-width="2" stroke-linecap="round" stroke-linejoin="round"/>
<path d="M55.5 24H47.5" stroke="black" stroke-width="2" stroke-linecap="round" stroke-linejoin="round"/>
<path d="M52.5 28H47.5" stroke="black" stroke-width="2" stroke-linecap="round" stroke-linejoin="round"/>
<path d="M47.5 16H55.5V20H47.5V16Z" stroke="black" stroke-width="2" stroke-linecap="round" stroke-linejoin="round"/>
<path d="M19.502 56C19.53 56.0747 19.5533 56.1587 19.572 56.252C19.6 56.3453 19.614 56.4573 19.614 56.588V57.05C19.614 57.4793 19.488 57.862 19.236 58.198C18.984 58.5433 18.6527 58.8093 18.242 58.996C17.8313 59.192 17.3927 59.29 16.926 59.29H14.392C13.8507 59.29 13.3513 59.1547 12.894 58.884C12.4367 58.6227 12.0727 58.2633 11.802 57.806C11.5407 57.3487 11.41 56.8493 11.41 56.308V52.794H12.656V56.126C12.656 56.5927 12.8193 56.9893 13.146 57.316C13.4727 57.6427 13.8693 57.806 14.336 57.806H17.262C17.598 57.806 17.864 57.6987 18.06 57.484C18.2653 57.2693 18.368 56.994 18.368 56.658V56H15.554V54.53H20.86C20.916 54.53 20.9627 54.5487 21 54.586C21.0373 54.614 21.056 54.656 21.056 54.712V55.79C21.056 55.846 21.0327 55.8973 20.986 55.944C20.9487 55.9813 20.9067 56 20.86 56H19.502ZM20.8633 56C20.8073 56 20.7606 55.9813 20.7233 55.944C20.6859 55.9067 20.6673 55.86 20.6673 55.804V54.74C20.6673 54.684 20.6859 54.6373 20.7233 54.6C20.7606 54.5533 20.8073 54.53 20.8633 54.53H22.8653C23.0986 54.53 23.2993 54.446 23.4673 54.278C23.6353 54.11 23.7193 53.9093 23.7193 53.676V50.946H24.9653V53.676C24.9653 54.096 24.8626 54.4833 24.6573 54.838C24.4519 55.1927 24.1719 55.4773 23.8173 55.692C23.4626 55.8973 23.0753 56 22.6553 56H20.8633ZM23.3273 57.68H24.7133V59.08H23.3273V57.68ZM21.1993 57.68H22.5853V59.08H21.1993V57.68ZM30.4485 55.804C30.1405 55.9347 29.7951 56 29.4125 56H28.5725C28.1991 56 27.8585 55.9067 27.5505 55.72C27.2518 55.5333 27.0138 55.286 26.8365 54.978C26.6591 54.67 26.5705 54.334 26.5705 53.97C26.5705 53.8113 26.5798 53.69 26.5985 53.606L26.8225 52.36C26.9065 51.884 27.1351 51.492 27.5085 51.184C27.8911 50.8667 28.3251 50.708 28.8105 50.708H29.5945C29.9771 50.708 30.3318 50.806 30.6585 51.002C30.9851 51.1887 31.2418 51.4453 31.4285 51.772C31.6151 52.0893 31.7085 52.4347 31.7085 52.808V55.832C31.7085 56.5507 31.5078 57.1853 31.1065 57.736C30.7145 58.296 30.1871 58.6927 29.5245 58.926L27.7465 59.514L27.3825 58.338L29.2025 57.736C29.5945 57.596 29.8978 57.372 30.1125 57.064C30.3365 56.7653 30.4485 56.42 30.4485 56.028V55.804ZM30.4625 52.808C30.4625 52.612 30.3925 52.4487 30.2525 52.318C30.1218 52.178 29.9538 52.108 29.7485 52.108H28.6705C28.5025 52.108 28.3625 52.1547 28.2505 52.248C28.1478 52.3413 28.0778 52.4813 28.0405 52.668L27.8305 53.802C27.8211 53.83 27.8165 53.872 27.8165 53.928C27.8165 54.096 27.8725 54.2407 27.9845 54.362C28.1058 54.474 28.2551 54.53 28.4325 54.53H30.4625V52.808ZM32.0627 58.296L33.1127 57.75C33.4581 57.5727 33.7194 57.3487 33.8967 57.078C34.0741 56.8073 34.1627 56.4013 34.1627 55.86V51.352H35.4087V55.776C35.4087 56.56 35.2687 57.1807 34.9887 57.638C34.7087 58.1047 34.2794 58.4967 33.7007 58.814L32.6367 59.416L32.0627 58.296ZM38.9165 56C38.4498 56 38.0532 55.8367 37.7265 55.51C37.3998 55.174 37.2365 54.7727 37.2365 54.306V52.668H38.3005V54.054C38.3005 54.1847 38.3425 54.2967 38.4265 54.39C38.5105 54.4833 38.6225 54.53 38.7625 54.53H41.0025C41.3198 54.53 41.5672 54.432 41.7445 54.236C41.9312 54.04 42.0245 53.802 42.0245 53.522C42.0245 53.2887 41.9732 53.088 41.8705 52.92L40.2465 49.994L41.3105 49.336L43.0045 52.332C43.2285 52.724 43.3405 53.1487 43.3405 53.606C43.3405 54.026 43.2378 54.4227 43.0325 54.796C42.8272 55.16 42.5425 55.454 42.1785 55.678C41.8238 55.8927 41.4225 56 40.9745 56H38.9165ZM51.1338 54.53C51.1898 54.53 51.2365 54.5487 51.2738 54.586C51.3111 54.6233 51.3298 54.67 51.3298 54.726V55.804C51.3298 55.9347 51.2645 56 51.1338 56H49.8598V54.53H51.1338ZM48.8098 55.874C48.6138 55.958 48.2685 56 47.7738 56H46.9338C46.5605 56 46.2198 55.9067 45.9118 55.72C45.6131 55.5333 45.3751 55.286 45.1978 54.978C45.0205 54.67 44.9318 54.334 44.9318 53.97C44.9318 53.8113 44.9411 53.69 44.9598 53.606L45.1838 52.36C45.2678 51.884 45.4965 51.492 45.8698 51.184C46.2525 50.8667 46.6865 50.708 47.1718 50.708H47.9558C48.3385 50.708 48.6931 50.806 49.0198 51.002C49.3465 51.1887 49.6031 51.4453 49.7898 51.772C49.9765 52.0893 50.0698 52.4347 50.0698 52.808V55.832C50.0698 56.5507 49.8691 57.1853 49.4678 57.736C49.0758 58.296 48.5485 58.6927 47.8858 58.926L46.1078 59.514L45.7438 58.338L47.5638 57.736C47.9651 57.596 48.2731 57.372 48.4878 57.064C48.7025 56.7653 48.8098 56.4433 48.8098 56.098V55.874ZM48.8238 52.808C48.8238 52.612 48.7538 52.4487 48.6138 52.318C48.4831 52.178 48.3151 52.108 48.1098 52.108H47.0318C46.8638 52.108 46.7238 52.1547 46.6118 52.248C46.5091 52.3413 46.4391 52.4813 46.4018 52.668L46.1918 53.802C46.1825 53.83 46.1778 53.872 46.1778 53.928C46.1778 54.096 46.2338 54.2407 46.3458 54.362C46.4671 54.474 46.6165 54.53 46.7938 54.53H48.8238V52.808ZM51.1328 56C51.0021 56 50.9368 55.9347 50.9368 55.804V54.726C50.9368 54.6793 50.9601 54.6373 51.0068 54.6C51.0441 54.5533 51.0861 54.53 51.1328 54.53H53.5408C54.0261 54.53 54.4415 54.474 54.7868 54.362C55.1321 54.25 55.4775 54.0213 55.8228 53.676L56.7048 52.822C56.7421 52.7847 56.8075 52.724 56.9008 52.64C56.9941 52.556 57.0641 52.5 57.1108 52.472L53.9188 51.52C53.8908 51.5107 53.8441 51.506 53.7788 51.506C53.6668 51.506 53.5641 51.5433 53.4708 51.618C53.3775 51.6833 53.3168 51.7673 53.2888 51.87L52.8548 53.102L51.7768 52.808L52.1268 51.618C52.2388 51.2167 52.4581 50.8993 52.7848 50.666C53.1208 50.4233 53.4895 50.302 53.8908 50.302C54.0961 50.302 54.2688 50.3253 54.4088 50.372L59.8968 52.024L59.5468 53.186L58.9168 53.004C58.7301 52.9573 58.5995 52.934 58.5248 52.934C58.4128 52.934 58.3055 52.962 58.2028 53.018C58.1095 53.074 57.9788 53.1813 57.8108 53.34L56.2008 54.908C55.8368 55.272 55.4028 55.5473 54.8988 55.734C54.3948 55.9113 53.8675 56 53.3168 56H51.1328ZM53.0508 47.222H54.4368V48.608H53.0508V47.222ZM61.606 58.338L63.412 57.75C63.8227 57.6007 64.14 57.3767 64.364 57.078C64.5973 56.7887 64.714 56.4247 64.714 55.986V51.352H65.974V55.86C65.974 56.588 65.7733 57.218 65.372 57.75C64.9707 58.2913 64.434 58.6787 63.762 58.912L61.984 59.528L61.606 58.338ZM70.0891 56C69.6691 56 69.2818 55.8973 68.9271 55.692C68.5725 55.4867 68.2925 55.2113 68.0871 54.866C67.8818 54.5113 67.7791 54.124 67.7791 53.704V46.592H69.0391V53.676C69.0391 53.9187 69.1185 54.124 69.2771 54.292C69.4358 54.4507 69.6318 54.53 69.8651 54.53H70.5651C70.6211 54.53 70.6678 54.5533 70.7051 54.6C70.7425 54.6373 70.7611 54.684 70.7611 54.74V55.804C70.7611 55.9347 70.6958 56 70.5651 56H70.0891ZM70.5605 56C70.5045 56 70.4579 55.986 70.4205 55.958C70.3832 55.9207 70.3645 55.8693 70.3645 55.804V54.74C70.3645 54.684 70.3879 54.6373 70.4345 54.6C70.4719 54.5533 70.5139 54.53 70.5605 54.53H71.6105C72.1239 54.53 72.4365 54.278 72.5485 53.774L73.0385 51.38L74.2565 51.618L73.8645 53.592C73.8552 53.6293 73.8505 53.69 73.8505 53.774C73.8505 53.998 73.9252 54.18 74.0745 54.32C74.2239 54.46 74.4199 54.53 74.6625 54.53H75.6145C75.6705 54.53 75.7172 54.5533 75.7545 54.6C75.7919 54.6373 75.8105 54.684 75.8105 54.74V55.804C75.8105 55.86 75.7919 55.9067 75.7545 55.944C75.7172 55.9813 75.6705 56 75.6145 56H74.6485C74.3125 56 74.0092 55.9253 73.7385 55.776C73.4772 55.6267 73.2812 55.412 73.1505 55.132C73.0012 55.4027 72.7772 55.6173 72.4785 55.776C72.1799 55.9253 71.8672 56 71.5405 56H70.5605ZM72.3805 57.68H73.7665L73.7805 59.094H72.3805V57.68ZM75.6191 56C75.4885 56 75.4231 55.9347 75.4231 55.804V54.726C75.4231 54.6793 75.4465 54.6373 75.4931 54.6C75.5305 54.5533 75.5725 54.53 75.6191 54.53H78.0271C78.5125 54.53 78.9278 54.474 79.2731 54.362C79.6185 54.25 79.9638 54.0213 80.3091 53.676L81.1911 52.822C81.2285 52.7847 81.2938 52.724 81.3871 52.64C81.4805 52.556 81.5505 52.5 81.5971 52.472L78.4051 51.52C78.3771 51.5107 78.3305 51.506 78.2651 51.506C78.1531 51.506 78.0505 51.5433 77.9571 51.618C77.8638 51.6833 77.8031 51.7673 77.7751 51.87L77.3411 53.102L76.2631 52.808L76.6131 51.618C76.7251 51.2167 76.9445 50.8993 77.2711 50.666C77.6071 50.4233 77.9758 50.302 78.3771 50.302C78.5825 50.302 78.7551 50.3253 78.8951 50.372L84.3831 52.024L84.0331 53.186L83.4031 53.004C83.2165 52.9573 83.0858 52.934 83.0111 52.934C82.8991 52.934 82.7918 52.962 82.6891 53.018C82.5958 53.074 82.4651 53.1813 82.2971 53.34L80.6871 54.908C80.3231 55.272 79.8891 55.5473 79.3851 55.734C78.8811 55.9113 78.3538 56 77.8031 56H75.6191ZM77.5371 47.222H78.9231V48.608H77.5371V47.222ZM85.867 46.592H87.127V56H85.867V46.592Z" fill="black"/>
</svg>
