<svg width="81" height="32" viewBox="0 0 81 32" fill="none" xmlns="http://www.w3.org/2000/svg">
<path d="M11.3636 21.1C10.8996 21.1 10.4716 20.984 10.0796 20.752C9.69561 20.528 9.38761 20.22 9.15561 19.828C8.92361 19.444 8.80761 19.02 8.80761 18.556V15.208H9.88761V18.4C9.88761 18.8 10.0236 19.14 10.2956 19.42C10.5756 19.7 10.9156 19.84 11.3156 19.84H13.4396C13.7676 19.84 14.0476 19.72 14.2796 19.48C14.5196 19.24 14.6396 18.956 14.6396 18.628V15.016H15.7196V17.02C15.7196 17.212 15.7876 17.38 15.9236 17.524C16.0596 17.668 16.2236 17.74 16.4156 17.74H17.0036C17.1156 17.74 17.1716 17.796 17.1716 17.908V18.832C17.1716 18.944 17.1156 19 17.0036 19H16.6556C16.4396 19 16.2476 18.96 16.0796 18.88C15.9196 18.8 15.7956 18.696 15.7076 18.568V19.024C15.7076 19.392 15.5996 19.736 15.3836 20.056C15.1756 20.376 14.8956 20.628 14.5436 20.812C14.1996 21.004 13.8276 21.1 13.4276 21.1H11.3636ZM11.6756 13.804H12.8636V14.992H11.6756V13.804ZM17.0282 19C16.9802 19 16.9402 18.984 16.9082 18.952C16.8762 18.92 16.8602 18.88 16.8602 18.832V17.908C16.8602 17.852 16.8762 17.812 16.9082 17.788C16.9402 17.756 16.9802 17.74 17.0282 17.74H18.6722C19.0162 17.74 19.3002 17.624 19.5242 17.392C19.7562 17.16 19.8722 16.88 19.8722 16.552C19.8722 16.264 19.7762 15.988 19.5842 15.724L17.6042 13.012V12.208L21.4802 10.24L21.9482 11.188L18.6962 12.844L20.3882 15.136C20.7402 15.608 20.9162 16.116 20.9162 16.66C20.9162 17.068 20.8162 17.452 20.6162 17.812C20.4162 18.172 20.1362 18.46 19.7762 18.676C19.4162 18.892 19.0082 19 18.5522 19H17.0282ZM24.0788 16.456C24.0788 16.096 24.1668 15.764 24.3428 15.46C24.5268 15.148 24.7708 14.904 25.0748 14.728C25.3868 14.544 25.7228 14.452 26.0828 14.452H28.8188C29.1468 14.452 29.4508 14.536 29.7308 14.704C30.0108 14.864 30.2308 15.084 30.3908 15.364C30.5588 15.636 30.6428 15.936 30.6428 16.264V17.74C30.6428 18.108 30.5228 18.412 30.2828 18.652C30.0508 18.884 29.7508 19 29.3828 19H27.9428C27.6308 19 27.3428 18.92 27.0788 18.76C26.8148 18.6 26.6068 18.388 26.4548 18.124C26.3028 17.86 26.2268 17.572 26.2268 17.26C26.2268 17.124 26.2348 17.02 26.2508 16.948L26.4908 15.652H25.8668C25.6748 15.652 25.5028 15.728 25.3508 15.88C25.2068 16.032 25.1348 16.208 25.1348 16.408V22H24.0788V16.456ZM29.5868 17.74V16.252C29.5868 16.084 29.5268 15.944 29.4068 15.832C29.2868 15.712 29.1428 15.652 28.9748 15.652H27.5828L27.3068 17.116C27.2988 17.14 27.2948 17.18 27.2948 17.236C27.2948 17.38 27.3428 17.5 27.4388 17.596C27.5428 17.692 27.6748 17.74 27.8348 17.74H29.5868ZM29.6514 20.992L31.1994 20.488C31.5594 20.368 31.8354 20.18 32.0274 19.924C32.2194 19.668 32.3154 19.348 32.3154 18.964V15.004H33.3954V17.056C33.3954 17.248 33.4674 17.412 33.6114 17.548C33.7634 17.676 33.9354 17.74 34.1274 17.74H34.5834C34.6474 17.74 34.6914 17.752 34.7154 17.776C34.7394 17.8 34.7514 17.84 34.7514 17.896V18.832C34.7514 18.944 34.6954 19 34.5834 19H34.2954C34.1194 19 33.9474 18.964 33.7794 18.892C33.6194 18.82 33.4874 18.712 33.3834 18.568V19.048C33.3834 19.632 33.2114 20.136 32.8674 20.56C32.5234 20.984 32.0714 21.292 31.5114 21.484L29.9754 22L29.6514 20.992ZM34.6085 19C34.5605 19 34.5205 18.988 34.4885 18.964C34.4565 18.932 34.4405 18.888 34.4405 18.832V17.92C34.4405 17.872 34.4605 17.832 34.5005 17.8C34.5325 17.76 34.5685 17.74 34.6085 17.74H35.5085C35.9485 17.74 36.2165 17.524 36.3125 17.092L36.7325 15.04L37.7765 15.244L37.4405 16.936C37.4325 16.968 37.4285 17.02 37.4285 17.092C37.4285 17.284 37.4925 17.44 37.6205 17.56C37.7485 17.68 37.9165 17.74 38.1245 17.74H38.9405C38.9885 17.74 39.0285 17.76 39.0605 17.8C39.0925 17.832 39.1085 17.872 39.1085 17.92V18.832C39.1085 18.88 39.0925 18.92 39.0605 18.952C39.0285 18.984 38.9885 19 38.9405 19H38.1125C37.8245 19 37.5645 18.936 37.3325 18.808C37.1085 18.68 36.9405 18.496 36.8285 18.256C36.7005 18.488 36.5085 18.672 36.2525 18.808C35.9965 18.936 35.7285 19 35.4485 19H34.6085ZM36.1685 20.44H37.3565L37.3685 21.652H36.1685V20.44ZM38.9685 19C38.8565 19 38.8005 18.944 38.8005 18.832V17.908C38.8005 17.868 38.8205 17.832 38.8605 17.8C38.8925 17.76 38.9285 17.74 38.9685 17.74H41.0325C41.4485 17.74 41.8045 17.692 42.1005 17.596C42.3965 17.5 42.6925 17.304 42.9885 17.008L43.7445 16.276C43.7765 16.244 43.8325 16.192 43.9125 16.12C43.9925 16.048 44.0525 16 44.0925 15.976L41.3565 15.16C41.3325 15.152 41.2925 15.148 41.2365 15.148C41.1405 15.148 41.0525 15.18 40.9725 15.244C40.8925 15.3 40.8405 15.372 40.8165 15.46L40.4445 16.516L39.5205 16.264L39.8205 15.244C39.9165 14.9 40.1045 14.628 40.3845 14.428C40.6725 14.22 40.9885 14.116 41.3325 14.116C41.5085 14.116 41.6565 14.136 41.7765 14.176L46.4805 15.592L46.1805 16.588L45.6405 16.432C45.4805 16.392 45.3685 16.372 45.3045 16.372C45.2085 16.372 45.1165 16.396 45.0285 16.444C44.9485 16.492 44.8365 16.584 44.6925 16.72L43.3125 18.064C43.0005 18.376 42.6285 18.612 42.1965 18.772C41.7645 18.924 41.3125 19 40.8405 19H38.9685ZM40.6125 11.476H41.8005V12.664H40.6125V11.476Z" fill="white"/>
<g clip-path="url(#clip0_4151_14967)">
<path d="M62.7012 22.75C62.8328 22.978 63.0222 23.1674 63.2502 23.299C63.4782 23.4306 63.7369 23.4999 64.0002 23.4999C64.2635 23.4999 64.5221 23.4306 64.7501 23.299C64.9782 23.1674 65.1675 22.978 65.2992 22.75" stroke="white" stroke-width="2" stroke-linecap="round" stroke-linejoin="round"/>
<path d="M71.5 13C71.5 11.275 70.9 9.775 70 8.5" stroke="white" stroke-width="2" stroke-linecap="round" stroke-linejoin="round"/>
<path d="M57.4464 18.4945C57.3485 18.6019 57.2838 18.7354 57.2603 18.8789C57.2369 19.0223 57.2556 19.1695 57.3142 19.3025C57.3729 19.4356 57.4689 19.5487 57.5906 19.6281C57.7124 19.7075 57.8546 19.7499 57.9999 19.75H69.9999C70.1453 19.7501 70.2875 19.7079 70.4093 19.6286C70.5312 19.5493 70.6273 19.4363 70.6861 19.3034C70.7449 19.1705 70.7638 19.0233 70.7405 18.8798C70.7172 18.7364 70.6528 18.6028 70.5549 18.4952C69.5574 17.467 68.4999 16.3743 68.4999 13C68.4999 11.8065 68.0258 10.6619 67.1819 9.81802C66.338 8.97411 65.1934 8.5 63.9999 8.5C62.8065 8.5 61.6619 8.97411 60.818 9.81802C59.974 10.6619 59.4999 11.8065 59.4999 13C59.4999 16.3743 58.4417 17.467 57.4464 18.4945Z" stroke="white" stroke-width="2" stroke-linecap="round" stroke-linejoin="round"/>
<path d="M58 8.5C57.1 9.775 56.5 11.275 56.5 13" stroke="white" stroke-width="2" stroke-linecap="round" stroke-linejoin="round"/>
</g>
<defs>
<clipPath id="clip0_4151_14967">
<rect width="18" height="18" fill="white" transform="translate(55 7)"/>
</clipPath>
</defs>
</svg>
