<svg width="61" height="72" viewBox="0 0 61 72" fill="none" xmlns="http://www.w3.org/2000/svg">
<path d="M35.1322 21.4514H23.7002V22.4674H35.1322V21.4514Z" fill="black"/>
<path d="M30.9002 19.0884H23.7002V20.1044H30.9002V19.0884Z" fill="black"/>
<path d="M23.4031 27.4233C23.0351 27.384 22.7071 27.3761 22.3951 27.3209C21.2591 27.124 20.5231 26.3049 20.5151 25.155C20.4991 22.5323 20.4911 19.9174 20.5151 17.2947C20.5231 16.0581 21.3951 15.176 22.6431 15.1681C26.8351 15.1445 31.0271 15.1445 35.2191 15.1681C36.5471 15.1681 37.3711 16.0266 37.3791 17.3655C37.4031 19.9489 37.3551 22.5323 37.4031 25.1156C37.4031 26.6594 36.5151 27.3603 35.1311 27.3603C33.6031 27.3603 31.4271 27.3918 29.8991 27.3918C29.3071 27.3918 28.8351 27.4785 28.4991 27.8093C27.5151 28.7386 25.5231 30.6132 25.3231 30.7628C24.6671 31.2511 23.5231 30.9912 23.4911 29.9279C23.4751 29.3924 23.4511 28.1164 23.4031 27.4391V27.4233ZM24.9951 29.0301C25.2431 28.7938 26.9951 27.2422 27.7551 26.494C28.1631 26.0765 28.6111 25.919 29.2031 25.9269C31.0991 25.9269 32.8831 25.9269 34.7071 25.9269C35.8991 25.9269 36.0351 25.7536 36.0351 24.5486C36.0351 22.3275 36.0431 20.1064 36.0351 17.8854C36.0351 16.7355 35.8111 16.5149 34.6191 16.5149C30.8671 16.5149 27.1231 16.5149 23.3711 16.5149C23.1551 16.5149 22.9311 16.5149 22.7151 16.5386C22.2271 16.6016 21.9391 16.9009 21.8911 17.3971C21.8751 17.5703 21.8911 17.7515 21.8911 17.9326C21.8911 19.0038 21.8831 20.0828 21.8751 21.154C21.8751 22.3748 21.8511 23.5877 21.8751 24.8085C21.8991 25.6827 22.2111 25.9269 22.7711 25.9269C22.9551 25.9269 23.5071 25.9269 23.6831 25.9269C24.3471 25.9269 24.7791 26.2656 24.8431 26.7539C24.9471 27.6517 24.9151 28.2031 24.9791 29.0222L24.9951 29.0301Z" fill="black"/>
<path d="M38.9 24.6018C39.3243 24.6018 39.7313 24.4358 40.0314 24.1404C40.3314 23.845 40.5 23.4443 40.5 23.0266V13.5752C40.5 13.1574 40.3314 12.7568 40.0314 12.4614C39.7313 12.166 39.3243 12 38.9 12H26.1C25.6757 12 25.2687 12.166 24.9686 12.4614C24.6686 12.7568 24.5 13.1574 24.5 13.5752" stroke="black" stroke-linecap="round" stroke-linejoin="round"/>
<path d="M13.72 56C13.3 56 12.9127 55.8973 12.558 55.692C12.2033 55.4867 11.9233 55.2113 11.718 54.866C11.5127 54.5113 11.41 54.124 11.41 53.704V46.592H12.67V53.676C12.67 53.9187 12.7493 54.124 12.908 54.292C13.0667 54.4507 13.2627 54.53 13.496 54.53H14.196C14.252 54.53 14.2987 54.5533 14.336 54.6C14.3733 54.6373 14.392 54.684 14.392 54.74V55.804C14.392 55.9347 14.3267 56 14.196 56H13.72ZM19.7214 55.44C19.4974 55.636 19.3014 55.7807 19.1334 55.874C18.9654 55.958 18.7134 56 18.3774 56H14.1914C14.1354 56 14.0887 55.9813 14.0514 55.944C14.0141 55.9067 13.9954 55.8647 13.9954 55.818V54.712C13.9954 54.656 14.0141 54.614 14.0514 54.586C14.0887 54.5487 14.1354 54.53 14.1914 54.53H15.5914C15.4141 54.4087 15.3254 54.1847 15.3254 53.858C15.3254 53.7367 15.3394 53.606 15.3674 53.466L15.5494 52.542C15.6427 52.0753 15.8714 51.6927 16.2354 51.394C16.5994 51.086 17.0147 50.9367 17.4814 50.946L18.0414 50.96C18.4241 50.96 18.7694 51.0533 19.0774 51.24C19.3947 51.4267 19.6421 51.6787 19.8194 51.996C20.0061 52.304 20.0994 52.6447 20.0994 53.018V54.53H22.1994V52.822C22.1994 52.57 22.1294 52.3553 21.9894 52.178C21.8587 51.9913 21.6767 51.8607 21.4434 51.786L16.6554 50.288L17.0334 49.042L21.6674 50.47C22.1901 50.638 22.6147 50.9367 22.9414 51.366C23.2774 51.786 23.4454 52.2807 23.4454 52.85V54.46C23.4454 54.9173 23.3007 55.2907 23.0114 55.58C22.7221 55.86 22.3487 56 21.8914 56H19.7214V55.44ZM18.8954 52.836C18.8954 52.64 18.8301 52.4767 18.6994 52.346C18.5687 52.2153 18.4007 52.15 18.1954 52.15H17.4254C17.0614 52.15 16.8374 52.3413 16.7534 52.724L16.5434 53.9C16.5341 53.9373 16.5294 53.984 16.5294 54.04C16.5294 54.2173 16.5854 54.3573 16.6974 54.46C16.8187 54.5533 16.9681 54.6 17.1454 54.6H18.8954V52.836ZM26.8182 53.032C26.8182 52.612 26.9209 52.2247 27.1262 51.87C27.3409 51.506 27.6255 51.2213 27.9802 51.016C28.3442 50.8013 28.7362 50.694 29.1562 50.694H32.3482C32.7309 50.694 33.0855 50.792 33.4122 50.988C33.7389 51.1747 33.9955 51.4313 34.1822 51.758C34.3782 52.0753 34.4762 52.4253 34.4762 52.808V54.53C34.4762 54.9593 34.3362 55.314 34.0562 55.594C33.7855 55.8647 33.4355 56 33.0062 56H31.3262C30.9622 56 30.6262 55.9067 30.3182 55.72C30.0102 55.5333 29.7675 55.286 29.5902 54.978C29.4129 54.67 29.3242 54.334 29.3242 53.97C29.3242 53.8113 29.3335 53.69 29.3522 53.606L29.6322 52.094H28.9042C28.6802 52.094 28.4795 52.1827 28.3022 52.36C28.1342 52.5373 28.0502 52.7427 28.0502 52.976V59.5H26.8182V53.032ZM33.2442 54.53V52.794C33.2442 52.598 33.1742 52.4347 33.0342 52.304C32.8942 52.164 32.7262 52.094 32.5302 52.094H30.9062L30.5842 53.802C30.5749 53.83 30.5702 53.8767 30.5702 53.942C30.5702 54.11 30.6262 54.25 30.7382 54.362C30.8595 54.474 31.0135 54.53 31.2002 54.53H33.2442ZM38.4661 56C38.0461 56 37.6588 55.8973 37.3041 55.692C36.9494 55.4867 36.6694 55.2113 36.4641 54.866C36.2588 54.5113 36.1561 54.124 36.1561 53.704V46.592H37.4161V53.676C37.4161 53.9187 37.4954 54.124 37.6541 54.292C37.8128 54.4507 38.0088 54.53 38.2421 54.53H38.9421C38.9981 54.53 39.0448 54.5533 39.0821 54.6C39.1194 54.6373 39.1381 54.684 39.1381 54.74V55.804C39.1381 55.9347 39.0728 56 38.9421 56H38.4661ZM38.9375 56C38.8815 56 38.8348 55.986 38.7975 55.958C38.7602 55.9207 38.7415 55.8693 38.7415 55.804V54.74C38.7415 54.684 38.7648 54.6373 38.8115 54.6C38.8488 54.5533 38.8908 54.53 38.9375 54.53H39.9875C40.5008 54.53 40.8135 54.278 40.9255 53.774L41.4155 51.38L42.6335 51.618L42.2415 53.592C42.2322 53.6293 42.2275 53.69 42.2275 53.774C42.2275 53.998 42.3022 54.18 42.4515 54.32C42.6008 54.46 42.7968 54.53 43.0395 54.53H43.9915C44.0475 54.53 44.0942 54.5533 44.1315 54.6C44.1688 54.6373 44.1875 54.684 44.1875 54.74V55.804C44.1875 55.86 44.1688 55.9067 44.1315 55.944C44.0942 55.9813 44.0475 56 43.9915 56H43.0255C42.6895 56 42.3862 55.9253 42.1155 55.776C41.8542 55.6267 41.6582 55.412 41.5275 55.132C41.3782 55.4027 41.1542 55.6173 40.8555 55.776C40.5568 55.9253 40.2442 56 39.9175 56H38.9375ZM41.8355 57.68H43.2215V59.08H41.8355V57.68ZM39.7075 57.68H41.0935V59.08H39.7075V57.68ZM43.9961 56C43.9401 56 43.8934 55.9813 43.8561 55.944C43.8188 55.9067 43.8001 55.86 43.8001 55.804V54.74C43.8001 54.684 43.8188 54.6373 43.8561 54.6C43.8934 54.5533 43.9401 54.53 43.9961 54.53H47.0481C47.2814 54.53 47.4821 54.4507 47.6501 54.292C47.8181 54.124 47.9021 53.9233 47.9021 53.69V50.946H49.1341V53.676C49.1341 54.096 49.0314 54.4833 48.8261 54.838C48.6208 55.1927 48.3408 55.4773 47.9861 55.692C47.6314 55.8973 47.2441 56 46.8241 56H43.9961ZM47.0761 57.68H48.4621V59.08H47.0761V57.68ZM45.9981 59.598H47.3841V60.984H45.9981V59.598ZM44.9481 57.68H46.3341V59.08H44.9481V57.68Z" fill="black"/>
</svg>
