<svg width="105" height="76" viewBox="0 0 105 76" fill="none" xmlns="http://www.w3.org/2000/svg">
<path d="M58.1127 34.1103C55.5327 34.2503 53.4427 31.9303 53.4027 29.5603C53.3727 27.3603 55.1827 24.8403 58.0827 24.8203C60.5427 24.8103 62.7127 26.9803 62.7227 29.4703C62.7327 32.0303 60.4327 34.2503 58.1127 34.1103ZM58.0527 32.6303C59.7927 32.6503 61.2527 31.2103 61.2427 29.4703C61.2427 27.7703 59.7027 26.2703 58.0327 26.3003C56.3427 26.3403 54.9527 27.7303 54.9227 29.4203C54.8927 31.1503 56.3127 32.6003 58.0627 32.6203L58.0527 32.6303Z" fill="black"/>
<path d="M46.4113 13.8901V15.0901H55.6213V13.8901H57.2312V15.0901C57.2312 15.0901 58.1912 15.1401 58.6213 15.1801C59.4613 15.2601 60.7112 15.7301 60.7312 17.1901C60.7312 19.3801 60.7213 21.6801 60.7013 23.8701C60.7013 23.9001 59.0812 23.9001 59.0812 23.9001V20.5101H43.0013C43.0013 20.5101 42.9513 28.0001 42.9813 28.2401C43.0213 28.6101 43.2612 28.8301 43.6112 28.8901C43.9312 28.9401 52.4412 28.9801 52.4412 28.9801V30.6201C52.4412 30.6201 46.5212 30.5601 43.9213 30.5701C43.2013 30.5701 42.5712 30.3601 42.0412 29.8601C41.5113 29.3501 41.2812 28.7501 41.2812 28.0101C41.3012 25.3701 41.2812 18.3901 41.2912 17.5401C41.3212 16.2601 42.2013 15.2701 43.4613 15.1301C43.8613 15.0901 44.6813 15.0901 44.6813 15.0901V13.8901H46.4113ZM55.6213 16.8401H46.4113V17.7901H44.6813V16.8401C44.6813 16.8401 43.0013 16.6701 43.0013 18.6201C43.0013 18.6901 58.8412 18.6501 59.0212 18.6201C59.0312 16.4601 57.2312 16.8401 57.2312 16.8401V17.7901H55.6213V16.8401Z" fill="black"/>
<path d="M58.1917 29.4201C58.1917 28.9401 58.1417 28.9501 58.6517 28.9501C58.6517 28.9501 58.6617 28.9501 58.6717 28.9501C58.9117 28.9501 59.0317 29.0668 59.0317 29.3001C59.0317 29.4001 59.0317 29.5101 59.0317 29.6101C59.0317 29.7501 59.0817 29.7701 59.2117 29.7401C59.7617 29.5801 59.7117 29.6801 59.4617 29.2001C59.4017 29.0901 59.3417 28.9801 59.2717 28.8801C59.1917 28.7701 59.2217 28.6901 59.3317 28.6301C59.5217 28.5101 59.7017 28.3901 59.8817 28.2701C59.9817 28.2101 60.0717 28.2101 60.1217 28.3201C60.2817 28.6601 60.4617 28.9901 60.5717 29.3401C60.7417 29.8801 60.5517 30.2701 60.0217 30.5301C59.7917 30.6501 59.5517 30.7201 59.3017 30.8001C59.0417 30.8801 59.0317 30.8701 59.0317 31.1601C59.0317 31.2801 59.0317 31.3901 59.0317 31.5101C59.0317 31.6401 58.9717 31.7001 58.8417 31.6901C58.6917 31.6901 58.5317 31.6901 58.3817 31.6901C58.2417 31.6901 58.1817 31.6201 58.1817 31.4901C58.1817 31.3701 58.1917 31.2401 58.1817 31.1201C58.1817 31.0701 58.1017 31.0301 58.0517 30.9801C58.0117 31.0301 57.9517 31.0701 57.9517 31.1201C57.9417 31.2401 57.9517 31.3701 57.9517 31.4901C57.9617 31.6401 57.9017 31.6901 57.7617 31.6901C57.6117 31.6901 57.4517 31.6901 57.3017 31.6901C57.1517 31.6901 57.0917 31.6201 57.0917 31.4701C57.0917 31.3601 57.0917 31.2501 57.0917 31.1401C57.1117 30.9601 57.0417 30.8801 56.8617 30.8301C56.5317 30.7401 56.2017 30.6301 55.9417 30.3801C55.5417 29.9801 55.3917 29.5201 55.5817 28.9801C55.6517 28.7701 55.7617 28.5601 55.8617 28.3601C55.9117 28.2501 55.9917 28.2301 56.0917 28.3201C56.2717 28.4801 56.4617 28.6301 56.6417 28.7901C56.7417 28.8701 56.7417 28.9501 56.6817 29.0601C56.6317 29.1601 56.5817 29.2601 56.5417 29.3601C56.4817 29.5101 56.5317 29.6201 56.6717 29.6801C56.7217 29.7001 56.7817 29.7301 56.8317 29.7501C57.0317 29.8101 57.0717 29.7901 57.0717 29.5901C57.0717 29.4601 57.0717 29.3301 57.0717 29.1901C57.0717 29.0201 57.1417 28.9501 57.3117 28.9601C57.4317 28.9601 57.5617 28.9601 57.6817 28.9601C57.8517 28.9601 57.9217 29.0101 57.9217 29.1901C57.9217 29.3601 57.9217 29.5301 57.9217 29.7001C57.9217 29.7901 57.9317 29.8801 58.0617 29.8801C58.1817 29.8801 58.1617 29.7801 58.1617 29.7001C58.1617 29.6101 58.1617 29.5201 58.1617 29.4401L58.1917 29.4201Z" fill="black"/>
<path d="M58.0929 28.2203C58.0329 28.2703 57.9829 28.3203 57.9329 28.3703C57.5829 28.7103 57.6629 28.7003 57.3429 28.3703C57.0729 28.1003 57.0529 28.1403 57.3429 27.8503C57.6329 27.5603 57.6329 27.5603 57.9229 27.8503C58.0829 28.0103 58.0929 28.0903 58.2829 27.8503C58.3129 27.8203 58.3429 27.7903 58.3829 27.7603C58.5629 27.5903 58.6029 27.5903 58.7729 27.7603C58.8529 27.8403 58.9229 27.9203 59.0029 27.9903C59.0929 28.0703 59.1029 28.1503 59.0229 28.2303C58.9129 28.3403 58.7929 28.4603 58.6829 28.5703C58.6129 28.6403 58.5429 28.6303 58.4729 28.5603C58.3929 28.4703 58.3029 28.3803 58.2129 28.3003C58.1829 28.2703 58.1429 28.2503 58.1029 28.2203H58.0929Z" fill="black"/>
<path d="M45.9798 22.2902C45.9798 21.8373 45.6127 21.4702 45.1598 21.4702C44.707 21.4702 44.3398 21.8373 44.3398 22.2902C44.3398 22.7431 44.707 23.1102 45.1598 23.1102C45.6127 23.1102 45.9798 22.7431 45.9798 22.2902Z" fill="black"/>
<path d="M48.3314 22.2902C48.3314 21.8373 47.9643 21.4702 47.5114 21.4702C47.0585 21.4702 46.6914 21.8373 46.6914 22.2902C46.6914 22.7431 47.0585 23.1102 47.5114 23.1102C47.9643 23.1102 48.3314 22.7431 48.3314 22.2902Z" fill="black"/>
<path d="M50.6713 22.2902C50.6713 21.8373 50.3041 21.4702 49.8512 21.4702C49.3984 21.4702 49.0312 21.8373 49.0312 22.2902C49.0312 22.7431 49.3984 23.1102 49.8512 23.1102C50.3041 23.1102 50.6713 22.7431 50.6713 22.2902Z" fill="black"/>
<path d="M53.0111 22.2902C53.0111 21.8373 52.644 21.4702 52.1911 21.4702C51.7382 21.4702 51.3711 21.8373 51.3711 22.2902C51.3711 22.7431 51.7382 23.1102 52.1911 23.1102C52.644 23.1102 53.0111 22.7431 53.0111 22.2902Z" fill="black"/>
<path d="M45.9798 24.8303C45.9798 24.3774 45.6127 24.0103 45.1598 24.0103C44.707 24.0103 44.3398 24.3774 44.3398 24.8303C44.3398 25.2831 44.707 25.6503 45.1598 25.6503C45.6127 25.6503 45.9798 25.2831 45.9798 24.8303Z" fill="black"/>
<path d="M48.3314 24.8303C48.3314 24.3774 47.9643 24.0103 47.5114 24.0103C47.0585 24.0103 46.6914 24.3774 46.6914 24.8303C46.6914 25.2831 47.0585 25.6503 47.5114 25.6503C47.9643 25.6503 48.3314 25.2831 48.3314 24.8303Z" fill="black"/>
<path d="M50.6713 24.8303C50.6713 24.3774 50.3041 24.0103 49.8512 24.0103C49.3984 24.0103 49.0312 24.3774 49.0312 24.8303C49.0312 25.2831 49.3984 25.6503 49.8512 25.6503C50.3041 25.6503 50.6713 25.2831 50.6713 24.8303Z" fill="black"/>
<path d="M45.9798 27.3102C45.9798 26.8574 45.6127 26.4902 45.1598 26.4902C44.707 26.4902 44.3398 26.8574 44.3398 27.3102C44.3398 27.7631 44.707 28.1302 45.1598 28.1302C45.6127 28.1302 45.9798 27.7631 45.9798 27.3102Z" fill="black"/>
<path d="M48.3314 27.3102C48.3314 26.8574 47.9643 26.4902 47.5114 26.4902C47.0585 26.4902 46.6914 26.8574 46.6914 27.3102C46.6914 27.7631 47.0585 28.1302 47.5114 28.1302C47.9643 28.1302 48.3314 27.7631 48.3314 27.3102Z" fill="black"/>
<path d="M50.6713 27.3102C50.6713 26.8574 50.3041 26.4902 49.8512 26.4902C49.3984 26.4902 49.0312 26.8574 49.0312 27.3102C49.0312 27.7631 49.3984 28.1302 49.8512 28.1302C50.3041 28.1302 50.6713 27.7631 50.6713 27.3102Z" fill="black"/>
<path d="M53.0111 24.8303C53.0111 24.3774 52.644 24.0103 52.1911 24.0103C51.7382 24.0103 51.3711 24.3774 51.3711 24.8303C51.3711 25.2831 51.7382 25.6503 52.1911 25.6503C52.644 25.6503 53.0111 25.2831 53.0111 24.8303Z" fill="black"/>
<path d="M55.3509 22.2902C55.3509 21.8373 54.9838 21.4702 54.5309 21.4702C54.0781 21.4702 53.7109 21.8373 53.7109 22.2902C53.7109 22.7431 54.0781 23.1102 54.5309 23.1102C54.9838 23.1102 55.3509 22.7431 55.3509 22.2902Z" fill="black"/>
<path d="M57.6908 22.2902C57.6908 21.8373 57.3237 21.4702 56.8708 21.4702C56.4179 21.4702 56.0508 21.8373 56.0508 22.2902C56.0508 22.7431 56.4179 23.1102 56.8708 23.1102C57.3237 23.1102 57.6908 22.7431 57.6908 22.2902Z" fill="black"/>
<path d="M13.892 62.45C13.3507 62.45 12.8513 62.3147 12.394 62.044C11.946 61.7827 11.5867 61.4233 11.316 60.966C11.0453 60.518 10.91 60.0233 10.91 59.482V55.576H12.17V59.3C12.17 59.7667 12.3287 60.1633 12.646 60.49C12.9727 60.8167 13.3693 60.98 13.836 60.98H16.314C16.6967 60.98 17.0233 60.84 17.294 60.56C17.574 60.28 17.714 59.9487 17.714 59.566V55.352H18.974V57.69C18.974 57.914 19.0533 58.11 19.212 58.278C19.3707 58.446 19.562 58.53 19.786 58.53H20.472C20.6027 58.53 20.668 58.5953 20.668 58.726V59.804C20.668 59.9347 20.6027 60 20.472 60H20.066C19.814 60 19.59 59.9533 19.394 59.86C19.2073 59.7667 19.0627 59.6453 18.96 59.496V60.028C18.96 60.4573 18.834 60.8587 18.582 61.232C18.3393 61.6053 18.0127 61.8993 17.602 62.114C17.2007 62.338 16.7667 62.45 16.3 62.45H13.892ZM14.256 53.938H15.642V55.324H14.256V53.938ZM20.4727 60C20.4167 60 20.37 59.9813 20.3327 59.944C20.2953 59.9067 20.2767 59.86 20.2767 59.804V58.726C20.2767 58.67 20.2953 58.6233 20.3327 58.586C20.3607 58.5487 20.4073 58.53 20.4727 58.53H20.9207C21.154 58.53 21.3547 58.4647 21.5227 58.334C21.6907 58.2033 21.798 58.0167 21.8447 57.774L22.1247 56.332C22.218 55.8653 22.4513 55.478 22.8247 55.17C23.198 54.862 23.6227 54.708 24.0987 54.708H24.8827C25.2653 54.708 25.62 54.8013 25.9467 54.988C26.2733 55.1747 26.53 55.4313 26.7167 55.758C26.9127 56.0847 27.0107 56.4393 27.0107 56.822V58.53C27.0107 58.95 26.8707 59.3 26.5907 59.58C26.3107 59.86 25.9513 60 25.5127 60H23.8607C23.2073 60 22.7173 59.7107 22.3907 59.132C22.0547 59.7107 21.5367 60 20.8367 60H20.4727ZM25.7507 58.53V56.808C25.7507 56.612 25.6807 56.444 25.5407 56.304C25.41 56.164 25.242 56.094 25.0367 56.094H24.0147C23.8467 56.094 23.6973 56.15 23.5667 56.262C23.436 56.374 23.3567 56.514 23.3287 56.682L23.1047 57.802C23.0953 57.83 23.0907 57.8673 23.0907 57.914C23.0907 58.082 23.1513 58.2267 23.2727 58.348C23.394 58.4693 23.534 58.53 23.6927 58.53H25.7507ZM37.7564 57.956C38.0924 58.0307 38.3584 58.194 38.5544 58.446C38.7598 58.6887 38.8624 58.978 38.8624 59.314V59.776C38.8624 60.2613 38.7411 60.7093 38.4984 61.12C38.2558 61.54 37.9291 61.8713 37.5184 62.114C37.1078 62.3567 36.6598 62.478 36.1744 62.478H33.3604C32.8284 62.478 32.3338 62.3427 31.8764 62.072C31.4191 61.8013 31.0551 61.4373 30.7844 60.98C30.5231 60.5227 30.3924 60.028 30.3924 59.496V56.29H31.6384V59.314C31.6384 59.7807 31.8018 60.1773 32.1284 60.504C32.4644 60.8307 32.8658 60.994 33.3324 60.994H36.3424C36.7064 60.994 37.0051 60.8633 37.2384 60.602C37.4811 60.35 37.6024 60.0373 37.6024 59.664V59.202L33.7384 58.278V56.724C33.7384 56.2667 33.8411 55.842 34.0464 55.45C34.2518 55.058 34.5318 54.736 34.8864 54.484C35.2504 54.232 35.6564 54.078 36.1044 54.022L37.8964 53.784L38.0504 55.058L36.0624 55.324C35.7358 55.3707 35.4698 55.52 35.2644 55.772C35.0591 56.0147 34.9564 56.2993 34.9564 56.626V57.284L37.7564 57.956ZM42.9563 60C42.5363 60 42.149 59.8973 41.7943 59.692C41.4397 59.4867 41.1597 59.2113 40.9543 58.866C40.749 58.5113 40.6463 58.124 40.6463 57.704V50.592H41.9063V57.676C41.9063 57.9187 41.9857 58.124 42.1443 58.292C42.303 58.4507 42.499 58.53 42.7323 58.53H43.4323C43.4883 58.53 43.535 58.5533 43.5723 58.6C43.6097 58.6373 43.6283 58.684 43.6283 58.74V59.804C43.6283 59.9347 43.563 60 43.4323 60H42.9563ZM48.9577 59.44C48.7337 59.636 48.5377 59.7807 48.3697 59.874C48.2017 59.958 47.9497 60 47.6137 60H43.4277C43.3717 60 43.3251 59.9813 43.2877 59.944C43.2504 59.9067 43.2317 59.8647 43.2317 59.818V58.712C43.2317 58.656 43.2504 58.614 43.2877 58.586C43.3251 58.5487 43.3717 58.53 43.4277 58.53H44.8277C44.6504 58.4087 44.5617 58.1847 44.5617 57.858C44.5617 57.7367 44.5757 57.606 44.6037 57.466L44.7857 56.542C44.8791 56.0753 45.1077 55.6927 45.4717 55.394C45.8357 55.086 46.2511 54.9367 46.7177 54.946L47.2777 54.96C47.6604 54.96 48.0057 55.0533 48.3137 55.24C48.6311 55.4267 48.8784 55.6787 49.0557 55.996C49.2424 56.304 49.3357 56.6447 49.3357 57.018V58.53H51.4357V56.822C51.4357 56.57 51.3657 56.3553 51.2257 56.178C51.0951 55.9913 50.9131 55.8607 50.6797 55.786L45.8917 54.288L46.2697 53.042L50.9037 54.47C51.4264 54.638 51.8511 54.9367 52.1777 55.366C52.5137 55.786 52.6817 56.2807 52.6817 56.85V58.46C52.6817 58.9173 52.5371 59.2907 52.2477 59.58C51.9584 59.86 51.5851 60 51.1277 60H48.9577V59.44ZM48.1317 56.836C48.1317 56.64 48.0664 56.4767 47.9357 56.346C47.8051 56.2153 47.6371 56.15 47.4317 56.15H46.6617C46.2977 56.15 46.0737 56.3413 45.9897 56.724L45.7797 57.9C45.7704 57.9373 45.7657 57.984 45.7657 58.04C45.7657 58.2173 45.8217 58.3573 45.9337 58.46C46.0551 58.5533 46.2044 58.6 46.3817 58.6H48.1317V56.836ZM59.0365 62.45C58.4952 62.45 57.9959 62.3147 57.5385 62.044C57.0905 61.7827 56.7312 61.4233 56.4605 60.966C56.1992 60.5087 56.0685 60.0093 56.0685 59.468V55.576H57.3285V59.3C57.3285 59.7667 57.4872 60.1587 57.8045 60.476C58.1312 60.8027 58.5279 60.966 58.9945 60.966H61.4725C61.8552 60.966 62.1865 60.826 62.4665 60.546C62.7465 60.2753 62.8865 59.944 62.8865 59.552V55.352H64.1325V57.676C64.1325 57.9093 64.2165 58.11 64.3845 58.278C64.5619 58.4367 64.7625 58.516 64.9865 58.516H65.2665C65.7892 58.516 66.0972 58.2687 66.1905 57.774L66.6665 55.38L67.9125 55.618L67.5345 57.592C67.5159 57.6853 67.5065 57.7553 67.5065 57.802C67.5065 58.0073 67.5812 58.18 67.7305 58.32C67.8892 58.46 68.0852 58.53 68.3185 58.53H68.6825C68.9252 58.53 69.1259 58.4507 69.2845 58.292C69.4525 58.124 69.5365 57.9233 69.5365 57.69V54.946H70.7825V57.662C70.7825 57.914 70.8665 58.124 71.0345 58.292C71.2025 58.4507 71.4079 58.53 71.6505 58.53H72.2245C72.2805 58.53 72.3272 58.5487 72.3645 58.586C72.4019 58.6233 72.4205 58.67 72.4205 58.726V59.804C72.4205 59.86 72.4019 59.9067 72.3645 59.944C72.3272 59.9813 72.2805 60 72.2245 60H71.8605C71.1419 60 70.5725 59.7107 70.1525 59.132C69.9565 59.412 69.7045 59.6313 69.3965 59.79C69.0885 59.9393 68.7619 60.014 68.4165 60.014C68.0619 60.014 67.7399 59.944 67.4505 59.804C67.1705 59.6547 66.9559 59.4307 66.8065 59.132C66.6385 59.4213 66.4192 59.6407 66.1485 59.79C65.8779 59.93 65.5792 60 65.2525 60C64.7765 60 64.4032 59.8367 64.1325 59.51V60C64.1325 60.448 64.0065 60.8587 63.7545 61.232C63.5119 61.6053 63.1852 61.8993 62.7745 62.114C62.3639 62.338 61.9252 62.45 61.4585 62.45H59.0365ZM66.2045 50.62H67.5905V52.006H66.2045V50.62ZM65.1405 52.524H66.5265V53.924H65.1405V52.524ZM67.2685 52.524H68.6545V53.924H67.2685V52.524ZM72.2207 60C72.1647 60 72.118 59.986 72.0807 59.958C72.0434 59.9207 72.0247 59.8693 72.0247 59.804V58.74C72.0247 58.684 72.048 58.6373 72.0947 58.6C72.132 58.5533 72.174 58.53 72.2207 58.53H73.2707C73.784 58.53 74.0967 58.278 74.2087 57.774L74.6987 55.38L75.9167 55.618L75.5247 57.592C75.5154 57.6293 75.5107 57.69 75.5107 57.774C75.5107 57.998 75.5854 58.18 75.7347 58.32C75.884 58.46 76.08 58.53 76.3227 58.53H77.2747C77.3307 58.53 77.3774 58.5533 77.4147 58.6C77.452 58.6373 77.4707 58.684 77.4707 58.74V59.804C77.4707 59.86 77.452 59.9067 77.4147 59.944C77.3774 59.9813 77.3307 60 77.2747 60H76.3087C75.9727 60 75.6694 59.9253 75.3987 59.776C75.1374 59.6267 74.9414 59.412 74.8107 59.132C74.6614 59.4027 74.4374 59.6173 74.1387 59.776C73.84 59.9253 73.5274 60 73.2007 60H72.2207ZM74.2507 52.538H75.6367V53.924H74.2507V52.538ZM77.2793 60C77.2233 60 77.1766 59.9813 77.1393 59.944C77.102 59.9067 77.0833 59.86 77.0833 59.804V58.726C77.0833 58.6607 77.102 58.614 77.1393 58.586C77.1766 58.5487 77.2233 58.53 77.2793 58.53H79.1973C79.5986 58.53 79.93 58.3947 80.1913 58.124C80.462 57.8533 80.5973 57.5267 80.5973 57.144C80.5973 56.808 80.4853 56.486 80.2613 56.178L77.9513 53.014V52.076L81.0173 50.522L81.5773 51.628L79.2253 52.818L81.1993 55.492C81.61 56.0427 81.8153 56.6353 81.8153 57.27C81.8153 57.746 81.6986 58.194 81.4653 58.614C81.232 59.034 80.9053 59.37 80.4853 59.622C80.0653 59.874 79.5893 60 79.0573 60H77.2793ZM83.7538 50.592H85.0138V60H83.7538V50.592ZM85.0471 62.296L86.0971 61.75C86.4424 61.5727 86.7038 61.3487 86.8811 61.078C87.0584 60.8073 87.1471 60.4013 87.1471 59.86V55.352H88.3931V57.732C88.3931 57.956 88.4771 58.1473 88.6451 58.306C88.8224 58.4553 89.0231 58.53 89.2471 58.53H89.7791C89.8538 58.53 89.9051 58.544 89.9331 58.572C89.9611 58.5907 89.9751 58.6373 89.9751 58.712V59.804C89.9751 59.8787 89.9611 59.93 89.9331 59.958C89.9051 59.986 89.8538 60 89.7791 60H89.4571C89.2518 60 89.0511 59.958 88.8551 59.874C88.6684 59.79 88.5144 59.664 88.3931 59.496V60.028C88.3931 60.7373 88.2484 61.302 87.9591 61.722C87.6791 62.142 87.2544 62.506 86.6851 62.814L85.6211 63.416L85.0471 62.296ZM89.7754 60C89.7194 60 89.6727 59.9813 89.6354 59.944C89.5981 59.9067 89.5794 59.86 89.5794 59.804V58.74C89.5794 58.684 89.5981 58.6373 89.6354 58.6C89.6727 58.5533 89.7194 58.53 89.7754 58.53H91.7774C92.0107 58.53 92.2114 58.446 92.3794 58.278C92.5474 58.11 92.6314 57.9093 92.6314 57.676V54.946H93.8774V57.676C93.8774 58.096 93.7747 58.4833 93.5694 58.838C93.3641 59.1927 93.0841 59.4773 92.7294 59.692C92.3747 59.8973 91.9874 60 91.5674 60H89.7754ZM92.4914 52.076H93.8774V53.476H92.4914V52.076ZM90.3634 52.076H91.7494V53.476H90.3634V52.076Z" fill="black"/>
</svg>
