<svg width="79" height="72" viewBox="0 0 79 72" fill="none" xmlns="http://www.w3.org/2000/svg">
<g clip-path="url(#clip0_6_8154)">
<path d="M39.5354 34.0005C46.1433 34.0005 51.5 28.6278 51.5 22.0002C51.5 15.3727 46.1433 10 39.5354 10C32.9275 10 27.5708 15.3727 27.5708 22.0002C27.5708 28.6278 32.9275 34.0005 39.5354 34.0005Z" fill="#C3C3C3"/>
<path d="M46.4742 17.5103L47.778 16.377L48.5605 18.4694H48.8055C48.8016 18.4758 48.7992 18.4802 48.7992 18.4802L45.8001 23.6904C45.8001 23.6904 45.7976 23.6948 45.7937 23.7012H27.5V18.092L46.4742 17.5108V17.5103Z" fill="black"/>
<path d="M40.1866 24.4854H45.3539C45.1626 24.8208 44.4626 26.0472 44.3088 26.3164H43.9247L43.1422 27.6241L41.4904 26.8393H38.8247C38.8286 26.832 40.1719 24.4707 40.1719 24.4707" fill="black"/>
</g>
<path d="M18.69 54.53C18.746 54.53 18.7927 54.5533 18.83 54.6C18.8673 54.6373 18.886 54.684 18.886 54.74V55.804C18.886 55.86 18.8673 55.9067 18.83 55.944C18.802 55.9813 18.7553 56 18.69 56H18.424C18.06 56 17.7193 55.902 17.402 55.706C17.094 55.5007 16.8467 55.2253 16.66 54.88C16.5293 55.2347 16.3053 55.51 15.988 55.706C15.68 55.902 15.344 56 14.98 56H13.09C12.6327 56 12.2407 55.8367 11.914 55.51C11.5873 55.174 11.424 54.7773 11.424 54.32V52.654H12.474V54.026C12.474 54.166 12.516 54.2873 12.6 54.39C12.6933 54.4833 12.81 54.53 12.95 54.53H14.994C15.2833 54.53 15.526 54.432 15.722 54.236C15.9273 54.0307 16.03 53.7927 16.03 53.522C16.03 53.41 16.0207 53.326 16.002 53.27L14.91 49.364L16.114 48.958L17.444 53.69C17.5187 53.9513 17.6307 54.1567 17.78 54.306C17.9293 54.4553 18.116 54.53 18.34 54.53H18.69ZM18.6895 56C18.6335 56 18.5868 55.986 18.5495 55.958C18.5121 55.9207 18.4935 55.8693 18.4935 55.804V54.74C18.4935 54.684 18.5168 54.6373 18.5635 54.6C18.6008 54.5533 18.6428 54.53 18.6895 54.53H19.7395C20.2528 54.53 20.5655 54.278 20.6775 53.774L21.1675 51.38L22.3855 51.618L21.9935 53.592C21.9841 53.6293 21.9795 53.69 21.9795 53.774C21.9795 53.998 22.0541 54.18 22.2035 54.32C22.3528 54.46 22.5488 54.53 22.7915 54.53H23.7435C23.7995 54.53 23.8461 54.5533 23.8835 54.6C23.9208 54.6373 23.9395 54.684 23.9395 54.74V55.804C23.9395 55.86 23.9208 55.9067 23.8835 55.944C23.8461 55.9813 23.7995 56 23.7435 56H22.7775C22.4415 56 22.1381 55.9253 21.8675 55.776C21.6061 55.6267 21.4101 55.412 21.2795 55.132C21.1301 55.4027 20.9061 55.6173 20.6075 55.776C20.3088 55.9253 19.9961 56 19.6695 56H18.6895ZM21.5875 57.68H22.9735V59.08H21.5875V57.68ZM19.4595 57.68H20.8455V59.08H19.4595V57.68ZM23.748 56C23.692 56 23.6454 55.9813 23.608 55.944C23.5707 55.8973 23.552 55.8507 23.552 55.804V54.74C23.552 54.684 23.5707 54.6373 23.608 54.6C23.6454 54.5533 23.692 54.53 23.748 54.53H24.924H25.204C24.728 54.054 24.49 53.5407 24.49 52.99V52.57C24.49 52.1313 24.602 51.7207 24.826 51.338C25.05 50.9553 25.3487 50.652 25.722 50.428C26.1047 50.204 26.506 50.092 26.926 50.092H27.136C27.5654 50.092 27.9667 50.204 28.34 50.428C28.7134 50.6427 29.0074 50.9367 29.222 51.31C29.446 51.6833 29.558 52.0893 29.558 52.528V52.99C29.558 53.522 29.32 54.0353 28.844 54.53H29.11H30.3C30.3467 54.53 30.3887 54.5533 30.426 54.6C30.4727 54.6373 30.496 54.684 30.496 54.74V55.804C30.496 55.8507 30.4727 55.8973 30.426 55.944C30.3887 55.9813 30.3467 56 30.3 56H29.558C29.11 56 28.69 55.9673 28.298 55.902C27.906 55.8273 27.4767 55.7013 27.01 55.524C26.5434 55.7013 26.114 55.8273 25.722 55.902C25.3394 55.9673 24.924 56 24.476 56H23.748ZM27.01 54.362C27.8874 53.9513 28.326 53.5267 28.326 53.088V52.682C28.326 52.3553 28.2094 52.08 27.976 51.856C27.7427 51.6227 27.458 51.506 27.122 51.506H26.898C26.5714 51.506 26.2914 51.6227 26.058 51.856C25.834 52.08 25.722 52.3553 25.722 52.682V53.088C25.722 53.5453 26.1514 53.97 27.01 54.362ZM26.296 47.208H27.682V48.594H26.296V47.208ZM30.2969 56C30.2409 56 30.1942 55.9813 30.1569 55.944C30.1195 55.9067 30.1009 55.86 30.1009 55.804V54.726C30.1009 54.67 30.1242 54.6233 30.1709 54.586C30.2082 54.5487 30.2502 54.53 30.2969 54.53H30.8989C31.1322 54.53 31.3282 54.446 31.4869 54.278C31.6549 54.1007 31.7389 53.8907 31.7389 53.648V51.352H32.9849V53.662C32.9849 53.8953 33.0689 54.1007 33.2369 54.278C33.4142 54.446 33.6195 54.53 33.8529 54.53H34.1329C34.3942 54.53 34.5995 54.4647 34.7489 54.334C34.9075 54.194 35.0102 54.0073 35.0569 53.774L35.5329 51.38L36.7929 51.618L36.4009 53.592C36.3915 53.6293 36.3869 53.6807 36.3869 53.746C36.3869 53.9607 36.4615 54.1473 36.6109 54.306C36.7695 54.4553 36.9609 54.53 37.1849 54.53H38.3469V50.946H39.6069V54.53C39.6069 54.95 39.4669 55.3 39.1869 55.58C38.9069 55.86 38.5569 56 38.1369 56H37.1849C36.4849 56 35.9855 55.706 35.6869 55.118C35.5002 55.4073 35.2669 55.6267 34.9869 55.776C34.7069 55.9253 34.4035 56 34.0769 56C33.3582 56 32.7935 55.7107 32.3829 55.132C31.9442 55.7107 31.3702 56 30.6609 56H30.2969ZM45.6664 56C45.1717 56 44.719 55.8787 44.3084 55.636C43.8977 55.3933 43.571 55.0667 43.3284 54.656C43.095 54.2453 42.9784 53.7973 42.9784 53.312V51.016H44.2244V53.2C44.2244 53.5827 44.3457 53.9 44.5884 54.152C44.8404 54.404 45.153 54.53 45.5264 54.53H50.7764C51.1777 54.53 51.509 54.3947 51.7704 54.124C52.041 53.8533 52.1764 53.5267 52.1764 53.144C52.1764 52.808 52.0644 52.486 51.8404 52.178L49.5304 49.014V48.076L52.6384 46.508L53.1844 47.614L50.8044 48.818L52.7784 51.492C53.189 52.0427 53.3944 52.6353 53.3944 53.27C53.3944 53.746 53.2777 54.194 53.0444 54.614C52.811 55.034 52.4844 55.37 52.0644 55.622C51.6444 55.874 51.1684 56 50.6364 56H45.6664ZM61.1621 53.55C61.1621 53.886 61.2507 54.1333 61.4281 54.292C61.6147 54.4507 61.8574 54.53 62.1561 54.53H62.7441C62.8747 54.53 62.9401 54.5953 62.9401 54.726V55.804C62.9401 55.86 62.9214 55.9067 62.8841 55.944C62.8467 55.9813 62.8001 56 62.7441 56H62.2121C61.7081 56 61.2741 55.8227 60.9101 55.468C60.5554 55.1133 60.3781 54.6187 60.3781 53.984L61.1621 53.55ZM55.0441 55.076L56.5701 54.88L55.8841 47.782L57.1441 47.6L57.6901 53.662C57.6994 53.7553 57.7041 53.872 57.7041 54.012C57.7041 54.18 57.6667 54.4227 57.5921 54.74L58.9781 54.558C59.2581 54.5113 59.4821 54.3947 59.6501 54.208C59.8274 54.012 59.9161 53.7693 59.9161 53.48V46.592H61.1621V53.424C61.1621 54.0587 60.9707 54.6 60.5881 55.048C60.2054 55.4867 59.7061 55.7527 59.0901 55.846L55.2121 56.406L55.0441 55.076ZM62.7402 56C62.6842 56 62.6376 55.9813 62.6002 55.944C62.5629 55.9067 62.5442 55.86 62.5442 55.804V54.74C62.5442 54.684 62.5629 54.6373 62.6002 54.6C62.6376 54.5533 62.6842 54.53 62.7402 54.53H64.7422C64.9756 54.53 65.1762 54.446 65.3442 54.278C65.5122 54.11 65.5962 53.9093 65.5962 53.676V50.946H66.8422V53.676C66.8422 54.096 66.7396 54.4833 66.5342 54.838C66.3289 55.1927 66.0489 55.4773 65.6942 55.692C65.3396 55.8973 64.9522 56 64.5322 56H62.7402ZM65.1482 57.68H66.5342V59.08H65.1482V57.68ZM64.0702 59.598H65.4562V60.984H64.0702V59.598ZM63.0202 57.68H64.4062V59.08H63.0202V57.68Z" fill="black"/>
<defs>
<clipPath id="clip0_6_8154">
<rect width="24" height="24" fill="white" transform="translate(27.5 10)"/>
</clipPath>
</defs>
</svg>
