<svg width="74" height="50" viewBox="0 0 74 50" fill="none" xmlns="http://www.w3.org/2000/svg">
<path d="M52.6652 13.2855V21.191H54.146C54.9986 21.191 55.689 20.5202 55.689 19.6938V17.7696C55.689 15.7386 55.6622 10.7232 55.6622 10.7232L60.9808 1.79407V19.724H65.4048C65.9667 19.724 66.5119 19.5382 66.9503 19.1975L70.0523 16.627L72.2555 22.4852C72.2949 22.5887 72.3966 22.658 72.51 22.658H73.0307C73.0198 22.6759 73.0131 22.6881 73.0131 22.6881L64.3196 37.2985C64.3196 37.2985 64.312 37.3108 64.3019 37.3287H47.7515V21.5993L52.6652 13.2863V13.2855Z" fill="black"/>
<path d="M48.0454 39.5273H63.0235C62.4683 40.4678 60.4398 43.9063 59.9946 44.6618H58.8809L56.613 48.3293L51.8252 46.1288H44.0977C44.1094 46.1084 48.0034 39.4866 48.0034 39.4866" fill="black"/>
<path d="M22.8076 30.2039L24.1877 30.199V29.0458H22.8076V30.2039Z" fill="black"/>
<path d="M15.3709 10.9198H44.0974L49.3051 2.1178H13.8977C13.8876 2.13491 13.88 2.14795 13.88 2.14795C13.88 2.14795 7.83402 12.2971 7.81135 12.3362C7.81135 13.1488 7.81135 18.2547 7.81135 18.2547H36.5378C37.3727 18.2547 38.0497 18.9116 38.0497 19.7217C38.0497 20.5318 37.3727 21.1887 36.5378 21.1887H1.76367V37.3256H44.0974V13.8537H15.3709C14.536 13.8537 13.859 13.1969 13.859 12.3867C13.859 11.5766 14.536 10.9198 15.3709 10.9198ZM22.4266 24.5302H24.5264V26.4862H22.4266V24.5302ZM17.4708 34.4731H13.355V32.5171H17.4708V34.4731ZM38.1337 32.1512H25.1992L22.8079 32.1594V32.1626H7.87266V30.2066H11.0897V28.6109H8.31532V26.6549H13.1056V30.2066H17.3759V26.923H19.3918V30.2066H20.792V27.0893H26.2038V30.1952H28.6246V26.923H30.6405V30.1952H32.4069V26.923H34.4228V30.1952H36.1178V26.923H38.1337V32.1512Z" fill="black"/>
</svg>
