<svg width="180" height="180" viewBox="0 0 180 180" fill="none" xmlns="http://www.w3.org/2000/svg">
<path d="M142.5 37.5L165 15" stroke="#FBFBFB" stroke-width="9" stroke-linecap="round" stroke-linejoin="round"/>
<path d="M15 165L37.5 142.5" stroke="#FBFBFB" stroke-width="9" stroke-linecap="round" stroke-linejoin="round"/>
<path d="M47.25 152.25C48.9223 153.928 50.9093 155.26 53.0973 156.168C55.2852 157.077 57.631 157.544 60 157.544C62.3691 157.544 64.7148 157.077 66.9027 156.168C69.0907 155.26 71.0777 153.928 72.75 152.25L90 135L45 90L27.75 107.25C26.0719 108.922 24.7405 110.909 23.832 113.097C22.9235 115.285 22.4558 117.631 22.4558 120C22.4558 122.369 22.9235 124.715 23.832 126.903C24.7405 129.091 26.0719 131.078 27.75 132.75L47.25 152.25Z" stroke="#FBFBFB" stroke-width="9" stroke-linecap="round" stroke-linejoin="round"/>
<path d="M56.25 101.25L75 82.5" stroke="#FBFBFB" stroke-width="9" stroke-linecap="round" stroke-linejoin="round"/>
<path d="M78.75 123.75L97.5 105" stroke="#FBFBFB" stroke-width="9" stroke-linecap="round" stroke-linejoin="round"/>
<path d="M90 45L135 90L152.25 72.75C153.928 71.0777 155.26 69.0907 156.168 66.9027C157.077 64.7148 157.544 62.3691 157.544 60C157.544 57.631 157.077 55.2852 156.168 53.0973C155.26 50.9093 153.928 48.9223 152.25 47.25L132.75 27.75C131.078 26.0719 129.091 24.7405 126.903 23.832C124.715 22.9235 122.369 22.4558 120 22.4558C117.631 22.4558 115.285 22.9235 113.097 23.832C110.909 24.7405 108.922 26.0719 107.25 27.75L90 45Z" stroke="#FBFBFB" stroke-width="9" stroke-linecap="round" stroke-linejoin="round"/>
</svg>
