<svg width="89" height="72" viewBox="0 0 89 72" fill="none" xmlns="http://www.w3.org/2000/svg">
<path d="M50.61 32.1103C48.03 32.2503 45.94 29.9303 45.9 27.5603C45.87 25.3603 47.68 22.8403 50.58 22.8203C53.04 22.8103 55.21 24.9803 55.22 27.4703C55.23 30.0303 52.93 32.2503 50.61 32.1103ZM50.55 30.6303C52.29 30.6503 53.75 29.2103 53.74 27.4703C53.74 25.7703 52.2 24.2703 50.53 24.3003C48.84 24.3403 47.45 25.7303 47.42 27.4203C47.39 29.1503 48.81 30.6003 50.56 30.6203L50.55 30.6303Z" fill="black"/>
<path d="M38.91 11.8906V13.0906H48.12V11.8906H49.73V13.0906C49.73 13.0906 50.69 13.1406 51.12 13.1806C51.96 13.2606 53.21 13.7306 53.23 15.1906C53.23 17.3806 53.22 19.6806 53.2 21.8706C53.2 21.9006 51.58 21.9006 51.58 21.9006V18.5106H35.5C35.5 18.5106 35.45 26.0006 35.48 26.2406C35.52 26.6106 35.76 26.8306 36.11 26.8906C36.43 26.9406 44.94 26.9806 44.94 26.9806V28.6206C44.94 28.6206 39.02 28.5606 36.42 28.5706C35.7 28.5706 35.07 28.3606 34.54 27.8606C34.01 27.3506 33.78 26.7506 33.78 26.0106C33.8 23.3706 33.78 16.3906 33.79 15.5406C33.82 14.2606 34.7 13.2706 35.96 13.1306C36.36 13.0906 37.18 13.0906 37.18 13.0906V11.8906H38.91ZM48.12 14.8406H38.91V15.7906H37.18V14.8406C37.18 14.8406 35.5 14.6706 35.5 16.6206C35.5 16.6906 51.34 16.6506 51.52 16.6206C51.53 14.4606 49.73 14.8406 49.73 14.8406V15.7906H48.12V14.8406Z" fill="black"/>
<path d="M50.69 27.4206C50.69 26.9406 50.64 26.9506 51.15 26.9506C51.15 26.9506 51.16 26.9506 51.17 26.9506C51.41 26.9506 51.53 27.0673 51.53 27.3006C51.53 27.4006 51.53 27.5106 51.53 27.6106C51.53 27.7506 51.58 27.7706 51.71 27.7406C52.26 27.5806 52.21 27.6806 51.96 27.2006C51.9 27.0906 51.84 26.9806 51.77 26.8806C51.69 26.7706 51.72 26.6906 51.83 26.6306C52.02 26.5106 52.2 26.3906 52.38 26.2706C52.48 26.2106 52.57 26.2106 52.62 26.3206C52.78 26.6606 52.96 26.9906 53.07 27.3406C53.24 27.8806 53.05 28.2706 52.52 28.5306C52.29 28.6506 52.05 28.7206 51.8 28.8006C51.54 28.8806 51.53 28.8706 51.53 29.1606C51.53 29.2806 51.53 29.3906 51.53 29.5106C51.53 29.6406 51.47 29.7006 51.34 29.6906C51.19 29.6906 51.03 29.6906 50.88 29.6906C50.74 29.6906 50.68 29.6206 50.68 29.4906C50.68 29.3706 50.69 29.2406 50.68 29.1206C50.68 29.0706 50.6 29.0306 50.55 28.9806C50.51 29.0306 50.45 29.0706 50.45 29.1206C50.44 29.2406 50.45 29.3706 50.45 29.4906C50.46 29.6406 50.4 29.6906 50.26 29.6906C50.11 29.6906 49.95 29.6906 49.8 29.6906C49.65 29.6906 49.59 29.6206 49.59 29.4706C49.59 29.3606 49.59 29.2506 49.59 29.1406C49.61 28.9606 49.54 28.8806 49.36 28.8306C49.03 28.7406 48.7 28.6306 48.44 28.3806C48.04 27.9806 47.89 27.5206 48.08 26.9806C48.15 26.7706 48.26 26.5606 48.36 26.3606C48.41 26.2506 48.49 26.2306 48.59 26.3206C48.77 26.4806 48.96 26.6306 49.14 26.7906C49.24 26.8706 49.24 26.9506 49.18 27.0606C49.13 27.1606 49.08 27.2606 49.04 27.3606C48.98 27.5106 49.03 27.6206 49.17 27.6806C49.22 27.7006 49.28 27.7306 49.33 27.7506C49.53 27.8106 49.57 27.7906 49.57 27.5906C49.57 27.4606 49.57 27.3306 49.57 27.1906C49.57 27.0206 49.64 26.9506 49.81 26.9606C49.93 26.9606 50.06 26.9606 50.18 26.9606C50.35 26.9606 50.42 27.0106 50.42 27.1906C50.42 27.3606 50.42 27.5306 50.42 27.7006C50.42 27.7906 50.43 27.8806 50.56 27.8806C50.68 27.8806 50.66 27.7806 50.66 27.7006C50.66 27.6106 50.66 27.5206 50.66 27.4406L50.69 27.4206Z" fill="black"/>
<path d="M50.59 26.2203C50.53 26.2703 50.48 26.3203 50.43 26.3703C50.08 26.7103 50.16 26.7003 49.84 26.3703C49.57 26.1003 49.55 26.1403 49.84 25.8503C50.13 25.5603 50.13 25.5603 50.42 25.8503C50.58 26.0103 50.59 26.0903 50.78 25.8503C50.81 25.8203 50.84 25.7903 50.88 25.7603C51.06 25.5903 51.1 25.5903 51.27 25.7603C51.35 25.8403 51.42 25.9203 51.5 25.9903C51.59 26.0703 51.6 26.1503 51.52 26.2303C51.41 26.3403 51.29 26.4603 51.18 26.5703C51.11 26.6403 51.04 26.6303 50.97 26.5603C50.89 26.4703 50.8 26.3803 50.71 26.3003C50.68 26.2703 50.64 26.2503 50.6 26.2203H50.59Z" fill="black"/>
<path d="M38.48 20.2907C38.48 19.8378 38.1129 19.4707 37.66 19.4707C37.2071 19.4707 36.84 19.8378 36.84 20.2907C36.84 20.7436 37.2071 21.1107 37.66 21.1107C38.1129 21.1107 38.48 20.7436 38.48 20.2907Z" fill="black"/>
<path d="M40.83 20.2907C40.83 19.8378 40.4629 19.4707 40.01 19.4707C39.5571 19.4707 39.19 19.8378 39.19 20.2907C39.19 20.7436 39.5571 21.1107 40.01 21.1107C40.4629 21.1107 40.83 20.7436 40.83 20.2907Z" fill="black"/>
<path d="M43.17 20.2907C43.17 19.8378 42.8029 19.4707 42.35 19.4707C41.8971 19.4707 41.53 19.8378 41.53 20.2907C41.53 20.7436 41.8971 21.1107 42.35 21.1107C42.8029 21.1107 43.17 20.7436 43.17 20.2907Z" fill="black"/>
<path d="M45.51 20.2907C45.51 19.8378 45.1429 19.4707 44.69 19.4707C44.2371 19.4707 43.87 19.8378 43.87 20.2907C43.87 20.7436 44.2371 21.1107 44.69 21.1107C45.1429 21.1107 45.51 20.7436 45.51 20.2907Z" fill="black"/>
<path d="M38.48 22.8298C38.48 22.3769 38.1129 22.0098 37.66 22.0098C37.2071 22.0098 36.84 22.3769 36.84 22.8298C36.84 23.2826 37.2071 23.6498 37.66 23.6498C38.1129 23.6498 38.48 23.2826 38.48 22.8298Z" fill="black"/>
<path d="M40.83 22.8298C40.83 22.3769 40.4629 22.0098 40.01 22.0098C39.5571 22.0098 39.19 22.3769 39.19 22.8298C39.19 23.2826 39.5571 23.6498 40.01 23.6498C40.4629 23.6498 40.83 23.2826 40.83 22.8298Z" fill="black"/>
<path d="M43.17 22.8298C43.17 22.3769 42.8029 22.0098 42.35 22.0098C41.8971 22.0098 41.53 22.3769 41.53 22.8298C41.53 23.2826 41.8971 23.6498 42.35 23.6498C42.8029 23.6498 43.17 23.2826 43.17 22.8298Z" fill="black"/>
<path d="M38.48 25.3102C38.48 24.8574 38.1129 24.4902 37.66 24.4902C37.2071 24.4902 36.84 24.8574 36.84 25.3102C36.84 25.7631 37.2071 26.1302 37.66 26.1302C38.1129 26.1302 38.48 25.7631 38.48 25.3102Z" fill="black"/>
<path d="M40.83 25.3102C40.83 24.8574 40.4629 24.4902 40.01 24.4902C39.5571 24.4902 39.19 24.8574 39.19 25.3102C39.19 25.7631 39.5571 26.1302 40.01 26.1302C40.4629 26.1302 40.83 25.7631 40.83 25.3102Z" fill="black"/>
<path d="M43.17 25.3102C43.17 24.8574 42.8029 24.4902 42.35 24.4902C41.8971 24.4902 41.53 24.8574 41.53 25.3102C41.53 25.7631 41.8971 26.1302 42.35 26.1302C42.8029 26.1302 43.17 25.7631 43.17 25.3102Z" fill="black"/>
<path d="M45.51 22.8298C45.51 22.3769 45.1429 22.0098 44.69 22.0098C44.2371 22.0098 43.87 22.3769 43.87 22.8298C43.87 23.2826 44.2371 23.6498 44.69 23.6498C45.1429 23.6498 45.51 23.2826 45.51 22.8298Z" fill="black"/>
<path d="M47.85 20.2907C47.85 19.8378 47.4829 19.4707 47.03 19.4707C46.5771 19.4707 46.21 19.8378 46.21 20.2907C46.21 20.7436 46.5771 21.1107 47.03 21.1107C47.4829 21.1107 47.85 20.7436 47.85 20.2907Z" fill="black"/>
<path d="M50.19 20.2907C50.19 19.8378 49.8229 19.4707 49.37 19.4707C48.9171 19.4707 48.55 19.8378 48.55 20.2907C48.55 20.7436 48.9171 21.1107 49.37 21.1107C49.8229 21.1107 50.19 20.7436 50.19 20.2907Z" fill="black"/>
<path d="M14.718 55.804C14.41 55.9347 14.0647 56 13.682 56H12.842C12.4687 56 12.128 55.9067 11.82 55.72C11.5213 55.5333 11.2833 55.286 11.106 54.978C10.9287 54.67 10.84 54.334 10.84 53.97C10.84 53.8113 10.8493 53.69 10.868 53.606L11.092 52.36C11.176 51.884 11.4047 51.492 11.778 51.184C12.1607 50.8667 12.5947 50.708 13.08 50.708H13.864C14.2467 50.708 14.6013 50.806 14.928 51.002C15.2547 51.1887 15.5113 51.4453 15.698 51.772C15.8847 52.0893 15.978 52.4347 15.978 52.808V55.832C15.978 56.5507 15.7773 57.1853 15.376 57.736C14.984 58.296 14.4567 58.6927 13.794 58.926L12.016 59.514L11.652 58.338L13.472 57.736C13.864 57.596 14.1673 57.372 14.382 57.064C14.606 56.7653 14.718 56.42 14.718 56.028V55.804ZM14.732 52.808C14.732 52.612 14.662 52.4487 14.522 52.318C14.3913 52.178 14.2233 52.108 14.018 52.108H12.94C12.772 52.108 12.632 52.1547 12.52 52.248C12.4173 52.3413 12.3473 52.4813 12.31 52.668L12.1 53.802C12.0907 53.83 12.086 53.872 12.086 53.928C12.086 54.096 12.142 54.2407 12.254 54.362C12.3753 54.474 12.5247 54.53 12.702 54.53H14.732V52.808ZM16.3323 58.296L17.3823 57.75C17.7276 57.5727 17.9889 57.3487 18.1663 57.078C18.3436 56.8073 18.4323 56.4013 18.4323 55.86V51.352H19.6783V55.776C19.6783 56.56 19.5383 57.1807 19.2583 57.638C18.9783 58.1047 18.5489 58.4967 17.9703 58.814L16.9063 59.416L16.3323 58.296ZM23.186 56C22.7194 56 22.3227 55.8367 21.996 55.51C21.6694 55.174 21.506 54.7727 21.506 54.306V52.668H22.57V54.054C22.57 54.1847 22.612 54.2967 22.696 54.39C22.78 54.4833 22.892 54.53 23.032 54.53H25.272C25.5894 54.53 25.8367 54.432 26.014 54.236C26.2007 54.04 26.294 53.802 26.294 53.522C26.294 53.2887 26.2427 53.088 26.14 52.92L24.516 49.994L25.58 49.336L27.274 52.332C27.498 52.724 27.61 53.1487 27.61 53.606C27.61 54.026 27.5074 54.4227 27.302 54.796C27.0967 55.16 26.812 55.454 26.448 55.678C26.0934 55.8927 25.692 56 25.244 56H23.186ZM35.4033 54.53C35.4593 54.53 35.506 54.5487 35.5433 54.586C35.5807 54.6233 35.5993 54.67 35.5993 54.726V55.804C35.5993 55.9347 35.534 56 35.4033 56H34.1293V54.53H35.4033ZM33.0793 55.874C32.8833 55.958 32.538 56 32.0433 56H31.2033C30.83 56 30.4893 55.9067 30.1813 55.72C29.8827 55.5333 29.6447 55.286 29.4673 54.978C29.29 54.67 29.2013 54.334 29.2013 53.97C29.2013 53.8113 29.2107 53.69 29.2293 53.606L29.4533 52.36C29.5373 51.884 29.766 51.492 30.1393 51.184C30.522 50.8667 30.956 50.708 31.4413 50.708H32.2253C32.608 50.708 32.9627 50.806 33.2893 51.002C33.616 51.1887 33.8727 51.4453 34.0593 51.772C34.246 52.0893 34.3393 52.4347 34.3393 52.808V55.832C34.3393 56.5507 34.1387 57.1853 33.7373 57.736C33.3453 58.296 32.818 58.6927 32.1553 58.926L30.3773 59.514L30.0133 58.338L31.8333 57.736C32.2347 57.596 32.5427 57.372 32.7573 57.064C32.972 56.7653 33.0793 56.4433 33.0793 56.098V55.874ZM33.0933 52.808C33.0933 52.612 33.0233 52.4487 32.8833 52.318C32.7527 52.178 32.5847 52.108 32.3793 52.108H31.3013C31.1333 52.108 30.9933 52.1547 30.8813 52.248C30.7787 52.3413 30.7087 52.4813 30.6713 52.668L30.4613 53.802C30.452 53.83 30.4473 53.872 30.4473 53.928C30.4473 54.096 30.5033 54.2407 30.6153 54.362C30.7367 54.474 30.886 54.53 31.0633 54.53H33.0933V52.808ZM35.4023 56C35.2717 56 35.2063 55.9347 35.2063 55.804V54.726C35.2063 54.6793 35.2297 54.6373 35.2763 54.6C35.3137 54.5533 35.3557 54.53 35.4023 54.53H37.8103C38.2957 54.53 38.711 54.474 39.0563 54.362C39.4017 54.25 39.747 54.0213 40.0923 53.676L40.9743 52.822C41.0117 52.7847 41.077 52.724 41.1703 52.64C41.2637 52.556 41.3337 52.5 41.3803 52.472L38.1883 51.52C38.1603 51.5107 38.1137 51.506 38.0483 51.506C37.9363 51.506 37.8337 51.5433 37.7403 51.618C37.647 51.6833 37.5863 51.7673 37.5583 51.87L37.1243 53.102L36.0463 52.808L36.3963 51.618C36.5083 51.2167 36.7277 50.8993 37.0543 50.666C37.3903 50.4233 37.759 50.302 38.1603 50.302C38.3657 50.302 38.5383 50.3253 38.6783 50.372L44.1663 52.024L43.8163 53.186L43.1863 53.004C42.9997 52.9573 42.869 52.934 42.7943 52.934C42.6823 52.934 42.575 52.962 42.4723 53.018C42.379 53.074 42.2483 53.1813 42.0803 53.34L40.4703 54.908C40.1063 55.272 39.6723 55.5473 39.1683 55.734C38.6643 55.9113 38.137 56 37.5863 56H35.4023ZM37.3203 47.222H38.7063V48.608H37.3203V47.222ZM48.6055 53.242C48.6055 53.5967 48.7269 53.9 48.9695 54.152C49.2215 54.404 49.5295 54.53 49.8935 54.53H55.5635C55.8062 54.53 56.0069 54.4507 56.1655 54.292C56.3242 54.124 56.4035 53.9233 56.4035 53.69V51.338H57.6635V53.676C57.6635 53.9093 57.7475 54.11 57.9155 54.278C58.0835 54.446 58.2889 54.53 58.5315 54.53H58.9375C58.9935 54.53 59.0402 54.5487 59.0775 54.586C59.1149 54.614 59.1335 54.6607 59.1335 54.726V55.804C59.1335 55.86 59.1149 55.9067 59.0775 55.944C59.0402 55.9813 58.9935 56 58.9375 56H58.7415C58.0322 56 57.4675 55.7107 57.0475 55.132C56.6275 55.7107 56.0629 56 55.3535 56H50.0195C49.5342 56 49.0862 55.8787 48.6755 55.636C48.2649 55.3933 47.9382 55.0713 47.6955 54.67C47.4622 54.2593 47.3455 53.8113 47.3455 53.326V50.932H48.6055V53.242ZM52.8895 49.518H54.2755V50.918H52.8895V49.518ZM50.7615 49.518H52.1475V50.918H50.7615V49.518ZM58.9316 56C58.8756 56 58.829 55.9813 58.7916 55.944C58.7543 55.9067 58.7356 55.86 58.7356 55.804V54.726C58.7356 54.67 58.7543 54.6233 58.7916 54.586C58.8196 54.5487 58.8663 54.53 58.9316 54.53H59.3796C59.613 54.53 59.8136 54.4647 59.9816 54.334C60.1496 54.2033 60.257 54.0167 60.3036 53.774L60.5836 52.332C60.677 51.8653 60.9103 51.478 61.2836 51.17C61.657 50.862 62.0816 50.708 62.5576 50.708H63.3416C63.7243 50.708 64.079 50.8013 64.4056 50.988C64.7323 51.1747 64.989 51.4313 65.1756 51.758C65.3716 52.0847 65.4696 52.4393 65.4696 52.822V53.662C65.4696 53.9047 65.549 54.11 65.7076 54.278C65.8756 54.446 66.0763 54.53 66.3096 54.53H66.7996C66.8463 54.53 66.8883 54.5487 66.9256 54.586C66.9723 54.6233 66.9956 54.67 66.9956 54.726V55.804C66.9956 55.86 66.977 55.9067 66.9396 55.944C66.9023 55.9813 66.8556 56 66.7996 56H66.5336C65.9176 56 65.4323 55.7853 65.0776 55.356C64.975 55.5893 64.8303 55.7573 64.6436 55.86C64.457 55.9533 64.233 56 63.9716 56H62.3196C61.6663 56 61.1763 55.7107 60.8496 55.132C60.5136 55.7107 59.9956 56 59.2956 56H58.9316ZM64.2096 52.808C64.2096 52.612 64.1396 52.444 63.9996 52.304C63.869 52.164 63.701 52.094 63.4956 52.094H62.4736C62.3056 52.094 62.1563 52.15 62.0256 52.262C61.895 52.374 61.8156 52.514 61.7876 52.682L61.5636 53.802C61.5543 53.83 61.5496 53.8673 61.5496 53.914C61.5496 54.082 61.6103 54.2267 61.7316 54.348C61.853 54.4693 61.993 54.53 62.1516 54.53H64.2096V52.808ZM66.793 56C66.737 56 66.6903 55.986 66.653 55.958C66.6156 55.9207 66.597 55.8693 66.597 55.804V54.74C66.597 54.684 66.6203 54.6373 66.667 54.6C66.7043 54.5533 66.7463 54.53 66.793 54.53H67.843C68.3563 54.53 68.669 54.278 68.781 53.774L69.271 51.38L70.489 51.618L70.097 53.592C70.0876 53.6293 70.083 53.69 70.083 53.774C70.083 53.998 70.1576 54.18 70.307 54.32C70.4563 54.46 70.6523 54.53 70.895 54.53H71.847C71.903 54.53 71.9496 54.5533 71.987 54.6C72.0243 54.6373 72.043 54.684 72.043 54.74V55.804C72.043 55.86 72.0243 55.9067 71.987 55.944C71.9496 55.9813 71.903 56 71.847 56H70.881C70.545 56 70.2416 55.9253 69.971 55.776C69.7096 55.6267 69.5136 55.412 69.383 55.132C69.2336 55.4027 69.0096 55.6173 68.711 55.776C68.4123 55.9253 68.0996 56 67.773 56H66.793ZM69.691 57.68H71.077V59.08H69.691V57.68ZM67.563 57.68H68.949V59.08H67.563V57.68ZM71.8516 56C71.7956 56 71.7489 55.9813 71.7116 55.944C71.6742 55.8973 71.6556 55.846 71.6556 55.79V54.726C71.6556 54.6793 71.6742 54.6373 71.7116 54.6C71.7489 54.5533 71.7956 54.53 71.8516 54.53H75.4636C75.7249 54.53 75.9396 54.4553 76.1076 54.306C76.2849 54.1567 76.3736 53.9373 76.3736 53.648V53.382C76.1216 53.466 75.8229 53.508 75.4776 53.508H74.5676C74.1942 53.508 73.8536 53.4193 73.5456 53.242C73.2376 53.0553 72.9949 52.808 72.8176 52.5C72.6402 52.192 72.5516 51.856 72.5516 51.492C72.5516 51.324 72.5609 51.198 72.5796 51.114L72.7896 49.966C72.8829 49.49 73.1162 49.098 73.4896 48.79C73.8629 48.482 74.2922 48.328 74.7776 48.328H75.5196C75.9022 48.328 76.2522 48.426 76.5696 48.622C76.8869 48.8087 77.1389 49.0653 77.3256 49.392C77.5122 49.7093 77.6056 50.0593 77.6056 50.442V53.662C77.6056 54.0913 77.4982 54.4833 77.2836 54.838C77.0782 55.1927 76.7982 55.4773 76.4436 55.692C76.0889 55.8973 75.7016 56 75.2816 56H71.8516ZM76.3876 52.08V50.428C76.3876 50.232 76.3176 50.064 76.1776 49.924C76.0376 49.784 75.8696 49.714 75.6736 49.714H74.6936C74.5162 49.714 74.3622 49.77 74.2316 49.882C74.1009 49.994 74.0169 50.1387 73.9796 50.316L73.7976 51.338C73.7882 51.366 73.7836 51.4033 73.7836 51.45C73.7836 51.6273 73.8442 51.7767 73.9656 51.898C74.0869 52.0193 74.2316 52.08 74.3996 52.08H76.3876ZM75.4636 45.472H76.8496V46.872H75.4636V45.472ZM73.3356 45.472H74.7216V46.872H73.3356V45.472Z" fill="black"/>
</svg>
