<svg width="96" height="72" viewBox="0 0 96 72" fill="none" xmlns="http://www.w3.org/2000/svg">
<path d="M58.3102 16.98H54.9302V33.16H58.3102V16.98Z" fill="black"/>
<path d="M52.7599 20.49H49.3799V33.15H52.7599V20.49Z" fill="black"/>
<path d="M47.2101 24.97H43.8301V33.15H47.2101V24.97Z" fill="black"/>
<path d="M47.8499 17.99L45.7099 16L37.6899 24.02L39.7399 26.1L47.8499 17.99Z" fill="black"/>
<path d="M41.65 29.13H38.27V33.16H41.65V29.13Z" fill="black"/>
<path d="M51.49 13.76C51.49 13.17 51.44 13.22 51.83 13.22H52.62C52.96 13.22 52.91 13.37 52.91 13.81C52.91 13.99 52.91 14.17 52.91 14.35C52.91 14.53 52.91 14.64 53.14 14.6C54.07 14.41 54.13 14.49 53.67 13.64C53.57 13.45 53.46 13.25 53.33 13.07C53.2 12.87 53.25 12.74 53.44 12.62C53.77 12.41 54.1 12.2 54.42 11.99C54.59 11.88 54.75 11.88 54.84 12.08C55.21 12.74 55.49 13.22 55.69 13.85C56.1 15.05 55.41 15.64 53.45 16.44C52.81 16.67 52.91 16.52 52.91 17.12C52.91 17.37 52.91 17.55 52.91 17.76C52.91 17.99 52.82 18.08 52.59 18.08C52.32 18.08 52.04 18.08 51.77 18.08C51.52 18.08 51.42 17.96 51.42 17.72C51.42 17.51 51.42 17.24 51.42 17.02C51.42 16.8533 51.3366 16.77 51.17 16.77C50.92 16.77 50.97 16.77 50.97 17.06V17.7C51 17.96 50.91 18.07 50.66 18.07C50.39 18.07 50.11 18.07 49.84 18.07C49.57 18.07 49.49 17.96 49.49 17.7V17.11C49.49 16.67 49.54 16.72 49.07 16.55C45.85 15.49 46.39 14.36 46.81 13.27C46.98 12.88 47.13 12.53 47.3 12.17C47.39 11.98 47.53 11.94 47.7 12.09C48.02 12.37 48.35 12.65 48.68 12.92C48.86 13.06 48.86 13.21 48.76 13.4C48.67 13.57 48.6 13.67 48.51 13.88C48.4 14.15 48.45 14.26 48.7 14.4C48.79 14.45 48.99 14.53 49.09 14.57C49.44 14.68 49.49 14.71 49.49 14.32V13.63C49.49 13.34 49.44 13.24 49.78 13.24C50.07 13.24 50.38 13.24 50.57 13.24C50.96 13.24 50.96 13.19 50.96 13.63V14.51C50.96 14.7 50.96 14.71 51.21 14.71C51.46 14.71 51.46 14.71 51.46 14.51C51.46 14.35 51.46 13.93 51.46 13.77L51.49 13.76Z" fill="black"/>
<path d="M50.9197 12.22C50.4597 12.63 50.5097 12.68 49.9997 12.18C49.4497 11.63 49.5197 11.7 49.9597 11.21C50.4497 10.71 50.4697 10.75 50.9397 11.21C51.2897 11.55 51.2397 11.55 51.6397 11.2C52.0997 10.78 52.0297 10.76 52.4697 11.2C53.0197 11.75 52.9797 11.67 52.4097 12.22C51.9397 12.68 51.9897 12.58 51.5397 12.16C51.1997 11.84 51.2597 11.91 50.9197 12.22Z" fill="black"/>
<path d="M12.17 53.242C12.17 53.5967 12.2913 53.9 12.534 54.152C12.786 54.404 13.094 54.53 13.458 54.53H19.128C19.3707 54.53 19.5713 54.4507 19.73 54.292C19.8887 54.124 19.968 53.9233 19.968 53.69V51.338H21.228V53.676C21.228 53.9093 21.312 54.11 21.48 54.278C21.648 54.446 21.8533 54.53 22.096 54.53H22.502C22.558 54.53 22.6047 54.5487 22.642 54.586C22.6793 54.614 22.698 54.6607 22.698 54.726V55.804C22.698 55.86 22.6793 55.9067 22.642 55.944C22.6047 55.9813 22.558 56 22.502 56H22.306C21.5967 56 21.032 55.7107 20.612 55.132C20.192 55.7107 19.6273 56 18.918 56H13.584C13.0987 56 12.6507 55.8787 12.24 55.636C11.8293 55.3933 11.5027 55.0713 11.26 54.67C11.0267 54.2593 10.91 53.8113 10.91 53.326V50.932H12.17V53.242ZM16.454 49.518H17.84V50.918H16.454V49.518ZM14.326 49.518H15.712V50.918H14.326V49.518ZM22.4961 56C22.4401 56 22.3934 55.9813 22.3561 55.944C22.3188 55.9067 22.3001 55.86 22.3001 55.804V54.726C22.3001 54.67 22.3188 54.6233 22.3561 54.586C22.3841 54.5487 22.4308 54.53 22.4961 54.53H22.9441C23.1774 54.53 23.3781 54.4647 23.5461 54.334C23.7141 54.2033 23.8214 54.0167 23.8681 53.774L24.1481 52.332C24.2414 51.8653 24.4748 51.478 24.8481 51.17C25.2214 50.862 25.6461 50.708 26.1221 50.708H26.9061C27.2888 50.708 27.6434 50.8013 27.9701 50.988C28.2968 51.1747 28.5534 51.4313 28.7401 51.758C28.9361 52.0847 29.0341 52.4393 29.0341 52.822V53.662C29.0341 53.9047 29.1134 54.11 29.2721 54.278C29.4401 54.446 29.6408 54.53 29.8741 54.53H30.3641C30.4108 54.53 30.4528 54.5487 30.4901 54.586C30.5368 54.6233 30.5601 54.67 30.5601 54.726V55.804C30.5601 55.86 30.5414 55.9067 30.5041 55.944C30.4668 55.9813 30.4201 56 30.3641 56H30.0981C29.4821 56 28.9968 55.7853 28.6421 55.356C28.5394 55.5893 28.3948 55.7573 28.2081 55.86C28.0214 55.9533 27.7974 56 27.5361 56H25.8841C25.2308 56 24.7408 55.7107 24.4141 55.132C24.0781 55.7107 23.5601 56 22.8601 56H22.4961ZM27.7741 52.808C27.7741 52.612 27.7041 52.444 27.5641 52.304C27.4334 52.164 27.2654 52.094 27.0601 52.094H26.0381C25.8701 52.094 25.7208 52.15 25.5901 52.262C25.4594 52.374 25.3801 52.514 25.3521 52.682L25.1281 53.802C25.1188 53.83 25.1141 53.8673 25.1141 53.914C25.1141 54.082 25.1748 54.2267 25.2961 54.348C25.4174 54.4693 25.5574 54.53 25.7161 54.53H27.7741V52.808ZM30.3574 56C30.3014 56 30.2548 55.986 30.2174 55.958C30.1801 55.9207 30.1614 55.8693 30.1614 55.804V54.74C30.1614 54.684 30.1848 54.6373 30.2314 54.6C30.2688 54.5533 30.3108 54.53 30.3574 54.53H31.4074C31.9208 54.53 32.2334 54.278 32.3454 53.774L32.8354 51.38L34.0534 51.618L33.6614 53.592C33.6521 53.6293 33.6474 53.69 33.6474 53.774C33.6474 53.998 33.7221 54.18 33.8714 54.32C34.0208 54.46 34.2168 54.53 34.4594 54.53H35.4114C35.4674 54.53 35.5141 54.5533 35.5514 54.6C35.5888 54.6373 35.6074 54.684 35.6074 54.74V55.804C35.6074 55.86 35.5888 55.9067 35.5514 55.944C35.5141 55.9813 35.4674 56 35.4114 56H34.4454C34.1094 56 33.8061 55.9253 33.5354 55.776C33.2741 55.6267 33.0781 55.412 32.9474 55.132C32.7981 55.4027 32.5741 55.6173 32.2754 55.776C31.9768 55.9253 31.6641 56 31.3374 56H30.3574ZM33.2554 57.68H34.6414V59.08H33.2554V57.68ZM31.1274 57.68H32.5134V59.08H31.1274V57.68ZM35.416 56C35.36 56 35.3133 55.9813 35.276 55.944C35.2387 55.8973 35.22 55.846 35.22 55.79V54.726C35.22 54.6793 35.2387 54.6373 35.276 54.6C35.3133 54.5533 35.36 54.53 35.416 54.53H39.028C39.2893 54.53 39.504 54.4553 39.672 54.306C39.8493 54.1567 39.938 53.9373 39.938 53.648V53.382C39.686 53.466 39.3873 53.508 39.042 53.508H38.132C37.7587 53.508 37.418 53.4193 37.11 53.242C36.802 53.0553 36.5593 52.808 36.382 52.5C36.2047 52.192 36.116 51.856 36.116 51.492C36.116 51.324 36.1253 51.198 36.144 51.114L36.354 49.966C36.4473 49.49 36.6807 49.098 37.054 48.79C37.4273 48.482 37.8567 48.328 38.342 48.328H39.084C39.4667 48.328 39.8167 48.426 40.134 48.622C40.4513 48.8087 40.7033 49.0653 40.89 49.392C41.0767 49.7093 41.17 50.0593 41.17 50.442V53.662C41.17 54.0913 41.0627 54.4833 40.848 54.838C40.6427 55.1927 40.3627 55.4773 40.008 55.692C39.6533 55.8973 39.266 56 38.846 56H35.416ZM39.952 52.08V50.428C39.952 50.232 39.882 50.064 39.742 49.924C39.602 49.784 39.434 49.714 39.238 49.714H38.258C38.0807 49.714 37.9267 49.77 37.796 49.882C37.6653 49.994 37.5813 50.1387 37.544 50.316L37.362 51.338C37.3527 51.366 37.348 51.4033 37.348 51.45C37.348 51.6273 37.4087 51.7767 37.53 51.898C37.6513 52.0193 37.796 52.08 37.964 52.08H39.952ZM39.028 45.472H40.414V46.872H39.028V45.472ZM36.9 45.472H38.286V46.872H36.9V45.472ZM47.1891 56C46.7131 56 46.2698 55.8787 45.8591 55.636C45.4485 55.3933 45.1218 55.0713 44.8791 54.67C44.6458 54.2593 44.5291 53.8113 44.5291 53.326V50.932H45.7891V53.228C45.7891 53.5827 45.9151 53.8907 46.1671 54.152C46.4191 54.404 46.7225 54.53 47.0771 54.53H52.7331C52.9665 54.53 53.1625 54.4507 53.3211 54.292C53.4891 54.124 53.5731 53.9187 53.5731 53.676V50.932H54.8331V53.662C54.8331 54.082 54.7258 54.474 54.5111 54.838C54.3058 55.1927 54.0258 55.4773 53.6711 55.692C53.3165 55.8973 52.9291 56 52.5091 56H47.1891ZM50.0731 49.518H51.4591V50.918H50.0731V49.518ZM47.9451 49.518H49.3311V50.918H47.9451V49.518ZM56.5194 46.592H57.7794V56H56.5194V46.592ZM57.8127 58.296L58.8627 57.75C59.2081 57.5727 59.4694 57.3487 59.6467 57.078C59.8241 56.8073 59.9127 56.4013 59.9127 55.86V51.352H61.1587V53.732C61.1587 53.956 61.2427 54.1473 61.4107 54.306C61.5881 54.4553 61.7887 54.53 62.0127 54.53H62.5447C62.6194 54.53 62.6707 54.544 62.6987 54.572C62.7267 54.5907 62.7407 54.6373 62.7407 54.712V55.804C62.7407 55.8787 62.7267 55.93 62.6987 55.958C62.6707 55.986 62.6194 56 62.5447 56H62.2227C62.0174 56 61.8167 55.958 61.6207 55.874C61.4341 55.79 61.2801 55.664 61.1587 55.496V56.028C61.1587 56.7373 61.0141 57.302 60.7247 57.722C60.4447 58.142 60.0201 58.506 59.4507 58.814L58.3867 59.416L57.8127 58.296ZM62.541 56C62.485 56 62.4383 55.986 62.401 55.958C62.3637 55.9207 62.345 55.8693 62.345 55.804V54.74C62.345 54.684 62.3683 54.6373 62.415 54.6C62.4523 54.5533 62.4943 54.53 62.541 54.53H63.591C64.1043 54.53 64.417 54.278 64.529 53.774L65.019 51.38L66.237 51.618L65.845 53.592C65.8357 53.6293 65.831 53.69 65.831 53.774C65.831 53.998 65.9057 54.18 66.055 54.32C66.2043 54.46 66.4003 54.53 66.643 54.53H67.595C67.651 54.53 67.6977 54.5533 67.735 54.6C67.7723 54.6373 67.791 54.684 67.791 54.74V55.804C67.791 55.86 67.7723 55.9067 67.735 55.944C67.6977 55.9813 67.651 56 67.595 56H66.629C66.293 56 65.9897 55.9253 65.719 55.776C65.4577 55.6267 65.2617 55.412 65.131 55.132C64.9817 55.4027 64.7577 55.6173 64.459 55.776C64.1603 55.9253 63.8477 56 63.521 56H62.541ZM65.439 57.68H66.825V59.08H65.439V57.68ZM63.311 57.68H64.697V59.08H63.311V57.68ZM67.5996 56C67.5436 56 67.4969 55.986 67.4596 55.958C67.4223 55.9207 67.4036 55.8693 67.4036 55.804V54.74C67.4036 54.684 67.4269 54.6373 67.4736 54.6C67.5109 54.5533 67.5529 54.53 67.5996 54.53H68.6496C69.1629 54.53 69.4756 54.278 69.5876 53.774L70.0776 51.38L71.2956 51.618L70.9036 53.592C70.8943 53.6293 70.8896 53.69 70.8896 53.774C70.8896 53.998 70.9643 54.18 71.1136 54.32C71.2629 54.46 71.4589 54.53 71.7016 54.53H72.6536C72.7096 54.53 72.7563 54.5533 72.7936 54.6C72.8309 54.6373 72.8496 54.684 72.8496 54.74V55.804C72.8496 55.86 72.8309 55.9067 72.7936 55.944C72.7563 55.9813 72.7096 56 72.6536 56H71.6876C71.3516 56 71.0483 55.9253 70.7776 55.776C70.5163 55.6267 70.3203 55.412 70.1896 55.132C70.0403 55.4027 69.8163 55.6173 69.5176 55.776C69.2189 55.9253 68.9063 56 68.5796 56H67.5996ZM70.4976 57.68H71.8836V59.08H70.4976V57.68ZM68.3696 57.68H69.7556V59.08H68.3696V57.68ZM72.6582 56C72.6022 56 72.5555 55.9813 72.5182 55.944C72.4809 55.8973 72.4622 55.846 72.4622 55.79V54.74C72.4622 54.684 72.4809 54.6373 72.5182 54.6C72.5555 54.5533 72.6022 54.53 72.6582 54.53H74.1422C74.4409 54.53 74.8795 54.4833 75.4582 54.39L73.9182 53.354V51.492C73.9182 51.0907 74.0349 50.7733 74.2682 50.54C74.5109 50.2973 74.8282 50.176 75.2202 50.176H77.8662C78.2489 50.176 78.5942 50.2647 78.9022 50.442C79.2102 50.6193 79.4482 50.862 79.6162 51.17C79.7842 51.4687 79.8682 51.8 79.8682 52.164V52.542C79.8682 52.7847 79.8122 53.0133 79.7002 53.228C79.5975 53.4333 79.4482 53.606 79.2522 53.746L78.3142 54.376L78.7202 54.432C79.0935 54.4973 79.4062 54.53 79.6582 54.53H80.9182C80.9742 54.53 81.0209 54.5533 81.0582 54.6C81.0955 54.6373 81.1142 54.684 81.1142 54.74V55.79C81.1142 55.846 81.0955 55.8973 81.0582 55.944C81.0209 55.9813 80.9742 56 80.9182 56H79.4202C78.9909 56 78.5569 55.93 78.1182 55.79C77.6795 55.65 77.2595 55.4633 76.8582 55.23C76.4662 55.454 76.0462 55.6407 75.5982 55.79C75.1595 55.93 74.7255 56 74.2962 56H72.6582ZM78.6782 52.696V52.276C78.6782 52.0707 78.6175 51.9073 78.4962 51.786C78.3749 51.6553 78.2069 51.59 77.9922 51.59H75.0802V52.598L76.9002 53.774L78.6782 52.696ZM76.0182 47.46H77.4042V48.846H76.0182V47.46ZM80.916 56C80.86 56 80.8133 55.9813 80.776 55.944C80.7387 55.9067 80.72 55.86 80.72 55.804V54.74C80.72 54.684 80.7387 54.6373 80.776 54.6C80.8133 54.5533 80.86 54.53 80.916 54.53H82.918C83.1513 54.53 83.352 54.446 83.52 54.278C83.688 54.11 83.772 53.9093 83.772 53.676V50.946H85.018V53.676C85.018 54.096 84.9153 54.4833 84.71 54.838C84.5047 55.1927 84.2247 55.4773 83.87 55.692C83.5153 55.8973 83.128 56 82.708 56H80.916ZM83.632 48.076H85.018V49.476H83.632V48.076ZM81.504 48.076H82.89V49.476H81.504V48.076Z" fill="black"/>
</svg>
