<svg width="24" height="24" viewBox="0 0 24 24" fill="none" xmlns="http://www.w3.org/2000/svg">
<path d="M22.3102 6.98001H18.9302V23.16H22.3102V6.98001Z" fill="black"/>
<path d="M16.7599 10.49H13.3799V23.15H16.7599V10.49Z" fill="black"/>
<path d="M11.2101 14.97H7.83008V23.15H11.2101V14.97Z" fill="black"/>
<path d="M11.8499 7.99L9.70994 6L1.68994 14.02L3.73994 16.1L11.8499 7.99Z" fill="black"/>
<path d="M5.65002 19.13H2.27002V23.16H5.65002V19.13Z" fill="black"/>
<path d="M15.49 3.75999C15.49 3.17 15.44 3.22 15.83 3.22H16.62C16.96 3.22 16.91 3.36999 16.91 3.80999C16.91 3.99 16.91 4.16999 16.91 4.34999C16.91 4.52999 16.91 4.63999 17.14 4.59999C18.07 4.40999 18.13 4.49 17.67 3.64C17.57 3.45 17.46 3.24999 17.33 3.06999C17.2 2.86999 17.25 2.73999 17.44 2.61999C17.77 2.40999 18.1 2.19999 18.42 1.98999C18.59 1.87999 18.75 1.87999 18.84 2.07999C19.21 2.73999 19.49 3.21999 19.69 3.84999C20.1 5.04999 19.41 5.63999 17.45 6.43999C16.81 6.66999 16.91 6.51999 16.91 7.11999C16.91 7.36999 16.91 7.54999 16.91 7.75999C16.91 7.99 16.82 8.07999 16.59 8.07999C16.32 8.07999 16.04 8.07999 15.77 8.07999C15.52 8.07999 15.42 7.95999 15.42 7.71999C15.42 7.50999 15.42 7.23999 15.42 7.01999C15.42 6.85333 15.3366 6.76999 15.17 6.76999C14.92 6.76999 14.97 6.76999 14.97 7.05999V7.69999C15 7.95999 14.91 8.06999 14.66 8.06999C14.39 8.06999 14.11 8.06999 13.84 8.06999C13.57 8.06999 13.49 7.95999 13.49 7.69999V7.10999C13.49 6.66999 13.54 6.72 13.07 6.54999C9.84996 5.49 10.39 4.35999 10.81 3.26999C10.98 2.87999 11.13 2.53 11.3 2.17C11.39 1.98 11.53 1.93999 11.7 2.08999C12.02 2.36999 12.35 2.65 12.68 2.92C12.86 3.06 12.86 3.21 12.76 3.4C12.67 3.57 12.6 3.67 12.51 3.88C12.4 4.15 12.45 4.25999 12.7 4.4C12.79 4.45 12.99 4.53 13.09 4.57C13.44 4.68 13.49 4.71 13.49 4.32V3.63C13.49 3.34 13.44 3.24 13.78 3.24C14.07 3.24 14.38 3.24 14.57 3.24C14.96 3.24 14.96 3.19 14.96 3.63V4.51C14.96 4.7 14.96 4.71 15.21 4.71C15.46 4.71 15.46 4.71 15.46 4.51C15.46 4.35 15.46 3.93 15.46 3.76999L15.49 3.75999Z" fill="black"/>
<path d="M14.9197 2.22001C14.4597 2.63001 14.5097 2.68001 13.9997 2.18001C13.4497 1.63001 13.5197 1.70001 13.9597 1.21001C14.4497 0.71001 14.4697 0.75001 14.9397 1.21001C15.2897 1.55001 15.2397 1.55001 15.6397 1.20001C16.0997 0.78001 16.0297 0.76001 16.4697 1.20001C17.0197 1.75001 16.9797 1.67001 16.4097 2.22001C15.9397 2.68001 15.9897 2.58001 15.5397 2.16001C15.1997 1.84001 15.2597 1.91001 14.9197 2.22001Z" fill="black"/>
</svg>
