<svg width="62" height="72" viewBox="0 0 62 72" fill="none" xmlns="http://www.w3.org/2000/svg">
<path d="M21.15 33.7099H19.23C19.23 32.2899 19.19 30.7099 19.21 29.4599C19.22 28.4799 19.65 27.6799 20.35 27.0199C21.15 26.2599 22.1 25.7299 23.11 25.3099C24.58 24.6999 26.11 24.3299 27.68 24.1299C31.12 23.6899 34.53 23.8599 37.85 24.9399C38.99 25.3099 40.08 25.8099 41.05 26.5399C42.2 27.4199 42.67 28.2599 42.79 29.9599C42.83 31.0799 42.76 32.5999 42.75 33.7799C42.1 33.7999 41.78 33.7999 40.83 33.8099C40.83 33.4899 40.83 33.1099 40.83 32.7999C40.84 31.6499 40.84 31.1299 40.83 30.3499C40.87 29.6299 40.58 29.0899 40.09 28.6199C39.25 27.8099 38.23 27.2999 37.14 26.9199C34.31 25.9299 31.4 25.6899 28.44 26.0899C27.21 26.2599 25.99 26.5799 24.79 26.9399C24.07 27.1599 23.39 27.5399 22.74 27.9299C21.65 28.5899 21.1 29.1299 21.17 30.8799C21.17 31.7999 21.17 32.5399 21.15 33.6899V33.7099Z" fill="black"/>
<path d="M31.03 11C34.21 11.03 36.69 13.58 36.63 16.78C36.57 19.86 34.03 22.34 30.94 22.32C27.86 22.3 25.35 19.77 25.33 16.69C25.31 13.52 27.87 10.98 31.04 11.01L31.03 11ZM27.38 16.63C27.38 18.64 28.97 20.27 30.96 20.28C32.91 20.29 34.59 18.63 34.61 16.67C34.62 14.69 32.99 13.05 31 13.04C28.98 13.04 27.39 14.61 27.38 16.63Z" fill="black"/>
<path d="M13.892 58.422C13.36 58.422 12.8653 58.2867 12.408 58.016C11.9507 57.7453 11.5867 57.3813 11.316 56.924C11.0453 56.4667 10.91 55.972 10.91 55.44V51.954L12.17 51.968V55.258C12.17 55.5567 12.2447 55.8367 12.394 56.098C12.5433 56.3593 12.744 56.5647 12.996 56.714C13.2573 56.8727 13.542 56.952 13.85 56.952H16.314C16.6967 56.952 17.0233 56.812 17.294 56.532C17.574 56.2613 17.714 55.9347 17.714 55.552V46.592H18.96V53.69C18.96 53.942 19.0347 54.1473 19.184 54.306C19.3427 54.4553 19.5433 54.53 19.786 54.53H20.626C20.7567 54.53 20.822 54.5953 20.822 54.726V55.79C20.822 55.8553 20.8033 55.9067 20.766 55.944C20.7287 55.9813 20.682 56 20.626 56H20.052C19.828 56 19.604 55.944 19.38 55.832C19.1653 55.7107 19.0207 55.5567 18.946 55.37V55.818C18.946 56.2473 18.834 56.6627 18.61 57.064C18.386 57.4653 18.0733 57.792 17.672 58.044C17.2707 58.296 16.8133 58.422 16.3 58.422H13.892ZM20.623 56C20.567 56 20.5204 55.9813 20.483 55.944C20.4457 55.9067 20.427 55.86 20.427 55.804V54.74C20.427 54.684 20.4457 54.6373 20.483 54.6C20.5204 54.5533 20.567 54.53 20.623 54.53H22.625C22.8584 54.53 23.059 54.446 23.227 54.278C23.395 54.11 23.479 53.9093 23.479 53.676V50.946H24.725V53.676C24.725 54.096 24.6224 54.4833 24.417 54.838C24.2117 55.1927 23.9317 55.4773 23.577 55.692C23.2224 55.8973 22.835 56 22.415 56H20.623ZM23.087 57.68H24.473V59.08H23.087V57.68ZM20.959 57.68H22.345V59.08H20.959V57.68ZM28.7102 56C28.2902 56 27.9029 55.8973 27.5482 55.692C27.1936 55.4867 26.9136 55.2113 26.7082 54.866C26.5029 54.5113 26.4002 54.124 26.4002 53.704V46.592H27.6602V53.676C27.6602 53.9187 27.7396 54.124 27.8982 54.292C28.0569 54.4507 28.2529 54.53 28.4862 54.53H29.1862C29.2422 54.53 29.2889 54.5533 29.3262 54.6C29.3636 54.6373 29.3822 54.684 29.3822 54.74V55.804C29.3822 55.9347 29.3169 56 29.1862 56H28.7102ZM29.1816 56C29.1256 56 29.079 55.9813 29.0416 55.944C29.0043 55.8973 28.9856 55.846 28.9856 55.79V54.726C28.9856 54.6793 29.0043 54.6373 29.0416 54.6C29.079 54.5533 29.1256 54.53 29.1816 54.53H32.7936C33.055 54.53 33.2696 54.4553 33.4376 54.306C33.615 54.1567 33.7036 53.9373 33.7036 53.648V53.382C33.4516 53.466 33.153 53.508 32.8076 53.508H31.8976C31.5243 53.508 31.1836 53.4193 30.8756 53.242C30.5676 53.0553 30.325 52.808 30.1476 52.5C29.9703 52.192 29.8816 51.856 29.8816 51.492C29.8816 51.324 29.891 51.198 29.9096 51.114L30.1196 49.966C30.213 49.49 30.4463 49.098 30.8196 48.79C31.193 48.482 31.6223 48.328 32.1076 48.328H32.8496C33.2323 48.328 33.5823 48.426 33.8996 48.622C34.217 48.8087 34.469 49.0653 34.6556 49.392C34.8423 49.7093 34.9356 50.0593 34.9356 50.442V53.662C34.9356 54.0913 34.8283 54.4833 34.6136 54.838C34.4083 55.1927 34.1283 55.4773 33.7736 55.692C33.419 55.8973 33.0316 56 32.6116 56H29.1816ZM33.7176 52.08V50.428C33.7176 50.232 33.6476 50.064 33.5076 49.924C33.3676 49.784 33.1996 49.714 33.0036 49.714H32.0236C31.8463 49.714 31.6923 49.77 31.5616 49.882C31.431 49.994 31.347 50.1387 31.3096 50.316L31.1276 51.338C31.1183 51.366 31.1136 51.4033 31.1136 51.45C31.1136 51.6273 31.1743 51.7767 31.2956 51.898C31.417 52.0193 31.5616 52.08 31.7296 52.08H33.7176ZM31.8416 45.472H33.2276V46.858H31.8416V45.472ZM40.4075 55.804C40.0995 55.9347 39.7541 56 39.3715 56H38.5315C38.1581 56 37.8175 55.9067 37.5095 55.72C37.2108 55.5333 36.9728 55.286 36.7955 54.978C36.6181 54.67 36.5295 54.334 36.5295 53.97C36.5295 53.8113 36.5388 53.69 36.5575 53.606L36.7815 52.36C36.8655 51.884 37.0941 51.492 37.4675 51.184C37.8501 50.8667 38.2841 50.708 38.7695 50.708H39.5535C39.9361 50.708 40.2908 50.806 40.6175 51.002C40.9441 51.1887 41.2008 51.4453 41.3875 51.772C41.5741 52.0893 41.6675 52.4347 41.6675 52.808V55.832C41.6675 56.5507 41.4668 57.1853 41.0655 57.736C40.6735 58.296 40.1461 58.6927 39.4835 58.926L37.7055 59.514L37.3415 58.338L39.1615 57.736C39.5535 57.596 39.8568 57.372 40.0715 57.064C40.2955 56.7653 40.4075 56.42 40.4075 56.028V55.804ZM40.4215 52.808C40.4215 52.612 40.3515 52.4487 40.2115 52.318C40.0808 52.178 39.9128 52.108 39.7075 52.108H38.6295C38.4615 52.108 38.3215 52.1547 38.2095 52.248C38.1068 52.3413 38.0368 52.4813 37.9995 52.668L37.7895 53.802C37.7801 53.83 37.7755 53.872 37.7755 53.928C37.7755 54.096 37.8315 54.2407 37.9435 54.362C38.0648 54.474 38.2141 54.53 38.3915 54.53H40.4215V52.808ZM42.0217 58.296L43.0717 57.75C43.4171 57.5727 43.6784 57.3487 43.8557 57.078C44.0331 56.8073 44.1217 56.4013 44.1217 55.86V51.352H45.3677V53.732C45.3677 53.956 45.4517 54.1473 45.6197 54.306C45.7971 54.4553 45.9977 54.53 46.2217 54.53H46.7537C46.8284 54.53 46.8797 54.544 46.9077 54.572C46.9357 54.5907 46.9497 54.6373 46.9497 54.712V55.804C46.9497 55.8787 46.9357 55.93 46.9077 55.958C46.8797 55.986 46.8284 56 46.7537 56H46.4317C46.2264 56 46.0257 55.958 45.8297 55.874C45.6431 55.79 45.4891 55.664 45.3677 55.496V56.028C45.3677 56.7373 45.2231 57.302 44.9337 57.722C44.6537 58.142 44.2291 58.506 43.6597 58.814L42.5957 59.416L42.0217 58.296ZM46.75 56C46.694 56 46.6473 55.9813 46.61 55.944C46.5727 55.9067 46.554 55.86 46.554 55.804V54.74C46.554 54.684 46.5727 54.6373 46.61 54.6C46.6473 54.5533 46.694 54.53 46.75 54.53H48.752C48.9853 54.53 49.186 54.446 49.354 54.278C49.522 54.11 49.606 53.9093 49.606 53.676V50.946H50.852V53.676C50.852 54.096 50.7493 54.4833 50.544 54.838C50.3387 55.1927 50.0587 55.4773 49.704 55.692C49.3493 55.8973 48.962 56 48.542 56H46.75ZM49.158 57.68H50.544V59.08H49.158V57.68ZM48.08 59.598H49.466V60.984H48.08V59.598ZM47.03 57.68H48.416V59.08H47.03V57.68Z" fill="black"/>
</svg>
