<svg width="102" height="72" viewBox="0 0 102 72" fill="none" xmlns="http://www.w3.org/2000/svg">
<path d="M49.78 22.9506C51.11 21.5906 52.85 20.7906 54.82 21.0306C54.82 21.5206 54.84 22.0706 54.82 22.8106C54.39 22.7906 53.09 22.7106 51.72 23.8806C51 24.5006 50.71 25.2506 50.71 26.2606C50.71 27.8306 50.71 29.6106 50.7 31.2506C50.7 31.7706 50.74 32.3606 50.71 32.8606C50.07 32.8906 49.49 32.8606 48.83 32.8606C48.83 32.3006 48.83 32.1006 48.83 31.8506C48.85 30.1306 48.83 28.3506 48.83 26.6206C48.85 25.6906 48.79 25.0006 48.01 24.1706C47.19 23.4406 46.26 22.9906 45.15 23.0006C44.18 23.0106 43.28 23.3206 42.53 23.9706C41.86 24.5506 41.46 25.2006 41.5 26.1606C41.57 27.8506 41.52 29.5406 41.52 31.2306C41.52 31.7506 41.56 32.3106 41.54 32.8606C40.86 32.9006 40.22 32.8606 39.51 32.8606C39.46 32.5506 39.51 32.3006 39.51 32.0006C39.5 29.9406 39.52 27.8806 39.49 25.8206C39.48 24.9806 39.74 24.2706 40.19 23.6006C42.03 20.9006 45.84 20.2006 48.62 22.0606C49.01 22.3206 49.37 22.6206 49.79 22.9506H49.78Z" fill="black"/>
<path d="M49.2 15.25C49.22 17.57 47.33 19.49 44.99 19.53C42.66 19.56 40.71 17.69 40.66 15.38C40.61 13.01 42.59 10.99 44.95 11C47.25 11.01 49.18 12.95 49.2 15.26V15.25ZM47.31 15.3C47.3 13.94 46.25 12.96 44.88 13C43.6 13.05 42.62 14.07 42.63 15.34C42.64 16.67 43.72 17.68 45.08 17.63C46.39 17.58 47.32 16.61 47.31 15.3Z" fill="black"/>
<path d="M54.98 19.5196C52.64 19.4796 50.77 17.5796 50.79 15.2396C50.81 13.1796 52.28 11.0296 55.03 11.0196C57.87 11.0096 59.36 13.2396 59.29 15.3696C59.2 18.0896 57.08 19.5296 54.98 19.5096V19.5196ZM57.43 15.3796C57.46 14.0796 56.52 13.0696 55.23 13.0096C53.87 12.9396 52.76 13.9396 52.72 15.2596C52.68 16.5196 53.67 17.5796 54.94 17.6396C56.31 17.7096 57.4 16.7196 57.43 15.3896V15.3796Z" fill="black"/>
<path d="M59.23 24.2305H57.25V32.8105H59.23V24.2305Z" fill="black"/>
<path d="M62.53 29.4605V27.4805H53.95V29.4605H62.53Z" fill="black"/>
<path d="M12.17 51.562V55.3C12.17 55.7573 12.3333 56.1493 12.66 56.476C12.9867 56.8027 13.3787 56.966 13.836 56.966H16.314C16.6967 56.966 17.0233 56.826 17.294 56.546C17.574 56.2753 17.714 55.944 17.714 55.552V51.338H18.974V55.762C18.974 56.2473 18.8527 56.6953 18.61 57.106C18.3673 57.5167 18.0407 57.8433 17.63 58.086C17.2287 58.3287 16.7853 58.45 16.3 58.45H13.892C13.3507 58.45 12.8513 58.3147 12.394 58.044C11.946 57.7733 11.5867 57.4093 11.316 56.952C11.0453 56.504 10.91 56.0093 10.91 55.468V51.562H12.17ZM14.256 49.938H15.642V51.324H14.256V49.938ZM23.0364 56C22.6164 56 22.2291 55.8973 21.8744 55.692C21.5197 55.4867 21.2397 55.2113 21.0344 54.866C20.8291 54.5113 20.7264 54.124 20.7264 53.704V46.592H21.9864V53.676C21.9864 53.9187 22.0657 54.124 22.2244 54.292C22.3831 54.4507 22.5791 54.53 22.8124 54.53H23.5124C23.5684 54.53 23.6151 54.5533 23.6524 54.6C23.6897 54.6373 23.7084 54.684 23.7084 54.74V55.804C23.7084 55.9347 23.6431 56 23.5124 56H23.0364ZM23.5078 56C23.4518 56 23.4051 55.986 23.3678 55.958C23.3305 55.9207 23.3118 55.8693 23.3118 55.804V54.74C23.3118 54.684 23.3351 54.6373 23.3818 54.6C23.4191 54.5533 23.4611 54.53 23.5078 54.53H24.5578C25.0711 54.53 25.3838 54.278 25.4958 53.774L25.9858 51.38L27.2038 51.618L26.8118 53.592C26.8025 53.6293 26.7978 53.69 26.7978 53.774C26.7978 53.998 26.8725 54.18 27.0218 54.32C27.1711 54.46 27.3671 54.53 27.6098 54.53H28.5618C28.6178 54.53 28.6645 54.5533 28.7018 54.6C28.7391 54.6373 28.7578 54.684 28.7578 54.74V55.804C28.7578 55.86 28.7391 55.9067 28.7018 55.944C28.6645 55.9813 28.6178 56 28.5618 56H27.5958C27.2598 56 26.9565 55.9253 26.6858 55.776C26.4245 55.6267 26.2285 55.412 26.0978 55.132C25.9485 55.4027 25.7245 55.6173 25.4258 55.776C25.1271 55.9253 24.8145 56 24.4878 56H23.5078ZM26.4758 48.524H27.8618V49.924H26.4758V48.524ZM24.3478 48.524H25.7338V49.924H24.3478V48.524ZM28.5664 56C28.5104 56 28.4637 55.9813 28.4264 55.944C28.3891 55.9067 28.3704 55.86 28.3704 55.804V54.726C28.3704 54.67 28.3937 54.6233 28.4404 54.586C28.4777 54.5487 28.5197 54.53 28.5664 54.53H29.1684C29.4017 54.53 29.5977 54.446 29.7564 54.278C29.9244 54.1007 30.0084 53.8907 30.0084 53.648V51.352H31.2544V53.662C31.2544 53.8953 31.3384 54.1007 31.5064 54.278C31.6837 54.446 31.8891 54.53 32.1224 54.53H32.4024C32.6637 54.53 32.8691 54.4647 33.0184 54.334C33.1771 54.194 33.2797 54.0073 33.3264 53.774L33.8024 51.38L35.0624 51.618L34.6704 53.592C34.6611 53.6293 34.6564 53.6807 34.6564 53.746C34.6564 53.9607 34.7311 54.1473 34.8804 54.306C35.0391 54.4553 35.2304 54.53 35.4544 54.53H36.6164V50.946H37.8764V54.53C37.8764 54.95 37.7364 55.3 37.4564 55.58C37.1764 55.86 36.8264 56 36.4064 56H35.4544C34.7544 56 34.2551 55.706 33.9564 55.118C33.7697 55.4073 33.5364 55.6267 33.2564 55.776C32.9764 55.9253 32.6731 56 32.3464 56C31.6277 56 31.0631 55.7107 30.6524 55.132C30.2137 55.7107 29.6397 56 28.9304 56H28.5664ZM43.3606 55.804C43.0526 55.9347 42.7072 56 42.3246 56H41.4846C41.1112 56 40.7706 55.9067 40.4626 55.72C40.1639 55.5333 39.9259 55.286 39.7486 54.978C39.5712 54.67 39.4826 54.334 39.4826 53.97C39.4826 53.8113 39.4919 53.69 39.5106 53.606L39.7346 52.36C39.8186 51.884 40.0472 51.492 40.4206 51.184C40.8032 50.8667 41.2372 50.708 41.7226 50.708H42.5066C42.8892 50.708 43.2439 50.806 43.5706 51.002C43.8972 51.1887 44.1539 51.4453 44.3406 51.772C44.5272 52.0893 44.6206 52.4347 44.6206 52.808V55.832C44.6206 56.5507 44.4199 57.1853 44.0186 57.736C43.6266 58.296 43.0992 58.6927 42.4366 58.926L40.6586 59.514L40.2946 58.338L42.1146 57.736C42.5066 57.596 42.8099 57.372 43.0246 57.064C43.2486 56.7653 43.3606 56.42 43.3606 56.028V55.804ZM43.3746 52.808C43.3746 52.612 43.3046 52.4487 43.1646 52.318C43.0339 52.178 42.8659 52.108 42.6606 52.108H41.5826C41.4146 52.108 41.2746 52.1547 41.1626 52.248C41.0599 52.3413 40.9899 52.4813 40.9526 52.668L40.7426 53.802C40.7332 53.83 40.7286 53.872 40.7286 53.928C40.7286 54.096 40.7846 54.2407 40.8966 54.362C41.0179 54.474 41.1672 54.53 41.3446 54.53H43.3746V52.808ZM48.0688 56C47.6022 56 47.2055 55.8367 46.8788 55.51C46.5522 55.174 46.3888 54.7727 46.3888 54.306V52.668H47.4528V54.054C47.4528 54.1847 47.4948 54.2967 47.5788 54.39C47.6628 54.4833 47.7748 54.53 47.9148 54.53H50.1548C50.4722 54.53 50.7195 54.432 50.8968 54.236C51.0835 54.04 51.1768 53.802 51.1768 53.522C51.1768 53.2887 51.1255 53.088 51.0228 52.92L49.3988 49.994L50.4628 49.336L52.1568 52.332C52.3808 52.724 52.4928 53.1487 52.4928 53.606C52.4928 54.026 52.3902 54.4227 52.1848 54.796C51.9795 55.16 51.6948 55.454 51.3308 55.678C50.9762 55.8927 50.5748 56 50.1268 56H48.0688ZM63.9415 56C63.9695 56.0747 63.9928 56.1587 64.0115 56.252C64.0395 56.3453 64.0535 56.4573 64.0535 56.588V57.05C64.0535 57.4793 63.9275 57.862 63.6755 58.198C63.4235 58.5433 63.0921 58.8093 62.6815 58.996C62.2708 59.192 61.8321 59.29 61.3655 59.29H58.8315C58.2901 59.29 57.7908 59.1547 57.3335 58.884C56.8761 58.6227 56.5121 58.2633 56.2415 57.806C55.9801 57.3487 55.8495 56.8493 55.8495 56.308V52.794H57.0955V56.126C57.0955 56.5927 57.2588 56.9893 57.5855 57.316C57.9121 57.6427 58.3088 57.806 58.7755 57.806H61.7015C62.0375 57.806 62.3035 57.6987 62.4995 57.484C62.7048 57.2693 62.8075 56.994 62.8075 56.658V56H59.9935V54.53H65.2995C65.3555 54.53 65.4021 54.5487 65.4395 54.586C65.4768 54.614 65.4955 54.656 65.4955 54.712V55.79C65.4955 55.846 65.4721 55.8973 65.4255 55.944C65.3881 55.9813 65.3461 56 65.2995 56H63.9415ZM65.3027 56C65.2467 56 65.2001 55.9813 65.1627 55.944C65.1254 55.8973 65.1067 55.846 65.1067 55.79V54.726C65.1067 54.6793 65.1254 54.6373 65.1627 54.6C65.2001 54.5533 65.2467 54.53 65.3027 54.53H68.9147C69.1761 54.53 69.3907 54.4553 69.5587 54.306C69.7361 54.1567 69.8247 53.9373 69.8247 53.648V53.382C69.5727 53.466 69.2741 53.508 68.9287 53.508H68.0187C67.6454 53.508 67.3047 53.4193 66.9967 53.242C66.6887 53.0553 66.4461 52.808 66.2687 52.5C66.0914 52.192 66.0027 51.856 66.0027 51.492C66.0027 51.324 66.0121 51.198 66.0307 51.114L66.2407 49.966C66.3341 49.49 66.5674 49.098 66.9407 48.79C67.3141 48.482 67.7434 48.328 68.2287 48.328H68.9707C69.3534 48.328 69.7034 48.426 70.0207 48.622C70.3381 48.8087 70.5901 49.0653 70.7767 49.392C70.9634 49.7093 71.0567 50.0593 71.0567 50.442V53.662C71.0567 54.0913 70.9494 54.4833 70.7347 54.838C70.5294 55.1927 70.2494 55.4773 69.8947 55.692C69.5401 55.8973 69.1527 56 68.7327 56H65.3027ZM69.8387 52.08V50.428C69.8387 50.232 69.7687 50.064 69.6287 49.924C69.4887 49.784 69.3207 49.714 69.1247 49.714H68.1447C67.9674 49.714 67.8134 49.77 67.6827 49.882C67.5521 49.994 67.4681 50.1387 67.4307 50.316L67.2487 51.338C67.2394 51.366 67.2347 51.4033 67.2347 51.45C67.2347 51.6273 67.2954 51.7767 67.4167 51.898C67.5381 52.0193 67.6827 52.08 67.8507 52.08H69.8387ZM67.9627 45.472H69.3487V46.858H67.9627V45.472ZM69.856 58.324L71.662 57.736C72.082 57.596 72.404 57.3767 72.628 57.078C72.852 56.7793 72.964 56.406 72.964 55.958V51.338H74.224V53.732C74.224 53.956 74.308 54.1473 74.476 54.306C74.6533 54.4553 74.854 54.53 75.078 54.53H75.61C75.6847 54.53 75.736 54.544 75.764 54.572C75.792 54.6 75.806 54.6467 75.806 54.712V55.804C75.806 55.9347 75.7407 56 75.61 56H75.274C75.0687 56 74.868 55.958 74.672 55.874C74.4853 55.79 74.3313 55.664 74.21 55.496V56.056C74.21 56.7373 74.0093 57.3253 73.608 57.82C73.2067 58.3147 72.6793 58.674 72.026 58.898L70.234 59.5L69.856 58.324ZM75.6113 56C75.5553 56 75.5087 55.9813 75.4713 55.944C75.434 55.8973 75.4153 55.846 75.4153 55.79V54.74C75.4153 54.684 75.434 54.6373 75.4713 54.6C75.5087 54.5533 75.5553 54.53 75.6113 54.53H77.0953C77.394 54.53 77.8327 54.4833 78.4113 54.39L76.8713 53.354V51.492C76.8713 51.0907 76.988 50.7733 77.2213 50.54C77.464 50.2973 77.7813 50.176 78.1733 50.176H80.8193C81.202 50.176 81.5473 50.2647 81.8553 50.442C82.1633 50.6193 82.4013 50.862 82.5693 51.17C82.7373 51.4687 82.8213 51.8 82.8213 52.164V52.542C82.8213 52.7847 82.7653 53.0133 82.6533 53.228C82.5507 53.4333 82.4013 53.606 82.2053 53.746L81.2673 54.376L81.6733 54.432C82.0467 54.4973 82.3593 54.53 82.6113 54.53H83.8713C83.9273 54.53 83.974 54.5533 84.0113 54.6C84.0487 54.6373 84.0673 54.684 84.0673 54.74V55.79C84.0673 55.846 84.0487 55.8973 84.0113 55.944C83.974 55.9813 83.9273 56 83.8713 56H82.3733C81.944 56 81.51 55.93 81.0713 55.79C80.6327 55.65 80.2127 55.4633 79.8113 55.23C79.4193 55.454 78.9993 55.6407 78.5513 55.79C78.1127 55.93 77.6787 56 77.2493 56H75.6113ZM81.6313 52.696V52.276C81.6313 52.0707 81.5707 51.9073 81.4493 51.786C81.328 51.6553 81.16 51.59 80.9453 51.59H78.0333V52.598L79.8533 53.774L81.6313 52.696ZM83.8691 56C83.8131 56 83.7665 55.9813 83.7291 55.944C83.6918 55.9067 83.6731 55.86 83.6731 55.804V54.726C83.6731 54.67 83.6918 54.6233 83.7291 54.586C83.7571 54.5487 83.8038 54.53 83.8691 54.53H84.3171C84.5505 54.53 84.7511 54.4647 84.9191 54.334C85.0871 54.2033 85.1945 54.0167 85.2411 53.774L85.5211 52.332C85.6145 51.8653 85.8478 51.478 86.2211 51.17C86.5945 50.862 87.0191 50.708 87.4951 50.708H88.2791C88.6618 50.708 89.0165 50.8013 89.3431 50.988C89.6698 51.1747 89.9265 51.4313 90.1131 51.758C90.3091 52.0847 90.4071 52.4393 90.4071 52.822V54.53C90.4071 54.95 90.2671 55.3 89.9871 55.58C89.7071 55.86 89.3478 56 88.9091 56H87.2571C86.6038 56 86.1138 55.7107 85.7871 55.132C85.4511 55.7107 84.9331 56 84.2331 56H83.8691ZM89.1471 54.53V52.808C89.1471 52.612 89.0771 52.444 88.9371 52.304C88.8065 52.164 88.6385 52.094 88.4331 52.094H87.4111C87.2431 52.094 87.0938 52.15 86.9631 52.262C86.8325 52.374 86.7531 52.514 86.7251 52.682L86.5011 53.802C86.4918 53.83 86.4871 53.8673 86.4871 53.914C86.4871 54.082 86.5478 54.2267 86.6691 54.348C86.7905 54.4693 86.9305 54.53 87.0891 54.53H89.1471Z" fill="black"/>
</svg>
