<svg width="89" height="72" viewBox="0 0 89 72" fill="none" xmlns="http://www.w3.org/2000/svg">
<path d="M51.62 15.5488H37.33V16.8388H51.62V15.5488Z" fill="black"/>
<path d="M51.62 17.8789H37.33V19.1689H51.62V17.8789Z" fill="black"/>
<path d="M51.62 20.0391H37.33V21.3291H51.62V20.0391Z" fill="black"/>
<path d="M44.41 22.1992H37.33V23.4892H44.41V22.1992Z" fill="black"/>
<path d="M37.56 27.5298C37.1 27.4798 36.69 27.4698 36.3 27.3998C34.88 27.1498 33.96 26.1098 33.95 24.6498C33.93 21.3198 33.92 17.9998 33.95 14.6698C33.96 13.0998 35.05 11.9798 36.61 11.9698C41.85 11.9398 47.09 11.9398 52.33 11.9698C53.99 11.9698 55.02 13.0598 55.03 14.7598C55.06 18.0398 55 21.3198 55.06 24.5998C55.06 26.5598 53.95 27.4498 52.22 27.4498C50.31 27.4498 47.59 27.4898 45.68 27.4898C44.94 27.4898 44.35 27.5998 43.93 28.0198C42.7 29.1998 40.21 31.5798 39.96 31.7698C39.14 32.3898 37.71 32.0598 37.67 30.7098C37.65 30.0298 37.62 28.4098 37.56 27.5498V27.5298ZM39.55 29.5698C39.86 29.2698 42.05 27.2998 43 26.3498C43.51 25.8198 44.07 25.6198 44.81 25.6298C47.18 25.6298 49.41 25.6298 51.69 25.6298C53.18 25.6298 53.35 25.4098 53.35 23.8798C53.35 21.0598 53.36 18.2398 53.35 15.4198C53.35 13.9598 53.07 13.6798 51.58 13.6798C46.89 13.6798 42.21 13.6798 37.52 13.6798C37.25 13.6798 36.97 13.6798 36.7 13.7098C36.09 13.7898 35.73 14.1698 35.67 14.7998C35.65 15.0198 35.67 15.2498 35.67 15.4798C35.67 16.8398 35.66 18.2098 35.65 19.5698C35.65 21.1198 35.62 22.6598 35.65 24.2098C35.68 25.3198 36.07 25.6298 36.77 25.6298C37 25.6298 37.69 25.6298 37.91 25.6298C38.74 25.6298 39.28 26.0598 39.36 26.6798C39.49 27.8198 39.45 28.5198 39.53 29.5598L39.55 29.5698Z" fill="black"/>
<path d="M13.22 56C12.8 56 12.4127 55.8973 12.058 55.692C11.7033 55.4867 11.4233 55.2113 11.218 54.866C11.0127 54.5113 10.91 54.124 10.91 53.704V46.592H12.17V53.676C12.17 53.9187 12.2493 54.124 12.408 54.292C12.5667 54.4507 12.7627 54.53 12.996 54.53H13.696C13.752 54.53 13.7987 54.5533 13.836 54.6C13.8733 54.6373 13.892 54.684 13.892 54.74V55.804C13.892 55.9347 13.8267 56 13.696 56H13.22ZM19.2214 55.44C18.9974 55.636 18.8014 55.7807 18.6334 55.874C18.4654 55.958 18.2134 56 17.8774 56H13.6914C13.6354 56 13.5887 55.9813 13.5514 55.944C13.5141 55.9067 13.4954 55.8647 13.4954 55.818V54.712C13.4954 54.656 13.5141 54.614 13.5514 54.586C13.5887 54.5487 13.6354 54.53 13.6914 54.53H15.0914C14.9141 54.4087 14.8254 54.1847 14.8254 53.858C14.8254 53.7367 14.8394 53.606 14.8674 53.466L15.0494 52.542C15.1427 52.0753 15.3714 51.6927 15.7354 51.394C16.0994 51.086 16.5147 50.9367 16.9814 50.946L17.5414 50.96C17.9241 50.96 18.2694 51.0533 18.5774 51.24C18.8947 51.4267 19.1421 51.6787 19.3194 51.996C19.5061 52.304 19.5994 52.6447 19.5994 53.018V54.53H21.6994V52.822C21.6994 52.57 21.6294 52.3553 21.4894 52.178C21.3587 51.9913 21.1767 51.8607 20.9434 51.786L16.1554 50.288L16.5334 49.042L21.1674 50.47C21.6901 50.638 22.1147 50.9367 22.4414 51.366C22.7774 51.786 22.9454 52.2807 22.9454 52.85V54.46C22.9454 54.9173 22.8007 55.2907 22.5114 55.58C22.2221 55.86 21.8487 56 21.3914 56H19.2214V55.44ZM18.3954 52.836C18.3954 52.64 18.3301 52.4767 18.1994 52.346C18.0687 52.2153 17.9007 52.15 17.6954 52.15H16.9254C16.5614 52.15 16.3374 52.3413 16.2534 52.724L16.0434 53.9C16.0341 53.9373 16.0294 53.984 16.0294 54.04C16.0294 54.2173 16.0854 54.3573 16.1974 54.46C16.3187 54.5533 16.4681 54.6 16.6454 54.6H18.3954V52.836ZM27.5782 53.242C27.5782 53.5967 27.6995 53.9 27.9422 54.152C28.1942 54.404 28.5022 54.53 28.8662 54.53H34.5362C34.7789 54.53 34.9795 54.4507 35.1382 54.292C35.2969 54.124 35.3762 53.9233 35.3762 53.69V51.338H36.6362V53.676C36.6362 53.9093 36.7202 54.11 36.8882 54.278C37.0562 54.446 37.2615 54.53 37.5042 54.53H37.9102C37.9662 54.53 38.0129 54.5487 38.0502 54.586C38.0875 54.614 38.1062 54.6607 38.1062 54.726V55.804C38.1062 55.86 38.0875 55.9067 38.0502 55.944C38.0129 55.9813 37.9662 56 37.9102 56H37.7142C37.0049 56 36.4402 55.7107 36.0202 55.132C35.6002 55.7107 35.0355 56 34.3262 56H28.9922C28.5069 56 28.0589 55.8787 27.6482 55.636C27.2375 55.3933 26.9109 55.0713 26.6682 54.67C26.4349 54.2593 26.3182 53.8113 26.3182 53.326V50.932H27.5782V53.242ZM31.8622 49.518H33.2482V50.918H31.8622V49.518ZM29.7342 49.518H31.1202V50.918H29.7342V49.518ZM37.9043 56C37.8483 56 37.8016 55.9813 37.7643 55.944C37.727 55.9067 37.7083 55.86 37.7083 55.804V54.726C37.7083 54.67 37.7316 54.6233 37.7783 54.586C37.8156 54.5487 37.8576 54.53 37.9043 54.53H38.5063C38.7396 54.53 38.9356 54.446 39.0943 54.278C39.2623 54.1007 39.3463 53.8907 39.3463 53.648V51.352H40.5923V53.662C40.5923 53.8953 40.6763 54.1007 40.8443 54.278C41.0216 54.446 41.227 54.53 41.4603 54.53H41.7403C42.0016 54.53 42.207 54.4647 42.3563 54.334C42.515 54.194 42.6176 54.0073 42.6643 53.774L43.1403 51.38L44.4003 51.618L44.0083 53.592C43.999 53.6293 43.9943 53.6807 43.9943 53.746C43.9943 53.9607 44.069 54.1473 44.2183 54.306C44.377 54.4553 44.5683 54.53 44.7923 54.53H45.9543V50.946H47.2143V54.53C47.2143 54.95 47.0743 55.3 46.7943 55.58C46.5143 55.86 46.1643 56 45.7443 56H44.7923C44.0923 56 43.593 55.706 43.2943 55.118C43.1076 55.4073 42.8743 55.6267 42.5943 55.776C42.3143 55.9253 42.011 56 41.6843 56C40.9656 56 40.401 55.7107 39.9903 55.132C39.5516 55.7107 38.9776 56 38.2683 56H37.9043ZM48.8905 46.592H50.1505V56H48.8905V46.592ZM57.9893 54.53C58.0453 54.53 58.0919 54.5487 58.1293 54.586C58.1666 54.6233 58.1853 54.67 58.1853 54.726V55.804C58.1853 55.9347 58.1199 56 57.9893 56H56.7153V54.53H57.9893ZM55.6653 55.874C55.4693 55.958 55.1239 56 54.6293 56H53.7893C53.4159 56 53.0753 55.9067 52.7673 55.72C52.4686 55.5333 52.2306 55.286 52.0533 54.978C51.8759 54.67 51.7873 54.334 51.7873 53.97C51.7873 53.8113 51.7966 53.69 51.8153 53.606L52.0393 52.36C52.1233 51.884 52.3519 51.492 52.7253 51.184C53.1079 50.8667 53.5419 50.708 54.0273 50.708H54.8113C55.1939 50.708 55.5486 50.806 55.8753 51.002C56.2019 51.1887 56.4586 51.4453 56.6453 51.772C56.8319 52.0893 56.9253 52.4347 56.9253 52.808V55.832C56.9253 56.5507 56.7246 57.1853 56.3233 57.736C55.9313 58.296 55.4039 58.6927 54.7413 58.926L52.9633 59.514L52.5993 58.338L54.4193 57.736C54.8206 57.596 55.1286 57.372 55.3433 57.064C55.5579 56.7653 55.6653 56.4433 55.6653 56.098V55.874ZM55.6793 52.808C55.6793 52.612 55.6093 52.4487 55.4693 52.318C55.3386 52.178 55.1706 52.108 54.9653 52.108H53.8873C53.7193 52.108 53.5793 52.1547 53.4673 52.248C53.3646 52.3413 53.2946 52.4813 53.2573 52.668L53.0473 53.802C53.0379 53.83 53.0333 53.872 53.0333 53.928C53.0333 54.096 53.0893 54.2407 53.2013 54.362C53.3226 54.474 53.4719 54.53 53.6493 54.53H55.6793V52.808ZM57.9883 56C57.8576 56 57.7923 55.9347 57.7923 55.804V54.726C57.7923 54.6793 57.8156 54.6373 57.8623 54.6C57.8996 54.5533 57.9416 54.53 57.9883 54.53H60.3963C60.8816 54.53 61.2969 54.474 61.6423 54.362C61.9876 54.25 62.3329 54.0213 62.6783 53.676L63.5603 52.822C63.5976 52.7847 63.6629 52.724 63.7563 52.64C63.8496 52.556 63.9196 52.5 63.9663 52.472L60.7743 51.52C60.7463 51.5107 60.6996 51.506 60.6343 51.506C60.5223 51.506 60.4196 51.5433 60.3263 51.618C60.2329 51.6833 60.1723 51.7673 60.1443 51.87L59.7103 53.102L58.6323 52.808L58.9823 51.618C59.0943 51.2167 59.3136 50.8993 59.6403 50.666C59.9763 50.4233 60.3449 50.302 60.7463 50.302C60.9516 50.302 61.1243 50.3253 61.2643 50.372L66.7523 52.024L66.4023 53.186L65.7723 53.004C65.5856 52.9573 65.4549 52.934 65.3803 52.934C65.2683 52.934 65.1609 52.962 65.0583 53.018C64.9649 53.074 64.8343 53.1813 64.6663 53.34L63.0563 54.908C62.6923 55.272 62.2583 55.5473 61.7543 55.734C61.2503 55.9113 60.7229 56 60.1723 56H57.9883ZM59.9063 47.222H61.2923V48.608H59.9063V47.222ZM65.3716 58.338L67.1776 57.75C67.5883 57.6007 67.9056 57.3767 68.1296 57.078C68.363 56.7887 68.4796 56.4247 68.4796 55.986V51.352H69.7396V55.86C69.7396 56.588 69.539 57.218 69.1376 57.75C68.7363 58.2913 68.1996 58.6787 67.5276 58.912L65.7496 59.528L65.3716 58.338ZM73.2388 56C72.7721 56 72.3754 55.8367 72.0488 55.51C71.7221 55.174 71.5588 54.7727 71.5588 54.306V52.668H72.6228V54.054C72.6228 54.1847 72.6648 54.2967 72.7488 54.39C72.8328 54.4833 72.9448 54.53 73.0848 54.53H75.3248C75.6421 54.53 75.8894 54.432 76.0668 54.236C76.2534 54.04 76.3468 53.802 76.3468 53.522C76.3468 53.2887 76.2954 53.088 76.1928 52.92L74.5688 49.994L75.6328 49.336L77.3268 52.332C77.5508 52.724 77.6628 53.1487 77.6628 53.606C77.6628 54.026 77.5601 54.4227 77.3548 54.796C77.1494 55.16 76.8648 55.454 76.5008 55.678C76.1461 55.8927 75.7448 56 75.2968 56H73.2388Z" fill="black"/>
</svg>
