<svg width="101" height="72" viewBox="0 0 101 72" fill="none" xmlns="http://www.w3.org/2000/svg">
<path d="M58.8 27.7194C58.59 27.2894 57.54 24.6994 57.11 23.6594C56.7 22.6794 56.53 22.4594 55.33 22.4594C54.63 22.4994 52.39 22.5794 51.8 22.5694C51.5 22.1394 49.11 19.0994 48.36 17.9994C48.1 17.6194 47.78 17.5194 47.57 17.7094C47.29 17.9594 47.44 18.2294 47.57 18.4694C48.64 20.4094 51.1 25.3694 51.4 25.9394C51.6 26.3194 51.57 26.9894 50.02 26.9894C49.01 26.9494 48.86 26.6794 48.28 25.7094C47.82 24.5094 46.74 24.6394 47 25.3194C47.19 25.8194 47.77 27.2894 47.87 27.3894C48.2 28.1094 51.58 29.4494 52.96 30.1994C53.23 30.3494 53.69 30.5394 53.69 30.5394C53.69 30.5394 52.97 31.1494 52.55 31.3894C52.3 31.2794 48.93 29.6594 47.67 29.0094C46.72 28.4994 46.46 27.2794 46.37 27.1194C46.04 27.0994 40.05 27.0994 39.77 27.0594C39.32 27.0194 39.25 26.2894 39.52 25.9894C39.68 25.8194 39.83 25.7894 40.05 25.7794C40.05 22.2594 40.05 15.1494 40.05 15.1494H39.33V12.6094L57.11 12.6394V15.1394H56.5L56.46 16.4494H61.61V18.8694H60.94L60.91 25.7494H61.43C61.43 25.7494 61.45 26.2794 61.43 27.0294C60.53 27.0094 59.61 27.1094 58.77 27.7194H58.8ZM51.07 19.7594V15.1494H45.16C45.16 15.1494 45.16 15.4994 45.16 15.6494C45.16 17.6194 45.16 21.8694 45.16 21.8694H47.85C47.85 21.8694 46.41 18.9294 46.11 18.1494C45.83 17.4394 46.17 16.6894 46.83 16.3094C47.41 15.9794 48.24 16.0794 48.71 16.5794C48.93 16.8094 51.07 19.7594 51.07 19.7594ZM56.44 19.1594V20.9194L56.96 21.0294C57.33 21.1094 57.67 21.3194 57.89 21.6294L58.16 21.9994H59.67V19.1694H56.43L56.44 19.1594ZM44.13 17.8094V15.1494H41.22V17.8294L44.13 17.8094ZM44.13 21.8694V19.1594L41.22 19.1894V21.8694H44.13ZM55.25 15.1394H52.41V17.8294H55.25V15.1394ZM41.22 25.7094H44.13V23.2394H41.22V25.7094ZM55.25 20.9194V19.0994H52.41L52.44 20.9994L55.24 20.9194H55.25ZM56.06 13.7194C56.06 13.7194 45.37 13.6694 40.64 13.6794C40.6 13.6794 40.64 14.0294 40.64 14.0294H56.06V13.7194ZM45.2 23.2394V25.7094H46.02C46.02 25.7094 45.36 24.2794 46.29 23.9194C46.75 23.7394 47.73 23.2994 48.53 24.2094C48.84 24.5694 49.06 25.0094 49.34 25.3994C49.42 25.5194 49.65 25.9894 49.91 25.7894C49.64 25.0294 48.65 23.2394 48.65 23.2394H45.2ZM58.5 23.1994L59.46 25.6594H59.66L59.68 23.1994H58.5ZM56.89 17.5194V18.0894H60.23V17.5594L56.89 17.5194Z" fill="black"/>
<path d="M10.91 53.032C10.91 52.612 11.0127 52.2247 11.218 51.87C11.4327 51.506 11.7173 51.2213 12.072 51.016C12.436 50.8013 12.828 50.694 13.248 50.694H16.44C16.8227 50.694 17.1773 50.792 17.504 50.988C17.8307 51.1747 18.0873 51.4313 18.274 51.758C18.47 52.0753 18.568 52.4253 18.568 52.808V54.53C18.568 54.9593 18.428 55.314 18.148 55.594C17.8773 55.8647 17.5273 56 17.098 56H15.418C15.054 56 14.718 55.9067 14.41 55.72C14.102 55.5333 13.8593 55.286 13.682 54.978C13.5047 54.67 13.416 54.334 13.416 53.97C13.416 53.8113 13.4253 53.69 13.444 53.606L13.724 52.094H12.996C12.772 52.094 12.5713 52.1827 12.394 52.36C12.226 52.5373 12.142 52.7427 12.142 52.976V59.5H10.91V53.032ZM17.336 54.53V52.794C17.336 52.598 17.266 52.4347 17.126 52.304C16.986 52.164 16.818 52.094 16.622 52.094H14.998L14.676 53.802C14.6667 53.83 14.662 53.8767 14.662 53.942C14.662 54.11 14.718 54.25 14.83 54.362C14.9513 54.474 15.1053 54.53 15.292 54.53H17.336ZM24.0559 55.804C23.7479 55.9347 23.4026 56 23.0199 56H22.1799C21.8066 56 21.4659 55.9067 21.1579 55.72C20.8592 55.5333 20.6212 55.286 20.4439 54.978C20.2666 54.67 20.1779 54.334 20.1779 53.97C20.1779 53.8113 20.1872 53.69 20.2059 53.606L20.4299 52.36C20.5139 51.884 20.7426 51.492 21.1159 51.184C21.4986 50.8667 21.9326 50.708 22.4179 50.708H23.2019C23.5846 50.708 23.9392 50.806 24.2659 51.002C24.5926 51.1887 24.8492 51.4453 25.0359 51.772C25.2226 52.0893 25.3159 52.4347 25.3159 52.808V55.832C25.3159 56.5507 25.1152 57.1853 24.7139 57.736C24.3219 58.296 23.7946 58.6927 23.1319 58.926L21.3539 59.514L20.9899 58.338L22.8099 57.736C23.2019 57.596 23.5052 57.372 23.7199 57.064C23.9439 56.7653 24.0559 56.42 24.0559 56.028V55.804ZM24.0699 52.808C24.0699 52.612 23.9999 52.4487 23.8599 52.318C23.7292 52.178 23.5612 52.108 23.3559 52.108H22.2779C22.1099 52.108 21.9699 52.1547 21.8579 52.248C21.7552 52.3413 21.6852 52.4813 21.6479 52.668L21.4379 53.802C21.4286 53.83 21.4239 53.872 21.4239 53.928C21.4239 54.096 21.4799 54.2407 21.5919 54.362C21.7132 54.474 21.8626 54.53 22.0399 54.53H24.0699V52.808ZM25.6702 58.296L26.7202 57.75C27.0655 57.5727 27.3268 57.3487 27.5042 57.078C27.6815 56.8073 27.7702 56.4013 27.7702 55.86V51.352H29.0162V55.776C29.0162 56.56 28.8762 57.1807 28.5962 57.638C28.3162 58.1047 27.8868 58.4967 27.3082 58.814L26.2442 59.416L25.6702 58.296ZM36.9619 54.53C37.0179 54.53 37.0646 54.5487 37.1019 54.586C37.1393 54.6233 37.1579 54.67 37.1579 54.726V55.804C37.1579 55.9347 37.0926 56 36.9619 56H35.6879V54.53H36.9619ZM34.6379 55.874C34.4419 55.958 34.0966 56 33.6019 56H32.7619C32.3886 56 32.0479 55.9067 31.7399 55.72C31.4413 55.5333 31.2033 55.286 31.0259 54.978C30.8486 54.67 30.7599 54.334 30.7599 53.97C30.7599 53.8113 30.7693 53.69 30.7879 53.606L31.0119 52.36C31.0959 51.884 31.3246 51.492 31.6979 51.184C32.0806 50.8667 32.5146 50.708 32.9999 50.708H33.7839C34.1666 50.708 34.5213 50.806 34.8479 51.002C35.1746 51.1887 35.4313 51.4453 35.6179 51.772C35.8046 52.0893 35.8979 52.4347 35.8979 52.808V55.832C35.8979 56.5507 35.6973 57.1853 35.2959 57.736C34.9039 58.296 34.3766 58.6927 33.7139 58.926L31.9359 59.514L31.5719 58.338L33.3919 57.736C33.7933 57.596 34.1013 57.372 34.3159 57.064C34.5306 56.7653 34.6379 56.4433 34.6379 56.098V55.874ZM34.6519 52.808C34.6519 52.612 34.5819 52.4487 34.4419 52.318C34.3113 52.178 34.1433 52.108 33.9379 52.108H32.8599C32.6919 52.108 32.5519 52.1547 32.4399 52.248C32.3373 52.3413 32.2673 52.4813 32.2299 52.668L32.0199 53.802C32.0106 53.83 32.0059 53.872 32.0059 53.928C32.0059 54.096 32.0619 54.2407 32.1739 54.362C32.2953 54.474 32.4446 54.53 32.6219 54.53H34.6519V52.808ZM36.9609 56C36.9049 56 36.8583 55.9813 36.8209 55.944C36.7836 55.9067 36.7649 55.86 36.7649 55.804V54.726C36.7649 54.67 36.7883 54.6233 36.8349 54.586C36.8723 54.5487 36.9143 54.53 36.9609 54.53H37.5629C37.7963 54.53 37.9923 54.446 38.1509 54.278C38.3189 54.1007 38.4029 53.8907 38.4029 53.648V51.352H39.6489V53.662C39.6489 53.8953 39.7329 54.1007 39.9009 54.278C40.0783 54.446 40.2836 54.53 40.5169 54.53H40.7969C41.0583 54.53 41.2636 54.4647 41.4129 54.334C41.5716 54.194 41.6743 54.0073 41.7209 53.774L42.1969 51.38L43.4569 51.618L43.0649 53.592C43.0556 53.6293 43.0509 53.6807 43.0509 53.746C43.0509 53.9607 43.1256 54.1473 43.2749 54.306C43.4336 54.4553 43.6249 54.53 43.8489 54.53H45.0109V50.946H46.2709V54.53C46.2709 54.95 46.1309 55.3 45.8509 55.58C45.5709 55.86 45.2209 56 44.8009 56H43.8489C43.1489 56 42.6496 55.706 42.3509 55.118C42.1643 55.4073 41.9309 55.6267 41.6509 55.776C41.3709 55.9253 41.0676 56 40.7409 56C40.0223 56 39.4576 55.7107 39.0469 55.132C38.6083 55.7107 38.0343 56 37.3249 56H36.9609ZM41.7769 46.62H43.1629V48.006H41.7769V46.62ZM40.7129 48.524H42.0989V49.924H40.7129V48.524ZM42.8409 48.524H44.2269V49.924H42.8409V48.524ZM57.0064 53.956C57.3424 54.0307 57.6084 54.194 57.8044 54.446C58.0098 54.6887 58.1124 54.978 58.1124 55.314V55.776C58.1124 56.2613 57.9911 56.7093 57.7484 57.12C57.5058 57.54 57.1791 57.8713 56.7684 58.114C56.3578 58.3567 55.9098 58.478 55.4244 58.478H52.6104C52.0784 58.478 51.5838 58.3427 51.1264 58.072C50.6691 57.8013 50.3051 57.4373 50.0344 56.98C49.7731 56.5227 49.6424 56.028 49.6424 55.496V52.29H50.8884V55.314C50.8884 55.7807 51.0518 56.1773 51.3784 56.504C51.7144 56.8307 52.1158 56.994 52.5824 56.994H55.5924C55.9564 56.994 56.2551 56.8633 56.4884 56.602C56.7311 56.35 56.8524 56.0373 56.8524 55.664V55.202L52.9884 54.278V52.724C52.9884 52.2667 53.0911 51.842 53.2964 51.45C53.5018 51.058 53.7818 50.736 54.1364 50.484C54.5004 50.232 54.9064 50.078 55.3544 50.022L57.1464 49.784L57.3004 51.058L55.3124 51.324C54.9858 51.3707 54.7198 51.52 54.5144 51.772C54.3091 52.0147 54.2064 52.2993 54.2064 52.626V53.284L57.0064 53.956ZM62.2063 56C61.7863 56 61.399 55.8973 61.0443 55.692C60.6897 55.4867 60.4097 55.2113 60.2043 54.866C59.999 54.5113 59.8963 54.124 59.8963 53.704V46.592H61.1563V53.676C61.1563 53.9187 61.2357 54.124 61.3943 54.292C61.553 54.4507 61.749 54.53 61.9823 54.53H62.6823C62.7383 54.53 62.785 54.5533 62.8223 54.6C62.8597 54.6373 62.8783 54.684 62.8783 54.74V55.804C62.8783 55.9347 62.813 56 62.6823 56H62.2063ZM68.2077 55.44C67.9837 55.636 67.7877 55.7807 67.6197 55.874C67.4517 55.958 67.1997 56 66.8637 56H62.6777C62.6217 56 62.5751 55.9813 62.5377 55.944C62.5004 55.9067 62.4817 55.8647 62.4817 55.818V54.712C62.4817 54.656 62.5004 54.614 62.5377 54.586C62.5751 54.5487 62.6217 54.53 62.6777 54.53H64.0777C63.9004 54.4087 63.8117 54.1847 63.8117 53.858C63.8117 53.7367 63.8257 53.606 63.8537 53.466L64.0357 52.542C64.1291 52.0753 64.3577 51.6927 64.7217 51.394C65.0857 51.086 65.5011 50.9367 65.9677 50.946L66.5277 50.96C66.9104 50.96 67.2557 51.0533 67.5637 51.24C67.8811 51.4267 68.1284 51.6787 68.3057 51.996C68.4924 52.304 68.5857 52.6447 68.5857 53.018V54.53H70.6857V52.822C70.6857 52.57 70.6157 52.3553 70.4757 52.178C70.3451 51.9913 70.1631 51.8607 69.9297 51.786L65.1417 50.288L65.5197 49.042L70.1537 50.47C70.6764 50.638 71.1011 50.9367 71.4277 51.366C71.7637 51.786 71.9317 52.2807 71.9317 52.85V54.46C71.9317 54.9173 71.7871 55.2907 71.4977 55.58C71.2084 55.86 70.8351 56 70.3777 56H68.2077V55.44ZM67.3817 52.836C67.3817 52.64 67.3164 52.4767 67.1857 52.346C67.0551 52.2153 66.8871 52.15 66.6817 52.15H65.9117C65.5477 52.15 65.3237 52.3413 65.2397 52.724L65.0297 53.9C65.0204 53.9373 65.0157 53.984 65.0157 54.04C65.0157 54.2173 65.0717 54.3573 65.1837 54.46C65.3051 54.5533 65.4544 54.6 65.6317 54.6H67.3817V52.836ZM77.4172 55.804C77.1092 55.9347 76.7639 56 76.3812 56H75.5412C75.1679 56 74.8272 55.9067 74.5192 55.72C74.2206 55.5333 73.9826 55.286 73.8052 54.978C73.6279 54.67 73.5392 54.334 73.5392 53.97C73.5392 53.8113 73.5486 53.69 73.5672 53.606L73.7912 52.36C73.8752 51.884 74.1039 51.492 74.4772 51.184C74.8599 50.8667 75.2939 50.708 75.7792 50.708H76.5632C76.9459 50.708 77.3006 50.806 77.6272 51.002C77.9539 51.1887 78.2106 51.4453 78.3972 51.772C78.5839 52.0893 78.6772 52.4347 78.6772 52.808V55.832C78.6772 56.5507 78.4766 57.1853 78.0752 57.736C77.6832 58.296 77.1559 58.6927 76.4932 58.926L74.7152 59.514L74.3512 58.338L76.1712 57.736C76.5632 57.596 76.8666 57.372 77.0812 57.064C77.3052 56.7653 77.4172 56.42 77.4172 56.028V55.804ZM77.4312 52.808C77.4312 52.612 77.3612 52.4487 77.2212 52.318C77.0906 52.178 76.9226 52.108 76.7172 52.108H75.6392C75.4712 52.108 75.3312 52.1547 75.2192 52.248C75.1166 52.3413 75.0466 52.4813 75.0092 52.668L74.7992 53.802C74.7899 53.83 74.7852 53.872 74.7852 53.928C74.7852 54.096 74.8412 54.2407 74.9532 54.362C75.0746 54.474 75.2239 54.53 75.4012 54.53H77.4312V52.808ZM79.0315 58.296L80.0815 57.75C80.4268 57.5727 80.6882 57.3487 80.8655 57.078C81.0428 56.8073 81.1315 56.4013 81.1315 55.86V51.352H82.3775V55.776C82.3775 56.56 82.2375 57.1807 81.9575 57.638C81.6775 58.1047 81.2482 58.4967 80.6695 58.814L79.6055 59.416L79.0315 58.296ZM82.7912 58.296L83.8413 57.75C84.1866 57.5727 84.4479 57.3487 84.6253 57.078C84.8026 56.8073 84.8913 56.4013 84.8913 55.86V51.352H86.1373V55.776C86.1373 56.56 85.9973 57.1807 85.7173 57.638C85.4373 58.1047 85.0079 58.4967 84.4293 58.814L83.3653 59.416L82.7912 58.296ZM84.8213 48.496H86.2073V49.882H84.8213V48.496ZM86.551 58.296L87.601 57.75C87.9463 57.5727 88.2077 57.3487 88.385 57.078C88.5623 56.8073 88.651 56.4013 88.651 55.86V51.352H89.897V55.776C89.897 56.56 89.757 57.1807 89.477 57.638C89.197 58.1047 88.7677 58.4967 88.189 58.814L87.125 59.416L86.551 58.296Z" fill="black"/>
</svg>
