<svg width="105" height="72" viewBox="0 0 105 72" fill="none" xmlns="http://www.w3.org/2000/svg">
<path d="M44.3 22.0595C44.3 19.4295 44.3 16.8095 44.3 14.1795C44.3 13.5895 44.33 13.0195 44.72 12.5095C45.22 11.8595 45.83 11.4495 46.64 11.3695C47 11.3295 47.36 11.3395 47.73 11.3395C51.17 11.3395 54.62 11.3395 58.06 11.3395C58.38 11.3395 58.7 11.3295 59.01 11.3595C60.46 11.4895 61.43 12.4795 61.45 13.9395C61.48 16.7495 61.48 19.5595 61.48 22.3695C61.48 24.2695 61.45 26.1695 61.47 28.0795C61.47 28.7095 61.3 29.1995 60.84 29.6395C59.95 30.4795 59.09 31.3495 58.24 32.2295C57.9 32.5795 57.54 32.7495 57.05 32.7395C53.7 32.7295 50.34 32.7495 46.99 32.7295C45.36 32.7195 44.33 31.6395 44.31 29.9695C44.29 27.3395 44.31 24.7195 44.31 22.0895L44.3 22.0595ZM59.82 27.1795C59.82 27.1795 59.89 26.2495 59.89 25.8495C59.89 22.1795 59.89 18.5195 59.89 14.8495C59.89 13.2495 59.69 13.0595 58.09 13.0595C54.61 13.0595 51.12 13.0595 47.64 13.0595C47.37 13.0595 47.09 13.0595 46.83 13.0895C46.34 13.1495 46.02 13.4795 45.96 13.9795C45.93 14.2495 45.95 14.5195 45.95 14.7895C45.95 16.8295 45.95 18.8595 45.95 20.8995C45.95 23.8395 45.94 26.7795 45.95 29.7195C45.95 30.6495 46.35 31.0295 47.28 31.0395C49.9 31.0495 52.53 31.0595 55.15 31.0595C55.45 31.0595 56.24 30.9795 56.24 30.9795V27.1895H59.84L59.82 27.1795ZM57.69 30.1495C58.17 29.9695 59.01 29.1595 59.12 28.6495C58.8 28.6695 57.95 28.6795 57.63 28.6995C57.65 29.0295 57.67 29.8395 57.69 30.1495Z" fill="black"/>
<path d="M54.74 26.6191H48.24V28.2391H54.74V26.6191Z" fill="black"/>
<path d="M57.55 23.7891H48.22V25.4091H57.55V23.7891Z" fill="black"/>
<path d="M57.55 20.9492H48.22V22.5692H57.55V20.9492Z" fill="black"/>
<path d="M57.55 18.1191H48.22V19.7391H57.55V18.1191Z" fill="black"/>
<path d="M57.55 15.2891H48.22V16.9091H57.55V15.2891Z" fill="black"/>
<path d="M14.07 56C13.594 56 13.1507 55.8787 12.74 55.636C12.3293 55.3933 12.0027 55.0713 11.76 54.67C11.5267 54.2593 11.41 53.8113 11.41 53.326V50.932H12.67V53.228C12.67 53.5827 12.796 53.8907 13.048 54.152C13.3 54.404 13.6033 54.53 13.958 54.53H19.614C19.8473 54.53 20.0433 54.4507 20.202 54.292C20.37 54.124 20.454 53.9187 20.454 53.676V50.932H21.714V53.662C21.714 54.082 21.6067 54.474 21.392 54.838C21.1867 55.1927 20.9067 55.4773 20.552 55.692C20.1973 55.8973 19.81 56 19.39 56H14.07ZM16.954 49.518H18.34V50.918H16.954V49.518ZM14.826 49.518H16.212V50.918H14.826V49.518ZM23.4002 46.592H24.6602V56H23.4002V46.592ZM24.6936 58.296L25.7436 57.75C26.0889 57.5727 26.3503 57.3487 26.5276 57.078C26.7049 56.8073 26.7936 56.4013 26.7936 55.86V51.352H28.0396V55.776C28.0396 56.56 27.8996 57.1807 27.6196 57.638C27.3396 58.1047 26.9103 58.4967 26.3316 58.814L25.2676 59.416L24.6936 58.296ZM28.4534 58.296L29.5034 57.75C29.8487 57.5727 30.11 57.3487 30.2874 57.078C30.4647 56.8073 30.5534 56.4013 30.5534 55.86V51.352H31.7994V53.732C31.7994 53.956 31.8834 54.1473 32.0514 54.306C32.2287 54.4553 32.4294 54.53 32.6534 54.53H33.1854C33.26 54.53 33.3114 54.544 33.3394 54.572C33.3674 54.5907 33.3814 54.6373 33.3814 54.712V55.804C33.3814 55.8787 33.3674 55.93 33.3394 55.958C33.3114 55.986 33.26 56 33.1854 56H32.8634C32.658 56 32.4574 55.958 32.2614 55.874C32.0747 55.79 31.9207 55.664 31.7994 55.496V56.028C31.7994 56.7373 31.6547 57.302 31.3654 57.722C31.0854 58.142 30.6607 58.506 30.0914 58.814L29.0274 59.416L28.4534 58.296ZM33.1816 56C33.1256 56 33.079 55.9813 33.0416 55.944C33.0043 55.8973 32.9856 55.8507 32.9856 55.804V54.74C32.9856 54.684 33.0043 54.6373 33.0416 54.6C33.079 54.5533 33.1256 54.53 33.1816 54.53H34.3576H34.6376C34.1616 54.054 33.9236 53.5407 33.9236 52.99V52.57C33.9236 52.1313 34.0356 51.7207 34.2596 51.338C34.4836 50.9553 34.7823 50.652 35.1556 50.428C35.5383 50.204 35.9396 50.092 36.3596 50.092H36.5696C36.999 50.092 37.4003 50.204 37.7736 50.428C38.147 50.6427 38.441 50.9367 38.6556 51.31C38.8796 51.6833 38.9916 52.0893 38.9916 52.528V52.99C38.9916 53.522 38.7536 54.0353 38.2776 54.53H38.5436H39.7336C39.7803 54.53 39.8223 54.5533 39.8596 54.6C39.9063 54.6373 39.9296 54.684 39.9296 54.74V55.804C39.9296 55.8507 39.9063 55.8973 39.8596 55.944C39.8223 55.9813 39.7803 56 39.7336 56H38.9916C38.5436 56 38.1236 55.9673 37.7316 55.902C37.3396 55.8273 36.9103 55.7013 36.4436 55.524C35.977 55.7013 35.5476 55.8273 35.1556 55.902C34.773 55.9673 34.3576 56 33.9096 56H33.1816ZM36.4436 54.362C37.321 53.9513 37.7596 53.5267 37.7596 53.088V52.682C37.7596 52.3553 37.643 52.08 37.4096 51.856C37.1763 51.6227 36.8916 51.506 36.5556 51.506H36.3316C36.005 51.506 35.725 51.6227 35.4916 51.856C35.2676 52.08 35.1556 52.3553 35.1556 52.682V53.088C35.1556 53.5453 35.585 53.97 36.4436 54.362ZM36.8076 47.222H38.1936V48.622H36.8076V47.222ZM34.6796 47.222H36.0656V48.622H34.6796V47.222ZM39.7305 56C39.6745 56 39.6278 55.9813 39.5905 55.944C39.5531 55.9067 39.5345 55.86 39.5345 55.804V54.726C39.5345 54.67 39.5531 54.6233 39.5905 54.586C39.6185 54.5487 39.6651 54.53 39.7305 54.53H40.1785C40.4118 54.53 40.6125 54.4647 40.7805 54.334C40.9485 54.2033 41.0558 54.0167 41.1025 53.774L41.3825 52.332C41.4758 51.8653 41.7091 51.478 42.0825 51.17C42.4558 50.862 42.8805 50.708 43.3565 50.708H44.1405C44.5231 50.708 44.8778 50.8013 45.2045 50.988C45.5311 51.1747 45.7878 51.4313 45.9745 51.758C46.1705 52.0847 46.2685 52.4393 46.2685 52.822V54.53C46.2685 54.95 46.1285 55.3 45.8485 55.58C45.5685 55.86 45.2091 56 44.7705 56H43.1185C42.4651 56 41.9751 55.7107 41.6485 55.132C41.3125 55.7107 40.7945 56 40.0945 56H39.7305ZM45.0085 54.53V52.808C45.0085 52.612 44.9385 52.444 44.7985 52.304C44.6678 52.164 44.4998 52.094 44.2945 52.094H43.2725C43.1045 52.094 42.9551 52.15 42.8245 52.262C42.6938 52.374 42.6145 52.514 42.5865 52.682L42.3625 53.802C42.3531 53.83 42.3485 53.8673 42.3485 53.914C42.3485 54.082 42.4091 54.2267 42.5305 54.348C42.6518 54.4693 42.7918 54.53 42.9505 54.53H45.0085ZM53.4582 55.804C53.1502 55.9347 52.8049 56 52.4222 56H51.5822C51.2089 56 50.8682 55.9067 50.5602 55.72C50.2616 55.5333 50.0236 55.286 49.8462 54.978C49.6689 54.67 49.5802 54.334 49.5802 53.97C49.5802 53.8113 49.5896 53.69 49.6082 53.606L49.8322 52.36C49.9162 51.884 50.1449 51.492 50.5182 51.184C50.9009 50.8667 51.3349 50.708 51.8202 50.708H52.6042C52.9869 50.708 53.3416 50.806 53.6682 51.002C53.9949 51.1887 54.2516 51.4453 54.4382 51.772C54.6249 52.0893 54.7182 52.4347 54.7182 52.808V55.832C54.7182 56.5507 54.5176 57.1853 54.1162 57.736C53.7242 58.296 53.1969 58.6927 52.5342 58.926L50.7562 59.514L50.3922 58.338L52.2122 57.736C52.6042 57.596 52.9076 57.372 53.1222 57.064C53.3462 56.7653 53.4582 56.42 53.4582 56.028V55.804ZM53.4722 52.808C53.4722 52.612 53.4022 52.4487 53.2622 52.318C53.1316 52.178 52.9636 52.108 52.7582 52.108H51.6802C51.5122 52.108 51.3722 52.1547 51.2602 52.248C51.1576 52.3413 51.0876 52.4813 51.0502 52.668L50.8402 53.802C50.8309 53.83 50.8262 53.872 50.8262 53.928C50.8262 54.096 50.8822 54.2407 50.9942 54.362C51.1156 54.474 51.2649 54.53 51.4422 54.53H53.4722V52.808ZM61.1498 58.45C60.6085 58.45 60.1091 58.3147 59.6518 58.044C59.2038 57.7827 58.8445 57.4233 58.5738 56.966C58.3031 56.518 58.1678 56.0233 58.1678 55.482V51.576H59.4278V55.3C59.4278 55.7667 59.5865 56.1633 59.9038 56.49C60.2305 56.8167 60.6271 56.98 61.0938 56.98H63.5718C63.9545 56.98 64.2811 56.84 64.5518 56.56C64.8318 56.28 64.9718 55.9487 64.9718 55.566V51.352H66.2318V53.69C66.2318 53.914 66.3111 54.11 66.4698 54.278C66.6285 54.446 66.8198 54.53 67.0438 54.53H67.7298C67.8605 54.53 67.9258 54.5953 67.9258 54.726V55.804C67.9258 55.9347 67.8605 56 67.7298 56H67.3238C67.0718 56 66.8478 55.9533 66.6518 55.86C66.4651 55.7667 66.3205 55.6453 66.2178 55.496V56.028C66.2178 56.4573 66.0918 56.8587 65.8398 57.232C65.5971 57.6053 65.2705 57.8993 64.8598 58.114C64.4585 58.338 64.0245 58.45 63.5578 58.45H61.1498ZM61.5138 49.938H62.8998V51.324H61.5138V49.938ZM67.7305 56C67.6745 56 67.6278 55.986 67.5905 55.958C67.5531 55.9207 67.5345 55.8693 67.5345 55.804V54.74C67.5345 54.684 67.5578 54.6373 67.6045 54.6C67.6418 54.5533 67.6838 54.53 67.7305 54.53H68.7805C69.2938 54.53 69.6065 54.278 69.7185 53.774L70.2085 51.38L71.4265 51.618L71.0345 53.592C71.0251 53.6293 71.0205 53.69 71.0205 53.774C71.0205 53.998 71.0951 54.18 71.2445 54.32C71.3938 54.46 71.5898 54.53 71.8325 54.53H72.7845C72.8405 54.53 72.8871 54.5533 72.9245 54.6C72.9618 54.6373 72.9805 54.684 72.9805 54.74V55.804C72.9805 55.86 72.9618 55.9067 72.9245 55.944C72.8871 55.9813 72.8405 56 72.7845 56H71.8185C71.4825 56 71.1791 55.9253 70.9085 55.776C70.6471 55.6267 70.4511 55.412 70.3205 55.132C70.1711 55.4027 69.9471 55.6173 69.6485 55.776C69.3498 55.9253 69.0371 56 68.7105 56H67.7305ZM70.6285 57.68H72.0145V59.08H70.6285V57.68ZM68.5005 57.68H69.8865V59.08H68.5005V57.68ZM72.7891 56C72.7331 56 72.6864 55.9813 72.6491 55.944C72.6117 55.9067 72.5931 55.86 72.5931 55.804V54.74C72.5931 54.684 72.6117 54.6373 72.6491 54.6C72.6864 54.5533 72.7331 54.53 72.7891 54.53H74.3431C74.5857 54.53 74.7864 54.4507 74.9451 54.292C75.1037 54.124 75.1831 53.9187 75.1831 53.676V50.946H76.4431V53.662C76.4431 54.082 76.3357 54.474 76.1211 54.838C75.9157 55.1927 75.6357 55.4773 75.2811 55.692C74.9264 55.8973 74.5391 56 74.1191 56H72.7891ZM75.0431 48.188H76.4291V49.574H75.0431V48.188ZM78.1288 46.592H79.3888V56H78.1288V46.592ZM87.2275 54.53C87.2835 54.53 87.3302 54.5487 87.3675 54.586C87.4049 54.6233 87.4235 54.67 87.4235 54.726V55.804C87.4235 55.9347 87.3582 56 87.2275 56H85.9535V54.53H87.2275ZM84.9035 55.874C84.7075 55.958 84.3622 56 83.8675 56H83.0275C82.6542 56 82.3135 55.9067 82.0055 55.72C81.7069 55.5333 81.4689 55.286 81.2915 54.978C81.1142 54.67 81.0255 54.334 81.0255 53.97C81.0255 53.8113 81.0349 53.69 81.0535 53.606L81.2775 52.36C81.3615 51.884 81.5902 51.492 81.9635 51.184C82.3462 50.8667 82.7802 50.708 83.2655 50.708H84.0495C84.4322 50.708 84.7869 50.806 85.1135 51.002C85.4402 51.1887 85.6969 51.4453 85.8835 51.772C86.0702 52.0893 86.1635 52.4347 86.1635 52.808V55.832C86.1635 56.5507 85.9629 57.1853 85.5615 57.736C85.1695 58.296 84.6422 58.6927 83.9795 58.926L82.2015 59.514L81.8375 58.338L83.6575 57.736C84.0589 57.596 84.3669 57.372 84.5815 57.064C84.7962 56.7653 84.9035 56.4433 84.9035 56.098V55.874ZM84.9175 52.808C84.9175 52.612 84.8475 52.4487 84.7075 52.318C84.5769 52.178 84.4089 52.108 84.2035 52.108H83.1255C82.9575 52.108 82.8175 52.1547 82.7055 52.248C82.6029 52.3413 82.5329 52.4813 82.4955 52.668L82.2855 53.802C82.2762 53.83 82.2715 53.872 82.2715 53.928C82.2715 54.096 82.3275 54.2407 82.4395 54.362C82.5609 54.474 82.7102 54.53 82.8875 54.53H84.9175V52.808ZM87.2266 56C87.1706 56 87.1239 55.9813 87.0866 55.944C87.0492 55.8973 87.0306 55.846 87.0306 55.79V54.726C87.0306 54.6793 87.0492 54.6373 87.0866 54.6C87.1239 54.5533 87.1706 54.53 87.2266 54.53H90.8386C91.0999 54.53 91.3146 54.4553 91.4826 54.306C91.6599 54.1567 91.7486 53.9373 91.7486 53.648V53.382C91.4966 53.466 91.1979 53.508 90.8526 53.508H89.9426C89.5692 53.508 89.2286 53.4193 88.9206 53.242C88.6126 53.0553 88.3699 52.808 88.1926 52.5C88.0152 52.192 87.9266 51.856 87.9266 51.492C87.9266 51.324 87.9359 51.198 87.9546 51.114L88.1646 49.966C88.2579 49.49 88.4912 49.098 88.8646 48.79C89.2379 48.482 89.6672 48.328 90.1526 48.328H90.8946C91.2772 48.328 91.6272 48.426 91.9446 48.622C92.2619 48.8087 92.5139 49.0653 92.7006 49.392C92.8872 49.7093 92.9806 50.0593 92.9806 50.442V53.662C92.9806 54.0913 92.8732 54.4833 92.6586 54.838C92.4532 55.1927 92.1732 55.4773 91.8186 55.692C91.4639 55.8973 91.0766 56 90.6566 56H87.2266ZM91.7626 52.08V50.428C91.7626 50.232 91.6926 50.064 91.5526 49.924C91.4126 49.784 91.2446 49.714 91.0486 49.714H90.0686C89.8912 49.714 89.7372 49.77 89.6066 49.882C89.4759 49.994 89.3919 50.1387 89.3546 50.316L89.1726 51.338C89.1632 51.366 89.1586 51.4033 89.1586 51.45C89.1586 51.6273 89.2192 51.7767 89.3406 51.898C89.4619 52.0193 89.6066 52.08 89.7746 52.08H91.7626ZM90.8386 45.472H92.2246V46.872H90.8386V45.472ZM88.7106 45.472H90.0966V46.872H88.7106V45.472Z" fill="black"/>
</svg>
