<svg width="91" height="76" viewBox="0 0 91 76" fill="none" xmlns="http://www.w3.org/2000/svg">
<path d="M42.7233 16.8477C43.3417 16.8477 43.9833 16.8127 44.5083 16.836C46.2817 16.8127 46.62 17.0343 47.0867 17.501C47.9267 18.341 47.705 19.9043 47.7517 20.2543C48.0317 20.2893 48.195 20.2543 48.475 20.2543C49.3967 20.2543 50.3183 20.2893 51.2283 20.2543C52.0917 20.2193 52.7333 20.4643 53.2933 21.176C54.0167 22.086 54.8333 22.926 55.5917 23.766C56.28 23.766 57.3417 23.766 57.9717 23.766C59.3483 23.766 59.115 25.376 58.3917 25.376C57.9017 25.376 57.26 25.3877 57.1083 25.3993C57.1083 25.656 57.085 25.8893 57.085 26.1227C57.085 27.9193 57.085 29.716 57.085 31.5127C57.085 31.7577 57.085 32.0143 57.085 32.2593C57.0383 33.006 56.8283 33.2393 56.105 33.2743C55.44 33.3093 54.565 33.286 53.9 33.286C53.445 33.286 53.5383 33.3327 53.06 32.6677C52.7683 32.2477 52.6867 32.131 52.4533 31.7693C52.3133 31.5593 51.9283 31.606 51.765 31.606H43.2017C42.5367 31.606 42.7233 31.4427 41.8717 32.8893C41.8367 32.9593 41.7433 33.251 41.0783 33.2277C40.3083 33.2043 39.2233 33.251 39.0367 33.2277C38.255 33.181 38.0333 32.9127 37.975 32.096C37.9633 31.886 37.975 27.2543 37.9867 25.2943C37.9867 25.2127 37.1117 25.271 36.7617 25.1893C36.1783 24.9793 36.2133 23.7777 36.9133 23.7427C37.9633 23.7077 39.1183 23.7427 39.48 23.7427C40.2267 22.9143 41.0667 22.0393 41.825 21.0943C42.315 20.4877 42.8867 20.2077 43.6567 20.2427C44.4033 20.2427 45.9317 20.2427 46.3167 20.2427C46.515 20.2427 46.6433 18.3177 45.4767 18.271C44.59 18.236 43.015 18.2127 42.6183 18.236C42.0933 18.6793 40.6233 20.0327 40.3783 20.266H32.0367V14.666C32.0367 14.666 38.115 14.701 40.39 14.7477M55.4167 25.866C55.2533 25.9593 55.1017 26.0527 54.9617 26.146C54.495 26.4493 54.0633 26.776 53.6083 27.0793C53.0017 27.511 52.36 27.6743 51.6133 27.6627C49.2333 27.6277 46.445 27.6627 44.0533 27.651C42.77 27.686 42.3267 27.6393 41.2417 26.9627C40.425 26.461 39.7833 26.0293 39.4683 25.866C39.4333 26.5777 39.4333 31.0693 39.48 31.7693C39.8533 31.8043 40.2033 31.7693 40.6467 31.7693C40.74 31.7693 40.985 31.7927 41.125 31.606C41.265 31.4193 41.7317 30.521 42.0933 30.3227C42.455 30.1243 43.225 30.241 43.7267 30.2293C46.7367 30.241 48.58 30.241 51.59 30.2293C52.9083 30.241 53.06 30.171 53.27 30.6027C53.305 30.6843 53.6667 31.326 53.795 31.4893C53.9233 31.6527 54.2267 31.606 54.3433 31.5943C54.7633 31.5943 55.0783 31.5943 55.4167 31.5943C55.4167 30.3577 55.5333 27.021 55.4167 25.8427V25.866ZM54.4367 24.7227C53.69 23.8593 52.9667 23.1943 52.36 22.4477C51.9867 21.9927 51.5433 21.6427 50.9483 21.6427C48.7667 21.666 46.5967 21.6893 44.415 21.6427C43.575 21.6193 43.4583 21.736 42.49 22.6577C42.0933 23.031 40.8567 24.4077 40.6117 24.7343C41.265 25.2243 42.0467 25.6793 42.7 26.041C42.875 26.1343 43.0967 26.146 43.3067 26.146C46.1067 26.146 48.9183 26.146 51.7183 26.146C51.9983 26.146 52.3133 26.076 52.5467 25.9477C53.13 25.621 53.7483 25.1893 54.4367 24.7343V24.7227ZM39.8067 16.311H33.5533V18.726H39.8883L41.3 17.571L39.8067 16.311Z" fill="black"/>
<path d="M14.718 59.804C14.41 59.9347 14.0647 60 13.682 60H12.842C12.4687 60 12.128 59.9067 11.82 59.72C11.5213 59.5333 11.2833 59.286 11.106 58.978C10.9287 58.67 10.84 58.334 10.84 57.97C10.84 57.8113 10.8493 57.69 10.868 57.606L11.092 56.36C11.176 55.884 11.4047 55.492 11.778 55.184C12.1607 54.8667 12.5947 54.708 13.08 54.708H13.864C14.2467 54.708 14.6013 54.806 14.928 55.002C15.2547 55.1887 15.5113 55.4453 15.698 55.772C15.8847 56.0893 15.978 56.4347 15.978 56.808V59.832C15.978 60.5507 15.7773 61.1853 15.376 61.736C14.984 62.296 14.4567 62.6927 13.794 62.926L12.016 63.514L11.652 62.338L13.472 61.736C13.864 61.596 14.1673 61.372 14.382 61.064C14.606 60.7653 14.718 60.42 14.718 60.028V59.804ZM14.732 56.808C14.732 56.612 14.662 56.4487 14.522 56.318C14.3913 56.178 14.2233 56.108 14.018 56.108H12.94C12.772 56.108 12.632 56.1547 12.52 56.248C12.4173 56.3413 12.3473 56.4813 12.31 56.668L12.1 57.802C12.0907 57.83 12.086 57.872 12.086 57.928C12.086 58.096 12.142 58.2407 12.254 58.362C12.3753 58.474 12.5247 58.53 12.702 58.53H14.732V56.808ZM16.3323 62.296L17.3823 61.75C17.7276 61.5727 17.9889 61.3487 18.1663 61.078C18.3436 60.8073 18.4323 60.4013 18.4323 59.86V55.352H19.6783V59.776C19.6783 60.56 19.5383 61.1807 19.2583 61.638C18.9783 62.1047 18.5489 62.4967 17.9703 62.814L16.9063 63.416L16.3323 62.296ZM23.186 60C22.7194 60 22.3227 59.8367 21.996 59.51C21.6694 59.174 21.506 58.7727 21.506 58.306V56.668H22.57V58.054C22.57 58.1847 22.612 58.2967 22.696 58.39C22.78 58.4833 22.892 58.53 23.032 58.53H25.272C25.5894 58.53 25.8367 58.432 26.014 58.236C26.2007 58.04 26.294 57.802 26.294 57.522C26.294 57.2887 26.2427 57.088 26.14 56.92L24.516 53.994L25.58 53.336L27.274 56.332C27.498 56.724 27.61 57.1487 27.61 57.606C27.61 58.026 27.5074 58.4227 27.302 58.796C27.0967 59.16 26.812 59.454 26.448 59.678C26.0934 59.8927 25.692 60 25.244 60H23.186ZM35.4033 58.53C35.4593 58.53 35.506 58.5487 35.5433 58.586C35.5807 58.6233 35.5993 58.67 35.5993 58.726V59.804C35.5993 59.9347 35.534 60 35.4033 60H34.1293V58.53H35.4033ZM33.0793 59.874C32.8833 59.958 32.538 60 32.0433 60H31.2033C30.83 60 30.4893 59.9067 30.1813 59.72C29.8827 59.5333 29.6447 59.286 29.4673 58.978C29.29 58.67 29.2013 58.334 29.2013 57.97C29.2013 57.8113 29.2107 57.69 29.2293 57.606L29.4533 56.36C29.5373 55.884 29.766 55.492 30.1393 55.184C30.522 54.8667 30.956 54.708 31.4413 54.708H32.2253C32.608 54.708 32.9627 54.806 33.2893 55.002C33.616 55.1887 33.8727 55.4453 34.0593 55.772C34.246 56.0893 34.3393 56.4347 34.3393 56.808V59.832C34.3393 60.5507 34.1387 61.1853 33.7373 61.736C33.3453 62.296 32.818 62.6927 32.1553 62.926L30.3773 63.514L30.0133 62.338L31.8333 61.736C32.2347 61.596 32.5427 61.372 32.7573 61.064C32.972 60.7653 33.0793 60.4433 33.0793 60.098V59.874ZM33.0933 56.808C33.0933 56.612 33.0233 56.4487 32.8833 56.318C32.7527 56.178 32.5847 56.108 32.3793 56.108H31.3013C31.1333 56.108 30.9933 56.1547 30.8813 56.248C30.7787 56.3413 30.7087 56.4813 30.6713 56.668L30.4613 57.802C30.452 57.83 30.4473 57.872 30.4473 57.928C30.4473 58.096 30.5033 58.2407 30.6153 58.362C30.7367 58.474 30.886 58.53 31.0633 58.53H33.0933V56.808ZM35.4023 60C35.2717 60 35.2063 59.9347 35.2063 59.804V58.726C35.2063 58.6793 35.2297 58.6373 35.2763 58.6C35.3137 58.5533 35.3557 58.53 35.4023 58.53H37.8103C38.2957 58.53 38.711 58.474 39.0563 58.362C39.4017 58.25 39.747 58.0213 40.0923 57.676L40.9743 56.822C41.0117 56.7847 41.077 56.724 41.1703 56.64C41.2637 56.556 41.3337 56.5 41.3803 56.472L38.1883 55.52C38.1603 55.5107 38.1137 55.506 38.0483 55.506C37.9363 55.506 37.8337 55.5433 37.7403 55.618C37.647 55.6833 37.5863 55.7673 37.5583 55.87L37.1243 57.102L36.0463 56.808L36.3963 55.618C36.5083 55.2167 36.7277 54.8993 37.0543 54.666C37.3903 54.4233 37.759 54.302 38.1603 54.302C38.3657 54.302 38.5383 54.3253 38.6783 54.372L44.1663 56.024L43.8163 57.186L43.1863 57.004C42.9997 56.9573 42.869 56.934 42.7943 56.934C42.6823 56.934 42.575 56.962 42.4723 57.018C42.379 57.074 42.2483 57.1813 42.0803 57.34L40.4703 58.908C40.1063 59.272 39.6723 59.5473 39.1683 59.734C38.6643 59.9113 38.137 60 37.5863 60H35.4023ZM37.3203 51.222H38.7063V52.608H37.3203V51.222ZM50.3135 62.422C49.7815 62.422 49.2869 62.2867 48.8295 62.016C48.3722 61.7547 48.0082 61.3953 47.7375 60.938C47.4762 60.4807 47.3455 59.986 47.3455 59.454V55.562H48.6055V59.272C48.6055 59.7387 48.7642 60.1353 49.0815 60.462C49.4082 60.7887 49.8049 60.952 50.2715 60.952H52.8195C53.2022 60.952 53.5195 60.812 53.7715 60.532C54.0235 60.2613 54.1495 59.9253 54.1495 59.524V55.352H55.3955V57.704C55.3955 57.928 55.4795 58.124 55.6475 58.292C55.8249 58.4507 56.0302 58.53 56.2635 58.53H56.5295C56.8002 58.53 57.0102 58.4647 57.1595 58.334C57.3182 58.194 57.4209 58.0073 57.4675 57.774L57.9295 55.38L59.1895 55.618L58.7975 57.606C58.7882 57.6433 58.7835 57.6993 58.7835 57.774C58.7835 57.9887 58.8582 58.1707 59.0075 58.32C59.1662 58.46 59.3622 58.53 59.5955 58.53H60.7855V54.918H62.0315V58.53C62.0315 58.9593 61.8915 59.314 61.6115 59.594C61.3315 59.8647 60.9815 60 60.5615 60H59.6375C59.3015 60 58.9982 59.93 58.7275 59.79C58.4569 59.65 58.2422 59.4307 58.0835 59.132C57.9155 59.4213 57.6915 59.6407 57.4115 59.79C57.1409 59.93 56.8375 60 56.5015 60C56.0349 60 55.6662 59.8367 55.3955 59.51V60.042C55.3955 60.4713 55.2789 60.868 55.0455 61.232C54.8122 61.596 54.4949 61.8853 54.0935 62.1C53.6922 62.3147 53.2535 62.422 52.7775 62.422H50.3135ZM57.4815 50.62H58.8675V52.006H57.4815V50.62ZM56.4175 52.524H57.8035V53.924H56.4175V52.524ZM58.5455 52.524H59.9315V53.924H58.5455V52.524ZM67.5188 59.804C67.2108 59.9347 66.8654 60 66.4828 60H65.6428C65.2694 60 64.9288 59.9067 64.6208 59.72C64.3221 59.5333 64.0841 59.286 63.9068 58.978C63.7294 58.67 63.6408 58.334 63.6408 57.97C63.6408 57.8113 63.6501 57.69 63.6688 57.606L63.8928 56.36C63.9768 55.884 64.2054 55.492 64.5788 55.184C64.9614 54.8667 65.3954 54.708 65.8808 54.708H66.6648C67.0474 54.708 67.4021 54.806 67.7288 55.002C68.0554 55.1887 68.3121 55.4453 68.4988 55.772C68.6854 56.0893 68.7788 56.4347 68.7788 56.808V59.832C68.7788 60.5507 68.5781 61.1853 68.1768 61.736C67.7848 62.296 67.2574 62.6927 66.5948 62.926L64.8168 63.514L64.4528 62.338L66.2728 61.736C66.6648 61.596 66.9681 61.372 67.1828 61.064C67.4068 60.7653 67.5188 60.42 67.5188 60.028V59.804ZM67.5328 56.808C67.5328 56.612 67.4628 56.4487 67.3228 56.318C67.1921 56.178 67.0241 56.108 66.8188 56.108H65.7408C65.5728 56.108 65.4328 56.1547 65.3208 56.248C65.2181 56.3413 65.1481 56.4813 65.1108 56.668L64.9008 57.802C64.8914 57.83 64.8868 57.872 64.8868 57.928C64.8868 58.096 64.9428 58.2407 65.0548 58.362C65.1761 58.474 65.3254 58.53 65.5028 58.53H67.5328V56.808ZM69.133 62.296L70.183 61.75C70.5284 61.5727 70.7897 61.3487 70.967 61.078C71.1444 60.8073 71.233 60.4013 71.233 59.86V55.352H72.479V57.732C72.479 57.956 72.563 58.1473 72.731 58.306C72.9084 58.4553 73.109 58.53 73.333 58.53H73.865C73.9397 58.53 73.991 58.544 74.019 58.572C74.047 58.5907 74.061 58.6373 74.061 58.712V59.804C74.061 59.8787 74.047 59.93 74.019 59.958C73.991 59.986 73.9397 60 73.865 60H73.543C73.3377 60 73.137 59.958 72.941 59.874C72.7544 59.79 72.6004 59.664 72.479 59.496V60.028C72.479 60.7373 72.3344 61.302 72.045 61.722C71.765 62.142 71.3404 62.506 70.771 62.814L69.707 63.416L69.133 62.296ZM73.8613 60C73.8053 60 73.7587 59.9813 73.7213 59.944C73.684 59.8973 73.6653 59.846 73.6653 59.79V58.726C73.6653 58.6793 73.684 58.6373 73.7213 58.6C73.7587 58.5533 73.8053 58.53 73.8613 58.53H77.4733C77.7347 58.53 77.9493 58.4553 78.1173 58.306C78.2947 58.1567 78.3833 57.9373 78.3833 57.648V57.382C78.1313 57.466 77.8327 57.508 77.4873 57.508H76.5773C76.204 57.508 75.8633 57.4193 75.5553 57.242C75.2473 57.0553 75.0047 56.808 74.8273 56.5C74.65 56.192 74.5613 55.856 74.5613 55.492C74.5613 55.324 74.5707 55.198 74.5893 55.114L74.7993 53.966C74.8927 53.49 75.126 53.098 75.4993 52.79C75.8727 52.482 76.302 52.328 76.7873 52.328H77.5293C77.912 52.328 78.262 52.426 78.5793 52.622C78.8967 52.8087 79.1487 53.0653 79.3353 53.392C79.522 53.7093 79.6153 54.0593 79.6153 54.442V57.662C79.6153 58.0913 79.508 58.4833 79.2933 58.838C79.088 59.1927 78.808 59.4773 78.4533 59.692C78.0987 59.8973 77.7113 60 77.2913 60H73.8613ZM78.3973 56.08V54.428C78.3973 54.232 78.3273 54.064 78.1873 53.924C78.0473 53.784 77.8793 53.714 77.6833 53.714H76.7033C76.526 53.714 76.372 53.77 76.2413 53.882C76.1107 53.994 76.0267 54.1387 75.9893 54.316L75.8073 55.338C75.798 55.366 75.7933 55.4033 75.7933 55.45C75.7933 55.6273 75.854 55.7767 75.9753 55.898C76.0967 56.0193 76.2413 56.08 76.4093 56.08H78.3973ZM76.5213 49.472H77.9073V50.858H76.5213V49.472Z" fill="black"/>
</svg>
