<svg width="122" height="72" viewBox="0 0 122 72" fill="none" xmlns="http://www.w3.org/2000/svg">
<path d="M65.795 19.8672C65.8381 20.5783 65.8057 20.7615 65.8273 21.5264C64.7068 21.548 61.4529 21.5588 60.2031 21.5264V19.8887" fill="black"/>
<path d="M72.0764 14.9963C71.4623 18.6165 70.7835 22.3768 70.1047 25.9323C69.2859 25.9539 58.296 25.9539 57.7142 25.9539C57.8974 26.7512 58.1128 27.8179 58.3714 28.5182C58.7054 28.5397 67.4004 28.529 67.799 28.529V30.3067H57.1216C56.9708 29.8111 54.2125 19.1229 52.9735 14.2421C52.8549 13.7573 52.7041 13.2724 52.5533 12.7337C51.7021 12.7337 50.8509 12.7337 49.9135 12.7337C49.9135 12.4644 49.9135 11.3762 49.9135 10.9883C51.325 10.9991 52.4886 10.9991 53.8462 10.9991C54.2233 12.292 54.6219 13.5741 54.9667 14.9533C55.4623 14.9533 71.43 14.9533 72.0441 14.9856L72.0764 14.9963ZM57.3048 24.4239C57.7573 24.4455 68.3377 24.4455 68.7148 24.4239C69.135 22.1398 70.0078 16.9896 69.997 16.7095C69.4906 16.7202 55.6455 16.6233 55.3438 16.6987C55.9687 19.263 56.6691 21.8919 57.3048 24.4347V24.4239Z" fill="black"/>
<path d="M66.5599 30.6296C67.2064 30.608 67.7775 31.1037 67.8313 31.7393C67.896 32.4505 67.3142 33.0215 66.5492 32.9999C65.8812 32.9784 65.3532 32.4505 65.364 31.8148C65.364 31.1899 65.9243 30.6404 66.5599 30.6296Z" fill="black"/>
<path d="M58.3714 30.5768C59.0179 30.5553 59.5889 31.0509 59.6428 31.6866C59.7074 32.3977 59.1256 32.9688 58.3606 32.9472C57.6926 32.9257 57.1647 32.3977 57.1755 31.762C57.1755 31.1371 57.7357 30.5876 58.3714 30.5768Z" fill="black"/>
<path d="M13.878 58.422C13.346 58.422 12.8513 58.2867 12.394 58.016C11.9367 57.7547 11.5727 57.3953 11.302 56.938C11.0407 56.4807 10.91 55.986 10.91 55.454V51.562H12.17V55.272C12.17 55.7387 12.3287 56.1353 12.646 56.462C12.9727 56.7887 13.3693 56.952 13.836 56.952H16.384C16.7667 56.952 17.084 56.812 17.336 56.532C17.588 56.2613 17.714 55.9253 17.714 55.524V51.352H18.96V53.704C18.96 53.928 19.044 54.124 19.212 54.292C19.3893 54.4507 19.5947 54.53 19.828 54.53H20.094C20.3647 54.53 20.5747 54.4647 20.724 54.334C20.8827 54.194 20.9853 54.0073 21.032 53.774L21.494 51.38L22.754 51.618L22.362 53.606C22.3527 53.6433 22.348 53.6993 22.348 53.774C22.348 53.9887 22.4227 54.1707 22.572 54.32C22.7307 54.46 22.9267 54.53 23.16 54.53H24.35V50.918H25.596V54.53C25.596 54.9593 25.456 55.314 25.176 55.594C24.896 55.8647 24.546 56 24.126 56H23.202C22.866 56 22.5627 55.93 22.292 55.79C22.0213 55.65 21.8067 55.4307 21.648 55.132C21.48 55.4213 21.256 55.6407 20.976 55.79C20.7053 55.93 20.402 56 20.066 56C19.5993 56 19.2307 55.8367 18.96 55.51V56.042C18.96 56.4713 18.8433 56.868 18.61 57.232C18.3767 57.596 18.0593 57.8853 17.658 58.1C17.2567 58.3147 16.818 58.422 16.342 58.422H13.878ZM21.046 46.62H22.432V48.006H21.046V46.62ZM19.982 48.524H21.368V49.924H19.982V48.524ZM22.11 48.524H23.496V49.924H22.11V48.524ZM31.0832 55.804C30.7752 55.9347 30.4299 56 30.0472 56H29.2072C28.8339 56 28.4932 55.9067 28.1852 55.72C27.8866 55.5333 27.6486 55.286 27.4712 54.978C27.2939 54.67 27.2052 54.334 27.2052 53.97C27.2052 53.8113 27.2146 53.69 27.2332 53.606L27.4572 52.36C27.5412 51.884 27.7699 51.492 28.1432 51.184C28.5259 50.8667 28.9599 50.708 29.4452 50.708H30.2292C30.6119 50.708 30.9666 50.806 31.2932 51.002C31.6199 51.1887 31.8766 51.4453 32.0632 51.772C32.2499 52.0893 32.3432 52.4347 32.3432 52.808V55.832C32.3432 56.5507 32.1426 57.1853 31.7412 57.736C31.3492 58.296 30.8219 58.6927 30.1592 58.926L28.3812 59.514L28.0172 58.338L29.8372 57.736C30.2292 57.596 30.5326 57.372 30.7472 57.064C30.9712 56.7653 31.0832 56.42 31.0832 56.028V55.804ZM31.0972 52.808C31.0972 52.612 31.0272 52.4487 30.8872 52.318C30.7566 52.178 30.5886 52.108 30.3832 52.108H29.3052C29.1372 52.108 28.9972 52.1547 28.8852 52.248C28.7826 52.3413 28.7126 52.4813 28.6752 52.668L28.4652 53.802C28.4559 53.83 28.4512 53.872 28.4512 53.928C28.4512 54.096 28.5072 54.2407 28.6192 54.362C28.7406 54.474 28.8899 54.53 29.0672 54.53H31.0972V52.808ZM32.6975 58.296L33.7475 57.75C34.0928 57.5727 34.3542 57.3487 34.5315 57.078C34.7088 56.8073 34.7975 56.4013 34.7975 55.86V51.352H36.0435V53.732C36.0435 53.956 36.1275 54.1473 36.2955 54.306C36.4728 54.4553 36.6735 54.53 36.8975 54.53H37.4295C37.5042 54.53 37.5555 54.544 37.5835 54.572C37.6115 54.5907 37.6255 54.6373 37.6255 54.712V55.804C37.6255 55.8787 37.6115 55.93 37.5835 55.958C37.5555 55.986 37.5042 56 37.4295 56H37.1075C36.9022 56 36.7015 55.958 36.5055 55.874C36.3188 55.79 36.1648 55.664 36.0435 55.496V56.028C36.0435 56.7373 35.8988 57.302 35.6095 57.722C35.3295 58.142 34.9048 58.506 34.3355 58.814L33.2715 59.416L32.6975 58.296ZM37.4258 56C37.3698 56 37.3231 55.9813 37.2858 55.944C37.2484 55.8973 37.2298 55.846 37.2298 55.79V54.726C37.2298 54.6793 37.2484 54.6373 37.2858 54.6C37.3231 54.5533 37.3698 54.53 37.4258 54.53H41.0378C41.2991 54.53 41.5138 54.4553 41.6818 54.306C41.8591 54.1567 41.9478 53.9373 41.9478 53.648V53.382C41.6958 53.466 41.3971 53.508 41.0518 53.508H40.1418C39.7684 53.508 39.4278 53.4193 39.1198 53.242C38.8118 53.0553 38.5691 52.808 38.3918 52.5C38.2144 52.192 38.1258 51.856 38.1258 51.492C38.1258 51.324 38.1351 51.198 38.1538 51.114L38.3638 49.966C38.4571 49.49 38.6904 49.098 39.0638 48.79C39.4371 48.482 39.8664 48.328 40.3518 48.328H41.0938C41.4764 48.328 41.8264 48.426 42.1438 48.622C42.4611 48.8087 42.7131 49.0653 42.8998 49.392C43.0864 49.7093 43.1798 50.0593 43.1798 50.442V53.662C43.1798 54.0913 43.0724 54.4833 42.8578 54.838C42.6524 55.1927 42.3724 55.4773 42.0178 55.692C41.6631 55.8973 41.2758 56 40.8558 56H37.4258ZM41.9618 52.08V50.428C41.9618 50.232 41.8918 50.064 41.7518 49.924C41.6118 49.784 41.4438 49.714 41.2478 49.714H40.2678C40.0904 49.714 39.9364 49.77 39.8058 49.882C39.6751 49.994 39.5911 50.1387 39.5538 50.316L39.3718 51.338C39.3624 51.366 39.3578 51.4033 39.3578 51.45C39.3578 51.6273 39.4184 51.7767 39.5398 51.898C39.6611 52.0193 39.8058 52.08 39.9738 52.08H41.9618ZM40.0858 45.472H41.4718V46.858H40.0858V45.472ZM53.9029 53.956C54.2389 54.0307 54.5049 54.194 54.7009 54.446C54.9062 54.6887 55.0089 54.978 55.0089 55.314V55.776C55.0089 56.2613 54.8876 56.7093 54.6449 57.12C54.4022 57.54 54.0756 57.8713 53.6649 58.114C53.2542 58.3567 52.8062 58.478 52.3209 58.478H49.5069C48.9749 58.478 48.4802 58.3427 48.0229 58.072C47.5656 57.8013 47.2016 57.4373 46.9309 56.98C46.6696 56.5227 46.5389 56.028 46.5389 55.496V52.29H47.7849V55.314C47.7849 55.7807 47.9482 56.1773 48.2749 56.504C48.6109 56.8307 49.0122 56.994 49.4789 56.994H52.4889C52.8529 56.994 53.1516 56.8633 53.3849 56.602C53.6276 56.35 53.7489 56.0373 53.7489 55.664V55.202L49.8849 54.278V52.724C49.8849 52.2667 49.9876 51.842 50.1929 51.45C50.3982 51.058 50.6782 50.736 51.0329 50.484C51.3969 50.232 51.8029 50.078 52.2509 50.022L54.0429 49.784L54.1969 51.058L52.2089 51.324C51.8822 51.3707 51.6162 51.52 51.4109 51.772C51.2056 52.0147 51.1029 52.2993 51.1029 52.626V53.284L53.9029 53.956ZM59.1028 56C58.6828 56 58.2955 55.8973 57.9408 55.692C57.5861 55.4867 57.3061 55.2113 57.1008 54.866C56.8955 54.5113 56.7928 54.124 56.7928 53.704V46.592H58.0528V53.676C58.0528 53.9187 58.1321 54.124 58.2908 54.292C58.4495 54.4507 58.6455 54.53 58.8788 54.53H59.5788C59.6348 54.53 59.6815 54.5533 59.7188 54.6C59.7561 54.6373 59.7748 54.684 59.7748 54.74V55.804C59.7748 55.9347 59.7095 56 59.5788 56H59.1028ZM65.1042 55.44C64.8802 55.636 64.6842 55.7807 64.5162 55.874C64.3482 55.958 64.0962 56 63.7602 56H59.5742C59.5182 56 59.4716 55.9813 59.4342 55.944C59.3969 55.9067 59.3782 55.8647 59.3782 55.818V54.712C59.3782 54.656 59.3969 54.614 59.4342 54.586C59.4716 54.5487 59.5182 54.53 59.5742 54.53H60.9742C60.7969 54.4087 60.7082 54.1847 60.7082 53.858C60.7082 53.7367 60.7222 53.606 60.7502 53.466L60.9322 52.542C61.0256 52.0753 61.2542 51.6927 61.6182 51.394C61.9822 51.086 62.3976 50.9367 62.8642 50.946L63.4242 50.96C63.8069 50.96 64.1522 51.0533 64.4602 51.24C64.7776 51.4267 65.0249 51.6787 65.2022 51.996C65.3889 52.304 65.4822 52.6447 65.4822 53.018V54.53H67.5822V52.822C67.5822 52.57 67.5122 52.3553 67.3722 52.178C67.2416 51.9913 67.0596 51.8607 66.8262 51.786L62.0382 50.288L62.4162 49.042L67.0502 50.47C67.5729 50.638 67.9976 50.9367 68.3242 51.366C68.6602 51.786 68.8282 52.2807 68.8282 52.85V54.46C68.8282 54.9173 68.6836 55.2907 68.3942 55.58C68.1049 55.86 67.7316 56 67.2742 56H65.1042V55.44ZM64.2782 52.836C64.2782 52.64 64.2129 52.4767 64.0822 52.346C63.9516 52.2153 63.7836 52.15 63.5782 52.15H62.8082C62.4442 52.15 62.2202 52.3413 62.1362 52.724L61.9262 53.9C61.9169 53.9373 61.9122 53.984 61.9122 54.04C61.9122 54.2173 61.9682 54.3573 62.0802 54.46C62.2016 54.5533 62.3509 54.6 62.5282 54.6H64.2782V52.836ZM75.169 58.422C74.637 58.422 74.1423 58.2867 73.685 58.016C73.2277 57.7547 72.8637 57.3953 72.593 56.938C72.3317 56.4807 72.201 55.986 72.201 55.454V51.562H73.461V55.272C73.461 55.7387 73.6197 56.1353 73.937 56.462C74.2637 56.7887 74.6603 56.952 75.127 56.952H77.675C78.0577 56.952 78.375 56.812 78.627 56.532C78.879 56.2613 79.005 55.9253 79.005 55.524V51.352H80.251V53.704C80.251 53.928 80.335 54.124 80.503 54.292C80.6803 54.4507 80.8857 54.53 81.119 54.53H81.385C81.6557 54.53 81.8657 54.4647 82.015 54.334C82.1737 54.194 82.2763 54.0073 82.323 53.774L82.785 51.38L84.045 51.618L83.653 53.606C83.6437 53.6433 83.639 53.6993 83.639 53.774C83.639 53.9887 83.7137 54.1707 83.863 54.32C84.0217 54.46 84.2177 54.53 84.451 54.53H85.641V50.918H86.887V54.53C86.887 54.9593 86.747 55.314 86.467 55.594C86.187 55.8647 85.837 56 85.417 56H84.493C84.157 56 83.8537 55.93 83.583 55.79C83.3123 55.65 83.0977 55.4307 82.939 55.132C82.771 55.4213 82.547 55.6407 82.267 55.79C81.9963 55.93 81.693 56 81.357 56C80.8903 56 80.5217 55.8367 80.251 55.51V56.042C80.251 56.4713 80.1343 56.868 79.901 57.232C79.6677 57.596 79.3503 57.8853 78.949 58.1C78.5477 58.3147 78.109 58.422 77.633 58.422H75.169ZM82.337 46.62H83.723V48.006H82.337V46.62ZM81.273 48.524H82.659V49.924H81.273V48.524ZM83.401 48.524H84.787V49.924H83.401V48.524ZM85.7017 58.338L87.5077 57.75C87.9184 57.6007 88.2357 57.3767 88.4597 57.078C88.6931 56.7887 88.8097 56.4247 88.8097 55.986V51.352H90.0697V55.86C90.0697 56.588 89.8691 57.218 89.4677 57.75C89.0664 58.2913 88.5297 58.6787 87.8577 58.912L86.0797 59.528L85.7017 58.338ZM94.1848 56C93.7648 56 93.3775 55.8973 93.0228 55.692C92.6682 55.4867 92.3882 55.2113 92.1828 54.866C91.9775 54.5113 91.8748 54.124 91.8748 53.704V46.592H93.1348V53.676C93.1348 53.9187 93.2142 54.124 93.3728 54.292C93.5315 54.4507 93.7275 54.53 93.9608 54.53H94.6608C94.7168 54.53 94.7635 54.5533 94.8008 54.6C94.8382 54.6373 94.8568 54.684 94.8568 54.74V55.804C94.8568 55.9347 94.7915 56 94.6608 56H94.1848ZM94.6562 56C94.6002 56 94.5536 55.9813 94.5162 55.944C94.4789 55.8973 94.4602 55.8507 94.4602 55.804V54.74C94.4602 54.684 94.4789 54.6373 94.5162 54.6C94.5536 54.5533 94.6002 54.53 94.6562 54.53H95.8323H96.1123C95.6363 54.054 95.3983 53.5407 95.3983 52.99V52.57C95.3983 52.1313 95.5103 51.7207 95.7343 51.338C95.9583 50.9553 96.2569 50.652 96.6303 50.428C97.0129 50.204 97.4143 50.092 97.8343 50.092H98.0443C98.4736 50.092 98.8749 50.204 99.2483 50.428C99.6216 50.6427 99.9156 50.9367 100.13 51.31C100.354 51.6833 100.466 52.0893 100.466 52.528V52.99C100.466 53.522 100.228 54.0353 99.7523 54.53H100.018H101.208C101.255 54.53 101.297 54.5533 101.334 54.6C101.381 54.6373 101.404 54.684 101.404 54.74V55.804C101.404 55.8507 101.381 55.8973 101.334 55.944C101.297 55.9813 101.255 56 101.208 56H100.466C100.018 56 99.5983 55.9673 99.2063 55.902C98.8143 55.8273 98.3849 55.7013 97.9183 55.524C97.4516 55.7013 97.0223 55.8273 96.6303 55.902C96.2476 55.9673 95.8323 56 95.3843 56H94.6562ZM97.9183 54.362C98.7956 53.9513 99.2343 53.5267 99.2343 53.088V52.682C99.2343 52.3553 99.1176 52.08 98.8843 51.856C98.6509 51.6227 98.3663 51.506 98.0303 51.506H97.8063C97.4796 51.506 97.1996 51.6227 96.9663 51.856C96.7423 52.08 96.6303 52.3553 96.6303 52.682V53.088C96.6303 53.5453 97.0596 53.97 97.9183 54.362ZM97.2043 47.208H98.5903V48.594H97.2043V47.208ZM101.205 56C101.149 56 101.102 55.9813 101.065 55.944C101.028 55.9067 101.009 55.86 101.009 55.804V54.726C101.009 54.67 101.032 54.6233 101.079 54.586C101.116 54.5487 101.158 54.53 101.205 54.53H101.807C102.04 54.53 102.236 54.446 102.395 54.278C102.563 54.1007 102.647 53.8907 102.647 53.648V51.352H103.893V53.662C103.893 53.8953 103.977 54.1007 104.145 54.278C104.322 54.446 104.528 54.53 104.761 54.53H105.041C105.302 54.53 105.508 54.4647 105.657 54.334C105.816 54.194 105.918 54.0073 105.965 53.774L106.441 51.38L107.701 51.618L107.309 53.592C107.3 53.6293 107.295 53.6807 107.295 53.746C107.295 53.9607 107.37 54.1473 107.519 54.306C107.678 54.4553 107.869 54.53 108.093 54.53H109.255V50.946H110.515V54.53C110.515 54.95 110.375 55.3 110.095 55.58C109.815 55.86 109.465 56 109.045 56H108.093C107.393 56 106.894 55.706 106.595 55.118C106.408 55.4073 106.175 55.6267 105.895 55.776C105.615 55.9253 105.312 56 104.985 56C104.266 56 103.702 55.7107 103.291 55.132C102.852 55.7107 102.278 56 101.569 56H101.205Z" fill="black"/>
</svg>
