<svg width="151" height="151" viewBox="0 0 146 151" fill="none" xmlns="http://www.w3.org/2000/svg">
<path d="M138.353 132.215H124.633V139.215H138.353V132.215Z" fill="white"/>
<path d="M111.449 116.055H104.449V150.395H111.449V116.055Z" fill="white"/>
<path d="M145.3 150.393H138.3V127.033C138.3 125.973 137.879 124.955 137.129 124.205C136.379 123.455 135.361 123.033 134.3 123.033H124.82V150.403H117.82V116.023H134.3C137.218 116.023 140.016 117.182 142.078 119.245C144.141 121.308 145.3 124.106 145.3 127.023V150.393Z" fill="white"/>
<path d="M81.408 116.001L81.1562 150.34L88.1561 150.391L88.4078 116.052L81.408 116.001Z" fill="white"/>
<path d="M88.4397 116.053H90.4297L96.2197 130.543L102.32 116.053H104.63H110.44L100.44 138.903H91.9497L82.4297 116.023L88.4397 116.053Z" fill="white"/>
<path d="M18.14 150.025H2.05V143.025H18.14C19.0179 143.025 19.8598 142.676 20.4805 142.056C21.1013 141.435 21.45 140.593 21.45 139.715C21.45 138.837 21.1013 137.995 20.4805 137.374C19.8598 136.754 19.0179 136.405 18.14 136.405H10.14C7.4507 136.405 4.87156 135.337 2.96994 133.435C1.06832 131.533 0 128.954 0 126.265C0 123.576 1.06832 120.997 2.96994 119.095C4.87156 117.193 7.4507 116.125 10.14 116.125H25V123.125H10.12C9.28722 123.125 8.48855 123.456 7.89969 124.045C7.31082 124.634 6.98 125.432 6.98 126.265C6.98 127.098 7.31082 127.896 7.89969 128.485C8.48855 129.074 9.28722 129.405 10.12 129.405H18.12C20.8544 129.405 23.4768 130.491 25.4103 132.425C27.3438 134.358 28.43 136.981 28.43 139.715C28.43 142.449 27.3438 145.072 25.4103 147.005C23.4768 148.939 20.8544 150.025 18.12 150.025H18.14Z" fill="white"/>
<path d="M40.1719 116.023H33.1719V150.073H40.1719V116.023Z" fill="white"/>
<path d="M46.5625 139.012V127.422C46.5625 124.414 47.7572 121.53 49.8839 119.403C52.0106 117.277 54.8949 116.082 57.9025 116.082H72.7525V123.332L56.6625 123.392C55.7528 123.392 54.8804 123.753 54.2371 124.397C53.5939 125.04 53.2325 125.912 53.2325 126.822V140.062C53.2325 140.974 53.5949 141.849 54.2401 142.494C54.8852 143.14 55.7602 143.502 56.6725 143.502H68.7325V136.612H59.6525V130.032H72.7525L75.8625 133.352V140.432C75.8625 141.735 75.6059 143.025 75.1074 144.228C74.6089 145.432 73.8782 146.525 72.957 147.447C72.0358 148.368 70.9423 149.098 69.7387 149.597C68.5352 150.095 67.2452 150.352 65.9425 150.352H57.9425C56.45 150.357 54.971 150.068 53.5906 149.5C52.2101 148.933 50.9553 148.098 49.898 147.045C48.8408 145.991 48.0019 144.739 47.4295 143.361C46.8571 141.982 46.5625 140.505 46.5625 139.012Z" fill="white"/>
<path d="M35.8958 74.5854C44.1386 74.6857 55.4425 74.6556 69.8074 74.4953C78.0574 74.518 86.1367 72.142 93.0654 67.6555C100.823 62.6196 103.569 53.1491 114.718 54.502C114.761 54.5056 114.802 54.518 114.84 54.5384C114.878 54.5588 114.912 54.5868 114.938 54.6206C114.965 54.6544 114.984 54.6933 114.996 54.7349C115.007 54.7766 115.009 54.8201 115.003 54.8628C115.009 54.8975 115.009 54.9332 115.003 54.968C104.499 76.8403 88.1737 84.6723 64.5256 84.8527C47.7899 84.993 31.0691 85.0331 14.3634 84.9729C14.2999 84.9735 14.2374 84.9573 14.1822 84.9258C14.127 84.8944 14.0811 84.8489 14.0491 84.794C14.0171 84.739 14.0001 84.6766 14 84.613C13.9999 84.5493 14.0165 84.4868 14.0483 84.4317C29.0534 60.4548 49.4154 42.8668 76.6197 33.9976C76.6734 33.9834 76.7192 33.9486 76.7473 33.9008C76.7754 33.8529 76.7835 33.7959 76.7698 33.742C76.7619 33.7052 76.7436 33.6713 76.717 33.6447C76.6903 33.618 76.6566 33.5996 76.6197 33.5917C58.4663 27.3505 42.6152 15.7666 31.1392 0.354733C31.1164 0.333625 31.0983 0.308042 31.0859 0.279588C31.0735 0.251134 31.0671 0.220444 31.0671 0.189397C31.0671 0.15835 31.0735 0.127613 31.0859 0.0991594C31.0983 0.0707054 31.1164 0.045123 31.1392 0.024015C31.1922 0.00307543 31.2512 0.00307543 31.3042 0.024015C43.8185 -0.0812128 56.3778 0.204406 68.9521 0.024015C80.1759 -0.0812128 90.5145 -0.246563 97.9121 9.61479C98.1321 9.91544 98.0571 10.0658 97.6869 10.0658L55.6725 10.1409C55.637 10.1389 55.6015 10.1439 55.568 10.1557C55.5344 10.1674 55.5035 10.1857 55.477 10.2094C55.4506 10.2332 55.429 10.2619 55.4137 10.294C55.3983 10.3261 55.3894 10.3609 55.3875 10.3965C55.3879 10.4447 55.4004 10.4921 55.4241 10.5342C55.4477 10.5762 55.4816 10.6116 55.5225 10.637C66.3798 17.6396 78.3432 22.7479 90.9046 25.7447C98.3322 27.5486 107.32 26.9924 115.153 28.8715C121.952 30.4397 127.923 34.4919 131.899 40.2361C132.079 40.4766 132.019 40.5969 131.719 40.5969C125.016 40.5969 118.354 40.7121 111.732 40.9426C83.5521 41.9197 54.9223 53.1039 35.7157 74.2397C35.5506 74.4802 35.5957 74.5854 35.8958 74.5854Z" fill="white"/>
</svg>
