<svg width="216" height="74" viewBox="0 0 216 74" fill="none" xmlns="http://www.w3.org/2000/svg">
<path d="M69.7988 16.309L93.9264 0.0432365C93.9814 0.00633238 94.0487 -0.00772394 94.114 0.00407446C94.1793 0.0158729 94.2374 0.0525911 94.2758 0.106375C94.3068 0.150286 94.3234 0.202659 94.3234 0.256328L94.244 4.11559C94.2441 4.15628 94.234 4.19635 94.2146 4.23218C94.1952 4.26801 94.1671 4.29846 94.1328 4.32078L70.0767 20.5155C70.0217 20.5524 69.9543 20.5664 69.889 20.5546C69.8238 20.5428 69.7657 20.5061 69.7273 20.4523C69.6974 20.4109 69.6808 20.3613 69.6797 20.3103V16.522C69.6798 16.4794 69.6908 16.4375 69.7117 16.4003C69.7325 16.363 69.7624 16.3316 69.7988 16.309Z" fill="white"/>
<path d="M81.0646 26.1599C81.0416 26.1744 81.0217 26.1932 81.0061 26.2153C80.9904 26.2374 80.9793 26.2624 80.9734 26.2888C80.9675 26.3152 80.9669 26.3425 80.9717 26.3692C80.9764 26.3958 80.9864 26.4212 81.0011 26.444C81.0188 26.4706 81.0422 26.4929 81.0697 26.5093C81.0972 26.5257 81.128 26.5357 81.1599 26.5387L123.905 30.2638C124.032 30.2737 124.15 30.3301 124.236 30.4221C124.323 30.5141 124.372 30.635 124.374 30.761C124.453 34.5019 123.318 47.8081 126.573 49.7022C128.415 50.7597 139.895 50.7676 141.793 49.8284C142.467 49.4931 143.024 48.9655 143.395 48.3131C143.766 47.6608 143.932 46.9133 143.873 46.1665C143.926 40.279 143.944 34.3835 143.928 28.4802C143.928 28.3713 143.972 28.267 144.049 28.19C144.127 28.113 144.232 28.0698 144.341 28.0698H152.431C152.494 28.0698 152.556 28.082 152.614 28.1058C152.671 28.1296 152.724 28.1645 152.768 28.2085C152.812 28.2525 152.847 28.3047 152.871 28.3621C152.895 28.4196 152.908 28.4811 152.908 28.5433C152.658 34.4747 152.719 40.415 153.09 46.3401C153.318 48.9708 154.826 50.3046 157.616 50.3414C162.657 50.3967 168.858 51.9199 169.302 45.7403C169.599 41.5376 169.645 37.321 169.437 33.1129C169.433 33.0206 169.447 32.9284 169.479 32.8416C169.51 32.7547 169.559 32.6749 169.622 32.6068C169.684 32.5386 169.76 32.4834 169.844 32.4443C169.928 32.4052 170.019 32.383 170.112 32.3789H177.98C178.09 32.3789 178.195 32.4222 178.272 32.4991C178.349 32.5761 178.393 32.6805 178.393 32.7893C178.462 37.4246 178.528 42.0205 178.591 46.5769C178.687 53.8298 187.944 53.372 188.047 47.3109C188.137 42.4809 188.201 37.643 188.238 32.7972C188.238 32.6863 188.282 32.5799 188.361 32.5014C188.44 32.423 188.547 32.3789 188.659 32.3789H196.598C196.712 32.3789 196.822 32.4235 196.904 32.5032C196.986 32.583 197.032 32.6913 197.035 32.8051C196.997 40.6394 197.085 45.693 197.297 47.9659C197.717 52.5828 204.617 52.8985 206.633 50.1126C206.794 49.88 206.882 49.6055 206.887 49.3234L207.062 26.9097C207.061 26.8482 207.072 26.7872 207.095 26.7302C207.119 26.6732 207.153 26.6215 207.197 26.578C207.24 26.5346 207.292 26.5003 207.35 26.4773C207.407 26.4543 207.469 26.443 207.53 26.444H215.47C215.581 26.446 215.688 26.4904 215.768 26.5682C215.848 26.646 215.894 26.7513 215.898 26.8623C215.983 32.6499 216.015 38.4375 215.994 44.225C215.994 51.8883 213.914 58.7939 205.458 60.4355C203.313 60.888 201.098 60.9117 198.943 60.5052C196.788 60.0988 194.736 59.2702 192.906 58.0679C192.813 58.0023 192.702 57.967 192.588 57.967C192.475 57.967 192.364 58.0023 192.271 58.0679C186.817 62.2349 178.393 61.2957 173.375 57.2786C173.285 57.2052 173.175 57.1599 173.059 57.1487C172.944 57.1374 172.827 57.1607 172.724 57.2155C167.413 60.1277 154.464 60.4355 148.787 56.5683C148.692 56.5025 148.578 56.4672 148.462 56.4672C148.345 56.4672 148.232 56.5025 148.136 56.5683C142.42 60.3881 134.48 59.228 128.034 59.1885C125.224 59.1206 122.502 58.2039 120.229 56.5605C120.132 56.495 120.017 56.46 119.9 56.46C119.782 56.46 119.668 56.495 119.57 56.5605C117.072 58.2915 114.717 59.1596 112.504 59.1649C88.083 59.2175 72.3525 59.2175 65.313 59.1649C62.764 59.1318 60.27 58.4235 58.0882 57.1129C57.9882 57.0555 57.8729 57.0301 57.7579 57.04C57.6429 57.0499 57.5337 57.0946 57.4451 57.1682C55.1312 59.1108 52.263 60.2838 49.2437 60.5223C45.4408 60.8222 39.9547 57.839 36.3106 56.4184C36.1971 56.3753 36.0747 56.3606 35.9543 56.3758C35.8338 56.3909 35.7189 56.4354 35.6198 56.5052C30.3084 60.2145 23.7108 59.1885 17.5658 59.1885C4.06891 59.1885 0.0992417 55.132 0.0436664 41.9047C-0.0145555 33.4864 -0.0145555 25.0366 0.0436664 16.5552C0.0435929 16.4406 0.0882519 16.3305 0.168227 16.2481C0.248203 16.1657 0.357249 16.1173 0.472391 16.1132L8.45936 16.0027C8.51775 16.0017 8.57578 16.0121 8.63012 16.0333C8.68447 16.0546 8.73407 16.0862 8.77609 16.1266C8.81812 16.1669 8.85174 16.215 8.87505 16.2682C8.89835 16.3215 8.91087 16.3787 8.91191 16.4368C8.94366 25.9074 8.96748 35.3621 8.98336 44.8012C8.98336 49.8521 11.3255 50.3257 15.8668 50.3257H26.6166C33.111 50.3257 31.4993 41.0287 31.3167 35.7015C31.3157 35.6466 31.3038 35.5924 31.2817 35.542C31.2596 35.4917 31.2277 35.4461 31.1879 35.408C31.1481 35.3699 31.1011 35.34 31.0496 35.3199C30.9982 35.2999 30.9433 35.2901 30.888 35.2911L28.8555 35.4174C28.8013 35.4206 28.747 35.4131 28.6956 35.3954C28.6443 35.3777 28.597 35.3501 28.5564 35.3141C28.5159 35.2782 28.4828 35.2347 28.4592 35.186C28.4356 35.1374 28.4219 35.0846 28.4189 35.0307V26.9412C28.4209 26.8309 28.4659 26.7257 28.5444 26.6477C28.6228 26.5697 28.7287 26.525 28.8396 26.5229C38.9808 26.3756 45.3799 26.3756 48.037 26.5229C55.2671 26.9018 59.5649 30.3427 60.9305 36.8459C61.907 41.5101 59.3426 50.3572 66.5277 50.3572C81.2155 50.3572 95.9032 50.3572 110.591 50.3572C116.839 50.3572 115.355 42.7334 115.45 38.7952C115.454 38.719 115.428 38.6442 115.378 38.5866C115.328 38.5291 115.256 38.4935 115.18 38.4874L74.4511 34.8965C74.3084 34.883 74.1726 34.829 74.06 34.7408C73.9473 34.6526 73.8626 34.5341 73.816 34.3993L70.0845 23.4924C70.0217 23.3105 70.0219 23.113 70.0853 22.9313C70.1486 22.7496 70.2713 22.5943 70.4338 22.4901L102.493 1.79685C102.85 1.56798 103.033 1.66268 103.033 2.08886V11.5989C103.032 11.7198 103.002 11.8387 102.944 11.9448C102.885 12.0509 102.801 12.1409 102.699 12.2066L81.0646 26.1599ZM50.0615 35.9462C49.6569 35.7007 49.1937 35.5672 48.7197 35.5594L40.8995 35.4726C40.8422 35.4716 40.7852 35.4818 40.7318 35.5026C40.6784 35.5235 40.6297 35.5546 40.5884 35.5942C40.5471 35.6337 40.5141 35.681 40.4911 35.7333C40.4682 35.7856 40.4559 35.8418 40.4549 35.8988C40.6535 39.9065 40.566 43.9232 40.1929 47.9186C40.1841 48.0367 40.2131 48.1545 40.2759 48.2552C40.3387 48.3559 40.4319 48.4342 40.5422 48.4789L48.4022 51.5647C48.6551 51.6635 48.9331 51.6801 49.1961 51.6121C53.7295 50.4204 53.5866 38.1007 50.0615 35.9462Z" fill="white"/>
<path d="M121.984 65.245C129.653 65.466 136.441 66.0342 146.493 65.1977C146.541 65.1922 146.589 65.1963 146.636 65.2096C146.682 65.2229 146.725 65.2453 146.763 65.2754C146.801 65.3055 146.832 65.3427 146.855 65.3849C146.878 65.4271 146.893 65.4735 146.898 65.5213V73.6107C146.898 73.7133 146.857 73.8116 146.784 73.8842C146.711 73.9567 146.612 73.9974 146.509 73.9974C138.335 73.3739 130.126 73.3739 121.952 73.9974C121.9 74.0017 121.848 73.9958 121.798 73.9798C121.748 73.9639 121.702 73.9383 121.662 73.9046C121.622 73.8708 121.589 73.8296 121.565 73.7832C121.542 73.7368 121.527 73.6863 121.523 73.6344V65.7186C121.523 65.6557 121.536 65.5935 121.56 65.5355C121.585 65.4775 121.621 65.425 121.666 65.3809C121.711 65.3368 121.764 65.3021 121.823 65.2788C121.882 65.2555 121.945 65.244 122.008 65.245H121.984Z" fill="white"/>
</svg>
