<svg width="103" height="76" viewBox="0 0 103 76" fill="none" xmlns="http://www.w3.org/2000/svg">
<path d="M46.3433 27.8033C46.285 27.6167 46.1217 26.0417 44.29 26.065C43.94 26.0417 43.8233 25.8083 43.8233 25.5167C43.8 24.8867 43.8 23.4167 43.8 22.565C43.8 22.04 44.22 21.9467 44.3717 21.9467C45.7017 21.9 46.0167 21.2233 46.0983 20.78C46.2383 20.2317 46.1333 19.6133 47.5217 19.7067C50.1817 19.7067 52.83 19.7067 55.49 19.7067C55.7 19.7067 55.9217 19.7067 56.1317 19.7417C56.5983 19.8 56.7033 19.9867 56.8083 20.4533C56.8433 20.5817 56.9367 21.865 58.1617 22.0167C59.095 21.9583 59.095 22.6583 59.1067 22.9033C59.1183 23.72 59.0833 24.5367 59.06 25.3417C59.0483 25.8783 58.955 26.0183 58.4533 26.1233C58.29 26.1583 58.22 26.17 58.0567 26.205C57.59 26.2983 57.0067 26.6367 56.855 27.7683C56.7733 28.095 56.61 28.34 56.2717 28.3633C56.015 28.3867 50.1 28.3983 47.405 28.3983C46.9617 28.3983 46.4833 28.305 46.3667 27.8267L46.3433 27.8033ZM57.555 23.335C56.0733 22.9967 55.6417 22.1917 55.455 21.3167C52.83 21.235 50.1 21.27 47.4517 21.27C47.265 22.6583 46.2617 23.23 45.41 23.44V24.6533C46.4017 25.085 47.0317 25.855 47.5217 26.8233C48.8517 26.7767 54.1717 26.8817 55.525 26.765C55.735 25.715 56.4 25.0033 57.555 24.7817C57.6017 24.3267 57.555 23.7783 57.555 23.335Z" fill="black"/>
<path d="M51.3483 16.8596L48.28 13.8963L51.3483 10.793V12.9863C51.3483 12.9863 61.6383 12.998 62.2333 13.033C63.5867 13.103 64.345 14.153 64.3217 15.308C64.3683 17.0463 64.3217 18.773 64.3333 20.5113C64.205 22.5296 62.8283 22.8213 62.0817 22.9963C62.0583 25.4813 62.0583 28.1413 62.07 30.7196C61.3 30.673 41.2333 30.7196 40.86 30.6963C40.825 29.5763 40.825 28.3863 40.8133 27.1846C40.685 27.1496 40.3 27.2896 40.3233 27.7213C40.3 29.1563 40.2883 30.5913 40.3 32.0263C40.3 32.2713 40.3583 32.5163 40.44 32.7496C40.7433 33.333 41.595 33.3446 41.7933 33.3446C44.92 33.3446 51.6283 33.3096 51.6283 33.3096V31.2213C51.6283 31.2213 51.6283 31.2213 54.6383 34.173L51.6283 37.2063V34.9663C51.6283 34.9663 41.3033 35.0013 40.9533 34.9663C39.6233 34.873 38.7367 33.823 38.69 32.4813C38.6433 30.9413 38.69 29.413 38.655 27.873C38.69 25.4346 40.545 25.0963 40.825 25.0963C40.825 22.5763 40.825 20.0096 40.825 17.303C41.595 17.303 61.265 17.303 62.0467 17.2796C62.07 17.863 62.105 18.948 62.0933 20.8496C62.6417 20.8613 62.77 20.3713 62.77 20.1846C62.805 18.703 62.8283 17.163 62.7817 15.6813C62.8167 14.8763 62.5833 14.6196 61.755 14.5963C61.7433 14.5963 51.3483 14.5963 51.3367 14.5963M42.5633 18.9946C42.5633 20.6863 42.5983 27.4763 42.6333 29.1096C43.7417 29.1446 60.005 29.1446 60.3667 29.1096C60.425 28.8763 60.4133 19.3096 60.39 19.018C60.0867 18.9596 43.94 19.018 42.5633 18.9946Z" fill="black"/>
<path d="M53.6467 24.0935C53.7167 25.2019 52.6433 26.1702 51.5817 26.1819C50.4967 26.1935 49.5283 25.2135 49.4933 24.1052C49.4583 22.9619 50.555 21.9119 51.6283 21.9585C52.7483 22.0052 53.7167 22.9969 53.6467 24.0935ZM52.3517 24.0119C52.34 23.5919 52.0133 23.2535 51.605 23.2535C51.1617 23.2535 50.7883 23.6385 50.8117 24.0819C50.835 24.5369 51.22 24.8752 51.6867 24.8285C52.1067 24.7935 52.375 24.4669 52.3633 24.0119H52.3517Z" fill="black"/>
<path d="M13.22 60C12.8 60 12.4127 59.8973 12.058 59.692C11.7033 59.4867 11.4233 59.2113 11.218 58.866C11.0127 58.5113 10.91 58.124 10.91 57.704V50.592H12.17V57.676C12.17 57.9187 12.2493 58.124 12.408 58.292C12.5667 58.4507 12.7627 58.53 12.996 58.53H13.696C13.752 58.53 13.7987 58.5533 13.836 58.6C13.8733 58.6373 13.892 58.684 13.892 58.74V59.804C13.892 59.9347 13.8267 60 13.696 60H13.22ZM13.6914 60C13.6354 60 13.5887 59.9813 13.5514 59.944C13.5141 59.9067 13.4954 59.86 13.4954 59.804V58.726C13.4954 58.67 13.5141 58.6233 13.5514 58.586C13.5794 58.5487 13.6261 58.53 13.6914 58.53H14.1394C14.3727 58.53 14.5734 58.4647 14.7414 58.334C14.9094 58.2033 15.0167 58.0167 15.0634 57.774L15.3434 56.332C15.4367 55.8653 15.6701 55.478 16.0434 55.17C16.4167 54.862 16.8414 54.708 17.3174 54.708H18.1014C18.4841 54.708 18.8387 54.8013 19.1654 54.988C19.4921 55.1747 19.7487 55.4313 19.9354 55.758C20.1314 56.0847 20.2294 56.4393 20.2294 56.822V57.662C20.2294 57.9047 20.3087 58.11 20.4674 58.278C20.6354 58.446 20.8361 58.53 21.0694 58.53H21.5594C21.6061 58.53 21.6481 58.5487 21.6854 58.586C21.7321 58.6233 21.7554 58.67 21.7554 58.726V59.804C21.7554 59.86 21.7367 59.9067 21.6994 59.944C21.6621 59.9813 21.6154 60 21.5594 60H21.2934C20.6774 60 20.1921 59.7853 19.8374 59.356C19.7347 59.5893 19.5901 59.7573 19.4034 59.86C19.2167 59.9533 18.9927 60 18.7314 60H17.0794C16.4261 60 15.9361 59.7107 15.6094 59.132C15.2734 59.7107 14.7554 60 14.0554 60H13.6914ZM18.9694 56.808C18.9694 56.612 18.8994 56.444 18.7594 56.304C18.6287 56.164 18.4607 56.094 18.2554 56.094H17.2334C17.0654 56.094 16.9161 56.15 16.7854 56.262C16.6547 56.374 16.5754 56.514 16.5474 56.682L16.3234 57.802C16.3141 57.83 16.3094 57.8673 16.3094 57.914C16.3094 58.082 16.3701 58.2267 16.4914 58.348C16.6127 58.4693 16.7527 58.53 16.9114 58.53H18.9694V56.808ZM21.5527 60C21.4967 60 21.4501 59.9813 21.4127 59.944C21.3754 59.9067 21.3567 59.86 21.3567 59.804V58.726C21.3567 58.6607 21.3754 58.614 21.4127 58.586C21.4501 58.5487 21.4967 58.53 21.5527 58.53H23.4707C23.8721 58.53 24.2034 58.3947 24.4647 58.124C24.7354 57.8533 24.8707 57.5267 24.8707 57.144C24.8707 56.808 24.7587 56.486 24.5347 56.178L22.2247 53.014V52.076L26.7467 49.78L27.2927 50.886L23.4987 52.818L25.4727 55.492C25.8834 56.0427 26.0887 56.6353 26.0887 57.27C26.0887 57.746 25.9721 58.194 25.7387 58.614C25.5054 59.034 25.1787 59.37 24.7587 59.622C24.3387 59.874 23.8627 60 23.3307 60H21.5527ZM28.5667 60C28.1654 60 27.8341 59.9393 27.5727 59.818C27.3114 59.6967 27.0641 59.4727 26.8307 59.146L25.6687 57.592C25.1087 56.8267 24.7587 56.36 24.6187 56.192L25.4727 55.492L27.3067 57.956C27.4747 58.18 27.6381 58.334 27.7967 58.418C27.9647 58.4927 28.2074 58.53 28.5247 58.53H28.6927C28.7394 58.53 28.7814 58.5487 28.8187 58.586C28.8654 58.6233 28.8887 58.67 28.8887 58.726V59.804C28.8887 59.8507 28.8654 59.8973 28.8187 59.944C28.7814 59.9813 28.7347 60 28.6787 60H28.5667ZM21.8047 50.312L22.2107 51.208L26.3407 49.108L25.9347 48.212L21.8047 50.312ZM28.7305 60C28.6745 60 28.6278 59.986 28.5905 59.958C28.5531 59.9207 28.5345 59.8693 28.5345 59.804V58.74C28.5345 58.684 28.5578 58.6373 28.6045 58.6C28.6418 58.5533 28.6838 58.53 28.7305 58.53H29.7805C30.2938 58.53 30.6065 58.278 30.7185 57.774L31.2085 55.38L32.4265 55.618L32.0345 57.592C32.0251 57.6293 32.0205 57.69 32.0205 57.774C32.0205 57.998 32.0951 58.18 32.2445 58.32C32.3938 58.46 32.5898 58.53 32.8325 58.53H33.7845C33.8405 58.53 33.8871 58.5533 33.9245 58.6C33.9618 58.6373 33.9805 58.684 33.9805 58.74V59.804C33.9805 59.86 33.9618 59.9067 33.9245 59.944C33.8871 59.9813 33.8405 60 33.7845 60H32.8185C32.4825 60 32.1791 59.9253 31.9085 59.776C31.6471 59.6267 31.4511 59.412 31.3205 59.132C31.1711 59.4027 30.9471 59.6173 30.6485 59.776C30.3498 59.9253 30.0371 60 29.7105 60H28.7305ZM31.6285 61.68H33.0145V63.08H31.6285V61.68ZM29.5005 61.68H30.8865V63.08H29.5005V61.68ZM33.7891 60C33.7331 60 33.6864 59.9813 33.6491 59.944C33.6117 59.9067 33.5931 59.86 33.5931 59.804V58.726C33.5931 58.67 33.6164 58.6233 33.6631 58.586C33.7004 58.5487 33.7424 58.53 33.7891 58.53H34.3911C34.6244 58.53 34.8204 58.446 34.9791 58.278C35.1471 58.1007 35.2311 57.8907 35.2311 57.648V55.352H36.4771V57.662C36.4771 57.8953 36.5611 58.1007 36.7291 58.278C36.9064 58.446 37.1117 58.53 37.3451 58.53H37.6251C37.8864 58.53 38.0917 58.4647 38.2411 58.334C38.3997 58.194 38.5024 58.0073 38.5491 57.774L39.0251 55.38L40.2851 55.618L39.8931 57.592C39.8837 57.6293 39.8791 57.6807 39.8791 57.746C39.8791 57.9607 39.9537 58.1473 40.1031 58.306C40.2617 58.4553 40.4531 58.53 40.6771 58.53H41.8391V54.946H43.0991V58.53C43.0991 58.95 42.9591 59.3 42.6791 59.58C42.3991 59.86 42.0491 60 41.6291 60H40.6771C39.9771 60 39.4777 59.706 39.1791 59.118C38.9924 59.4073 38.7591 59.6267 38.4791 59.776C38.1991 59.9253 37.8957 60 37.5691 60C36.8504 60 36.2857 59.7107 35.8751 59.132C35.4364 59.7107 34.8624 60 34.1531 60H33.7891ZM49.1305 60C48.6545 60 48.2112 59.8787 47.8005 59.636C47.3899 59.3933 47.0632 59.0713 46.8205 58.67C46.5872 58.2593 46.4705 57.8113 46.4705 57.326V54.932H47.7305V57.228C47.7305 57.5827 47.8565 57.8907 48.1085 58.152C48.3605 58.404 48.6639 58.53 49.0185 58.53H54.6745C54.9079 58.53 55.1039 58.4507 55.2625 58.292C55.4305 58.124 55.5145 57.9187 55.5145 57.676V54.932H56.7745V57.662C56.7745 58.082 56.6672 58.474 56.4525 58.838C56.2472 59.1927 55.9672 59.4773 55.6125 59.692C55.2579 59.8973 54.8705 60 54.4505 60H49.1305ZM52.0145 53.518H53.4005V54.918H52.0145V53.518ZM49.8865 53.518H51.2725V54.918H49.8865V53.518ZM64.2988 57.55C64.2988 57.886 64.3874 58.1333 64.5648 58.292C64.7514 58.4507 64.9941 58.53 65.2928 58.53H65.8808C66.0114 58.53 66.0768 58.5953 66.0768 58.726V59.804C66.0768 59.86 66.0581 59.9067 66.0208 59.944C65.9834 59.9813 65.9368 60 65.8808 60H65.3488C64.8448 60 64.4108 59.8227 64.0468 59.468C63.6921 59.1133 63.5148 58.6187 63.5148 57.984L64.2988 57.55ZM58.1808 59.076L59.7068 58.88L59.0208 51.782L60.2808 51.6L60.8268 57.662C60.8361 57.7553 60.8408 57.872 60.8408 58.012C60.8408 58.18 60.8034 58.4227 60.7288 58.74L62.1148 58.558C62.3948 58.5113 62.6188 58.3947 62.7868 58.208C62.9641 58.012 63.0528 57.7693 63.0528 57.48V50.592H64.2988V57.424C64.2988 58.0587 64.1074 58.6 63.7248 59.048C63.3421 59.4867 62.8428 59.7527 62.2268 59.846L58.3488 60.406L58.1808 59.076ZM65.877 60C65.821 60 65.7743 59.9813 65.737 59.944C65.6996 59.9067 65.681 59.86 65.681 59.804V58.726C65.681 58.67 65.6996 58.6233 65.737 58.586C65.765 58.5487 65.8116 58.53 65.877 58.53H66.325C66.5583 58.53 66.759 58.4647 66.927 58.334C67.095 58.2033 67.2023 58.0167 67.249 57.774L67.529 56.332C67.6223 55.8653 67.8556 55.478 68.229 55.17C68.6023 54.862 69.027 54.708 69.503 54.708H70.287C70.6696 54.708 71.0243 54.8013 71.351 54.988C71.6776 55.1747 71.9343 55.4313 72.121 55.758C72.317 56.0847 72.415 56.4393 72.415 56.822V58.53C72.415 58.95 72.275 59.3 71.995 59.58C71.715 59.86 71.3556 60 70.917 60H69.265C68.6116 60 68.1216 59.7107 67.795 59.132C67.459 59.7107 66.941 60 66.241 60H65.877ZM71.155 58.53V56.808C71.155 56.612 71.085 56.444 70.945 56.304C70.8143 56.164 70.6463 56.094 70.441 56.094H69.419C69.251 56.094 69.1016 56.15 68.971 56.262C68.8403 56.374 68.761 56.514 68.733 56.682L68.509 57.802C68.4996 57.83 68.495 57.8673 68.495 57.914C68.495 58.082 68.5556 58.2267 68.677 58.348C68.7983 58.4693 68.9383 58.53 69.097 58.53H71.155ZM76.4114 60C75.9914 60 75.6041 59.8973 75.2494 59.692C74.8947 59.4867 74.6147 59.2113 74.4094 58.866C74.2041 58.5113 74.1014 58.124 74.1014 57.704V50.592H75.3614V57.676C75.3614 57.9187 75.4407 58.124 75.5994 58.292C75.7581 58.4507 75.9541 58.53 76.1874 58.53H76.8874C76.9434 58.53 76.9901 58.5533 77.0274 58.6C77.0647 58.6373 77.0834 58.684 77.0834 58.74V59.804C77.0834 59.9347 77.0181 60 76.8874 60H76.4114ZM76.8828 60C76.8268 60 76.7801 59.9813 76.7428 59.944C76.7055 59.8973 76.6868 59.846 76.6868 59.79V58.74C76.6868 58.684 76.7055 58.6373 76.7428 58.6C76.7801 58.5533 76.8268 58.53 76.8828 58.53H78.3668C78.6655 58.53 79.1041 58.4833 79.6828 58.39L78.1428 57.354V55.492C78.1428 55.0907 78.2595 54.7733 78.4928 54.54C78.7355 54.2973 79.0528 54.176 79.4448 54.176H82.0908C82.4735 54.176 82.8188 54.2647 83.1268 54.442C83.4348 54.6193 83.6728 54.862 83.8408 55.17C84.0088 55.4687 84.0928 55.8 84.0928 56.164V56.542C84.0928 56.7847 84.0368 57.0133 83.9248 57.228C83.8221 57.4333 83.6728 57.606 83.4768 57.746L82.5388 58.376L82.9448 58.432C83.3181 58.4973 83.6308 58.53 83.8828 58.53H85.1428C85.1988 58.53 85.2455 58.5533 85.2828 58.6C85.3201 58.6373 85.3388 58.684 85.3388 58.74V59.79C85.3388 59.846 85.3201 59.8973 85.2828 59.944C85.2455 59.9813 85.1988 60 85.1428 60H83.6448C83.2155 60 82.7815 59.93 82.3428 59.79C81.9041 59.65 81.4841 59.4633 81.0828 59.23C80.6908 59.454 80.2708 59.6407 79.8228 59.79C79.3841 59.93 78.9501 60 78.5208 60H76.8828ZM82.9028 56.696V56.276C82.9028 56.0707 82.8421 55.9073 82.7208 55.786C82.5995 55.6553 82.4315 55.59 82.2168 55.59H79.3048V56.598L81.1248 57.774L82.9028 56.696ZM85.1406 60C85.0846 60 85.038 59.9813 85.0006 59.944C84.9633 59.9067 84.9446 59.86 84.9446 59.804V58.726C84.9446 58.67 84.9633 58.6233 85.0006 58.586C85.0286 58.5487 85.0753 58.53 85.1406 58.53H85.5886C85.822 58.53 86.0226 58.4647 86.1906 58.334C86.3586 58.2033 86.466 58.0167 86.5126 57.774L86.7926 56.332C86.886 55.8653 87.1193 55.478 87.4926 55.17C87.866 54.862 88.2906 54.708 88.7666 54.708H89.5506C89.9333 54.708 90.288 54.8013 90.6146 54.988C90.9413 55.1747 91.198 55.4313 91.3846 55.758C91.5806 56.0847 91.6786 56.4393 91.6786 56.822V58.53C91.6786 58.95 91.5386 59.3 91.2586 59.58C90.9786 59.86 90.6193 60 90.1806 60H88.5286C87.8753 60 87.3853 59.7107 87.0586 59.132C86.7226 59.7107 86.2046 60 85.5046 60H85.1406ZM90.4186 58.53V56.808C90.4186 56.612 90.3486 56.444 90.2086 56.304C90.078 56.164 89.91 56.094 89.7046 56.094H88.6826C88.5146 56.094 88.3653 56.15 88.2346 56.262C88.104 56.374 88.0246 56.514 87.9966 56.682L87.7726 57.802C87.7633 57.83 87.7586 57.8673 87.7586 57.914C87.7586 58.082 87.8193 58.2267 87.9406 58.348C88.062 58.4693 88.202 58.53 88.3606 58.53H90.4186Z" fill="black"/>
</svg>
