<svg width="122" height="72" viewBox="0 0 122 72" fill="none" xmlns="http://www.w3.org/2000/svg">
<g clip-path="url(#clip0_1464_8040)">
<path d="M60.99 10.9008C66.58 10.7808 72.1 15.3408 72.12 22.0108C72.13 28.1508 67.08 33.1708 60.95 33.1008C54.24 33.0308 49.9 27.4708 49.89 22.0408C49.87 15.9808 54.88 10.8208 60.99 10.9008ZM66.19 18.0208C63.9 17.9808 62.81 18.0208 61.82 18.0208C61.82 19.6508 61.82 24.6208 61.83 25.7308C62.99 25.7508 65.25 25.7508 66.27 25.7308C67.38 23.2108 67.21 20.5608 66.19 18.0108V18.0208ZM60.11 25.7208C60.11 24.3108 60.1 19.2408 60.1 18.0208C58.7 18.0208 57.12 18.0208 55.91 18.0008C54.9 20.5008 54.99 23.5808 55.88 25.7108C57.15 25.7108 58.66 25.7408 60.11 25.7108V25.7208ZM69.5 25.7708C70.78 23.3708 70.8 20.3308 69.5 18.0208C69.14 18.0208 68.44 18.0308 67.83 18.0208C67.85 18.1308 68.68 19.9908 68.69 21.8608C68.7 23.7308 68.46 24.4408 67.91 25.7308C68.39 25.7607 69.03 25.7308 69.5 25.7608V25.7708ZM52.6 18.0008C51.25 20.1208 51.17 24.0708 52.41 25.7508C52.59 25.7508 53.94 25.7508 54.22 25.7508C53.18 22.3108 53.59 19.9208 54.31 18.0008C53.86 18.0208 53.08 18.0308 52.6 18.0008ZM65.34 16.5808C65.37 16.4908 64.19 14.9308 63.61 14.3908C63.11 13.9208 62.6 13.4408 61.81 13.1908C61.81 14.4108 61.81 15.3608 61.81 16.5708C62.92 16.5708 64.32 16.5708 65.34 16.5708V16.5808ZM56.42 16.5708C57.7 16.5708 59.06 16.5708 60.09 16.5708C60.09 15.7608 60.09 13.6408 60.08 13.1908C58.33 13.4608 57.29 15.0908 56.42 16.5708ZM65.52 27.3808C64.89 27.3808 62.49 27.3808 61.82 27.3708C61.82 28.2008 61.82 30.9108 61.81 31.1808C63.26 30.4208 64.75 28.8507 65.52 27.3808ZM60.1 27.3808H56.44C56.85 28.3308 58.66 30.6308 60.1 31.0908C60.1 29.9608 60.1 28.3808 60.1 27.3808ZM68.78 27.3808C67.91 27.3908 67.83 27.3808 67.25 27.3908C66.79 28.2808 65.77 29.7908 64.71 30.9008C66.26 30.4108 67.76 28.7608 68.78 27.3708V27.3808ZM64.86 13.6008C66.15 14.9008 66.6 15.6308 67.21 16.5808H68.6C67.94 15.2608 66.45 14.1308 64.86 13.6008ZM54.9 27.3808C54.4 27.3808 53.82 27.3808 53.19 27.3708C53.59 28.2908 55.62 30.3708 57.57 31.0508C56.8 30.2808 55.9 29.5608 54.9 27.3908V27.3808ZM57.25 13.3208C55.42 14.0108 53.95 15.4908 53.27 16.5708H54.81C55.62 14.9408 56.88 13.7308 57.25 13.3208Z" fill="black"/>
</g>
<path d="M18.502 56C18.53 56.0747 18.5533 56.1587 18.572 56.252C18.6 56.3453 18.614 56.4573 18.614 56.588V57.05C18.614 57.4793 18.488 57.862 18.236 58.198C17.984 58.5433 17.6527 58.8093 17.242 58.996C16.8313 59.192 16.3927 59.29 15.926 59.29H13.392C12.8507 59.29 12.3513 59.1547 11.894 58.884C11.4367 58.6227 11.0727 58.2633 10.802 57.806C10.5407 57.3487 10.41 56.8493 10.41 56.308V52.794H11.656V56.126C11.656 56.5927 11.8193 56.9893 12.146 57.316C12.4727 57.6427 12.8693 57.806 13.336 57.806H16.262C16.598 57.806 16.864 57.6987 17.06 57.484C17.2653 57.2693 17.368 56.994 17.368 56.658V56H14.554V54.53H19.86C19.916 54.53 19.9627 54.5487 20 54.586C20.0373 54.614 20.056 54.656 20.056 54.712V55.79C20.056 55.846 20.0327 55.8973 19.986 55.944C19.9487 55.9813 19.9067 56 19.86 56H18.502ZM21.3893 54.53C21.3426 54.4273 21.2913 54.306 21.2353 54.166C21.1793 54.026 21.1373 53.8627 21.1093 53.676L20.8993 52.5C20.8806 52.416 20.8713 52.2947 20.8713 52.136C20.8713 51.7627 20.9599 51.4267 21.1373 51.128C21.3239 50.82 21.5713 50.582 21.8793 50.414C22.1873 50.2367 22.5233 50.148 22.8873 50.148H25.1973V51.534H22.8033C22.5886 51.534 22.4113 51.618 22.2713 51.786C22.1406 51.954 22.0986 52.1453 22.1453 52.36L22.5513 54.474L25.6033 54.166L25.8133 55.482L23.6013 55.776C22.4533 55.9253 21.3753 56 20.3673 56H19.8633C19.8073 56 19.7606 55.986 19.7233 55.958C19.6859 55.9207 19.6673 55.8693 19.6673 55.804V54.726C19.6673 54.6793 19.6859 54.6373 19.7233 54.6C19.7606 54.5533 19.8073 54.53 19.8633 54.53H21.3893ZM29.8098 56C29.3898 56 29.0025 55.8973 28.6478 55.692C28.2932 55.4867 28.0132 55.2113 27.8078 54.866C27.6025 54.5113 27.4998 54.124 27.4998 53.704V46.592H28.7598V53.676C28.7598 53.9187 28.8392 54.124 28.9978 54.292C29.1565 54.4507 29.3525 54.53 29.5858 54.53H30.2858C30.3418 54.53 30.3885 54.5533 30.4258 54.6C30.4632 54.6373 30.4818 54.684 30.4818 54.74V55.804C30.4818 55.9347 30.4165 56 30.2858 56H29.8098ZM30.2812 56C30.2252 56 30.1786 55.9813 30.1412 55.944C30.1039 55.9067 30.0852 55.86 30.0852 55.804V54.726C30.0852 54.67 30.1039 54.6233 30.1412 54.586C30.1692 54.5487 30.2159 54.53 30.2812 54.53H30.7293C30.9626 54.53 31.1633 54.4647 31.3313 54.334C31.4993 54.2033 31.6066 54.0167 31.6533 53.774L31.9333 52.332C32.0266 51.8653 32.2599 51.478 32.6333 51.17C33.0066 50.862 33.4313 50.708 33.9073 50.708H34.6913C35.0739 50.708 35.4286 50.8013 35.7553 50.988C36.0819 51.1747 36.3386 51.4313 36.5253 51.758C36.7213 52.0847 36.8193 52.4393 36.8193 52.822V53.662C36.8193 53.9047 36.8986 54.11 37.0573 54.278C37.2253 54.446 37.4259 54.53 37.6593 54.53H38.1493C38.1959 54.53 38.2379 54.5487 38.2753 54.586C38.3219 54.6233 38.3453 54.67 38.3453 54.726V55.804C38.3453 55.86 38.3266 55.9067 38.2893 55.944C38.2519 55.9813 38.2053 56 38.1493 56H37.8833C37.2673 56 36.7819 55.7853 36.4273 55.356C36.3246 55.5893 36.1799 55.7573 35.9933 55.86C35.8066 55.9533 35.5826 56 35.3213 56H33.6693C33.0159 56 32.5259 55.7107 32.1993 55.132C31.8633 55.7107 31.3453 56 30.6453 56H30.2812ZM35.5593 52.808C35.5593 52.612 35.4893 52.444 35.3493 52.304C35.2186 52.164 35.0506 52.094 34.8453 52.094H33.8233C33.6553 52.094 33.5059 52.15 33.3753 52.262C33.2446 52.374 33.1653 52.514 33.1373 52.682L32.9133 53.802C32.9039 53.83 32.8993 53.8673 32.8993 53.914C32.8993 54.082 32.9599 54.2267 33.0813 54.348C33.2026 54.4693 33.3426 54.53 33.5013 54.53H35.5593V52.808ZM38.1426 56C38.0866 56 38.0399 55.986 38.0026 55.958C37.9652 55.9207 37.9466 55.8693 37.9466 55.804V54.74C37.9466 54.684 37.9699 54.6373 38.0166 54.6C38.0539 54.5533 38.0959 54.53 38.1426 54.53H39.1926C39.7059 54.53 40.0186 54.278 40.1306 53.774L40.6206 51.38L41.8386 51.618L41.4466 53.592C41.4372 53.6293 41.4326 53.69 41.4326 53.774C41.4326 53.998 41.5072 54.18 41.6566 54.32C41.8059 54.46 42.0019 54.53 42.2446 54.53H43.1966C43.2526 54.53 43.2992 54.5533 43.3366 54.6C43.3739 54.6373 43.3926 54.684 43.3926 54.74V55.804C43.3926 55.86 43.3739 55.9067 43.3366 55.944C43.2992 55.9813 43.2526 56 43.1966 56H42.2306C41.8946 56 41.5912 55.9253 41.3206 55.776C41.0592 55.6267 40.8632 55.412 40.7326 55.132C40.5832 55.4027 40.3592 55.6173 40.0606 55.776C39.7619 55.9253 39.4492 56 39.1226 56H38.1426ZM41.1106 48.524H42.4966V49.924H41.1106V48.524ZM38.9826 48.524H40.3686V49.924H38.9826V48.524ZM43.2012 56C43.0705 56 43.0052 55.9347 43.0052 55.804V54.726C43.0052 54.6793 43.0285 54.6373 43.0752 54.6C43.1125 54.5533 43.1545 54.53 43.2012 54.53H45.6092C46.0945 54.53 46.5098 54.474 46.8552 54.362C47.2005 54.25 47.5458 54.0213 47.8912 53.676L48.7732 52.822C48.8105 52.7847 48.8758 52.724 48.9692 52.64C49.0625 52.556 49.1325 52.5 49.1792 52.472L45.9872 51.52C45.9592 51.5107 45.9125 51.506 45.8472 51.506C45.7352 51.506 45.6325 51.5433 45.5392 51.618C45.4458 51.6833 45.3852 51.7673 45.3572 51.87L44.9232 53.102L43.8452 52.808L44.1952 51.618C44.3072 51.2167 44.5265 50.8993 44.8532 50.666C45.1892 50.4233 45.5578 50.302 45.9592 50.302C46.1645 50.302 46.3372 50.3253 46.4772 50.372L51.9652 52.024L51.6152 53.186L50.9852 53.004C50.7985 52.9573 50.6678 52.934 50.5932 52.934C50.4812 52.934 50.3738 52.962 50.2712 53.018C50.1778 53.074 50.0472 53.1813 49.8792 53.34L48.2692 54.908C47.9052 55.272 47.4712 55.5473 46.9672 55.734C46.4632 55.9113 45.9358 56 45.3852 56H43.2012ZM47.0372 57.666H48.4232L48.4372 59.08H47.0372V57.666ZM53.4491 46.592H54.7091V56H53.4491V46.592ZM65.4752 53.956C65.8112 54.0307 66.0772 54.194 66.2732 54.446C66.4785 54.6887 66.5812 54.978 66.5812 55.314V55.776C66.5812 56.2613 66.4598 56.7093 66.2172 57.12C65.9745 57.54 65.6478 57.8713 65.2372 58.114C64.8265 58.3567 64.3785 58.478 63.8932 58.478H61.0792C60.5472 58.478 60.0525 58.3427 59.5952 58.072C59.1378 57.8013 58.7738 57.4373 58.5032 56.98C58.2418 56.5227 58.1112 56.028 58.1112 55.496V52.29H59.3572V55.314C59.3572 55.7807 59.5205 56.1773 59.8472 56.504C60.1832 56.8307 60.5845 56.994 61.0512 56.994H64.0612C64.4252 56.994 64.7238 56.8633 64.9572 56.602C65.1998 56.35 65.3212 56.0373 65.3212 55.664V55.202L61.4572 54.278V52.724C61.4572 52.2667 61.5598 51.842 61.7652 51.45C61.9705 51.058 62.2505 50.736 62.6052 50.484C62.9692 50.232 63.3752 50.078 63.8232 50.022L65.6152 49.784L65.7692 51.058L63.7812 51.324C63.4545 51.3707 63.1885 51.52 62.9832 51.772C62.7778 52.0147 62.6752 52.2993 62.6752 52.626V53.284L65.4752 53.956ZM70.6751 56C70.2551 56 69.8677 55.8973 69.5131 55.692C69.1584 55.4867 68.8784 55.2113 68.6731 54.866C68.4677 54.5113 68.3651 54.124 68.3651 53.704V46.592H69.6251V53.676C69.6251 53.9187 69.7044 54.124 69.8631 54.292C70.0217 54.4507 70.2177 54.53 70.4511 54.53H71.1511C71.2071 54.53 71.2537 54.5533 71.2911 54.6C71.3284 54.6373 71.3471 54.684 71.3471 54.74V55.804C71.3471 55.9347 71.2817 56 71.1511 56H70.6751ZM76.6765 55.44C76.4525 55.636 76.2565 55.7807 76.0885 55.874C75.9205 55.958 75.6685 56 75.3325 56H71.1465C71.0905 56 71.0438 55.9813 71.0065 55.944C70.9692 55.9067 70.9505 55.8647 70.9505 55.818V54.712C70.9505 54.656 70.9692 54.614 71.0065 54.586C71.0438 54.5487 71.0905 54.53 71.1465 54.53H72.5465C72.3692 54.4087 72.2805 54.1847 72.2805 53.858C72.2805 53.7367 72.2945 53.606 72.3225 53.466L72.5045 52.542C72.5978 52.0753 72.8265 51.6927 73.1905 51.394C73.5545 51.086 73.9698 50.9367 74.4365 50.946L74.9965 50.96C75.3792 50.96 75.7245 51.0533 76.0325 51.24C76.3498 51.4267 76.5972 51.6787 76.7745 51.996C76.9612 52.304 77.0545 52.6447 77.0545 53.018V54.53H79.1545V52.822C79.1545 52.57 79.0845 52.3553 78.9445 52.178C78.8138 51.9913 78.6318 51.8607 78.3985 51.786L73.6105 50.288L73.9885 49.042L78.6225 50.47C79.1452 50.638 79.5698 50.9367 79.8965 51.366C80.2325 51.786 80.4005 52.2807 80.4005 52.85V54.46C80.4005 54.9173 80.2558 55.2907 79.9665 55.58C79.6772 55.86 79.3038 56 78.8465 56H76.6765V55.44ZM75.8505 52.836C75.8505 52.64 75.7852 52.4767 75.6545 52.346C75.5238 52.2153 75.3558 52.15 75.1505 52.15H74.3805C74.0165 52.15 73.7925 52.3413 73.7085 52.724L73.4985 53.9C73.4892 53.9373 73.4845 53.984 73.4845 54.04C73.4845 54.2173 73.5405 54.3573 73.6525 54.46C73.7738 54.5533 73.9232 54.6 74.1005 54.6H75.8505V52.836ZM89.7093 56C89.2799 56 88.8926 55.8927 88.5473 55.678C88.2113 55.4633 87.9499 55.1553 87.7633 54.754C87.4833 54.8847 87.1613 54.95 86.7973 54.95H85.3413C84.8839 54.95 84.5106 54.81 84.2213 54.53C83.9319 54.2407 83.7873 53.8673 83.7873 53.41V52.5C83.7873 51.9213 83.9506 51.422 84.2773 51.002C84.6133 50.5727 85.0473 50.2927 85.5793 50.162L87.4553 49.714V48.594H88.7013V53.592C88.7013 53.8533 88.7899 54.0773 88.9673 54.264C89.1539 54.4413 89.4013 54.53 89.7093 54.53H90.1293C90.2599 54.53 90.3253 54.5953 90.3253 54.726V55.804C90.3253 55.8693 90.3066 55.9207 90.2693 55.958C90.2319 55.986 90.1853 56 90.1293 56H89.7093ZM87.4693 53.48V51.03L85.8873 51.422C85.3273 51.562 85.0473 51.9447 85.0473 52.57V53.48H87.4693ZM90.123 56C90.067 56 90.0204 55.9813 89.983 55.944C89.9457 55.9067 89.927 55.86 89.927 55.804V54.726C89.927 54.6607 89.9457 54.614 89.983 54.586C90.0204 54.5487 90.067 54.53 90.123 54.53H92.041C92.4424 54.53 92.7737 54.3947 93.035 54.124C93.3057 53.8533 93.441 53.5267 93.441 53.144C93.441 52.808 93.329 52.486 93.105 52.178L90.795 49.014V48.076L95.317 45.78L95.863 46.886L92.069 48.818L94.043 51.492C94.4537 52.0427 94.659 52.6353 94.659 53.27C94.659 53.746 94.5424 54.194 94.309 54.614C94.0757 55.034 93.749 55.37 93.329 55.622C92.909 55.874 92.433 56 91.901 56H90.123ZM97.137 56C96.7357 56 96.4044 55.9393 96.143 55.818C95.8817 55.6967 95.6344 55.4727 95.401 55.146L94.239 53.592C93.679 52.8267 93.329 52.36 93.189 52.192L94.043 51.492L95.877 53.956C96.045 54.18 96.2084 54.334 96.367 54.418C96.535 54.4927 96.7777 54.53 97.095 54.53H97.263C97.3097 54.53 97.3517 54.5487 97.389 54.586C97.4357 54.6233 97.459 54.67 97.459 54.726V55.804C97.459 55.8507 97.4357 55.8973 97.389 55.944C97.3517 55.9813 97.305 56 97.249 56H97.137ZM97.3008 56C97.2448 56 97.1981 55.986 97.1608 55.958C97.1234 55.9207 97.1048 55.8693 97.1048 55.804V54.74C97.1048 54.684 97.1281 54.6373 97.1748 54.6C97.2121 54.5533 97.2541 54.53 97.3008 54.53H98.3508C98.8641 54.53 99.1768 54.278 99.2888 53.774L99.7788 51.38L100.997 51.618L100.605 53.592C100.595 53.6293 100.591 53.69 100.591 53.774C100.591 53.998 100.665 54.18 100.815 54.32C100.964 54.46 101.16 54.53 101.403 54.53H102.355C102.411 54.53 102.457 54.5533 102.495 54.6C102.532 54.6373 102.551 54.684 102.551 54.74V55.804C102.551 55.86 102.532 55.9067 102.495 55.944C102.457 55.9813 102.411 56 102.355 56H101.389C101.053 56 100.749 55.9253 100.479 55.776C100.217 55.6267 100.021 55.412 99.8908 55.132C99.7414 55.4027 99.5174 55.6173 99.2188 55.776C98.9201 55.9253 98.6074 56 98.2808 56H97.3008ZM99.1208 57.68H100.507L100.521 59.094H99.1208V57.68ZM102.359 56C102.303 56 102.257 55.9813 102.219 55.944C102.182 55.9067 102.163 55.86 102.163 55.804V54.726C102.163 54.67 102.187 54.6233 102.233 54.586C102.271 54.5487 102.313 54.53 102.359 54.53H102.961C103.195 54.53 103.391 54.446 103.549 54.278C103.717 54.1007 103.801 53.8907 103.801 53.648V51.352H105.047V53.662C105.047 53.8953 105.131 54.1007 105.299 54.278C105.477 54.446 105.682 54.53 105.915 54.53H106.195C106.457 54.53 106.662 54.4647 106.811 54.334C106.97 54.194 107.073 54.0073 107.119 53.774L107.595 51.38L108.855 51.618L108.463 53.592C108.454 53.6293 108.449 53.6807 108.449 53.746C108.449 53.9607 108.524 54.1473 108.673 54.306C108.832 54.4553 109.023 54.53 109.247 54.53H110.409V50.946H111.669V54.53C111.669 54.95 111.529 55.3 111.249 55.58C110.969 55.86 110.619 56 110.199 56H109.247C108.547 56 108.048 55.706 107.749 55.118C107.563 55.4073 107.329 55.6267 107.049 55.776C106.769 55.9253 106.466 56 106.139 56C105.421 56 104.856 55.7107 104.445 55.132C104.007 55.7107 103.433 56 102.723 56H102.359ZM107.175 46.62H108.561V48.006H107.175V46.62ZM106.111 48.524H107.497V49.924H106.111V48.524ZM108.239 48.524H109.625V49.924H108.239V48.524Z" fill="black"/>
<defs>
<clipPath id="clip0_1464_8040">
<rect width="24" height="24" fill="white" transform="translate(49 10)"/>
</clipPath>
</defs>
</svg>
