<svg width="24" height="24" viewBox="0 0 24 24" fill="none" xmlns="http://www.w3.org/2000/svg">
<g clip-path="url(#clip0_2926_13995)">
<path d="M2.81027 10.466H1.97536C1.29517 10.466 1.012 10.3023 1.00032 9.90992C0.988647 9.51756 1.29225 9.29204 2.01331 9.30749C2.61468 9.30749 3.21605 9.34147 3.89041 9.3631C4.69612 8.41157 5.56899 7.41989 6.39807 6.38496C6.53966 6.18997 6.7232 6.0336 6.9334 5.92882C7.14362 5.82404 7.37442 5.77388 7.60664 5.78251C8.09708 5.78251 8.58751 5.76708 9.06628 5.78251C9.22666 5.79736 9.38781 5.76515 9.53201 5.68938C9.67621 5.61363 9.79788 5.49728 9.88368 5.3531C10.6799 4.20345 11.8571 3.4145 13.1795 3.14421C15.5675 2.65918 17.5964 3.38826 19.0502 5.47359C20.504 7.5589 20.5741 9.79869 19.4531 12.0972C19.3557 12.2651 19.2495 12.427 19.1349 12.5822L18.767 13.1507C19.6954 13.1507 20.0953 13.8612 20.5536 14.4822C21.2426 15.409 21.9285 16.3358 22.6264 17.2626C22.8902 17.589 23.023 18.0115 22.9967 18.4401C22.9703 18.8687 22.7867 19.2695 22.485 19.5569C22.1834 19.8442 21.7876 19.9955 21.382 19.9784C20.9765 19.9613 20.5933 19.7772 20.3142 19.4653C20.2972 19.4479 20.2825 19.4282 20.2705 19.4066C19.8559 18.5138 19.1349 18.3315 18.2912 18.4798C17.4475 18.6281 16.9045 18.2697 16.6009 17.4418C16.5255 17.2803 16.4366 17.1262 16.3353 16.9815C16.1543 16.9815 15.9704 16.9506 15.7864 16.9506C12.9635 16.9506 10.1377 16.9506 7.32056 16.9506C6.86514 16.9506 6.55863 17.0556 6.39513 17.5221C6.33225 17.6544 6.26307 17.7833 6.18786 17.9083C6.11064 18.1026 5.97569 18.265 5.80344 18.3709C5.6312 18.4768 5.43104 18.5205 5.23327 18.4953C4.60564 18.4644 3.97214 18.4953 3.34451 18.4798C2.79568 18.4798 2.62928 18.3099 2.62636 17.7229C2.61273 15.5995 2.61273 13.4771 2.62636 11.3557C2.65991 11.0535 2.72151 10.7555 2.81027 10.466ZM9.79609 9.14993C9.79438 10.1213 10.0647 11.0714 10.5728 11.8803C11.081 12.6892 11.8042 13.3206 12.6512 13.6948C13.4982 14.0691 14.431 14.1693 15.3318 13.983C16.2326 13.7966 17.061 13.332 17.7125 12.6477C18.3639 11.9635 18.8092 11.0903 18.9921 10.1384C19.175 9.18658 19.0873 8.19873 18.74 7.29958C18.3928 6.40043 17.8015 5.63033 17.041 5.08651C16.2805 4.54268 15.3848 4.24952 14.4669 4.24402C13.8542 4.23497 13.2458 4.35541 12.6775 4.59828C12.1093 4.84116 11.5925 5.20159 11.1575 5.65846C10.7226 6.11532 10.3781 6.65948 10.1443 7.25899C9.91053 7.85851 9.79216 8.50139 9.79609 9.14993ZM3.69482 17.3367C4.09768 17.3367 4.40128 17.312 4.69906 17.3367C4.87074 17.3741 5.04943 17.3435 5.20119 17.2507C5.35294 17.1579 5.4672 17.0093 5.52228 16.8332C5.84632 16.0114 6.45645 15.7797 7.27385 15.789C10.0968 15.8229 12.9226 15.8322 15.7397 15.789C16.5951 15.7735 17.1527 16.0979 17.5526 16.861C17.8445 17.4387 17.8825 17.4233 18.5539 17.1977C18.0635 16.3142 17.1556 15.653 17.2753 14.4358C16.932 14.6118 16.5802 14.7685 16.2214 14.9054C13.9327 15.6191 11.9301 15.0815 10.2573 13.2835C10.1341 13.1251 9.97665 13.0004 9.79835 12.9197C9.62005 12.8391 9.42606 12.8049 9.23269 12.8201C8.69845 12.8541 8.15839 12.8016 7.62416 12.8356C6.99233 12.8897 6.36374 12.6962 5.85801 12.2918C5.27415 11.8408 4.65233 11.4577 4.06849 11.0561C3.66269 11.2353 3.69482 11.5689 3.69482 11.8871C3.69482 13.197 3.69482 14.5038 3.69482 15.8137V17.3367ZM4.7545 10.1385C5.47266 10.6359 6.14992 11.1055 6.83304 11.572C6.91095 11.6241 7.00072 11.6529 7.09286 11.6554C7.75553 11.6554 8.42111 11.6554 9.17137 11.6554C8.57594 10.157 8.52088 8.47951 9.01666 6.94103C8.54081 6.94103 8.14087 6.91013 7.76135 6.94103C7.55549 6.96339 7.36295 7.05928 7.21547 7.2129C6.39513 8.16133 5.6011 9.12831 4.7545 10.1385ZM21.4908 18.8382C21.5973 18.6446 21.6788 18.4368 21.733 18.2203C21.733 18.1029 21.6134 17.9639 21.5287 17.8496C20.7502 16.8054 19.9717 15.7643 19.1932 14.7262C19.1356 14.6488 19.0732 14.5755 19.0064 14.5069C18.8342 14.3432 18.6152 14.2505 18.4634 14.4698C18.4254 14.5498 18.4037 14.6373 18.3997 14.7267C18.3957 14.8161 18.4094 14.9054 18.4401 14.9888C18.5237 15.1626 18.6331 15.3212 18.7641 15.4584C19.4677 16.4037 20.1683 17.3522 20.8835 18.2883C21.0719 18.4882 21.2749 18.6721 21.4908 18.8382Z" fill="black"/>
<path d="M12.6068 6.37954C12.8596 6.57237 13.0419 6.72374 13.2362 6.85711C13.5698 7.08777 13.7744 6.97424 13.8002 6.55255C13.8483 5.81008 13.85 5.80287 14.5774 5.83169C14.7923 5.8407 15.0055 5.88936 15.2549 5.92362C15.2686 6.21554 15.2755 6.46424 15.2927 6.72735C15.3099 6.99046 15.4251 7.06255 15.6366 6.9436C15.8056 6.84833 15.9647 6.73478 16.1112 6.6048C16.1386 6.5722 16.1723 6.5461 16.2101 6.52821C16.2479 6.51033 16.2889 6.50108 16.3304 6.50108C16.3719 6.50108 16.4129 6.51033 16.4507 6.52821C16.4885 6.5461 16.5222 6.5722 16.5496 6.6048C16.7543 6.81745 16.9486 7.03912 17.1463 7.25898C17.1761 7.2893 17.1996 7.32586 17.215 7.36629C17.2305 7.40675 17.2376 7.45013 17.236 7.49366C17.2344 7.5372 17.224 7.57989 17.2056 7.61893C17.1872 7.65798 17.1611 7.69254 17.1291 7.72032C17.0122 7.85908 16.8781 7.98703 16.7714 8.1348C16.6322 8.32582 16.6803 8.45016 16.9073 8.49522C17.0964 8.53307 17.289 8.55109 17.4782 8.57452C17.6346 8.59434 17.7498 8.67544 17.7498 8.84484C17.7498 9.21607 17.7412 9.58912 17.7189 9.96215C17.7069 10.173 17.5727 10.2415 17.375 10.2415C17.1831 10.2393 16.9916 10.2598 16.8041 10.3028C16.5926 10.355 16.5617 10.4559 16.6803 10.6415C16.78 10.7965 16.8953 10.9407 17.007 11.0867C17.0366 11.1171 17.0599 11.1535 17.0756 11.1937C17.0912 11.234 17.0987 11.2772 17.0977 11.3206C17.0968 11.364 17.0873 11.4068 17.0699 11.4462C17.0525 11.4856 17.0276 11.5209 16.9967 11.5498C16.9692 11.5804 16.9434 11.6165 16.9159 11.6471C16.3244 12.2761 16.3519 12.2022 15.738 11.8508C15.5661 11.7516 15.3941 11.5895 15.1362 11.7697C15.1362 11.9499 15.1242 12.1661 15.1104 12.377C15.0915 12.6707 15.0485 12.7212 14.7665 12.7626C14.6713 12.7758 14.5754 12.7836 14.4794 12.7861C13.7452 12.7987 13.7348 12.7861 13.7211 12.0093C13.7211 11.912 13.6987 11.8147 13.685 11.6976C13.2293 11.6489 12.9731 12.058 12.5432 12.1914L11.6835 11.2903L12.3403 10.4559C12.2389 10.3748 12.1684 10.3028 12.079 10.2487C12.0343 10.2216 11.9706 10.2307 11.9191 10.2108C11.668 10.1171 11.2829 10.1712 11.2072 9.87024C11.1449 9.48953 11.1403 9.10092 11.1934 8.71868C11.1934 8.6448 11.3654 8.55109 11.4668 8.52406C11.625 8.48442 11.797 8.50783 11.9586 8.48261C12.2578 8.43755 12.3335 8.26635 12.1684 8.00504C12.0781 7.86112 11.9757 7.72603 11.8623 7.60137C11.8268 7.57229 11.7983 7.53498 11.779 7.49237C11.7596 7.44977 11.75 7.40303 11.7508 7.35584C11.7516 7.30867 11.7629 7.26234 11.7838 7.2205C11.8046 7.17867 11.8344 7.14247 11.8709 7.1148C12.1134 6.88233 12.3472 6.64625 12.6068 6.37954ZM12.6928 11.6453C13.5749 11.2254 13.5749 11.2254 14.0684 11.4453C14.0942 11.6832 14.1217 11.9355 14.1492 12.195H14.7132C14.7493 11.912 14.7803 11.6543 14.8112 11.4129C15.0296 11.3462 15.2291 11.2146 15.3924 11.2524C15.6583 11.345 15.9133 11.4689 16.1524 11.6219L16.6012 11.2182L16.1765 10.537C16.2332 9.84319 16.7852 9.95133 17.1824 9.79815V8.95657C16.7543 8.85745 16.2608 8.85384 16.2281 8.22309L16.6975 7.57253L16.2333 7.08777C15.7982 7.23014 15.4509 7.73653 14.9866 7.21032L14.8731 6.45163H14.2042C14.1853 6.60299 14.1596 6.74358 14.1527 6.88595C14.1539 6.99173 14.1204 7.09479 14.0578 7.17779C13.9952 7.26081 13.9073 7.31874 13.8088 7.34187C13.5319 7.4554 13.3256 7.46261 13.1055 7.24996C12.9946 7.16105 12.876 7.08321 12.7513 7.01749L12.2853 7.45721L12.741 8.17805C12.6942 8.26447 12.6545 8.3549 12.6223 8.44838C12.6004 8.57676 12.5329 8.69167 12.4333 8.76991C12.3337 8.84818 12.2096 8.88396 12.0859 8.87006C11.9574 8.88487 11.8306 8.91325 11.7076 8.95476V9.77291C11.95 9.82159 12.1993 9.80896 12.3696 9.9243C12.5398 10.0396 12.6464 10.2847 12.7857 10.4811L12.3094 11.1876C12.4487 11.3534 12.5725 11.503 12.6928 11.6453Z" fill="black"/>
<path d="M15.9668 9.35775C15.9614 9.56806 15.9166 9.77516 15.8351 9.96704C15.7537 10.1589 15.6371 10.3318 15.4921 10.4757C15.3471 10.6196 15.1767 10.7316 14.9905 10.8053C14.8044 10.879 14.6063 10.9129 14.4078 10.905C14.0128 10.8886 13.6392 10.7107 13.3653 10.4089C13.0915 10.1071 12.9387 9.70466 12.939 9.28612C12.9424 9.07263 12.986 8.86202 13.0672 8.66659C13.1484 8.47113 13.2655 8.29476 13.4118 8.14776C13.558 8.00077 13.7305 7.88609 13.919 7.81041C14.1076 7.73475 14.3085 7.69959 14.51 7.70703C14.7086 7.71211 14.9043 7.75909 15.0856 7.84521C15.2669 7.93132 15.4301 8.05484 15.5657 8.20855C15.7014 8.36224 15.8067 8.54304 15.8756 8.74037C15.9445 8.9377 15.9755 9.14758 15.9668 9.35775ZM14.4769 10.4864C14.6242 10.4851 14.7698 10.453 14.9053 10.3919C15.0407 10.3308 15.1635 10.2419 15.2663 10.1303C15.3692 10.0187 15.4502 9.88667 15.5046 9.74178C15.559 9.59689 15.5858 9.44202 15.5834 9.28612C15.5811 9.13017 15.5498 8.97624 15.4912 8.83312C15.4327 8.68998 15.3481 8.56048 15.2422 8.45198C15.1364 8.34348 15.0114 8.25811 14.8745 8.20076C14.7375 8.14342 14.5911 8.11518 14.4439 8.11772C14.2964 8.11783 14.1506 8.14935 14.0149 8.2104C13.8792 8.27145 13.7566 8.36078 13.6541 8.47304C13.5517 8.58533 13.4717 8.71827 13.4189 8.86398C13.366 9.00968 13.3413 9.16514 13.3464 9.32113C13.3453 9.47725 13.374 9.63201 13.4308 9.77608C13.4876 9.92015 13.5713 10.0506 13.6769 10.1596C13.7825 10.2685 13.9078 10.3538 14.0453 10.4102C14.1827 10.4667 14.3296 10.4931 14.4769 10.488V10.4864Z" fill="black"/>
</g>
<defs>
<clipPath id="clip0_2926_13995">
<rect width="22" height="17" fill="white" transform="translate(1 3)"/>
</clipPath>
</defs>
</svg>
