<svg width="69" height="72" viewBox="0 0 69 72" fill="none" xmlns="http://www.w3.org/2000/svg">
<path d="M37.3741 17.8835V19.6874H39.2289V21.5524H37.3741V23.3563H35.4683V21.5524H33.644V19.6874H35.4683V17.8835H37.3741Z" fill="black"/>
<path d="M31.7177 32.9976C30.9534 32.9569 30.454 32.3861 30.5253 31.6218C30.5865 30.888 31.1979 30.3683 31.9215 30.4192C32.6451 30.4702 33.1649 31.0816 33.1241 31.8256C33.0833 32.5594 32.5024 33.0384 31.7177 32.9976Z" fill="black"/>
<path d="M39.871 32.9976C39.1067 32.9569 38.6073 32.3861 38.6786 31.6218C38.7398 30.888 39.3513 30.3683 40.0748 30.4192C40.7984 30.4702 41.3182 31.0816 41.2774 31.8256C41.2367 32.5594 40.6558 33.0384 39.871 32.9976Z" fill="black"/>
<path d="M30.4336 30.1742C28.9559 24.3448 27.4782 18.6071 25.9902 12.7573C25.0934 12.7369 24.3902 12.7369 23.422 12.7369C23.4016 12.0337 23.4016 11.5445 23.422 11.0044C24.9609 11.0044 25.9902 11.0044 27.2234 11.0044C27.5801 12.3089 27.9266 13.5828 28.2935 14.928C30.4336 14.9586 43.5906 14.9382 45.5779 14.9382C45.1805 17.1905 43.9779 23.3359 43.4581 26.2302C42.9995 26.2302 33.2974 26.2302 31.2082 26.2506C31.3814 27.0353 31.6362 27.8608 31.8298 28.5334C33.1649 28.5538 40.3294 28.5029 41.2262 28.5334C41.2466 29.0634 41.2772 29.5729 41.2466 30.1742C40.8695 30.1946 31.0757 30.1946 30.4336 30.1742ZM28.8336 16.7421C29.5368 19.4937 30.1483 22.1944 30.7496 24.6302C32.0744 24.6302 41.002 24.6302 42.1027 24.6098C42.3371 23.3053 43.2339 18.495 43.5397 16.7523C39.1268 16.7523 32.0948 16.7523 28.8336 16.7523V16.7421Z" fill="black"/>
<path d="M18.274 53.956C18.61 54.0307 18.876 54.194 19.072 54.446C19.2773 54.6887 19.38 54.978 19.38 55.314V55.776C19.38 56.2613 19.2587 56.7093 19.016 57.12C18.7733 57.54 18.4467 57.8713 18.036 58.114C17.6253 58.3567 17.1773 58.478 16.692 58.478H13.878C13.346 58.478 12.8513 58.3427 12.394 58.072C11.9367 57.8013 11.5727 57.4373 11.302 56.98C11.0407 56.5227 10.91 56.028 10.91 55.496V52.29H12.156V55.314C12.156 55.7807 12.3193 56.1773 12.646 56.504C12.982 56.8307 13.3833 56.994 13.85 56.994H16.86C17.224 56.994 17.5227 56.8633 17.756 56.602C17.9987 56.35 18.12 56.0373 18.12 55.664V55.202L14.256 54.278V52.724C14.256 52.2667 14.3587 51.842 14.564 51.45C14.7693 51.058 15.0493 50.736 15.404 50.484C15.768 50.232 16.174 50.078 16.622 50.022L18.414 49.784L18.568 51.058L16.58 51.324C16.2533 51.3707 15.9873 51.52 15.782 51.772C15.5767 52.0147 15.474 52.2993 15.474 52.626V53.284L18.274 53.956ZM22.8579 56C22.3912 56 21.9946 55.8367 21.6679 55.51C21.3412 55.174 21.1779 54.7727 21.1779 54.306V52.668H22.2419V54.054C22.2419 54.1847 22.2839 54.2967 22.3679 54.39C22.4519 54.4833 22.5639 54.53 22.7039 54.53H24.9439C25.2612 54.53 25.5086 54.432 25.6859 54.236C25.8726 54.04 25.9659 53.802 25.9659 53.522C25.9659 53.2887 25.9146 53.088 25.8119 52.92L24.1879 49.994L25.2519 49.336L26.9459 52.332C27.1699 52.724 27.2819 53.1487 27.2819 53.606C27.2819 54.026 27.1792 54.4227 26.9739 54.796C26.7686 55.16 26.4839 55.454 26.1199 55.678C25.7652 55.8927 25.3639 56 24.9159 56H22.8579ZM35.0752 54.53C35.1312 54.53 35.1779 54.5487 35.2152 54.586C35.2525 54.6233 35.2712 54.67 35.2712 54.726V55.804C35.2712 55.9347 35.2059 56 35.0752 56H33.8012V54.53H35.0752ZM32.7512 55.874C32.5552 55.958 32.2099 56 31.7152 56H30.8752C30.5019 56 30.1612 55.9067 29.8532 55.72C29.5545 55.5333 29.3165 55.286 29.1392 54.978C28.9619 54.67 28.8732 54.334 28.8732 53.97C28.8732 53.8113 28.8825 53.69 28.9012 53.606L29.1252 52.36C29.2092 51.884 29.4379 51.492 29.8112 51.184C30.1939 50.8667 30.6279 50.708 31.1132 50.708H31.8972C32.2799 50.708 32.6345 50.806 32.9612 51.002C33.2879 51.1887 33.5445 51.4453 33.7312 51.772C33.9179 52.0893 34.0112 52.4347 34.0112 52.808V55.832C34.0112 56.5507 33.8105 57.1853 33.4092 57.736C33.0172 58.296 32.4899 58.6927 31.8272 58.926L30.0492 59.514L29.6852 58.338L31.5052 57.736C31.9065 57.596 32.2145 57.372 32.4292 57.064C32.6439 56.7653 32.7512 56.4433 32.7512 56.098V55.874ZM32.7652 52.808C32.7652 52.612 32.6952 52.4487 32.5552 52.318C32.4245 52.178 32.2565 52.108 32.0512 52.108H30.9732C30.8052 52.108 30.6652 52.1547 30.5532 52.248C30.4505 52.3413 30.3805 52.4813 30.3432 52.668L30.1332 53.802C30.1239 53.83 30.1192 53.872 30.1192 53.928C30.1192 54.096 30.1752 54.2407 30.2872 54.362C30.4085 54.474 30.5579 54.53 30.7352 54.53H32.7652V52.808ZM35.0742 56C34.9436 56 34.8782 55.9347 34.8782 55.804V54.726C34.8782 54.6793 34.9016 54.6373 34.9482 54.6C34.9856 54.5533 35.0276 54.53 35.0742 54.53H37.4822C37.9676 54.53 38.3829 54.474 38.7282 54.362C39.0736 54.25 39.4189 54.0213 39.7642 53.676L40.6462 52.822C40.6836 52.7847 40.7489 52.724 40.8422 52.64C40.9356 52.556 41.0056 52.5 41.0522 52.472L37.8602 51.52C37.8322 51.5107 37.7856 51.506 37.7202 51.506C37.6082 51.506 37.5056 51.5433 37.4122 51.618C37.3189 51.6833 37.2582 51.7673 37.2302 51.87L36.7962 53.102L35.7182 52.808L36.0682 51.618C36.1802 51.2167 36.3996 50.8993 36.7262 50.666C37.0622 50.4233 37.4309 50.302 37.8322 50.302C38.0376 50.302 38.2102 50.3253 38.3502 50.372L43.8382 52.024L43.4882 53.186L42.8582 53.004C42.6716 52.9573 42.5409 52.934 42.4662 52.934C42.3542 52.934 42.2469 52.962 42.1442 53.018C42.0509 53.074 41.9202 53.1813 41.7522 53.34L40.1422 54.908C39.7782 55.272 39.3442 55.5473 38.8402 55.734C38.3362 55.9113 37.8089 56 37.2582 56H35.0742ZM38.9102 57.666H40.2962L40.3102 59.08H38.9102V57.666ZM51.4541 54.53C51.5101 54.53 51.5568 54.5487 51.5941 54.586C51.6314 54.6233 51.6501 54.67 51.6501 54.726V55.804C51.6501 55.9347 51.5848 56 51.4541 56H50.1801V54.53H51.4541ZM49.1301 55.874C48.9341 55.958 48.5888 56 48.0941 56H47.2541C46.8808 56 46.5401 55.9067 46.2321 55.72C45.9334 55.5333 45.6954 55.286 45.5181 54.978C45.3408 54.67 45.2521 54.334 45.2521 53.97C45.2521 53.8113 45.2614 53.69 45.2801 53.606L45.5041 52.36C45.5881 51.884 45.8168 51.492 46.1901 51.184C46.5728 50.8667 47.0068 50.708 47.4921 50.708H48.2761C48.6588 50.708 49.0134 50.806 49.3401 51.002C49.6668 51.1887 49.9234 51.4453 50.1101 51.772C50.2968 52.0893 50.3901 52.4347 50.3901 52.808V55.832C50.3901 56.5507 50.1894 57.1853 49.7881 57.736C49.3961 58.296 48.8688 58.6927 48.2061 58.926L46.4281 59.514L46.0641 58.338L47.8841 57.736C48.2854 57.596 48.5934 57.372 48.8081 57.064C49.0228 56.7653 49.1301 56.4433 49.1301 56.098V55.874ZM49.1441 52.808C49.1441 52.612 49.0741 52.4487 48.9341 52.318C48.8034 52.178 48.6354 52.108 48.4301 52.108H47.3521C47.1841 52.108 47.0441 52.1547 46.9321 52.248C46.8294 52.3413 46.7594 52.4813 46.7221 52.668L46.5121 53.802C46.5028 53.83 46.4981 53.872 46.4981 53.928C46.4981 54.096 46.5541 54.2407 46.6661 54.362C46.7874 54.474 46.9368 54.53 47.1141 54.53H49.1441V52.808ZM51.4531 56C51.3971 56 51.3505 55.9813 51.3131 55.944C51.2758 55.9067 51.2571 55.86 51.2571 55.804V54.726C51.2571 54.67 51.2758 54.6233 51.3131 54.586C51.3411 54.5487 51.3878 54.53 51.4531 54.53H51.9011C52.1345 54.53 52.3351 54.4647 52.5031 54.334C52.6711 54.2033 52.7785 54.0167 52.8251 53.774L53.1051 52.332C53.1985 51.8653 53.4318 51.478 53.8051 51.17C54.1785 50.862 54.6031 50.708 55.0791 50.708H55.8631C56.2458 50.708 56.6005 50.8013 56.9271 50.988C57.2538 51.1747 57.5105 51.4313 57.6971 51.758C57.8931 52.0847 57.9911 52.4393 57.9911 52.822V54.53C57.9911 54.95 57.8511 55.3 57.5711 55.58C57.2911 55.86 56.9318 56 56.4931 56H54.8411C54.1878 56 53.6978 55.7107 53.3711 55.132C53.0351 55.7107 52.5171 56 51.8171 56H51.4531ZM56.7311 54.53V52.808C56.7311 52.612 56.6611 52.444 56.5211 52.304C56.3905 52.164 56.2225 52.094 56.0171 52.094H54.9951C54.8271 52.094 54.6778 52.15 54.5471 52.262C54.4165 52.374 54.3371 52.514 54.3091 52.682L54.0851 53.802C54.0758 53.83 54.0711 53.8673 54.0711 53.914C54.0711 54.082 54.1318 54.2267 54.2531 54.348C54.3745 54.4693 54.5145 54.53 54.6731 54.53H56.7311Z" fill="black"/>
</svg>
