<svg width="22" height="16" viewBox="0 0 22 16" fill="none" xmlns="http://www.w3.org/2000/svg">
<path d="M11.5701 4.05867C11.5701 3.06867 11.5701 2.10867 11.5701 1.13867C12.0001 1.13867 12.1201 1.13867 12.5501 1.13867V4.05867H11.5701Z" fill="black"/>
<path d="M11.3402 3.76023C11.0802 3.96023 10.8102 4.19023 10.6202 4.36023C10.1302 3.84023 9.24017 2.84023 8.67017 2.18023C8.89017 1.97023 9.28017 1.60023 9.41017 1.49023C9.96017 2.09023 11.1802 3.57023 11.3502 3.76023H11.3402Z" fill="black"/>
<path d="M15.03 1.80883C15.23 2.06883 15.46 2.33883 15.63 2.52883C15.11 3.01883 14.11 3.90883 13.45 4.47883C13.24 4.25883 12.87 3.86883 12.76 3.73883C13.36 3.18883 14.84 1.96883 15.03 1.79883V1.80883Z" fill="black"/>
<path d="M10 11.8887C10 12.8787 10 13.8387 10 14.8087C9.57002 14.8087 9.45002 14.8087 9.02002 14.8087V11.8887H10Z" fill="black"/>
<path d="M10.23 12.1898C10.49 11.9898 10.76 11.7598 10.95 11.5898C11.44 12.1098 12.33 13.1098 12.9 13.7698C12.68 13.9798 12.29 14.3498 12.16 14.4598C11.61 13.8598 10.39 12.3798 10.22 12.1898H10.23Z" fill="black"/>
<path d="M6.53018 14.129C6.33018 13.869 6.10018 13.599 5.93018 13.409C6.45018 12.919 7.45018 12.029 8.11018 11.459C8.32018 11.679 8.69018 12.069 8.80018 12.199C8.20018 12.749 6.72018 13.969 6.53018 14.139V14.129Z" fill="black"/>
<path d="M7.26007 4.21927C7.82007 4.21927 8.33007 4.21927 8.76007 4.21927C13.1001 4.26927 10.1901 9.65927 9.98007 9.98927C9.26007 11.1693 8.83007 11.0393 7.78007 11.0393H5.85007C4.74007 11.0393 4.97007 11.0093 4.25007 10.1593C4.12007 10.4493 4.02007 10.6393 3.94007 10.7893C3.86007 10.9393 3.70007 11.0393 3.53007 11.0393H0.210066C0.210066 10.3193 0.190066 5.31927 0.200066 4.56927C1.10007 4.55927 2.08007 4.55927 3.07007 4.53927C3.42007 3.95927 4.85007 1.68927 5.01007 1.04927C5.14007 0.509275 5.28007 0.259275 5.86007 0.319275C7.07007 0.459275 7.61007 1.30927 7.71007 1.95927C7.86007 2.93927 7.46007 3.82927 7.26007 4.21927ZM6.10007 5.42928C5.81007 5.42928 5.66007 5.13927 5.76007 4.89927C6.01007 4.30927 6.49007 3.31927 6.60007 2.60927C6.69007 2.00927 6.21007 1.67927 6.08007 1.68927C5.42007 2.79927 5.10007 3.42928 4.57007 4.30927C4.30007 4.72927 4.13007 5.14927 4.17007 5.64927C4.18007 5.77927 4.39007 7.96927 4.93007 9.18927C5.25007 9.90927 5.67007 9.87927 6.14007 9.87927C6.76007 9.87927 7.28007 9.87927 7.87007 9.87927C8.43007 9.87927 9.24007 9.97927 9.88007 7.02927C10.0401 5.84927 9.98007 5.41927 8.70007 5.41927C7.94007 5.41927 6.79007 5.41927 6.10007 5.41927V5.42928ZM1.44007 5.70927C1.46007 6.83927 1.46007 9.13927 1.46007 9.88927C1.92007 9.88927 2.31007 9.88927 2.82007 9.88927C2.84007 8.89927 2.80007 6.70927 2.78007 5.70927H1.44007Z" fill="black"/>
<path d="M14.74 11.7793C14.18 11.7793 13.67 11.7793 13.24 11.7793C8.89998 11.7293 11.81 6.33932 12.02 6.00932C12.74 4.82932 13.17 4.95932 14.22 4.95932H16.15C17.26 4.95932 17.03 4.98932 17.75 5.83932C17.88 5.54932 17.98 5.35932 18.06 5.20932C18.14 5.05932 18.3 4.95932 18.47 4.95932H21.79C21.79 5.67932 21.81 10.6793 21.8 11.4293C20.9 11.4393 19.92 11.4393 18.93 11.4593C18.58 12.0393 17.15 14.3093 16.99 14.9493C16.86 15.4893 16.72 15.7393 16.14 15.6793C14.93 15.5393 14.39 14.6893 14.29 14.0393C14.14 13.0593 14.54 12.1693 14.74 11.7793ZM15.9 10.5693C16.19 10.5693 16.34 10.8593 16.24 11.0993C15.99 11.6893 15.51 12.6793 15.4 13.3893C15.31 13.9893 15.79 14.3193 15.92 14.3093C16.58 13.1993 16.9 12.5693 17.43 11.6893C17.7 11.2693 17.87 10.8493 17.83 10.3493C17.82 10.2193 17.61 8.02932 17.07 6.80932C16.75 6.08932 16.33 6.11932 15.86 6.11932C15.24 6.11932 14.72 6.11932 14.13 6.11932C13.57 6.11932 12.76 6.05932 12.12 8.99932C11.96 10.1793 12.02 10.5693 13.3 10.5693C14.06 10.5693 15.21 10.5693 15.9 10.5693ZM20.56 10.2893C20.54 9.15932 20.54 6.85932 20.54 6.10932C20.08 6.10932 19.69 6.10932 19.18 6.10932C19.16 7.09932 19.2 9.28932 19.22 10.2893H20.56Z" fill="black"/>
</svg>
