<svg width="122" height="72" viewBox="0 0 122 72" fill="none" xmlns="http://www.w3.org/2000/svg">
<path d="M62.1068 17.8038C62.1068 16.7499 62.1068 15.7279 62.1068 14.6953C62.5645 14.6953 62.6923 14.6953 63.15 14.6953V17.8038H62.1068Z" fill="black"/>
<path d="M61.862 17.4868C61.5852 17.6997 61.2978 17.9446 61.0955 18.1255C60.5739 17.572 59.6264 16.5074 59.0197 15.8048C59.2539 15.5813 59.669 15.1874 59.8074 15.0703C60.3929 15.709 61.6916 17.2846 61.8726 17.4868H61.862Z" fill="black"/>
<path d="M65.7901 15.4091C66.003 15.6859 66.2479 15.9733 66.4288 16.1756C65.8753 16.6972 64.8107 17.6446 64.1081 18.2514C63.8846 18.0172 63.4907 17.602 63.3736 17.4636C64.0123 16.8781 65.5878 15.5794 65.7901 15.3984V15.4091Z" fill="black"/>
<path d="M60.4355 26.1406C60.4355 27.1945 60.4355 28.2165 60.4355 29.2491C59.9777 29.2491 59.85 29.2491 59.3922 29.2491V26.1406H60.4355Z" fill="black"/>
<path d="M60.6803 26.461C60.9571 26.2481 61.2445 26.0032 61.4468 25.8223C61.9684 26.3758 62.9158 27.4404 63.5226 28.143C63.2884 28.3665 62.8732 28.7604 62.7349 28.8775C62.1494 28.2388 60.8506 26.6633 60.6696 26.461H60.6803Z" fill="black"/>
<path d="M56.7415 28.524C56.5286 28.2472 56.2838 27.9598 56.1028 27.7575C56.6563 27.2359 57.7209 26.2884 58.4235 25.6816C58.647 25.9158 59.0409 26.331 59.158 26.4694C58.5193 27.0549 56.9438 28.3536 56.7415 28.5346V28.524Z" fill="black"/>
<path d="M57.5186 17.9754C58.1148 17.9754 58.6577 17.9754 59.1154 17.9754C63.7355 18.0287 60.6377 23.7665 60.4142 24.1178C59.6477 25.374 59.19 25.2356 58.0722 25.2356H56.0176C54.836 25.2356 55.0808 25.2037 54.3144 24.2988C54.176 24.6075 54.0695 24.8098 53.9844 24.9695C53.8992 25.1292 53.7289 25.2356 53.5479 25.2356H50.0136C50.0136 24.4691 49.9923 19.1464 50.003 18.348C50.9611 18.3374 52.0043 18.3374 53.0582 18.3161C53.4308 17.6987 54.9531 15.2822 55.1234 14.6009C55.2618 14.026 55.4108 13.7599 56.0283 13.8237C57.3164 13.9728 57.8912 14.8776 57.9977 15.5696C58.1574 16.6128 57.7315 17.5603 57.5186 17.9754ZM56.2838 19.2635C55.975 19.2635 55.8154 18.9548 55.9218 18.6993C56.188 18.0713 56.6989 17.0174 56.816 16.2615C56.9118 15.6228 56.4009 15.2715 56.2625 15.2822C55.5599 16.4638 55.2192 17.1345 54.655 18.0713C54.3676 18.5184 54.1866 18.9655 54.2292 19.4977C54.2398 19.6361 54.4634 21.9675 55.0383 23.2662C55.3789 24.0327 55.826 24.0007 56.3263 24.0007C56.9864 24.0007 57.5399 24.0007 58.168 24.0007C58.7641 24.0007 59.6264 24.1072 60.3077 20.9668C60.4781 19.7106 60.4142 19.2529 59.0516 19.2529C58.2425 19.2529 57.0183 19.2529 56.2838 19.2529V19.2635ZM51.323 19.5616C51.3443 20.7645 51.3443 23.213 51.3443 24.0114C51.834 24.0114 52.2492 24.0114 52.7921 24.0114C52.8134 22.9575 52.7708 20.6262 52.7495 19.5616H51.323Z" fill="black"/>
<path d="M65.4814 26.0225C64.8852 26.0225 64.3423 26.0225 63.8846 26.0225C59.2645 25.9693 62.3623 20.2314 62.5858 19.8801C63.3523 18.6239 63.81 18.7623 64.9278 18.7623H66.9824C68.164 18.7623 67.9192 18.7943 68.6856 19.6991C68.824 19.3904 68.9305 19.1881 69.0156 19.0285C69.1008 18.8688 69.2711 18.7623 69.4521 18.7623H72.9864C72.9864 19.5288 73.0077 24.8515 72.997 25.6499C72.0389 25.6605 70.9957 25.6605 69.9418 25.6818C69.5692 26.2993 68.0469 28.7158 67.8766 29.3971C67.7382 29.9719 67.5892 30.2381 66.9717 30.1742C65.6836 30.0252 65.1088 29.1203 65.0023 28.4283C64.8426 27.3851 65.2685 26.4377 65.4814 26.0225ZM66.7162 24.7344C67.025 24.7344 67.1846 25.0431 67.0782 25.2986C66.812 25.9267 66.3011 26.9806 66.184 27.7364C66.0882 28.3751 66.5991 28.7264 66.7375 28.7158C67.4401 27.5341 67.7808 26.8635 68.345 25.9267C68.6324 25.4796 68.8134 25.0325 68.7708 24.5002C68.7602 24.3618 68.5366 22.0305 67.9617 20.7317C67.6211 19.9653 67.174 19.9972 66.6737 19.9972C66.0136 19.9972 65.4601 19.9972 64.832 19.9972C64.2359 19.9972 63.3736 19.9333 62.6923 23.0631C62.522 24.3192 62.5858 24.7344 63.9484 24.7344C64.7575 24.7344 65.9817 24.7344 66.7162 24.7344ZM71.677 24.4363C71.6557 23.2334 71.6557 20.7849 71.6557 19.9865C71.166 19.9865 70.7508 19.9865 70.2079 19.9865C70.1866 21.0404 70.2292 23.3718 70.2505 24.4363H71.677Z" fill="black"/>
<path d="M6.07 56C5.594 56 5.15067 55.8787 4.74 55.636C4.32933 55.3933 4.00267 55.0713 3.76 54.67C3.52667 54.2593 3.41 53.8113 3.41 53.326V50.932H4.67V53.228C4.67 53.5827 4.796 53.8907 5.048 54.152C5.3 54.404 5.60333 54.53 5.958 54.53H11.614C11.8473 54.53 12.0433 54.4507 12.202 54.292C12.37 54.124 12.454 53.9187 12.454 53.676V50.932H13.714V53.662C13.714 54.082 13.6067 54.474 13.392 54.838C13.1867 55.1927 12.9067 55.4773 12.552 55.692C12.1973 55.8973 11.81 56 11.39 56H6.07ZM8.954 49.518H10.34V50.918H8.954V49.518ZM6.826 49.518H8.212V50.918H6.826V49.518ZM15.4002 46.592H16.6602V56H15.4002V46.592ZM20.061 56C19.5944 56 19.1977 55.8367 18.871 55.51C18.5444 55.174 18.381 54.7727 18.381 54.306V52.668H19.445V54.054C19.445 54.1847 19.487 54.2967 19.571 54.39C19.655 54.4833 19.767 54.53 19.907 54.53H22.147C22.4644 54.53 22.7117 54.432 22.889 54.236C23.0757 54.04 23.169 53.802 23.169 53.522C23.169 53.2887 23.1177 53.088 23.015 52.92L21.391 49.994L22.455 49.336L24.149 52.332C24.373 52.724 24.485 53.1487 24.485 53.606C24.485 54.026 24.3824 54.4227 24.177 54.796C23.9717 55.16 23.687 55.454 23.323 55.678C22.9684 55.8927 22.567 56 22.119 56H20.061ZM28.4563 56C28.0363 56 27.649 55.8973 27.2943 55.692C26.9397 55.4867 26.6597 55.2113 26.4543 54.866C26.249 54.5113 26.1463 54.124 26.1463 53.704V46.592H27.4063V53.676C27.4063 53.9187 27.4857 54.124 27.6443 54.292C27.803 54.4507 27.999 54.53 28.2323 54.53H28.9323C28.9883 54.53 29.035 54.5533 29.0723 54.6C29.1097 54.6373 29.1283 54.684 29.1283 54.74V55.804C29.1283 55.9347 29.063 56 28.9323 56H28.4563ZM31.5037 58.24C31.0277 58.1093 30.6637 57.848 30.4117 57.456C30.1597 57.0733 30.0291 56.588 30.0197 56H28.9277C28.8717 56 28.8251 55.9813 28.7877 55.944C28.7504 55.8973 28.7317 55.846 28.7317 55.79V54.726C28.7317 54.5953 28.7971 54.53 28.9277 54.53H30.0057V52.962C30.0057 52.5793 30.0991 52.2293 30.2857 51.912C30.4724 51.5853 30.7244 51.3287 31.0417 51.142C31.3684 50.946 31.7231 50.848 32.1057 50.848H32.9317C33.4171 50.848 33.8417 51.002 34.2057 51.31C34.5791 51.618 34.8124 52.01 34.9057 52.486L35.1157 53.578C35.1437 53.6993 35.1577 53.8207 35.1577 53.942C35.1577 54.2967 35.0644 54.6327 34.8777 54.95C34.7004 55.2673 34.4531 55.524 34.1357 55.72C33.8277 55.9067 33.4917 56 33.1277 56H32.1617C31.9564 56 31.6484 55.9813 31.2377 55.944C31.2471 56.3267 31.3077 56.602 31.4197 56.77C31.5411 56.9473 31.7697 57.0827 32.1057 57.176L34.1217 57.736L35.2977 55.72C35.7831 54.9267 36.5391 54.53 37.5657 54.53H37.7057C37.8364 54.53 37.9017 54.5953 37.9017 54.726V55.79C37.9017 55.93 37.8364 56 37.7057 56H37.3277C37.0664 56 36.8424 56.0467 36.6557 56.14C36.4784 56.2333 36.3151 56.4013 36.1657 56.644L35.5917 57.596L34.6957 59.108L31.5037 58.24ZM33.3937 54.53C33.5897 54.53 33.7344 54.46 33.8277 54.32C33.9304 54.1707 33.9631 53.9933 33.9257 53.788L33.7157 52.794C33.6504 52.402 33.4124 52.206 33.0017 52.206H31.9377C31.7511 52.206 31.5877 52.276 31.4477 52.416C31.3171 52.556 31.2517 52.7193 31.2517 52.906V54.53H33.3937ZM37.7051 56C37.6491 56 37.6024 55.986 37.5651 55.958C37.5277 55.9207 37.5091 55.8693 37.5091 55.804V54.74C37.5091 54.684 37.5324 54.6373 37.5791 54.6C37.6164 54.5533 37.6584 54.53 37.7051 54.53H38.7551C39.2684 54.53 39.5811 54.278 39.6931 53.774L40.1831 51.38L41.4011 51.618L41.0091 53.592C40.9997 53.6293 40.9951 53.69 40.9951 53.774C40.9951 53.998 41.0697 54.18 41.2191 54.32C41.3684 54.46 41.5644 54.53 41.8071 54.53H42.7591C42.8151 54.53 42.8617 54.5533 42.8991 54.6C42.9364 54.6373 42.9551 54.684 42.9551 54.74V55.804C42.9551 55.86 42.9364 55.9067 42.8991 55.944C42.8617 55.9813 42.8151 56 42.7591 56H41.7931C41.4571 56 41.1537 55.9253 40.8831 55.776C40.6217 55.6267 40.4257 55.412 40.2951 55.132C40.1457 55.4027 39.9217 55.6173 39.6231 55.776C39.3244 55.9253 39.0117 56 38.6851 56H37.7051ZM39.7351 48.538H41.1211V49.924H39.7351V48.538ZM42.7637 56C42.7077 56 42.661 55.986 42.6237 55.958C42.5863 55.9207 42.5677 55.8693 42.5677 55.804V54.726C42.5677 54.67 42.591 54.6233 42.6377 54.586C42.675 54.5487 42.717 54.53 42.7637 54.53H43.2957C43.529 54.53 43.725 54.446 43.8837 54.278C44.0517 54.11 44.1357 53.9047 44.1357 53.662V51.352H45.3817V53.662C45.3817 53.9047 45.4657 54.11 45.6337 54.278C45.811 54.446 46.0117 54.53 46.2357 54.53H46.5437C46.805 54.53 47.0103 54.46 47.1597 54.32C47.309 54.18 47.407 53.9933 47.4537 53.76L47.9297 51.38L49.1757 51.604L48.7837 53.592C48.7743 53.6293 48.7697 53.69 48.7697 53.774C48.7697 53.9887 48.8443 54.1707 48.9937 54.32C49.143 54.46 49.3343 54.53 49.5677 54.53H49.9457C50.1883 54.53 50.389 54.4507 50.5477 54.292C50.7157 54.124 50.7997 53.9187 50.7997 53.676V50.946H52.0597V53.648C52.0503 53.9 52.1297 54.11 52.2977 54.278C52.4657 54.446 52.671 54.53 52.9137 54.53H53.4597C53.5157 54.53 53.5623 54.5487 53.5997 54.586C53.637 54.614 53.6557 54.6607 53.6557 54.726V55.804C53.6557 55.86 53.637 55.9067 53.5997 55.944C53.5623 55.9813 53.5157 56 53.4597 56H53.1237C52.4143 56 51.8497 55.706 51.4297 55.118C51.2243 55.4073 50.9723 55.6267 50.6737 55.776C50.375 55.9253 50.053 56 49.7077 56C49.3623 56 49.0403 55.93 48.7417 55.79C48.443 55.6407 48.219 55.4167 48.0697 55.118C47.8923 55.4073 47.6637 55.6267 47.3837 55.776C47.1037 55.9253 46.7957 56 46.4597 56C46.1237 56 45.811 55.93 45.5217 55.79C45.2323 55.6407 44.9803 55.4167 44.7657 55.118C44.3457 55.706 43.7857 56 43.0857 56H42.7637ZM47.4957 46.62H48.8817V48.006H47.4957V46.62ZM46.4317 48.524H47.8177V49.924H46.4317V48.524ZM48.5597 48.524H49.9457V49.924H48.5597V48.524ZM53.4551 56C53.3991 56 53.3524 55.986 53.3151 55.958C53.2777 55.9207 53.2591 55.8693 53.2591 55.804V54.74C53.2591 54.684 53.2824 54.6373 53.3291 54.6C53.3664 54.5533 53.4084 54.53 53.4551 54.53H54.5051C55.0184 54.53 55.3311 54.278 55.4431 53.774L55.9331 51.38L57.1511 51.618L56.7591 53.592C56.7497 53.6293 56.7451 53.69 56.7451 53.774C56.7451 53.998 56.8197 54.18 56.9691 54.32C57.1184 54.46 57.3144 54.53 57.5571 54.53H58.5091C58.5651 54.53 58.6117 54.5533 58.6491 54.6C58.6864 54.6373 58.7051 54.684 58.7051 54.74V55.804C58.7051 55.86 58.6864 55.9067 58.6491 55.944C58.6117 55.9813 58.5651 56 58.5091 56H57.5431C57.2071 56 56.9037 55.9253 56.6331 55.776C56.3717 55.6267 56.1757 55.412 56.0451 55.132C55.8957 55.4027 55.6717 55.6173 55.3731 55.776C55.0744 55.9253 54.7617 56 54.4351 56H53.4551ZM56.3531 57.68H57.7391V59.08H56.3531V57.68ZM54.2251 57.68H55.6111V59.08H54.2251V57.68ZM58.5137 56C58.4577 56 58.411 55.9813 58.3737 55.944C58.3363 55.9067 58.3177 55.86 58.3177 55.804V54.74C58.3177 54.684 58.3363 54.6373 58.3737 54.6C58.411 54.5533 58.4577 54.53 58.5137 54.53H61.5657C61.799 54.53 61.9997 54.4507 62.1677 54.292C62.3357 54.124 62.4197 53.9233 62.4197 53.69V50.946H63.6517V53.676C63.6517 54.096 63.549 54.4833 63.3437 54.838C63.1383 55.1927 62.8583 55.4773 62.5037 55.692C62.149 55.8973 61.7617 56 61.3417 56H58.5137ZM61.5937 57.68H62.9797V59.08H61.5937V57.68ZM60.5157 59.598H61.9017V60.984H60.5157V59.598ZM59.4657 57.68H60.8517V59.08H59.4657V57.68ZM70.8332 55.804C70.5252 55.9347 70.1799 56 69.7972 56H68.9572C68.5839 56 68.2432 55.9067 67.9352 55.72C67.6366 55.5333 67.3986 55.286 67.2212 54.978C67.0439 54.67 66.9552 54.334 66.9552 53.97C66.9552 53.8113 66.9646 53.69 66.9832 53.606L67.2072 52.36C67.2912 51.884 67.5199 51.492 67.8932 51.184C68.2759 50.8667 68.7099 50.708 69.1952 50.708H69.9792C70.3619 50.708 70.7166 50.806 71.0432 51.002C71.3699 51.1887 71.6266 51.4453 71.8132 51.772C71.9999 52.0893 72.0932 52.4347 72.0932 52.808V55.832C72.0932 56.5507 71.8926 57.1853 71.4912 57.736C71.0992 58.296 70.5719 58.6927 69.9092 58.926L68.1312 59.514L67.7672 58.338L69.5872 57.736C69.9792 57.596 70.2826 57.372 70.4972 57.064C70.7212 56.7653 70.8332 56.42 70.8332 56.028V55.804ZM70.8472 52.808C70.8472 52.612 70.7772 52.4487 70.6372 52.318C70.5066 52.178 70.3386 52.108 70.1332 52.108H69.0552C68.8872 52.108 68.7472 52.1547 68.6352 52.248C68.5326 52.3413 68.4626 52.4813 68.4252 52.668L68.2152 53.802C68.2059 53.83 68.2012 53.872 68.2012 53.928C68.2012 54.096 68.2572 54.2407 68.3692 54.362C68.4906 54.474 68.6399 54.53 68.8172 54.53H70.8472V52.808ZM78.2028 56C77.7268 56 77.2835 55.8787 76.8728 55.636C76.4621 55.3933 76.1355 55.0713 75.8928 54.67C75.6595 54.2593 75.5428 53.8113 75.5428 53.326V50.932H76.8028V53.228C76.8028 53.5827 76.9288 53.8907 77.1808 54.152C77.4328 54.404 77.7361 54.53 78.0908 54.53H83.7468C83.9801 54.53 84.1761 54.4507 84.3348 54.292C84.5028 54.124 84.5868 53.9187 84.5868 53.676V50.932H85.8468V53.662C85.8468 54.082 85.7395 54.474 85.5248 54.838C85.3195 55.1927 85.0395 55.4773 84.6848 55.692C84.3301 55.8973 83.9428 56 83.5228 56H78.2028ZM81.0868 49.518H82.4728V50.918H81.0868V49.518ZM78.9588 49.518H80.3448V50.918H78.9588V49.518ZM87.533 46.592H88.793V56H87.533V46.592ZM92.1938 56C91.7272 56 91.3305 55.8367 91.0038 55.51C90.6772 55.174 90.5138 54.7727 90.5138 54.306V52.668H91.5778V54.054C91.5778 54.1847 91.6198 54.2967 91.7038 54.39C91.7878 54.4833 91.8998 54.53 92.0398 54.53H94.2798C94.5972 54.53 94.8445 54.432 95.0218 54.236C95.2085 54.04 95.3018 53.802 95.3018 53.522C95.3018 53.2887 95.2505 53.088 95.1478 52.92L93.5238 49.994L94.5878 49.336L96.2818 52.332C96.5058 52.724 96.6178 53.1487 96.6178 53.606C96.6178 54.026 96.5152 54.4227 96.3098 54.796C96.1045 55.16 95.8198 55.454 95.4558 55.678C95.1012 55.8927 94.6998 56 94.2518 56H92.1938ZM100.589 56C100.169 56 99.7818 55.8973 99.4271 55.692C99.0725 55.4867 98.7925 55.2113 98.5871 54.866C98.3818 54.5113 98.2791 54.124 98.2791 53.704V46.592H99.5391V53.676C99.5391 53.9187 99.6185 54.124 99.7771 54.292C99.9358 54.4507 100.132 54.53 100.365 54.53H101.065C101.121 54.53 101.168 54.5533 101.205 54.6C101.242 54.6373 101.261 54.684 101.261 54.74V55.804C101.261 55.9347 101.196 56 101.065 56H100.589ZM101.061 56C101.005 56 100.958 55.9813 100.921 55.944C100.883 55.8973 100.865 55.8507 100.865 55.804V54.74C100.865 54.684 100.883 54.6373 100.921 54.6C100.958 54.5533 101.005 54.53 101.061 54.53H102.237H102.517C102.041 54.054 101.803 53.5407 101.803 52.99V52.57C101.803 52.1313 101.915 51.7207 102.139 51.338C102.363 50.9553 102.661 50.652 103.035 50.428C103.417 50.204 103.819 50.092 104.239 50.092H104.449C104.878 50.092 105.279 50.204 105.653 50.428C106.026 50.6427 106.32 50.9367 106.535 51.31C106.759 51.6833 106.871 52.0893 106.871 52.528V52.99C106.871 53.522 106.633 54.0353 106.157 54.53H106.423H107.613C107.659 54.53 107.701 54.5533 107.739 54.6C107.785 54.6373 107.809 54.684 107.809 54.74V55.804C107.809 55.8507 107.785 55.8973 107.739 55.944C107.701 55.9813 107.659 56 107.613 56H106.871C106.423 56 106.003 55.9673 105.611 55.902C105.219 55.8273 104.789 55.7013 104.323 55.524C103.856 55.7013 103.427 55.8273 103.035 55.902C102.652 55.9673 102.237 56 101.789 56H101.061ZM104.323 54.362C105.2 53.9513 105.639 53.5267 105.639 53.088V52.682C105.639 52.3553 105.522 52.08 105.289 51.856C105.055 51.6227 104.771 51.506 104.435 51.506H104.211C103.884 51.506 103.604 51.6227 103.371 51.856C103.147 52.08 103.035 52.3553 103.035 52.682V53.088C103.035 53.5453 103.464 53.97 104.323 54.362ZM104.687 47.222H106.073V48.622H104.687V47.222ZM102.559 47.222H103.945V48.622H102.559V47.222ZM107.609 56C107.553 56 107.507 55.986 107.469 55.958C107.432 55.9207 107.413 55.8693 107.413 55.804V54.74C107.413 54.684 107.437 54.6373 107.483 54.6C107.521 54.5533 107.563 54.53 107.609 54.53H108.659C109.173 54.53 109.485 54.278 109.597 53.774L110.087 51.38L111.305 51.618L110.913 53.592C110.904 53.6293 110.899 53.69 110.899 53.774C110.899 53.998 110.974 54.18 111.123 54.32C111.273 54.46 111.469 54.53 111.711 54.53H112.663C112.719 54.53 112.766 54.5533 112.803 54.6C112.841 54.6373 112.859 54.684 112.859 54.74V55.804C112.859 55.86 112.841 55.9067 112.803 55.944C112.766 55.9813 112.719 56 112.663 56H111.697C111.361 56 111.058 55.9253 110.787 55.776C110.526 55.6267 110.33 55.412 110.199 55.132C110.05 55.4027 109.826 55.6173 109.527 55.776C109.229 55.9253 108.916 56 108.589 56H107.609ZM110.577 48.524H111.963V49.924H110.577V48.524ZM108.449 48.524H109.835V49.924H108.449V48.524ZM112.668 56C112.612 56 112.565 55.9813 112.528 55.944C112.491 55.9067 112.472 55.86 112.472 55.804V54.74C112.472 54.684 112.491 54.6373 112.528 54.6C112.565 54.5533 112.612 54.53 112.668 54.53H114.222C114.465 54.53 114.665 54.4507 114.824 54.292C114.983 54.124 115.062 53.9187 115.062 53.676V50.946H116.322V53.662C116.322 54.082 116.215 54.474 116 54.838C115.795 55.1927 115.515 55.4773 115.16 55.692C114.805 55.8973 114.418 56 113.998 56H112.668ZM114.922 48.188H116.308V49.574H114.922V48.188ZM118.008 46.592H119.268V56H118.008V46.592Z" fill="black"/>
</svg>
