<svg width="100" height="72" viewBox="0 0 100 72" fill="none" xmlns="http://www.w3.org/2000/svg">
<g clip-path="url(#clip0_2857_12906)">
<path d="M40.8103 20.466H39.9754C39.2952 20.466 39.012 20.3023 39.0003 19.9099C38.9886 19.5176 39.2922 19.292 40.0133 19.3075C40.6147 19.3075 41.2161 19.3415 41.8904 19.3631C42.6961 18.4116 43.569 17.4199 44.3981 16.385C44.5397 16.19 44.7232 16.0336 44.9334 15.9288C45.1436 15.824 45.3744 15.7739 45.6066 15.7825C46.0971 15.7825 46.5875 15.7671 47.0663 15.7825C47.2267 15.7974 47.3878 15.7651 47.532 15.6894C47.6762 15.6136 47.7979 15.4973 47.8837 15.3531C48.6799 14.2034 49.8571 13.4145 51.1795 13.1442C53.5675 12.6592 55.5964 13.3883 57.0502 15.4736C58.504 17.5589 58.5741 19.7987 57.4531 22.0972C57.3557 22.2651 57.2495 22.427 57.1349 22.5822L56.767 23.1507C57.6954 23.1507 58.0953 23.8612 58.5536 24.4822C59.2426 25.409 59.9285 26.3358 60.6264 27.2626C60.8902 27.589 61.023 28.0115 60.9967 28.4401C60.9703 28.8687 60.7867 29.2695 60.485 29.5569C60.1834 29.8442 59.7876 29.9955 59.382 29.9784C58.9765 29.9613 58.5933 29.7772 58.3142 29.4653C58.2972 29.4479 58.2825 29.4282 58.2705 29.4066C57.8559 28.5138 57.1349 28.3315 56.2912 28.4798C55.4475 28.6281 54.9045 28.2697 54.6009 27.4418C54.5255 27.2803 54.4366 27.1262 54.3353 26.9815C54.1543 26.9815 53.9704 26.9506 53.7864 26.9506C50.9635 26.9506 48.1377 26.9506 45.3206 26.9506C44.8651 26.9506 44.5586 27.0556 44.3951 27.5221C44.3323 27.6544 44.2631 27.7833 44.1879 27.9083C44.1106 28.1026 43.9757 28.265 43.8034 28.3709C43.6312 28.4768 43.431 28.5205 43.2333 28.4953C42.6056 28.4644 41.9721 28.4953 41.3445 28.4798C40.7957 28.4798 40.6293 28.3099 40.6264 27.7229C40.6127 25.5995 40.6127 23.4771 40.6264 21.3557C40.6599 21.0535 40.7215 20.7555 40.8103 20.466ZM47.7961 19.1499C47.7944 20.1213 48.0647 21.0714 48.5728 21.8803C49.081 22.6892 49.8042 23.3206 50.6512 23.6948C51.4982 24.0691 52.431 24.1693 53.3318 23.983C54.2326 23.7966 55.061 23.332 55.7125 22.6477C56.3639 21.9635 56.8092 21.0903 56.9921 20.1384C57.175 19.1866 57.0873 18.1987 56.74 17.2996C56.3928 16.4004 55.8015 15.6303 55.041 15.0865C54.2805 14.5427 53.3848 14.2495 52.4669 14.244C51.8542 14.235 51.2458 14.3554 50.6775 14.5983C50.1093 14.8412 49.5925 15.2016 49.1575 15.6585C48.7226 16.1153 48.3781 16.6595 48.1443 17.259C47.9105 17.8585 47.7922 18.5014 47.7961 19.1499ZM41.6948 27.3367C42.0977 27.3367 42.4013 27.312 42.6991 27.3367C42.8707 27.3741 43.0494 27.3435 43.2012 27.2507C43.3529 27.1579 43.4672 27.0093 43.5223 26.8332C43.8463 26.0114 44.4564 25.7797 45.2739 25.789C48.0968 25.8229 50.9226 25.8322 53.7397 25.789C54.5951 25.7735 55.1527 26.0979 55.5526 26.861C55.8445 27.4387 55.8825 27.4233 56.5539 27.1977C56.0635 26.3142 55.1556 25.653 55.2753 24.4358C54.932 24.6118 54.5802 24.7685 54.2214 24.9054C51.9327 25.6191 49.9301 25.0815 48.2573 23.2835C48.1341 23.1251 47.9767 23.0004 47.7984 22.9197C47.62 22.8391 47.4261 22.8049 47.2327 22.8201C46.6985 22.8541 46.1584 22.8016 45.6242 22.8356C44.9923 22.8897 44.3637 22.6962 43.858 22.2918C43.2742 21.8408 42.6523 21.4577 42.0685 21.0561C41.6627 21.2353 41.6948 21.5689 41.6948 21.8871C41.6948 23.197 41.6948 24.5038 41.6948 25.8137V27.3367ZM42.7545 20.1385C43.4727 20.6359 44.1499 21.1055 44.833 21.572C44.911 21.6241 45.0007 21.6529 45.0929 21.6554C45.7555 21.6554 46.4211 21.6554 47.1714 21.6554C46.5759 20.157 46.5209 18.4795 47.0167 16.941C46.5408 16.941 46.1409 16.9101 45.7614 16.941C45.5555 16.9634 45.363 17.0593 45.2155 17.2129C44.3951 18.1613 43.6011 19.1283 42.7545 20.1385ZM59.4908 28.8382C59.5973 28.6446 59.6788 28.4368 59.733 28.2203C59.733 28.1029 59.6134 27.9639 59.5287 27.8496C58.7502 26.8054 57.9717 25.7643 57.1932 24.7262C57.1356 24.6488 57.0732 24.5755 57.0064 24.5069C56.8342 24.3432 56.6152 24.2505 56.4634 24.4698C56.4254 24.5498 56.4037 24.6373 56.3997 24.7267C56.3957 24.8161 56.4094 24.9054 56.4401 24.9888C56.5237 25.1626 56.6331 25.3212 56.7641 25.4584C57.4677 26.4037 58.1683 27.3522 58.8835 28.2883C59.0719 28.4882 59.2749 28.6721 59.4908 28.8382Z" fill="black"/>
<path d="M50.6068 16.3795C50.8596 16.5724 51.0419 16.7237 51.2362 16.8571C51.5698 17.0878 51.7744 16.9742 51.8002 16.5526C51.8483 15.8101 51.85 15.8029 52.5774 15.8317C52.7923 15.8407 53.0055 15.8894 53.2549 15.9236C53.2686 16.2155 53.2755 16.4642 53.2927 16.7274C53.3099 16.9905 53.4251 17.0626 53.6366 16.9436C53.8056 16.8483 53.9647 16.7348 54.1112 16.6048C54.1386 16.5722 54.1723 16.5461 54.2101 16.5282C54.2479 16.5103 54.2889 16.5011 54.3304 16.5011C54.3719 16.5011 54.4129 16.5103 54.4507 16.5282C54.4885 16.5461 54.5222 16.5722 54.5496 16.6048C54.7543 16.8175 54.9486 17.0391 55.1463 17.259C55.1761 17.2893 55.1996 17.3259 55.215 17.3663C55.2305 17.4067 55.2376 17.4501 55.236 17.4937C55.2344 17.5372 55.224 17.5799 55.2056 17.6189C55.1872 17.658 55.1611 17.6925 55.1291 17.7203C55.0122 17.8591 54.8781 17.987 54.7714 18.1348C54.6322 18.3258 54.6803 18.4502 54.9073 18.4952C55.0964 18.5331 55.289 18.5511 55.4782 18.5745C55.6346 18.5943 55.7498 18.6754 55.7498 18.8448C55.7498 19.2161 55.7412 19.5891 55.7189 19.9622C55.7069 20.173 55.5727 20.2415 55.375 20.2415C55.1831 20.2393 54.9916 20.2598 54.8041 20.3028C54.5926 20.355 54.5617 20.4559 54.6803 20.6415C54.78 20.7965 54.8953 20.9407 55.007 21.0867C55.0366 21.1171 55.0599 21.1535 55.0756 21.1937C55.0912 21.234 55.0987 21.2772 55.0977 21.3206C55.0968 21.364 55.0873 21.4068 55.0699 21.4462C55.0525 21.4856 55.0276 21.5209 54.9967 21.5498C54.9692 21.5804 54.9434 21.6165 54.9159 21.6471C54.3244 22.2761 54.3519 22.2022 53.738 21.8508C53.5661 21.7516 53.3941 21.5895 53.1362 21.7697C53.1362 21.9499 53.1242 22.1661 53.1104 22.377C53.0915 22.6707 53.0485 22.7212 52.7665 22.7626C52.6713 22.7758 52.5754 22.7836 52.4794 22.7861C51.7452 22.7987 51.7348 22.7861 51.7211 22.0093C51.7211 21.912 51.6987 21.8147 51.685 21.6976C51.2293 21.6489 50.9731 22.058 50.5432 22.1914L49.6835 21.2903L50.3403 20.4559C50.2389 20.3748 50.1684 20.3028 50.079 20.2487C50.0343 20.2216 49.9706 20.2307 49.9191 20.2108C49.668 20.1171 49.2829 20.1712 49.2072 19.8702C49.1449 19.4895 49.1403 19.1009 49.1934 18.7187C49.1934 18.6448 49.3654 18.5511 49.4668 18.5241C49.625 18.4844 49.797 18.5078 49.9586 18.4826C50.2578 18.4376 50.3335 18.2663 50.1684 18.005C50.0781 17.8611 49.9757 17.726 49.8623 17.6014C49.8268 17.5723 49.7983 17.535 49.779 17.4924C49.7596 17.4498 49.75 17.403 49.7508 17.3558C49.7516 17.3087 49.7629 17.2623 49.7838 17.2205C49.8046 17.1787 49.8344 17.1425 49.8709 17.1148C50.1134 16.8823 50.3472 16.6462 50.6068 16.3795ZM50.6928 21.6453C51.5749 21.2254 51.5749 21.2254 52.0684 21.4453C52.0942 21.6832 52.1217 21.9355 52.1492 22.195H52.7132C52.7493 21.912 52.7803 21.6543 52.8112 21.4129C53.0296 21.3462 53.2291 21.2146 53.3924 21.2524C53.6583 21.345 53.9133 21.4689 54.1524 21.6219L54.6012 21.2182L54.1765 20.537C54.2332 19.8432 54.7852 19.9513 55.1824 19.7982V18.9566C54.7543 18.8575 54.2608 18.8538 54.2281 18.2231L54.6975 17.5725L54.2333 17.0878C53.7982 17.2301 53.4509 17.7365 52.9866 17.2103L52.8731 16.4516H52.2042C52.1853 16.603 52.1596 16.7436 52.1527 16.8859C52.1539 16.9917 52.1204 17.0948 52.0578 17.1778C51.9952 17.2608 51.9073 17.3187 51.8088 17.3419C51.5319 17.4554 51.3256 17.4626 51.1055 17.25C50.9946 17.161 50.876 17.0832 50.7513 17.0175L50.2853 17.4572L50.741 18.1781C50.6942 18.2645 50.6545 18.3549 50.6223 18.4484C50.6004 18.5768 50.5329 18.6917 50.4333 18.7699C50.3337 18.8482 50.2096 18.884 50.0859 18.8701C49.9574 18.8849 49.8306 18.9133 49.7076 18.9548V19.7729C49.95 19.8216 50.1993 19.809 50.3696 19.9243C50.5398 20.0396 50.6464 20.2847 50.7857 20.4811L50.3094 21.1876C50.4487 21.3534 50.5725 21.503 50.6928 21.6453Z" fill="black"/>
<path d="M53.9668 19.3578C53.9614 19.5681 53.9166 19.7752 53.8351 19.967C53.7537 20.1589 53.6371 20.3318 53.4921 20.4757C53.3471 20.6196 53.1767 20.7316 52.9905 20.8053C52.8044 20.879 52.6063 20.9129 52.4078 20.905C52.0128 20.8886 51.6392 20.7107 51.3653 20.4089C51.0915 20.1071 50.9387 19.7047 50.939 19.2861C50.9424 19.0726 50.986 18.862 51.0672 18.6666C51.1484 18.4711 51.2655 18.2948 51.4118 18.1478C51.558 18.0008 51.7305 17.8861 51.919 17.8104C52.1076 17.7347 52.3085 17.6996 52.51 17.707C52.7086 17.7121 52.9043 17.7591 53.0856 17.8452C53.2669 17.9313 53.4301 18.0548 53.5657 18.2086C53.7014 18.3622 53.8067 18.543 53.8756 18.7404C53.9445 18.9377 53.9755 19.1476 53.9668 19.3578ZM52.4769 20.4864C52.6242 20.4851 52.7698 20.453 52.9053 20.3919C53.0407 20.3308 53.1635 20.2419 53.2663 20.1303C53.3692 20.0187 53.4502 19.8867 53.5046 19.7418C53.559 19.5969 53.5858 19.442 53.5834 19.2861C53.5811 19.1302 53.5498 18.9762 53.4912 18.8331C53.4327 18.69 53.3481 18.5605 53.2422 18.452C53.1364 18.3435 53.0114 18.2581 52.8745 18.2008C52.7375 18.1434 52.5911 18.1152 52.4439 18.1177C52.2964 18.1178 52.1506 18.1494 52.0149 18.2104C51.8792 18.2715 51.7566 18.3608 51.6541 18.473C51.5517 18.5853 51.4717 18.7183 51.4189 18.864C51.366 19.0097 51.3413 19.1651 51.3464 19.3211C51.3453 19.4772 51.374 19.632 51.4308 19.7761C51.4876 19.9202 51.5713 20.0506 51.6769 20.1596C51.7825 20.2685 51.9078 20.3538 52.0453 20.4102C52.1827 20.4667 52.3296 20.4931 52.4769 20.488V20.4864Z" fill="black"/>
</g>
<path d="M19.502 56C19.53 56.0747 19.5533 56.1587 19.572 56.252C19.6 56.3453 19.614 56.4573 19.614 56.588V57.05C19.614 57.4793 19.488 57.862 19.236 58.198C18.984 58.5433 18.6527 58.8093 18.242 58.996C17.8313 59.192 17.3927 59.29 16.926 59.29H14.392C13.8507 59.29 13.3513 59.1547 12.894 58.884C12.4367 58.6227 12.0727 58.2633 11.802 57.806C11.5407 57.3487 11.41 56.8493 11.41 56.308V52.794H12.656V56.126C12.656 56.5927 12.8193 56.9893 13.146 57.316C13.4727 57.6427 13.8693 57.806 14.336 57.806H17.262C17.598 57.806 17.864 57.6987 18.06 57.484C18.2653 57.2693 18.368 56.994 18.368 56.658V56H15.554V54.53H20.86C20.916 54.53 20.9627 54.5487 21 54.586C21.0373 54.614 21.056 54.656 21.056 54.712V55.79C21.056 55.846 21.0327 55.8973 20.986 55.944C20.9487 55.9813 20.9067 56 20.86 56H19.502ZM20.8633 56C20.8073 56 20.7606 55.986 20.7233 55.958C20.6859 55.9207 20.6673 55.8693 20.6673 55.804V54.74C20.6673 54.684 20.6906 54.6373 20.7373 54.6C20.7746 54.5533 20.8166 54.53 20.8633 54.53H21.9133C22.4266 54.53 22.7393 54.278 22.8513 53.774L23.3413 51.38L24.5593 51.618L24.1673 53.592C24.1579 53.6293 24.1533 53.69 24.1533 53.774C24.1533 53.998 24.2279 54.18 24.3773 54.32C24.5266 54.46 24.7226 54.53 24.9653 54.53H25.9173C25.9733 54.53 26.0199 54.5533 26.0573 54.6C26.0946 54.6373 26.1133 54.684 26.1133 54.74V55.804C26.1133 55.86 26.0946 55.9067 26.0573 55.944C26.0199 55.9813 25.9733 56 25.9173 56H24.9513C24.6153 56 24.3119 55.9253 24.0413 55.776C23.7799 55.6267 23.5839 55.412 23.4533 55.132C23.3039 55.4027 23.0799 55.6173 22.7813 55.776C22.4826 55.9253 22.1699 56 21.8433 56H20.8633ZM22.8933 48.538H24.2793V49.924H22.8933V48.538ZM25.9219 56C25.8659 56 25.8192 55.9813 25.7819 55.944C25.7445 55.8973 25.7259 55.846 25.7259 55.79V54.726C25.7259 54.6793 25.7445 54.6373 25.7819 54.6C25.8192 54.5533 25.8659 54.53 25.9219 54.53H29.5339C29.7952 54.53 30.0099 54.4553 30.1779 54.306C30.3552 54.1567 30.4439 53.9373 30.4439 53.648V53.382C30.1919 53.466 29.8932 53.508 29.5479 53.508H28.6379C28.2645 53.508 27.9239 53.4193 27.6159 53.242C27.3079 53.0553 27.0652 52.808 26.8879 52.5C26.7105 52.192 26.6219 51.856 26.6219 51.492C26.6219 51.324 26.6312 51.198 26.6499 51.114L26.8599 49.966C26.9532 49.49 27.1865 49.098 27.5599 48.79C27.9332 48.482 28.3625 48.328 28.8479 48.328H29.5899C29.9725 48.328 30.3225 48.426 30.6399 48.622C30.9572 48.8087 31.2092 49.0653 31.3959 49.392C31.5825 49.7093 31.6759 50.0593 31.6759 50.442V53.662C31.6759 54.0913 31.5685 54.4833 31.3539 54.838C31.1485 55.1927 30.8685 55.4773 30.5139 55.692C30.1592 55.8973 29.7719 56 29.3519 56H25.9219ZM30.4579 52.08V50.428C30.4579 50.232 30.3879 50.064 30.2479 49.924C30.1079 49.784 29.9399 49.714 29.7439 49.714H28.7639C28.5865 49.714 28.4325 49.77 28.3019 49.882C28.1712 49.994 28.0872 50.1387 28.0499 50.316L27.8679 51.338C27.8585 51.366 27.8539 51.4033 27.8539 51.45C27.8539 51.6273 27.9145 51.7767 28.0359 51.898C28.1572 52.0193 28.3019 52.08 28.4699 52.08H30.4579ZM28.5819 45.472H29.9679V46.858H28.5819V45.472ZM37.695 56C37.219 56 36.7757 55.8787 36.365 55.636C35.9543 55.3933 35.6277 55.0713 35.385 54.67C35.1517 54.2593 35.035 53.8113 35.035 53.326V50.932H36.295V53.228C36.295 53.5827 36.421 53.8907 36.673 54.152C36.925 54.404 37.2283 54.53 37.583 54.53H43.239C43.4723 54.53 43.6683 54.4507 43.827 54.292C43.995 54.124 44.079 53.9187 44.079 53.676V50.932H45.339V53.662C45.339 54.082 45.2317 54.474 45.017 54.838C44.8117 55.1927 44.5317 55.4773 44.177 55.692C43.8223 55.8973 43.435 56 43.015 56H37.695ZM40.579 49.518H41.965V50.918H40.579V49.518ZM38.451 49.518H39.837V50.918H38.451V49.518ZM49.3352 56C48.9152 56 48.5279 55.8973 48.1732 55.692C47.8186 55.4867 47.5386 55.2113 47.3332 54.866C47.1279 54.5113 47.0252 54.124 47.0252 53.704V46.592H48.2852V53.676C48.2852 53.9187 48.3646 54.124 48.5232 54.292C48.6819 54.4507 48.8779 54.53 49.1112 54.53H49.8112C49.8672 54.53 49.9139 54.5533 49.9512 54.6C49.9886 54.6373 50.0072 54.684 50.0072 54.74V55.804C50.0072 55.9347 49.9419 56 49.8112 56H49.3352ZM49.8066 56C49.676 56 49.6106 55.9347 49.6106 55.804V54.726C49.6106 54.5953 49.676 54.53 49.8066 54.53H50.3526C50.586 54.53 50.782 54.446 50.9406 54.278C51.0993 54.11 51.1786 53.9093 51.1786 53.676V51.436H52.4386V53.06C52.4386 53.2467 52.4666 53.41 52.5226 53.55C52.588 53.69 52.6626 53.788 52.7466 53.844L54.7766 51.646C55.066 51.3473 55.3973 51.114 55.7706 50.946C56.1533 50.778 56.5546 50.694 56.9746 50.694H57.8426C58.2253 50.694 58.58 50.792 58.9066 50.988C59.2333 51.1747 59.49 51.4313 59.6766 51.758C59.8726 52.0847 59.9706 52.444 59.9706 52.836V53.676C59.9706 53.9093 60.0546 54.11 60.2226 54.278C60.4 54.446 60.6053 54.53 60.8386 54.53H61.3426C61.4733 54.53 61.5386 54.5953 61.5386 54.726V55.79C61.5386 55.93 61.4733 56 61.3426 56H61.0346C60.4 56 59.8446 55.7387 59.3686 55.216C59.1726 55.4587 58.9253 55.65 58.6266 55.79C58.3373 55.93 58.034 56 57.7166 56H54.1746C53.7826 56 53.358 55.9067 52.9006 55.72C52.4433 55.524 52.1073 55.216 51.8926 54.796C51.762 55.1787 51.524 55.4773 51.1786 55.692C50.8426 55.8973 50.488 56 50.1146 56H49.8066ZM53.7826 54.488C53.9133 54.516 54.0393 54.53 54.1606 54.53H57.9406C58.1553 54.53 58.3373 54.4507 58.4866 54.292C58.6453 54.1333 58.7246 53.942 58.7246 53.718V52.92C58.7246 52.6867 58.6453 52.4953 58.4866 52.346C58.328 52.1873 58.132 52.108 57.8986 52.108H56.7786C56.2373 52.108 55.7893 52.304 55.4346 52.696L53.7826 54.488ZM61.3457 56C61.215 56 61.1497 55.9347 61.1497 55.804V54.726C61.1497 54.6793 61.173 54.6373 61.2197 54.6C61.257 54.5533 61.299 54.53 61.3457 54.53H63.7537C64.239 54.53 64.6544 54.474 64.9997 54.362C65.345 54.25 65.6904 54.0213 66.0357 53.676L66.9597 52.766C67.137 52.6073 67.2584 52.5093 67.3237 52.472L64.1317 51.52C64.057 51.5013 64.0057 51.492 63.9777 51.492C63.8657 51.492 63.7677 51.5247 63.6837 51.59C63.5997 51.6553 63.539 51.744 63.5017 51.856L63.0677 53.102L61.9897 52.808L62.3397 51.618C62.4517 51.226 62.6757 50.9087 63.0117 50.666C63.3477 50.4233 63.7164 50.302 64.1177 50.302C64.3137 50.302 64.4817 50.3253 64.6217 50.372L70.1097 52.024L69.7597 53.186L69.0877 52.99C68.9197 52.9433 68.7984 52.92 68.7237 52.92C68.6304 52.92 68.5417 52.9433 68.4577 52.99C68.383 53.0273 68.285 53.0927 68.1637 53.186V53.732C68.1637 53.956 68.2384 54.1473 68.3877 54.306C68.5464 54.4553 68.733 54.53 68.9477 54.53H70.9357C71.0664 54.53 71.1317 54.5953 71.1317 54.726V55.804C71.1317 55.9347 71.0664 56 70.9357 56H69.2837C68.7984 56 68.3737 55.86 68.0097 55.58C67.6457 55.2907 67.403 54.922 67.2817 54.474L67.2397 54.18L66.4137 54.908C66.0684 55.2813 65.6437 55.5567 65.1397 55.734C64.6357 55.9113 64.099 56 63.5297 56H61.3457ZM63.2917 47.222H64.6777V48.608H63.2917V47.222ZM70.9297 56C70.8737 56 70.827 55.986 70.7897 55.958C70.7524 55.9207 70.7337 55.8693 70.7337 55.804V54.726C70.7337 54.67 70.757 54.6233 70.8037 54.586C70.841 54.5487 70.883 54.53 70.9297 54.53H71.4617C71.695 54.53 71.891 54.446 72.0497 54.278C72.2177 54.11 72.3017 53.9047 72.3017 53.662V51.352H73.5477V53.662C73.5477 53.9047 73.6317 54.11 73.7997 54.278C73.977 54.446 74.1777 54.53 74.4017 54.53H74.7097C74.971 54.53 75.1764 54.46 75.3257 54.32C75.475 54.18 75.573 53.9933 75.6197 53.76L76.0957 51.38L77.3417 51.604L76.9497 53.592C76.9404 53.6293 76.9357 53.69 76.9357 53.774C76.9357 53.9887 77.0104 54.1707 77.1597 54.32C77.309 54.46 77.5004 54.53 77.7337 54.53H78.1117C78.3544 54.53 78.555 54.4507 78.7137 54.292C78.8817 54.124 78.9657 53.9187 78.9657 53.676V50.946H80.2257V53.648C80.2164 53.9 80.2957 54.11 80.4637 54.278C80.6317 54.446 80.837 54.53 81.0797 54.53H81.6257C81.6817 54.53 81.7284 54.5487 81.7657 54.586C81.803 54.614 81.8217 54.6607 81.8217 54.726V55.804C81.8217 55.86 81.803 55.9067 81.7657 55.944C81.7284 55.9813 81.6817 56 81.6257 56H81.2897C80.5804 56 80.0157 55.706 79.5957 55.118C79.3904 55.4073 79.1384 55.6267 78.8397 55.776C78.541 55.9253 78.219 56 77.8737 56C77.5284 56 77.2064 55.93 76.9077 55.79C76.609 55.6407 76.385 55.4167 76.2357 55.118C76.0584 55.4073 75.8297 55.6267 75.5497 55.776C75.2697 55.9253 74.9617 56 74.6257 56C74.2897 56 73.977 55.93 73.6877 55.79C73.3984 55.6407 73.1464 55.4167 72.9317 55.118C72.5117 55.706 71.9517 56 71.2517 56H70.9297ZM75.6617 46.62H77.0477V48.006H75.6617V46.62ZM74.5977 48.524H75.9837V49.924H74.5977V48.524ZM76.7257 48.524H78.1117V49.924H76.7257V48.524ZM81.6211 56C81.5651 56 81.5184 55.9813 81.4811 55.944C81.4438 55.9067 81.4251 55.86 81.4251 55.804V54.726C81.4251 54.67 81.4438 54.6233 81.4811 54.586C81.5091 54.5487 81.5558 54.53 81.6211 54.53H82.0691C82.3024 54.53 82.5031 54.4647 82.6711 54.334C82.8391 54.2033 82.9464 54.0167 82.9931 53.774L83.2731 52.332C83.3664 51.8653 83.5998 51.478 83.9731 51.17C84.3464 50.862 84.7711 50.708 85.2471 50.708H86.0311C86.4138 50.708 86.7684 50.8013 87.0951 50.988C87.4218 51.1747 87.6784 51.4313 87.8651 51.758C88.0611 52.0847 88.1591 52.4393 88.1591 52.822V54.53C88.1591 54.95 88.0191 55.3 87.7391 55.58C87.4591 55.86 87.0998 56 86.6611 56H85.0091C84.3558 56 83.8658 55.7107 83.5391 55.132C83.2031 55.7107 82.6851 56 81.9851 56H81.6211ZM86.8991 54.53V52.808C86.8991 52.612 86.8291 52.444 86.6891 52.304C86.5584 52.164 86.3904 52.094 86.1851 52.094H85.1631C84.9951 52.094 84.8458 52.15 84.7151 52.262C84.5844 52.374 84.5051 52.514 84.4771 52.682L84.2531 53.802C84.2438 53.83 84.2391 53.8673 84.2391 53.914C84.2391 54.082 84.2998 54.2267 84.4211 54.348C84.5424 54.4693 84.6824 54.53 84.8411 54.53H86.8991Z" fill="black"/>
<defs>
<clipPath id="clip0_2857_12906">
<rect width="22" height="17" fill="white" transform="translate(39 13)"/>
</clipPath>
</defs>
</svg>
