<svg width="99" height="72" viewBox="0 0 99 72" fill="none" xmlns="http://www.w3.org/2000/svg">
<g clip-path="url(#clip0_4626_13268)">
<path d="M40.3103 20.466H39.4754C38.7952 20.466 38.512 20.3023 38.5003 19.9099C38.4886 19.5176 38.7922 19.292 39.5133 19.3075C40.1147 19.3075 40.7161 19.3415 41.3904 19.3631C42.1961 18.4116 43.069 17.4199 43.8981 16.385C44.0397 16.19 44.2232 16.0336 44.4334 15.9288C44.6436 15.824 44.8744 15.7739 45.1066 15.7825C45.5971 15.7825 46.0875 15.7671 46.5663 15.7825C46.7267 15.7974 46.8878 15.7651 47.032 15.6894C47.1762 15.6136 47.2979 15.4973 47.3837 15.3531C48.1799 14.2034 49.3571 13.4145 50.6795 13.1442C53.0675 12.6592 55.0964 13.3883 56.5502 15.4736C58.004 17.5589 58.0741 19.7987 56.9531 22.0972C56.8557 22.2651 56.7495 22.427 56.6349 22.5822L56.267 23.1507C57.1954 23.1507 57.5953 23.8612 58.0536 24.4822C58.7426 25.409 59.4285 26.3358 60.1264 27.2626C60.3902 27.589 60.523 28.0115 60.4967 28.4401C60.4703 28.8687 60.2867 29.2695 59.985 29.5569C59.6834 29.8442 59.2876 29.9955 58.882 29.9784C58.4765 29.9613 58.0933 29.7772 57.8142 29.4653C57.7972 29.4479 57.7825 29.4282 57.7705 29.4066C57.3559 28.5138 56.6349 28.3315 55.7912 28.4798C54.9475 28.6281 54.4045 28.2697 54.1009 27.4418C54.0255 27.2803 53.9366 27.1262 53.8353 26.9815C53.6543 26.9815 53.4704 26.9506 53.2864 26.9506C50.4635 26.9506 47.6377 26.9506 44.8206 26.9506C44.3651 26.9506 44.0586 27.0556 43.8951 27.5221C43.8323 27.6544 43.7631 27.7833 43.6879 27.9083C43.6106 28.1026 43.4757 28.265 43.3034 28.3709C43.1312 28.4768 42.931 28.5205 42.7333 28.4953C42.1056 28.4644 41.4721 28.4953 40.8445 28.4798C40.2957 28.4798 40.1293 28.3099 40.1264 27.7229C40.1127 25.5995 40.1127 23.4771 40.1264 21.3557C40.1599 21.0535 40.2215 20.7555 40.3103 20.466ZM47.2961 19.1499C47.2944 20.1213 47.5647 21.0714 48.0728 21.8803C48.581 22.6892 49.3042 23.3206 50.1512 23.6948C50.9982 24.0691 51.931 24.1693 52.8318 23.983C53.7326 23.7966 54.561 23.332 55.2125 22.6477C55.8639 21.9635 56.3092 21.0903 56.4921 20.1384C56.675 19.1866 56.5873 18.1987 56.24 17.2996C55.8928 16.4004 55.3015 15.6303 54.541 15.0865C53.7805 14.5427 52.8848 14.2495 51.9669 14.244C51.3542 14.235 50.7458 14.3554 50.1775 14.5983C49.6093 14.8412 49.0925 15.2016 48.6575 15.6585C48.2226 16.1153 47.8781 16.6595 47.6443 17.259C47.4105 17.8585 47.2922 18.5014 47.2961 19.1499ZM41.1948 27.3367C41.5977 27.3367 41.9013 27.312 42.1991 27.3367C42.3707 27.3741 42.5494 27.3435 42.7012 27.2507C42.8529 27.1579 42.9672 27.0093 43.0223 26.8332C43.3463 26.0114 43.9564 25.7797 44.7739 25.789C47.5968 25.8229 50.4226 25.8322 53.2397 25.789C54.0951 25.7735 54.6527 26.0979 55.0526 26.861C55.3445 27.4387 55.3825 27.4233 56.0539 27.1977C55.5635 26.3142 54.6556 25.653 54.7753 24.4358C54.432 24.6118 54.0802 24.7685 53.7214 24.9054C51.4327 25.6191 49.4301 25.0815 47.7573 23.2835C47.6341 23.1251 47.4767 23.0004 47.2984 22.9197C47.12 22.8391 46.9261 22.8049 46.7327 22.8201C46.1985 22.8541 45.6584 22.8016 45.1242 22.8356C44.4923 22.8897 43.8637 22.6962 43.358 22.2918C42.7742 21.8408 42.1523 21.4577 41.5685 21.0561C41.1627 21.2353 41.1948 21.5689 41.1948 21.8871C41.1948 23.197 41.1948 24.5038 41.1948 25.8137V27.3367ZM42.2545 20.1385C42.9727 20.6359 43.6499 21.1055 44.333 21.572C44.411 21.6241 44.5007 21.6529 44.5929 21.6554C45.2555 21.6554 45.9211 21.6554 46.6714 21.6554C46.0759 20.157 46.0209 18.4795 46.5167 16.941C46.0408 16.941 45.6409 16.9101 45.2614 16.941C45.0555 16.9634 44.863 17.0593 44.7155 17.2129C43.8951 18.1613 43.1011 19.1283 42.2545 20.1385ZM58.9908 28.8382C59.0973 28.6446 59.1788 28.4368 59.233 28.2203C59.233 28.1029 59.1134 27.9639 59.0287 27.8496C58.2502 26.8054 57.4717 25.7643 56.6932 24.7262C56.6356 24.6488 56.5732 24.5755 56.5064 24.5069C56.3342 24.3432 56.1152 24.2505 55.9634 24.4698C55.9254 24.5498 55.9037 24.6373 55.8997 24.7267C55.8957 24.8161 55.9094 24.9054 55.9401 24.9888C56.0237 25.1626 56.1331 25.3212 56.2641 25.4584C56.9677 26.4037 57.6683 27.3522 58.3835 28.2883C58.5719 28.4882 58.7749 28.6721 58.9908 28.8382Z" fill="black"/>
<path d="M50.1068 16.3796C50.3596 16.5724 50.5419 16.7238 50.7362 16.8572C51.0698 17.0878 51.2744 16.9743 51.3002 16.5526C51.3483 15.8101 51.35 15.8029 52.0774 15.8317C52.2923 15.8408 52.5055 15.8894 52.7549 15.9237C52.7686 16.2156 52.7755 16.4643 52.7927 16.7274C52.8099 16.9905 52.9251 17.0626 53.1366 16.9437C53.3056 16.8484 53.4647 16.7348 53.6112 16.6049C53.6386 16.5723 53.6723 16.5462 53.7101 16.5283C53.7479 16.5104 53.7889 16.5011 53.8304 16.5011C53.8719 16.5011 53.9129 16.5104 53.9507 16.5283C53.9885 16.5462 54.0222 16.5723 54.0496 16.6049C54.2543 16.8175 54.4486 17.0392 54.6463 17.259C54.6761 17.2894 54.6996 17.3259 54.715 17.3664C54.7305 17.4068 54.7376 17.4502 54.736 17.4937C54.7344 17.5373 54.724 17.58 54.7056 17.619C54.6872 17.658 54.6611 17.6926 54.6291 17.7204C54.5122 17.8591 54.3781 17.9871 54.2714 18.1349C54.1322 18.3259 54.1803 18.4502 54.4073 18.4953C54.5964 18.5331 54.789 18.5511 54.9782 18.5746C55.1346 18.5944 55.2498 18.6755 55.2498 18.8449C55.2498 19.2161 55.2412 19.5892 55.2189 19.9622C55.2069 20.1731 55.0727 20.2415 54.875 20.2415C54.6831 20.2393 54.4916 20.2599 54.3041 20.3028C54.0926 20.3551 54.0617 20.456 54.1803 20.6416C54.28 20.7966 54.3953 20.9408 54.507 21.0867C54.5366 21.1171 54.5599 21.1536 54.5756 21.1938C54.5912 21.234 54.5987 21.2772 54.5977 21.3206C54.5968 21.3641 54.5873 21.4068 54.5699 21.4462C54.5525 21.4857 54.5276 21.5209 54.4967 21.5499C54.4692 21.5805 54.4434 21.6165 54.4159 21.6472C53.8244 22.2761 53.8519 22.2022 53.238 21.8508C53.0661 21.7517 52.8941 21.5895 52.6362 21.7697C52.6362 21.9499 52.6242 22.1662 52.6104 22.3771C52.5915 22.6708 52.5485 22.7212 52.2665 22.7627C52.1713 22.7759 52.0754 22.7837 51.9794 22.7861C51.2452 22.7987 51.2348 22.7861 51.2211 22.0094C51.2211 21.9121 51.1987 21.8148 51.185 21.6976C50.7293 21.649 50.4731 22.0581 50.0432 22.1914L49.1835 21.2904L49.8403 20.456C49.7389 20.3749 49.6684 20.3028 49.579 20.2487C49.5343 20.2217 49.4706 20.2307 49.4191 20.2109C49.168 20.1172 48.7829 20.1712 48.7072 19.8703C48.6449 19.4896 48.6403 19.101 48.6934 18.7187C48.6934 18.6449 48.8654 18.5511 48.9668 18.5241C49.125 18.4845 49.297 18.5079 49.4586 18.4827C49.7578 18.4376 49.8335 18.2664 49.6684 18.0051C49.5781 17.8612 49.4757 17.7261 49.3623 17.6014C49.3268 17.5724 49.2983 17.535 49.279 17.4924C49.2596 17.4498 49.25 17.4031 49.2508 17.3559C49.2516 17.3087 49.2629 17.2624 49.2838 17.2206C49.3046 17.1787 49.3344 17.1425 49.3709 17.1149C49.6134 16.8824 49.8472 16.6463 50.1068 16.3796ZM50.1928 21.6454C51.0749 21.2255 51.0749 21.2255 51.5684 21.4453C51.5942 21.6832 51.6217 21.9355 51.6492 22.195H52.2132C52.2493 21.9121 52.2803 21.6544 52.3112 21.4129C52.5296 21.3462 52.7291 21.2147 52.8924 21.2525C53.1583 21.3451 53.4133 21.469 53.6524 21.6219L54.1012 21.2183L53.6765 20.5371C53.7332 19.8433 54.2852 19.9514 54.6824 19.7982V18.9566C54.2543 18.8575 53.7608 18.8539 53.7281 18.2232L54.1975 17.5726L53.7333 17.0878C53.2982 17.2302 52.9509 17.7366 52.4866 17.2104L52.3731 16.4517H51.7042C51.6853 16.6031 51.6596 16.7436 51.6527 16.886C51.6539 16.9918 51.6204 17.0948 51.5578 17.1778C51.4952 17.2609 51.4073 17.3188 51.3088 17.3419C51.0319 17.4555 50.8256 17.4627 50.6055 17.25C50.4946 17.1611 50.376 17.0833 50.2513 17.0176L49.7853 17.4573L50.241 18.1781C50.1942 18.2645 50.1545 18.355 50.1223 18.4484C50.1004 18.5768 50.0329 18.6917 49.9333 18.77C49.8337 18.8482 49.7096 18.884 49.5859 18.8701C49.4574 18.8849 49.3306 18.9133 49.2076 18.9548V19.773C49.45 19.8216 49.6993 19.809 49.8696 19.9244C50.0398 20.0397 50.1464 20.2848 50.2857 20.4812L49.8094 21.1877C49.9487 21.3534 50.0725 21.503 50.1928 21.6454Z" fill="black"/>
<path d="M53.4668 19.3577C53.4614 19.568 53.4166 19.7751 53.3351 19.967C53.2537 20.1589 53.1371 20.3317 52.9921 20.4756C52.8471 20.6195 52.6767 20.7316 52.4905 20.8052C52.3044 20.8789 52.1063 20.9128 51.9078 20.905C51.5128 20.8885 51.1392 20.7107 50.8653 20.4089C50.5915 20.107 50.4387 19.7046 50.439 19.2861C50.4424 19.0726 50.486 18.862 50.5672 18.6665C50.6484 18.4711 50.7655 18.2947 50.9118 18.1477C51.058 18.0007 51.2305 17.886 51.419 17.8103C51.6076 17.7347 51.8085 17.6995 52.01 17.707C52.2086 17.712 52.4043 17.759 52.5856 17.8451C52.7669 17.9313 52.9301 18.0548 53.0657 18.2085C53.2014 18.3622 53.3067 18.543 53.3756 18.7403C53.4445 18.9376 53.4755 19.1475 53.4668 19.3577ZM51.9769 20.4863C52.1242 20.4851 52.2698 20.453 52.4053 20.3919C52.5407 20.3307 52.6635 20.2418 52.7663 20.1302C52.8692 20.0186 52.9502 19.8866 53.0046 19.7417C53.059 19.5968 53.0858 19.442 53.0834 19.2861C53.0811 19.1301 53.0498 18.9762 52.9912 18.8331C52.9327 18.6899 52.8481 18.5604 52.7422 18.4519C52.6364 18.3434 52.5114 18.2581 52.3745 18.2007C52.2375 18.1434 52.0911 18.1151 51.9439 18.1177C51.7964 18.1178 51.6506 18.1493 51.5149 18.2103C51.3792 18.2714 51.2566 18.3607 51.1541 18.473C51.0517 18.5853 50.9717 18.7182 50.9189 18.8639C50.866 19.0096 50.8413 19.1651 50.8464 19.3211C50.8453 19.4772 50.874 19.632 50.9308 19.776C50.9876 19.9201 51.0713 20.0505 51.1769 20.1595C51.2825 20.2685 51.4078 20.3537 51.5453 20.4102C51.6827 20.4666 51.8296 20.493 51.9769 20.4879V20.4863Z" fill="black"/>
</g>
<path d="M19.002 56C19.03 56.0747 19.0533 56.1587 19.072 56.252C19.1 56.3453 19.114 56.4573 19.114 56.588V57.05C19.114 57.4793 18.988 57.862 18.736 58.198C18.484 58.5433 18.1527 58.8093 17.742 58.996C17.3313 59.192 16.8927 59.29 16.426 59.29H13.892C13.3507 59.29 12.8513 59.1547 12.394 58.884C11.9367 58.6227 11.5727 58.2633 11.302 57.806C11.0407 57.3487 10.91 56.8493 10.91 56.308V52.794H12.156V56.126C12.156 56.5927 12.3193 56.9893 12.646 57.316C12.9727 57.6427 13.3693 57.806 13.836 57.806H16.762C17.098 57.806 17.364 57.6987 17.56 57.484C17.7653 57.2693 17.868 56.994 17.868 56.658V56H15.054V54.53H20.36C20.416 54.53 20.4627 54.5487 20.5 54.586C20.5373 54.614 20.556 54.656 20.556 54.712V55.79C20.556 55.846 20.5327 55.8973 20.486 55.944C20.4487 55.9813 20.4067 56 20.36 56H19.002ZM20.3633 56C20.3073 56 20.2606 55.986 20.2233 55.958C20.1859 55.9207 20.1673 55.8693 20.1673 55.804V54.74C20.1673 54.684 20.1906 54.6373 20.2373 54.6C20.2746 54.5533 20.3166 54.53 20.3633 54.53H21.4133C21.9266 54.53 22.2393 54.278 22.3513 53.774L22.8413 51.38L24.0593 51.618L23.6673 53.592C23.6579 53.6293 23.6533 53.69 23.6533 53.774C23.6533 53.998 23.7279 54.18 23.8773 54.32C24.0266 54.46 24.2226 54.53 24.4653 54.53H25.4173C25.4733 54.53 25.5199 54.5533 25.5573 54.6C25.5946 54.6373 25.6133 54.684 25.6133 54.74V55.804C25.6133 55.86 25.5946 55.9067 25.5573 55.944C25.5199 55.9813 25.4733 56 25.4173 56H24.4513C24.1153 56 23.8119 55.9253 23.5413 55.776C23.2799 55.6267 23.0839 55.412 22.9533 55.132C22.8039 55.4027 22.5799 55.6173 22.2813 55.776C21.9826 55.9253 21.6699 56 21.3433 56H20.3633ZM22.3933 48.538H23.7793V49.924H22.3933V48.538ZM25.4219 56C25.3659 56 25.3192 55.9813 25.2819 55.944C25.2445 55.8973 25.2259 55.846 25.2259 55.79V54.726C25.2259 54.6793 25.2445 54.6373 25.2819 54.6C25.3192 54.5533 25.3659 54.53 25.4219 54.53H29.0339C29.2952 54.53 29.5099 54.4553 29.6779 54.306C29.8552 54.1567 29.9439 53.9373 29.9439 53.648V53.382C29.6919 53.466 29.3932 53.508 29.0479 53.508H28.1379C27.7645 53.508 27.4239 53.4193 27.1159 53.242C26.8079 53.0553 26.5652 52.808 26.3879 52.5C26.2105 52.192 26.1219 51.856 26.1219 51.492C26.1219 51.324 26.1312 51.198 26.1499 51.114L26.3599 49.966C26.4532 49.49 26.6865 49.098 27.0599 48.79C27.4332 48.482 27.8625 48.328 28.3479 48.328H29.0899C29.4725 48.328 29.8225 48.426 30.1399 48.622C30.4572 48.8087 30.7092 49.0653 30.8959 49.392C31.0825 49.7093 31.1759 50.0593 31.1759 50.442V53.662C31.1759 54.0913 31.0685 54.4833 30.8539 54.838C30.6485 55.1927 30.3685 55.4773 30.0139 55.692C29.6592 55.8973 29.2719 56 28.8519 56H25.4219ZM29.9579 52.08V50.428C29.9579 50.232 29.8879 50.064 29.7479 49.924C29.6079 49.784 29.4399 49.714 29.2439 49.714H28.2639C28.0865 49.714 27.9325 49.77 27.8019 49.882C27.6712 49.994 27.5872 50.1387 27.5499 50.316L27.3679 51.338C27.3585 51.366 27.3539 51.4033 27.3539 51.45C27.3539 51.6273 27.4145 51.7767 27.5359 51.898C27.6572 52.0193 27.8019 52.08 27.9699 52.08H29.9579ZM28.0819 45.472H29.4679V46.858H28.0819V45.472ZM37.195 56C36.719 56 36.2757 55.8787 35.865 55.636C35.4543 55.3933 35.1277 55.0713 34.885 54.67C34.6517 54.2593 34.535 53.8113 34.535 53.326V50.932H35.795V53.228C35.795 53.5827 35.921 53.8907 36.173 54.152C36.425 54.404 36.7283 54.53 37.083 54.53H42.739C42.9723 54.53 43.1683 54.4507 43.327 54.292C43.495 54.124 43.579 53.9187 43.579 53.676V50.932H44.839V53.662C44.839 54.082 44.7317 54.474 44.517 54.838C44.3117 55.1927 44.0317 55.4773 43.677 55.692C43.3223 55.8973 42.935 56 42.515 56H37.195ZM40.079 49.518H41.465V50.918H40.079V49.518ZM37.951 49.518H39.337V50.918H37.951V49.518ZM48.8352 56C48.4152 56 48.0279 55.8973 47.6732 55.692C47.3186 55.4867 47.0386 55.2113 46.8332 54.866C46.6279 54.5113 46.5252 54.124 46.5252 53.704V46.592H47.7852V53.676C47.7852 53.9187 47.8646 54.124 48.0232 54.292C48.1819 54.4507 48.3779 54.53 48.6112 54.53H49.3112C49.3672 54.53 49.4139 54.5533 49.4512 54.6C49.4886 54.6373 49.5072 54.684 49.5072 54.74V55.804C49.5072 55.9347 49.4419 56 49.3112 56H48.8352ZM49.3066 56C49.176 56 49.1106 55.9347 49.1106 55.804V54.726C49.1106 54.5953 49.176 54.53 49.3066 54.53H49.8526C50.086 54.53 50.282 54.446 50.4406 54.278C50.5993 54.11 50.6786 53.9093 50.6786 53.676V51.436H51.9386V53.06C51.9386 53.2467 51.9666 53.41 52.0226 53.55C52.088 53.69 52.1626 53.788 52.2466 53.844L54.2766 51.646C54.566 51.3473 54.8973 51.114 55.2706 50.946C55.6533 50.778 56.0546 50.694 56.4746 50.694H57.3426C57.7253 50.694 58.08 50.792 58.4066 50.988C58.7333 51.1747 58.99 51.4313 59.1766 51.758C59.3726 52.0847 59.4706 52.444 59.4706 52.836V53.676C59.4706 53.9093 59.5546 54.11 59.7226 54.278C59.9 54.446 60.1053 54.53 60.3386 54.53H60.8426C60.9733 54.53 61.0386 54.5953 61.0386 54.726V55.79C61.0386 55.93 60.9733 56 60.8426 56H60.5346C59.9 56 59.3446 55.7387 58.8686 55.216C58.6726 55.4587 58.4253 55.65 58.1266 55.79C57.8373 55.93 57.534 56 57.2166 56H53.6746C53.2826 56 52.858 55.9067 52.4006 55.72C51.9433 55.524 51.6073 55.216 51.3926 54.796C51.262 55.1787 51.024 55.4773 50.6786 55.692C50.3426 55.8973 49.988 56 49.6146 56H49.3066ZM53.2826 54.488C53.4133 54.516 53.5393 54.53 53.6606 54.53H57.4406C57.6553 54.53 57.8373 54.4507 57.9866 54.292C58.1453 54.1333 58.2246 53.942 58.2246 53.718V52.92C58.2246 52.6867 58.1453 52.4953 57.9866 52.346C57.828 52.1873 57.632 52.108 57.3986 52.108H56.2786C55.7373 52.108 55.2893 52.304 54.9346 52.696L53.2826 54.488ZM60.8457 56C60.715 56 60.6497 55.9347 60.6497 55.804V54.726C60.6497 54.6793 60.673 54.6373 60.7197 54.6C60.757 54.5533 60.799 54.53 60.8457 54.53H63.2537C63.739 54.53 64.1544 54.474 64.4997 54.362C64.845 54.25 65.1904 54.0213 65.5357 53.676L66.4597 52.766C66.637 52.6073 66.7584 52.5093 66.8237 52.472L63.6317 51.52C63.557 51.5013 63.5057 51.492 63.4777 51.492C63.3657 51.492 63.2677 51.5247 63.1837 51.59C63.0997 51.6553 63.039 51.744 63.0017 51.856L62.5677 53.102L61.4897 52.808L61.8397 51.618C61.9517 51.226 62.1757 50.9087 62.5117 50.666C62.8477 50.4233 63.2164 50.302 63.6177 50.302C63.8137 50.302 63.9817 50.3253 64.1217 50.372L69.6097 52.024L69.2597 53.186L68.5877 52.99C68.4197 52.9433 68.2984 52.92 68.2237 52.92C68.1304 52.92 68.0417 52.9433 67.9577 52.99C67.883 53.0273 67.785 53.0927 67.6637 53.186V53.732C67.6637 53.956 67.7384 54.1473 67.8877 54.306C68.0464 54.4553 68.233 54.53 68.4477 54.53H70.4357C70.5664 54.53 70.6317 54.5953 70.6317 54.726V55.804C70.6317 55.9347 70.5664 56 70.4357 56H68.7837C68.2984 56 67.8737 55.86 67.5097 55.58C67.1457 55.2907 66.903 54.922 66.7817 54.474L66.7397 54.18L65.9137 54.908C65.5684 55.2813 65.1437 55.5567 64.6397 55.734C64.1357 55.9113 63.599 56 63.0297 56H60.8457ZM62.7917 47.222H64.1777V48.608H62.7917V47.222ZM70.4297 56C70.3737 56 70.327 55.986 70.2897 55.958C70.2524 55.9207 70.2337 55.8693 70.2337 55.804V54.726C70.2337 54.67 70.257 54.6233 70.3037 54.586C70.341 54.5487 70.383 54.53 70.4297 54.53H70.9617C71.195 54.53 71.391 54.446 71.5497 54.278C71.7177 54.11 71.8017 53.9047 71.8017 53.662V51.352H73.0477V53.662C73.0477 53.9047 73.1317 54.11 73.2997 54.278C73.477 54.446 73.6777 54.53 73.9017 54.53H74.2097C74.471 54.53 74.6764 54.46 74.8257 54.32C74.975 54.18 75.073 53.9933 75.1197 53.76L75.5957 51.38L76.8417 51.604L76.4497 53.592C76.4404 53.6293 76.4357 53.69 76.4357 53.774C76.4357 53.9887 76.5104 54.1707 76.6597 54.32C76.809 54.46 77.0004 54.53 77.2337 54.53H77.6117C77.8544 54.53 78.055 54.4507 78.2137 54.292C78.3817 54.124 78.4657 53.9187 78.4657 53.676V50.946H79.7257V53.648C79.7164 53.9 79.7957 54.11 79.9637 54.278C80.1317 54.446 80.337 54.53 80.5797 54.53H81.1257C81.1817 54.53 81.2284 54.5487 81.2657 54.586C81.303 54.614 81.3217 54.6607 81.3217 54.726V55.804C81.3217 55.86 81.303 55.9067 81.2657 55.944C81.2284 55.9813 81.1817 56 81.1257 56H80.7897C80.0804 56 79.5157 55.706 79.0957 55.118C78.8904 55.4073 78.6384 55.6267 78.3397 55.776C78.041 55.9253 77.719 56 77.3737 56C77.0284 56 76.7064 55.93 76.4077 55.79C76.109 55.6407 75.885 55.4167 75.7357 55.118C75.5584 55.4073 75.3297 55.6267 75.0497 55.776C74.7697 55.9253 74.4617 56 74.1257 56C73.7897 56 73.477 55.93 73.1877 55.79C72.8984 55.6407 72.6464 55.4167 72.4317 55.118C72.0117 55.706 71.4517 56 70.7517 56H70.4297ZM75.1617 46.62H76.5477V48.006H75.1617V46.62ZM74.0977 48.524H75.4837V49.924H74.0977V48.524ZM76.2257 48.524H77.6117V49.924H76.2257V48.524ZM81.1211 56C81.0651 56 81.0184 55.9813 80.9811 55.944C80.9438 55.9067 80.9251 55.86 80.9251 55.804V54.726C80.9251 54.67 80.9438 54.6233 80.9811 54.586C81.0091 54.5487 81.0558 54.53 81.1211 54.53H81.5691C81.8024 54.53 82.0031 54.4647 82.1711 54.334C82.3391 54.2033 82.4464 54.0167 82.4931 53.774L82.7731 52.332C82.8664 51.8653 83.0998 51.478 83.4731 51.17C83.8464 50.862 84.2711 50.708 84.7471 50.708H85.5311C85.9138 50.708 86.2684 50.8013 86.5951 50.988C86.9218 51.1747 87.1784 51.4313 87.3651 51.758C87.5611 52.0847 87.6591 52.4393 87.6591 52.822V54.53C87.6591 54.95 87.5191 55.3 87.2391 55.58C86.9591 55.86 86.5998 56 86.1611 56H84.5091C83.8558 56 83.3658 55.7107 83.0391 55.132C82.7031 55.7107 82.1851 56 81.4851 56H81.1211ZM86.3991 54.53V52.808C86.3991 52.612 86.3291 52.444 86.1891 52.304C86.0584 52.164 85.8904 52.094 85.6851 52.094H84.6631C84.4951 52.094 84.3458 52.15 84.2151 52.262C84.0844 52.374 84.0051 52.514 83.9771 52.682L83.7531 53.802C83.7438 53.83 83.7391 53.8673 83.7391 53.914C83.7391 54.082 83.7998 54.2267 83.9211 54.348C84.0424 54.4693 84.1824 54.53 84.3411 54.53H86.3991Z" fill="black"/>
<defs>
<clipPath id="clip0_4626_13268">
<rect width="22" height="17" fill="white" transform="translate(38.5 13)"/>
</clipPath>
</defs>
</svg>
