<svg width="40" height="40" viewBox="0 0 40 40" fill="none" xmlns="http://www.w3.org/2000/svg">
<path d="M21.5833 28.8671C20.45 30.3004 18.7167 32.4004 17.0167 34.4004C16.0833 35.5671 14.05 35.4171 13.85 33.5504C13.7333 32.8504 13.05 28.2171 12.8167 26.4671C12.2167 26.0338 3.26667 20.0004 2.98333 19.7338C2.16667 19.0004 2.25 17.7338 3.16667 17.1004C3.55 16.8338 24.85 8.91711 35.05 5.13377C35.7 4.88377 36.3833 4.46711 37.05 4.96711C37.8333 5.55044 37.5333 6.38377 37.3667 7.13377C35.3667 15.8338 33.3333 24.5171 31.3167 33.2171C31.3 33.3004 31.2833 33.3671 31.2667 33.4504C30.7833 35.8671 28.8667 35.5004 27.7167 34.5004C25.9333 32.8504 22.9167 30.0671 21.5667 28.8671H21.5833ZM19.3167 26.7504C17.5833 25.1671 17.8 24.9171 19.6833 23.0171C21.6667 21.0171 23.6167 18.9838 25.5833 16.9671C25.9167 16.6338 26.25 16.3004 26.6333 16.0338C27.1833 15.6504 27.9 15.7338 28.35 16.1838C28.8 16.6338 28.8333 17.2838 28.45 17.8171C28.1833 18.2004 27.9333 18.4671 27.6 18.8004C25.9667 20.5004 22.4 24.5004 21.8167 25.0838C25.4167 28.5671 27.65 30.5671 28.75 31.5504C29.8 28.2338 33.8667 10.5671 34 8.55044C33.6 8.63377 16.1333 15.1671 7.85 18.2671C7.51667 18.3838 6.58333 18.9504 8.53333 20.1504C10.2167 21.3004 11.7 22.3338 13.6167 23.5171C15.6167 24.7504 15.6667 25.4171 15.7833 26.9171C15.8333 27.5338 16.1333 29.8671 16.3 30.6671C17.4833 29.3338 18.3833 27.9671 19.3 26.7838L19.3167 26.7504Z" fill="black"/>
</svg>
