<svg width="24" height="24" viewBox="0 0 24 24" fill="none" xmlns="http://www.w3.org/2000/svg">
<path d="M18.0298 19.049C18.0298 20.289 17.2898 21.029 16.1198 21.009C13.3798 20.949 10.6398 21.009 7.90985 20.989C6.58985 20.989 6.01985 20.389 6.01985 19.029C6.01985 18.879 6.01985 6.45898 6.01985 6.45898H4.38985C4.38985 6.45898 4.34985 17.819 4.38985 19.659C4.38985 21.689 5.15985 22.739 8.27985 22.729C10.7698 22.719 14.6398 22.739 16.5598 22.739C18.4798 22.739 19.6198 22.119 19.6298 18.939C19.6498 15.799 19.6298 6.45898 19.6298 6.45898H18.0998L18.0398 19.049H18.0298Z" fill="black"/>
<path d="M4.56004 3.77977H8.06004C8.06004 3.77977 8.42004 3.12977 8.59004 2.71977C9.28004 1.49977 9.71004 1.25977 10.76 1.25977H13.87C15.11 1.25977 15.5 1.73977 16.06 2.99977C16.26 3.50977 16.42 3.77977 16.42 3.77977H19.55V5.44977L4.54004 5.46977L4.56004 3.77977ZM14.34 3.77977C13.92 2.59977 14.06 2.73977 12.24 2.73977C10.61 2.73977 10.8 2.54977 10.24 3.77977H14.33H14.34Z" fill="black"/>
<path d="M14.95 6.45898H13.48V18.919H14.95V6.45898Z" fill="black"/>
<path d="M10.8396 6.45898H9.36963V18.919H10.8396V6.45898Z" fill="black"/>
</svg>
