<svg width="91" height="72" viewBox="0 0 91 72" fill="none" xmlns="http://www.w3.org/2000/svg">
<path d="M53.67 24.5586V28.0786C53.68 29.5286 53.54 30.5586 51.89 30.5586H37.09C35.11 30.5586 34.52 29.7186 34.53 28.2286C34.53 26.2286 34.46 21.6286 34.53 19.3986C34.57 18.1886 34.93 16.3186 37.3 16.3086C40.82 16.3086 47.67 16.3186 47.67 16.3186V18.0086C47.79 18.0086 41.61 17.9986 37.31 17.9986C36.12 17.9986 36.05 19.0686 36.06 19.6186H50.2V21.1886H36.03C36.03 21.1886 36 22.1286 36.03 22.1286C36.4 22.1486 49.08 22.1786 51.57 22.1586C53.5 22.1486 53.69 23.2086 53.67 24.5586ZM36.02 24.2586V28.5086C36.02 28.8786 36.18 29.1886 36.55 29.1886H51.55C51.92 29.1886 52.23 28.8886 52.23 28.5086L52.19 24.2286C52.19 23.8486 51.92 23.6186 51.55 23.6286L36.55 23.5886C36.18 23.5886 36.02 23.8886 36.02 24.2686V24.2586Z" fill="black"/>
<path d="M56.51 16.3086H49.13V18.0386H56.51V16.3086Z" fill="black"/>
<path d="M53.68 20.8292V13.4492H51.95V20.8292H53.68Z" fill="black"/>
<path d="M50.79 24.4492H43.61V25.6892H50.79V24.4492Z" fill="black"/>
<path d="M48.4 27.1602H43.61V28.4002H48.4V27.1602Z" fill="black"/>
<path d="M37.59 25.1292V27.7192C37.59 28.0892 37.89 28.3992 38.27 28.3992H40.86C41.23 28.3992 41.54 28.0992 41.54 27.7192V25.1292C41.54 24.7592 41.24 24.4492 40.86 24.4492H38.27C37.9 24.4492 37.59 24.7492 37.59 25.1292ZM40.3 27.1592H38.83V25.6892H40.3V27.1592Z" fill="black"/>
<path d="M9.94 58.338L11.746 57.75C12.1567 57.6007 12.474 57.3767 12.698 57.078C12.9313 56.7887 13.048 56.4247 13.048 55.986V51.352H14.308V55.86C14.308 56.588 14.1073 57.218 13.706 57.75C13.3047 58.2913 12.768 58.6787 12.096 58.912L10.318 59.528L9.94 58.338ZM18.4231 56C18.0031 56 17.6158 55.8973 17.2611 55.692C16.9065 55.4867 16.6265 55.2113 16.4211 54.866C16.2158 54.5113 16.1131 54.124 16.1131 53.704V46.592H17.3731V53.676C17.3731 53.9187 17.4525 54.124 17.6111 54.292C17.7698 54.4507 17.9658 54.53 18.1991 54.53H18.8991C18.9551 54.53 19.0018 54.5533 19.0391 54.6C19.0765 54.6373 19.0951 54.684 19.0951 54.74V55.804C19.0951 55.9347 19.0298 56 18.8991 56H18.4231ZM18.8945 56C18.8385 56 18.7919 55.986 18.7545 55.958C18.7172 55.9207 18.6985 55.8693 18.6985 55.804V54.74C18.6985 54.684 18.7219 54.6373 18.7685 54.6C18.8059 54.5533 18.8479 54.53 18.8945 54.53H19.9445C20.4579 54.53 20.7705 54.278 20.8825 53.774L21.3725 51.38L22.5905 51.618L22.1985 53.592C22.1892 53.6293 22.1845 53.69 22.1845 53.774C22.1845 53.998 22.2592 54.18 22.4085 54.32C22.5579 54.46 22.7539 54.53 22.9965 54.53H23.9485C24.0045 54.53 24.0512 54.5533 24.0885 54.6C24.1259 54.6373 24.1445 54.684 24.1445 54.74V55.804C24.1445 55.86 24.1259 55.9067 24.0885 55.944C24.0512 55.9813 24.0045 56 23.9485 56H22.9825C22.6465 56 22.3432 55.9253 22.0725 55.776C21.8112 55.6267 21.6152 55.412 21.4845 55.132C21.3352 55.4027 21.1112 55.6173 20.8125 55.776C20.5139 55.9253 20.2012 56 19.8745 56H18.8945ZM20.7145 57.68H22.1005L22.1145 59.094H20.7145V57.68ZM23.9531 56C23.8971 56 23.8505 55.986 23.8131 55.958C23.7758 55.9207 23.7571 55.8693 23.7571 55.804V54.74C23.7571 54.684 23.7805 54.6373 23.8271 54.6C23.8645 54.5533 23.9065 54.53 23.9531 54.53H25.0031C25.5165 54.53 25.8291 54.278 25.9411 53.774L26.4311 51.38L27.6491 51.618L27.2571 53.592C27.2478 53.6293 27.2431 53.69 27.2431 53.774C27.2431 53.998 27.3178 54.18 27.4671 54.32C27.6165 54.46 27.8125 54.53 28.0551 54.53H29.0071C29.0631 54.53 29.1098 54.5533 29.1471 54.6C29.1845 54.6373 29.2031 54.684 29.2031 54.74V55.804C29.2031 55.86 29.1845 55.9067 29.1471 55.944C29.1098 55.9813 29.0631 56 29.0071 56H28.0411C27.7051 56 27.4018 55.9253 27.1311 55.776C26.8698 55.6267 26.6738 55.412 26.5431 55.132C26.3938 55.4027 26.1698 55.6173 25.8711 55.776C25.5725 55.9253 25.2598 56 24.9331 56H23.9531ZM26.9211 48.524H28.3071V49.924H26.9211V48.524ZM24.7931 48.524H26.1791V49.924H24.7931V48.524ZM30.5377 54.53C30.4911 54.4273 30.4397 54.306 30.3837 54.166C30.3277 54.026 30.2857 53.8627 30.2577 53.676L30.0477 52.5C30.0291 52.416 30.0197 52.2947 30.0197 52.136C30.0197 51.7627 30.1084 51.4267 30.2857 51.128C30.4724 50.82 30.7197 50.582 31.0277 50.414C31.3357 50.2367 31.6717 50.148 32.0357 50.148H34.3457V51.534H31.9517C31.7371 51.534 31.5597 51.618 31.4197 51.786C31.2891 51.954 31.2471 52.1453 31.2937 52.36L31.6997 54.474L34.7517 54.166L34.9617 55.482L32.7497 55.776C31.6017 55.9253 30.5237 56 29.5157 56H29.0117C28.9557 56 28.9091 55.986 28.8717 55.958C28.8344 55.9207 28.8157 55.8693 28.8157 55.804V54.726C28.8157 54.6793 28.8344 54.6373 28.8717 54.6C28.9091 54.5533 28.9557 54.53 29.0117 54.53H30.5377ZM36.6483 46.592H37.9083V56H36.6483V46.592ZM44.2924 58.45C43.7511 58.45 43.2517 58.3147 42.7944 58.044C42.3464 57.7827 41.9871 57.4233 41.7164 56.966C41.4551 56.5087 41.3244 56.0093 41.3244 55.468V51.576H42.5844V55.3C42.5844 55.7667 42.7431 56.1587 43.0604 56.476C43.3871 56.8027 43.7837 56.966 44.2504 56.966H46.7284C47.1111 56.966 47.4424 56.826 47.7224 56.546C48.0024 56.2753 48.1424 55.944 48.1424 55.552V51.352H49.3884V53.676C49.3884 53.9093 49.4724 54.11 49.6404 54.278C49.8177 54.4367 50.0184 54.516 50.2424 54.516H50.5224C51.0451 54.516 51.3531 54.2687 51.4464 53.774L51.9224 51.38L53.1684 51.618L52.7904 53.592C52.7717 53.6853 52.7624 53.7553 52.7624 53.802C52.7624 54.0073 52.8371 54.18 52.9864 54.32C53.1451 54.46 53.3411 54.53 53.5744 54.53H53.9384C54.1811 54.53 54.3817 54.4507 54.5404 54.292C54.7084 54.124 54.7924 53.9233 54.7924 53.69V50.946H56.0384V53.662C56.0384 53.914 56.1224 54.124 56.2904 54.292C56.4584 54.4507 56.6637 54.53 56.9064 54.53H57.4804C57.5364 54.53 57.5831 54.5487 57.6204 54.586C57.6577 54.6233 57.6764 54.67 57.6764 54.726V55.804C57.6764 55.86 57.6577 55.9067 57.6204 55.944C57.5831 55.9813 57.5364 56 57.4804 56H57.1164C56.3977 56 55.8284 55.7107 55.4084 55.132C55.2124 55.412 54.9604 55.6313 54.6524 55.79C54.3444 55.9393 54.0177 56.014 53.6724 56.014C53.3177 56.014 52.9957 55.944 52.7064 55.804C52.4264 55.6547 52.2117 55.4307 52.0624 55.132C51.8944 55.4213 51.6751 55.6407 51.4044 55.79C51.1337 55.93 50.8351 56 50.5084 56C50.0324 56 49.6591 55.8367 49.3884 55.51V56C49.3884 56.448 49.2624 56.8587 49.0104 57.232C48.7677 57.6053 48.4411 57.8993 48.0304 58.114C47.6197 58.338 47.1811 58.45 46.7144 58.45H44.2924ZM51.4604 46.62H52.8464V48.006H51.4604V46.62ZM50.3964 48.524H51.7824V49.924H50.3964V48.524ZM52.5244 48.524H53.9104V49.924H52.5244V48.524ZM57.4766 56C57.4206 56 57.3739 55.9813 57.3366 55.944C57.2992 55.9067 57.2806 55.86 57.2806 55.804V54.74C57.2806 54.684 57.2992 54.6373 57.3366 54.6C57.3739 54.5533 57.4206 54.53 57.4766 54.53H59.4786C59.7119 54.53 59.9126 54.446 60.0806 54.278C60.2486 54.11 60.3326 53.9093 60.3326 53.676V50.946H61.5786V53.676C61.5786 54.096 61.4759 54.4833 61.2706 54.838C61.0652 55.1927 60.7852 55.4773 60.4306 55.692C60.0759 55.8973 59.6886 56 59.2686 56H57.4766ZM59.9406 57.68H61.3266V59.08H59.9406V57.68ZM57.8126 57.68H59.1986V59.08H57.8126V57.68ZM63.2538 46.592H64.5138V56H63.2538V46.592ZM65.5178 58.296L66.5678 57.75C66.9131 57.5727 67.1745 57.3487 67.3518 57.078C67.5291 56.8073 67.6178 56.4013 67.6178 55.86V51.352H68.8638V53.732C68.8638 53.956 68.9478 54.1473 69.1158 54.306C69.2931 54.4553 69.4938 54.53 69.7178 54.53H70.2498C70.3245 54.53 70.3758 54.544 70.4038 54.572C70.4318 54.5907 70.4458 54.6373 70.4458 54.712V55.804C70.4458 55.8787 70.4318 55.93 70.4038 55.958C70.3758 55.986 70.3245 56 70.2498 56H69.9278C69.7225 56 69.5218 55.958 69.3258 55.874C69.1391 55.79 68.9851 55.664 68.8638 55.496V56.028C68.8638 56.7373 68.7191 57.302 68.4298 57.722C68.1498 58.142 67.7251 58.506 67.1558 58.814L66.0918 59.416L65.5178 58.296ZM67.5758 48.496H68.9618V49.882H67.5758V48.496ZM70.2461 56C70.1901 56 70.1434 55.9813 70.1061 55.944C70.0688 55.8973 70.0501 55.846 70.0501 55.79V54.726C70.0501 54.6793 70.0688 54.6373 70.1061 54.6C70.1434 54.5533 70.1901 54.53 70.2461 54.53H73.8581C74.1194 54.53 74.3341 54.4553 74.5021 54.306C74.6794 54.1567 74.7681 53.9373 74.7681 53.648V53.382C74.5161 53.466 74.2174 53.508 73.8721 53.508H72.9621C72.5888 53.508 72.2481 53.4193 71.9401 53.242C71.6321 53.0553 71.3894 52.808 71.2121 52.5C71.0348 52.192 70.9461 51.856 70.9461 51.492C70.9461 51.324 70.9554 51.198 70.9741 51.114L71.1841 49.966C71.2774 49.49 71.5108 49.098 71.8841 48.79C72.2574 48.482 72.6868 48.328 73.1721 48.328H73.9141C74.2968 48.328 74.6468 48.426 74.9641 48.622C75.2814 48.8087 75.5334 49.0653 75.7201 49.392C75.9068 49.7093 76.0001 50.0593 76.0001 50.442V53.662C76.0001 54.0913 75.8928 54.4833 75.6781 54.838C75.4728 55.1927 75.1928 55.4773 74.8381 55.692C74.4834 55.8973 74.0961 56 73.6761 56H70.2461ZM74.7821 52.08V50.428C74.7821 50.232 74.7121 50.064 74.5721 49.924C74.4321 49.784 74.2641 49.714 74.0681 49.714H73.0881C72.9108 49.714 72.7568 49.77 72.6261 49.882C72.4954 49.994 72.4114 50.1387 72.3741 50.316L72.1921 51.338C72.1828 51.366 72.1781 51.4033 72.1781 51.45C72.1781 51.6273 72.2388 51.7767 72.3601 51.898C72.4814 52.0193 72.6261 52.08 72.7941 52.08H74.7821ZM72.9061 45.472H74.2921V46.858H72.9061V45.472ZM77.6639 46.592H78.9239V56H77.6639V46.592Z" fill="black"/>
</svg>
