<svg width="76" height="72" viewBox="0 0 76 72" fill="none" xmlns="http://www.w3.org/2000/svg">
<path d="M48.18 29.3298H27.88C27.85 27.6998 27.85 26.1098 27.82 24.9898C27.81 24.4998 27.95 24.1398 28.31 23.7998C29.07 23.0798 29.79 22.3198 30.54 21.5998C30.93 21.2198 30.97 21.0598 30.97 20.4998C30.97 19.4998 30.95 18.4798 30.97 17.4698C30.98 13.5598 34.18 10.7798 37.97 10.6898C41.8 10.5998 45.31 13.2098 45.29 17.0898C45.31 18.2898 45.34 19.4598 45.31 20.6398C45.3 21.1698 45.46 21.5598 45.85 21.9198C46.51 22.5398 47.15 23.1798 47.77 23.8398C47.97 24.0498 48.17 24.3598 48.18 24.6298C48.2 26.2098 48.2 27.6898 48.2 29.3298H48.18ZM46.28 27.3598C46.28 26.8498 46.28 26.4898 46.28 26.0498C46.23 25.0398 46.15 24.9698 45.62 24.4398C45.01 23.8698 44.59 23.4398 44.05 22.9098C43.51 22.4398 43.28 21.9098 43.31 21.1798C43.37 19.9298 43.34 18.6698 43.35 17.4198C43.35 17.1398 43.38 16.8498 43.3 16.5898C42.25 13.2398 39.17 11.6598 35.87 13.0798C33.85 13.9498 32.94 15.6598 32.91 17.8398C32.89 18.9898 32.9 20.1398 32.92 21.2898C32.93 21.7398 32.8 22.1198 32.47 22.4298C31.69 23.1798 30.93 23.8998 30.18 24.6798C30 24.8698 29.78 25.1198 29.76 25.3598C29.7 25.9998 29.74 26.6498 29.74 27.3398H46.26L46.28 27.3598Z" fill="black"/>
<path d="M33.69 30.3906C34.48 30.3906 35.3 30.3906 35.77 30.3906C35.77 30.3906 36.05 30.8206 36.25 31.0106C37.06 31.8806 38.72 31.9106 39.65 31.0606C40.07 30.6606 40.11 30.4306 40.11 30.4306C40.73 30.4306 41.4 30.4306 42.16 30.4606C41.91 31.8206 40.33 33.0706 38.66 33.2806C36.47 33.5606 34.41 32.3506 33.69 30.4006V30.3906Z" fill="black"/>
<path d="M13.22 56C12.8 56 12.4127 55.8973 12.058 55.692C11.7033 55.4867 11.4233 55.2113 11.218 54.866C11.0127 54.5113 10.91 54.124 10.91 53.704V46.592H12.17V53.676C12.17 53.9187 12.2493 54.124 12.408 54.292C12.5667 54.4507 12.7627 54.53 12.996 54.53H13.696C13.752 54.53 13.7987 54.5533 13.836 54.6C13.8733 54.6373 13.892 54.684 13.892 54.74V55.804C13.892 55.9347 13.8267 56 13.696 56H13.22ZM19.2214 55.44C18.9974 55.636 18.8014 55.7807 18.6334 55.874C18.4654 55.958 18.2134 56 17.8774 56H13.6914C13.6354 56 13.5887 55.9813 13.5514 55.944C13.5141 55.9067 13.4954 55.8647 13.4954 55.818V54.712C13.4954 54.656 13.5141 54.614 13.5514 54.586C13.5887 54.5487 13.6354 54.53 13.6914 54.53H15.0914C14.9141 54.4087 14.8254 54.1847 14.8254 53.858C14.8254 53.7367 14.8394 53.606 14.8674 53.466L15.0494 52.542C15.1427 52.0753 15.3714 51.6927 15.7354 51.394C16.0994 51.086 16.5147 50.9367 16.9814 50.946L17.5414 50.96C17.9241 50.96 18.2694 51.0533 18.5774 51.24C18.8947 51.4267 19.1421 51.6787 19.3194 51.996C19.5061 52.304 19.5994 52.6447 19.5994 53.018V54.53H21.6994V52.822C21.6994 52.57 21.6294 52.3553 21.4894 52.178C21.3587 51.9913 21.1767 51.8607 20.9434 51.786L16.1554 50.288L16.5334 49.042L21.1674 50.47C21.6901 50.638 22.1147 50.9367 22.4414 51.366C22.7774 51.786 22.9454 52.2807 22.9454 52.85V54.46C22.9454 54.9173 22.8007 55.2907 22.5114 55.58C22.2221 55.86 21.8487 56 21.3914 56H19.2214V55.44ZM18.3954 52.836C18.3954 52.64 18.3301 52.4767 18.1994 52.346C18.0687 52.2153 17.9007 52.15 17.6954 52.15H16.9254C16.5614 52.15 16.3374 52.3413 16.2534 52.724L16.0434 53.9C16.0341 53.9373 16.0294 53.984 16.0294 54.04C16.0294 54.2173 16.0854 54.3573 16.1974 54.46C16.3187 54.5533 16.4681 54.6 16.6454 54.6H18.3954V52.836ZM32.2542 56C31.8249 56 31.4375 55.8927 31.0922 55.678C30.7562 55.4633 30.4949 55.1553 30.3082 54.754C30.0282 54.8847 29.7062 54.95 29.3422 54.95H27.8862C27.4289 54.95 27.0555 54.81 26.7662 54.53C26.4769 54.2407 26.3322 53.8673 26.3322 53.41V52.5C26.3322 51.9213 26.4955 51.422 26.8222 51.002C27.1582 50.5727 27.5922 50.2927 28.1242 50.162L30.0002 49.714V48.594H31.2462V53.592C31.2462 53.8533 31.3349 54.0773 31.5122 54.264C31.6989 54.4413 31.9462 54.53 32.2542 54.53H32.6742C32.8049 54.53 32.8702 54.5953 32.8702 54.726V55.804C32.8702 55.8693 32.8515 55.9207 32.8142 55.958C32.7769 55.986 32.7302 56 32.6742 56H32.2542ZM30.0142 53.48V51.03L28.4322 51.422C27.8722 51.562 27.5922 51.9447 27.5922 52.57V53.48H30.0142ZM32.668 56C32.612 56 32.5653 55.986 32.528 55.958C32.4906 55.9207 32.472 55.8693 32.472 55.804V54.74C32.472 54.684 32.4953 54.6373 32.542 54.6C32.5793 54.5533 32.6213 54.53 32.668 54.53H33.718C34.2313 54.53 34.544 54.278 34.656 53.774L35.146 51.38L36.364 51.618L35.972 53.592C35.9626 53.6293 35.958 53.69 35.958 53.774C35.958 53.998 36.0326 54.18 36.182 54.32C36.3313 54.46 36.5273 54.53 36.77 54.53H37.722C37.778 54.53 37.8246 54.5533 37.862 54.6C37.8993 54.6373 37.918 54.684 37.918 54.74V55.804C37.918 55.86 37.8993 55.9067 37.862 55.944C37.8246 55.9813 37.778 56 37.722 56H36.756C36.42 56 36.1166 55.9253 35.846 55.776C35.5846 55.6267 35.3886 55.412 35.258 55.132C35.1086 55.4027 34.8846 55.6173 34.586 55.776C34.2873 55.9253 33.9746 56 33.648 56H32.668ZM35.566 57.68H36.952V59.08H35.566V57.68ZM33.438 57.68H34.824V59.08H33.438V57.68ZM39.2526 54.53C39.2059 54.4273 39.1546 54.306 39.0986 54.166C39.0426 54.026 39.0006 53.8627 38.9726 53.676L38.7626 52.5C38.7439 52.416 38.7346 52.2947 38.7346 52.136C38.7346 51.7627 38.8232 51.4267 39.0006 51.128C39.1872 50.82 39.4346 50.582 39.7426 50.414C40.0506 50.2367 40.3866 50.148 40.7506 50.148H43.0606V51.534H40.6666C40.4519 51.534 40.2746 51.618 40.1346 51.786C40.0039 51.954 39.9619 52.1453 40.0086 52.36L40.4146 54.474L43.4666 54.166L43.6766 55.482L41.4646 55.776C40.3166 55.9253 39.2386 56 38.2306 56H37.7266C37.6706 56 37.6239 55.986 37.5866 55.958C37.5492 55.9207 37.5306 55.8693 37.5306 55.804V54.726C37.5306 54.6793 37.5492 54.6373 37.5866 54.6C37.6239 54.5533 37.6706 54.53 37.7266 54.53H39.2526ZM51.2011 53.55C51.2011 53.886 51.2898 54.1333 51.4671 54.292C51.6538 54.4507 51.8965 54.53 52.1951 54.53H52.7831C52.9138 54.53 52.9791 54.5953 52.9791 54.726V55.804C52.9791 55.86 52.9605 55.9067 52.9231 55.944C52.8858 55.9813 52.8391 56 52.7831 56H52.2511C51.7471 56 51.3131 55.8227 50.9491 55.468C50.5945 55.1133 50.4171 54.6187 50.4171 53.984L51.2011 53.55ZM45.0831 55.076L46.6091 54.88L45.9231 47.782L47.1831 47.6L47.7291 53.662C47.7385 53.7553 47.7431 53.872 47.7431 54.012C47.7431 54.18 47.7058 54.4227 47.6311 54.74L49.0171 54.558C49.2971 54.5113 49.5211 54.3947 49.6891 54.208C49.8665 54.012 49.9551 53.7693 49.9551 53.48V46.592H51.2011V53.424C51.2011 54.0587 51.0098 54.6 50.6271 55.048C50.2445 55.4867 49.7451 55.7527 49.1291 55.846L45.2511 56.406L45.0831 55.076ZM52.7793 56C52.6486 56 52.5833 55.9347 52.5833 55.804V54.726C52.5833 54.67 52.602 54.6233 52.6393 54.586C52.6673 54.5487 52.714 54.53 52.7793 54.53H53.6893L55.2013 52.906V46.592H56.4473V50.722C56.4473 50.9647 56.424 51.1653 56.3773 51.324C56.34 51.4733 56.2793 51.6507 56.1953 51.856L56.8113 51.296C57.0353 51.0907 57.2826 50.9413 57.5533 50.848C57.8333 50.7547 58.16 50.708 58.5333 50.708H59.4013C59.784 50.708 60.1386 50.806 60.4653 51.002C60.792 51.1887 61.0486 51.4453 61.2353 51.772C61.4313 52.0987 61.5293 52.4533 61.5293 52.836V53.746C61.5293 54.1473 61.4266 54.5207 61.2213 54.866C61.0253 55.2113 60.7546 55.4867 60.4093 55.692C60.064 55.8973 59.686 56 59.2753 56H52.7793ZM59.4713 54.53C59.6953 54.53 59.882 54.4553 60.0313 54.306C60.19 54.1473 60.2693 53.9607 60.2693 53.746V52.934C60.2693 52.7007 60.19 52.5047 60.0313 52.346C59.882 52.1873 59.6953 52.108 59.4713 52.108H58.3933C57.852 52.108 57.404 52.304 57.0493 52.696L55.3413 54.53H59.4713ZM63.1776 46.592H64.4376V56H63.1776V46.592Z" fill="black"/>
</svg>
